G75*
G70*
%OFA0B0*%
%FSLAX24Y24*%
%IPPOS*%
%LPD*%
%AMOC8*
5,1,8,0,0,1.08239X$1,22.5*
%
%ADD10R,0.2441X0.1063*%
%ADD11R,0.0866X0.0236*%
%ADD12R,0.0591X0.0157*%
%ADD13R,0.0394X0.0433*%
%ADD14R,0.0433X0.0394*%
%ADD15R,0.0560X0.0170*%
%ADD16R,0.0250X0.0500*%
%ADD17C,0.0040*%
%ADD18R,0.0197X0.0787*%
D10*
X002500Y027270D03*
X002500Y030530D03*
X009300Y030530D03*
X009300Y027270D03*
D11*
X018476Y022550D03*
X018476Y022050D03*
X018476Y021550D03*
X018476Y021050D03*
X020524Y021050D03*
X020524Y021550D03*
X020524Y022050D03*
X020524Y022550D03*
D12*
X015273Y010648D03*
X015273Y010904D03*
X015273Y011160D03*
X015273Y011416D03*
X015273Y011672D03*
X015273Y011928D03*
X015273Y012184D03*
X015273Y012440D03*
X015273Y012696D03*
X015273Y012952D03*
X018127Y012952D03*
X018127Y012696D03*
X018127Y012440D03*
X018127Y012184D03*
X018127Y011928D03*
X018127Y011672D03*
X018127Y011416D03*
X018127Y011160D03*
X018127Y010904D03*
X018127Y010648D03*
D13*
X015300Y013965D03*
X015300Y014635D03*
D14*
X020165Y012200D03*
X020835Y012200D03*
X021035Y010400D03*
X020365Y010400D03*
D15*
X030140Y006980D03*
X030140Y006730D03*
X030140Y006470D03*
X030140Y006220D03*
X031860Y006220D03*
X031860Y006470D03*
X031860Y006730D03*
X031860Y006980D03*
D16*
X038400Y028940D03*
X038810Y028940D03*
X039210Y028940D03*
X039600Y028940D03*
D17*
X027290Y030300D02*
X027290Y030660D01*
X027450Y030660D01*
X027450Y030300D01*
X027290Y030300D01*
X027290Y030339D02*
X027450Y030339D01*
X027450Y030378D02*
X027290Y030378D01*
X027290Y030417D02*
X027450Y030417D01*
X027450Y030456D02*
X027290Y030456D01*
X027290Y030495D02*
X027450Y030495D01*
X027450Y030534D02*
X027290Y030534D01*
X027290Y030573D02*
X027450Y030573D01*
X027450Y030612D02*
X027290Y030612D01*
X027290Y030651D02*
X027450Y030651D01*
X026290Y030660D02*
X026290Y030300D01*
X026290Y030660D02*
X026450Y030660D01*
X026450Y030300D01*
X026290Y030300D01*
X026290Y030339D02*
X026450Y030339D01*
X026450Y030378D02*
X026290Y030378D01*
X026290Y030417D02*
X026450Y030417D01*
X026450Y030456D02*
X026290Y030456D01*
X026290Y030495D02*
X026450Y030495D01*
X026450Y030534D02*
X026290Y030534D01*
X026290Y030573D02*
X026450Y030573D01*
X026450Y030612D02*
X026290Y030612D01*
X026290Y030651D02*
X026450Y030651D01*
D18*
X031070Y032094D03*
X031385Y032094D03*
X031700Y032094D03*
X032015Y032094D03*
X032330Y032094D03*
M02*
