G75*
G70*
%OFA0B0*%
%FSLAX24Y24*%
%IPPOS*%
%LPD*%
%AMOC8*
5,1,8,0,0,1.08239X$1,22.5*
%
%ADD10OC8,0.0560*%
%ADD11C,0.0600*%
%ADD12C,0.0650*%
%ADD13C,0.0787*%
%ADD14OC8,0.0700*%
%ADD15C,0.0594*%
%ADD16C,0.0634*%
%ADD17C,0.0700*%
%ADD18C,0.0740*%
%ADD19OC8,0.0740*%
%ADD20C,0.0555*%
%ADD21C,0.0325*%
%ADD22C,0.0160*%
%ADD23C,0.0100*%
%ADD24C,0.0436*%
D10*
X012400Y005600D03*
X013400Y005600D03*
X016000Y008200D03*
X017000Y008200D03*
X019100Y005600D03*
X020100Y005600D03*
X018500Y002700D03*
X017500Y002700D03*
X015800Y002700D03*
X014800Y002700D03*
X010100Y009900D03*
X009100Y009900D03*
X007400Y009900D03*
X006400Y009900D03*
X009100Y011500D03*
X010100Y011500D03*
X009800Y012500D03*
X009800Y013500D03*
X009800Y014400D03*
X009800Y015400D03*
X007600Y015400D03*
X007600Y014400D03*
X005700Y016700D03*
X005700Y017700D03*
X006000Y019400D03*
X007000Y019400D03*
X007900Y019400D03*
X008900Y019400D03*
X008900Y020600D03*
X008900Y021600D03*
X008900Y022700D03*
X008900Y023700D03*
X007000Y021800D03*
X006000Y021800D03*
X002000Y021400D03*
X002000Y020400D03*
X002000Y019300D03*
X002000Y018300D03*
X002000Y017100D03*
X002000Y016100D03*
X002100Y014900D03*
X002100Y013900D03*
X013000Y022900D03*
X014000Y022900D03*
X015400Y024700D03*
X015400Y025700D03*
X013800Y026900D03*
X012800Y026900D03*
X015300Y029000D03*
X015300Y030000D03*
X013700Y029300D03*
X012700Y029300D03*
X017600Y029000D03*
X017600Y030000D03*
X022000Y021600D03*
X023000Y021600D03*
X023000Y019400D03*
X022000Y019400D03*
X018600Y019500D03*
X017600Y019500D03*
X017700Y017300D03*
X018700Y017300D03*
D11*
X016900Y021000D02*
X016300Y021000D01*
X016300Y022000D02*
X016900Y022000D01*
X013900Y024800D02*
X013900Y025400D01*
X012900Y025400D02*
X012900Y024800D01*
X010900Y023700D02*
X010300Y023700D01*
X010300Y022700D02*
X010900Y022700D01*
X010900Y021600D02*
X010300Y021600D01*
X010300Y020600D02*
X010900Y020600D01*
X007500Y017700D02*
X006900Y017700D01*
X006900Y016700D02*
X007500Y016700D01*
X004400Y017100D02*
X003800Y017100D01*
X003800Y018100D02*
X004400Y018100D01*
X004400Y019400D02*
X003800Y019400D01*
X003800Y020400D02*
X004400Y020400D01*
X004500Y022200D02*
X003900Y022200D01*
X003900Y023200D02*
X004500Y023200D01*
X006000Y023300D02*
X006000Y023900D01*
X007000Y023900D02*
X007000Y023300D01*
X007000Y025400D02*
X007000Y026000D01*
X006000Y026000D02*
X006000Y025400D01*
X009200Y031900D02*
X009800Y031900D01*
X009800Y032900D02*
X009200Y032900D01*
X002400Y032900D02*
X001800Y032900D01*
X001800Y031900D02*
X002400Y031900D01*
X016600Y027500D02*
X016600Y026900D01*
X017600Y026900D02*
X017600Y027500D01*
X004400Y015700D02*
X003800Y015700D01*
X003800Y014700D02*
X004400Y014700D01*
X006400Y012500D02*
X006400Y011900D01*
X007400Y011900D02*
X007400Y012500D01*
D12*
X015200Y005600D03*
X017200Y005600D03*
D13*
X022200Y005900D03*
X022200Y007400D03*
X022200Y008900D03*
X022200Y010400D03*
X022200Y011900D03*
X022200Y013400D03*
X022200Y015000D03*
X022200Y016500D03*
X011600Y016500D03*
X011600Y015100D03*
X011600Y013600D03*
X011600Y012200D03*
X011600Y010700D03*
X011600Y009200D03*
D14*
X031300Y002100D03*
X032300Y002100D03*
X033300Y002100D03*
X034300Y002100D03*
X035300Y002100D03*
X036300Y002100D03*
X037300Y002100D03*
X038300Y002100D03*
X039300Y002100D03*
X040300Y002100D03*
D15*
X034854Y010156D03*
X034854Y010943D03*
X034854Y011730D03*
X034066Y011730D03*
X034066Y010943D03*
X034066Y010156D03*
X034066Y012518D03*
X034066Y013305D03*
X034854Y013305D03*
X034854Y012518D03*
X034854Y014093D03*
X034854Y014880D03*
X034854Y015667D03*
X034066Y015667D03*
X034066Y014880D03*
X034066Y014093D03*
X034066Y016455D03*
X034066Y017242D03*
X034854Y017242D03*
X034854Y016455D03*
X034854Y018030D03*
X034854Y018817D03*
X034854Y019604D03*
X034066Y019604D03*
X034066Y018817D03*
X034066Y018030D03*
D16*
X014800Y032183D02*
X014800Y032817D01*
X013800Y032817D02*
X013800Y032183D01*
X012800Y032183D02*
X012800Y032817D01*
X007000Y028217D02*
X007000Y027583D01*
X006000Y027583D02*
X006000Y028217D01*
X005000Y028217D02*
X005000Y027583D01*
X003000Y024717D02*
X003000Y024083D01*
X002000Y024083D02*
X002000Y024717D01*
D17*
X004900Y031650D02*
X004900Y032350D01*
X006900Y032350D02*
X006900Y031650D01*
D18*
X024900Y021000D03*
X024900Y020000D03*
X024900Y019000D03*
X024900Y018000D03*
X024900Y017000D03*
X024900Y016000D03*
X024900Y015000D03*
X024900Y014000D03*
X024900Y012000D03*
X024900Y011000D03*
X024900Y010000D03*
X024900Y009000D03*
X024900Y008000D03*
X024900Y007000D03*
X043900Y007000D03*
X043900Y008000D03*
X043900Y009000D03*
X043900Y010000D03*
X043900Y011000D03*
X043900Y012000D03*
X043900Y013000D03*
X043900Y014000D03*
X043900Y015600D03*
X043900Y016600D03*
X043900Y017600D03*
X043900Y018600D03*
X043900Y019600D03*
X043900Y020600D03*
X043900Y021600D03*
X043900Y022600D03*
X043900Y023600D03*
X043900Y024600D03*
D19*
X035900Y006950D03*
X034900Y006950D03*
X033900Y006950D03*
X033900Y005950D03*
X034900Y005950D03*
X035900Y005950D03*
D20*
X033137Y031915D02*
X033137Y032470D01*
X033137Y034002D02*
X033137Y034557D01*
X030263Y034557D02*
X030263Y034002D01*
X030263Y032470D02*
X030263Y031915D01*
D21*
X021300Y023000D03*
X014800Y017500D03*
X014500Y016500D03*
X019100Y011900D03*
X021000Y009400D03*
X019100Y008200D03*
X021000Y005100D03*
X022900Y004600D03*
X023300Y006000D03*
X026100Y007200D03*
X028700Y006600D03*
X029400Y006200D03*
X030020Y007500D03*
X028700Y008300D03*
X030000Y009000D03*
X031800Y007500D03*
X035700Y008300D03*
X036900Y009000D03*
X035600Y011700D03*
X036900Y013300D03*
X033100Y017500D03*
X031900Y020000D03*
X025700Y013500D03*
X023300Y014900D03*
X015200Y010200D03*
X014400Y010600D03*
X014300Y011100D03*
D22*
X000700Y000600D02*
X000700Y033900D01*
X029864Y033900D01*
X029918Y033771D01*
X030032Y033657D01*
X030182Y033595D01*
X030344Y033595D01*
X030494Y033657D01*
X030608Y033771D01*
X030662Y033900D01*
X032738Y033900D01*
X032792Y033771D01*
X032906Y033657D01*
X033056Y033595D01*
X033218Y033595D01*
X033368Y033657D01*
X033482Y033771D01*
X033536Y033900D01*
X045600Y033900D01*
X045600Y000600D01*
X000700Y000600D01*
X000700Y000734D02*
X045600Y000734D01*
X045600Y000893D02*
X000700Y000893D01*
X000700Y001051D02*
X045600Y001051D01*
X045600Y001210D02*
X000700Y001210D01*
X000700Y001368D02*
X045600Y001368D01*
X045600Y001527D02*
X000700Y001527D01*
X000700Y001685D02*
X031036Y001685D01*
X031101Y001620D02*
X031499Y001620D01*
X031780Y001901D01*
X031780Y002299D01*
X031499Y002580D01*
X031101Y002580D01*
X030820Y002299D01*
X030820Y001901D01*
X031101Y001620D01*
X030878Y001844D02*
X000700Y001844D01*
X000700Y002002D02*
X030820Y002002D01*
X030820Y002161D02*
X000700Y002161D01*
X000700Y002319D02*
X014601Y002319D01*
X014630Y002290D02*
X014970Y002290D01*
X015210Y002530D01*
X015210Y002870D01*
X014970Y003110D01*
X014630Y003110D01*
X014390Y002870D01*
X014390Y002530D01*
X014630Y002290D01*
X014443Y002478D02*
X000700Y002478D01*
X000700Y002636D02*
X014390Y002636D01*
X014390Y002795D02*
X000700Y002795D01*
X000700Y002953D02*
X014473Y002953D01*
X015127Y002953D02*
X015473Y002953D01*
X015390Y002870D02*
X015630Y003110D01*
X015970Y003110D01*
X016210Y002870D01*
X016210Y002530D01*
X015970Y002290D01*
X015630Y002290D01*
X015390Y002530D01*
X015390Y002870D01*
X015390Y002795D02*
X015210Y002795D01*
X015210Y002636D02*
X015390Y002636D01*
X015443Y002478D02*
X015157Y002478D01*
X014999Y002319D02*
X015601Y002319D01*
X015999Y002319D02*
X017301Y002319D01*
X017330Y002290D02*
X017670Y002290D01*
X017910Y002530D01*
X017910Y002870D01*
X017670Y003110D01*
X017330Y003110D01*
X017090Y002870D01*
X017090Y002530D01*
X017330Y002290D01*
X017143Y002478D02*
X016157Y002478D01*
X016210Y002636D02*
X017090Y002636D01*
X017090Y002795D02*
X016210Y002795D01*
X016127Y002953D02*
X017173Y002953D01*
X017827Y002953D02*
X018173Y002953D01*
X018090Y002870D02*
X018330Y003110D01*
X018670Y003110D01*
X018910Y002870D01*
X018910Y002530D01*
X018670Y002290D01*
X018330Y002290D01*
X018090Y002530D01*
X018090Y002870D01*
X018090Y002795D02*
X017910Y002795D01*
X017910Y002636D02*
X018090Y002636D01*
X018143Y002478D02*
X017857Y002478D01*
X017699Y002319D02*
X018301Y002319D01*
X018699Y002319D02*
X030840Y002319D01*
X030999Y002478D02*
X018857Y002478D01*
X018910Y002636D02*
X033909Y002636D01*
X034033Y002512D02*
X033820Y002299D01*
X033820Y001901D01*
X034101Y001620D01*
X034499Y001620D01*
X034780Y001901D01*
X034780Y002299D01*
X034617Y002462D01*
X034975Y002820D01*
X035080Y002925D01*
X035080Y005450D01*
X035107Y005450D01*
X035400Y005743D01*
X035400Y006157D01*
X035107Y006450D01*
X034693Y006450D01*
X034400Y006157D01*
X034107Y006450D01*
X033693Y006450D01*
X033400Y006157D01*
X033400Y005743D01*
X033693Y005450D01*
X034107Y005450D01*
X034400Y005743D01*
X034400Y006157D01*
X034400Y005743D01*
X034693Y005450D01*
X034720Y005450D01*
X034720Y003075D01*
X034350Y002705D01*
X033275Y003780D01*
X028137Y003780D01*
X028197Y003805D01*
X028295Y003903D01*
X028348Y004031D01*
X028348Y004169D01*
X028295Y004297D01*
X028197Y004395D01*
X028180Y004402D01*
X028180Y017788D01*
X028195Y017803D01*
X028248Y017931D01*
X028248Y018069D01*
X028195Y018197D01*
X028097Y018295D01*
X027969Y018348D01*
X027831Y018348D01*
X027703Y018295D01*
X027605Y018197D01*
X027552Y018069D01*
X027552Y017931D01*
X027605Y017803D01*
X027703Y017705D01*
X027820Y017656D01*
X027820Y004402D01*
X027803Y004395D01*
X027705Y004297D01*
X027652Y004169D01*
X027652Y004031D01*
X027705Y003903D01*
X027803Y003805D01*
X027863Y003780D01*
X024782Y003780D01*
X024180Y004468D01*
X024180Y015575D01*
X024075Y015680D01*
X023075Y016680D01*
X022692Y016680D01*
X022644Y016797D01*
X022497Y016944D01*
X022304Y017024D01*
X022096Y017024D01*
X021903Y016944D01*
X021756Y016797D01*
X021676Y016604D01*
X021676Y016396D01*
X021756Y016203D01*
X021903Y016056D01*
X022096Y015976D01*
X022304Y015976D01*
X022497Y016056D01*
X022644Y016203D01*
X022692Y016320D01*
X022925Y016320D01*
X023820Y015425D01*
X023820Y004406D01*
X023815Y004338D01*
X023820Y004332D01*
X023820Y004325D01*
X023868Y004277D01*
X024520Y003532D01*
X024520Y003525D01*
X024568Y003477D01*
X024614Y003425D01*
X024621Y003425D01*
X024625Y003420D01*
X024694Y003420D01*
X024762Y003415D01*
X024768Y003420D01*
X033125Y003420D01*
X034033Y002512D01*
X033999Y002478D02*
X033601Y002478D01*
X033499Y002580D02*
X033101Y002580D01*
X032820Y002299D01*
X032820Y001901D01*
X033101Y001620D01*
X033499Y001620D01*
X033780Y001901D01*
X033780Y002299D01*
X033499Y002580D01*
X033751Y002795D02*
X018910Y002795D01*
X018827Y002953D02*
X033592Y002953D01*
X033434Y003112D02*
X000700Y003112D01*
X000700Y003270D02*
X033275Y003270D01*
X033468Y003587D02*
X034720Y003587D01*
X034720Y003429D02*
X033626Y003429D01*
X033785Y003270D02*
X034720Y003270D01*
X034720Y003112D02*
X033943Y003112D01*
X034102Y002953D02*
X034598Y002953D01*
X034440Y002795D02*
X034260Y002795D01*
X034632Y002478D02*
X034999Y002478D01*
X035101Y002580D02*
X034820Y002299D01*
X034820Y001901D01*
X035101Y001620D01*
X035499Y001620D01*
X035780Y001901D01*
X035780Y002299D01*
X035499Y002580D01*
X035480Y002580D01*
X035480Y004325D01*
X035975Y004820D01*
X036445Y004820D01*
X036462Y004809D01*
X036518Y004820D01*
X036575Y004820D01*
X036589Y004834D01*
X036608Y004838D01*
X036640Y004885D01*
X036680Y004925D01*
X036680Y004946D01*
X036820Y005156D01*
X036820Y002875D01*
X036512Y002567D01*
X036499Y002580D01*
X036101Y002580D01*
X035820Y002299D01*
X035820Y001901D01*
X036101Y001620D01*
X036499Y001620D01*
X036780Y001901D01*
X036780Y002299D01*
X036767Y002312D01*
X037180Y002725D01*
X037180Y005752D01*
X037256Y005570D01*
X037470Y005356D01*
X037749Y005240D01*
X038051Y005240D01*
X038330Y005356D01*
X038544Y005570D01*
X038660Y005849D01*
X038660Y006151D01*
X038544Y006430D01*
X038330Y006644D01*
X038051Y006760D01*
X037749Y006760D01*
X037470Y006644D01*
X037256Y006430D01*
X037180Y006248D01*
X037180Y006975D01*
X037075Y007080D01*
X036275Y007880D01*
X035525Y007880D01*
X035420Y007775D01*
X035095Y007450D01*
X034693Y007450D01*
X034400Y007157D01*
X034107Y007450D01*
X033693Y007450D01*
X033400Y007157D01*
X033400Y006743D01*
X033693Y006450D01*
X034107Y006450D01*
X034400Y006743D01*
X034400Y007157D01*
X034400Y006743D01*
X034693Y006450D01*
X035107Y006450D01*
X035400Y006743D01*
X035400Y007157D01*
X035356Y007201D01*
X035675Y007520D01*
X036125Y007520D01*
X036820Y006825D01*
X036820Y006285D01*
X036381Y006724D01*
X036400Y006743D01*
X036400Y007157D01*
X036107Y007450D01*
X035693Y007450D01*
X035400Y007157D01*
X035400Y006743D01*
X035693Y006450D01*
X035400Y006157D01*
X035400Y005743D01*
X035693Y005450D01*
X036107Y005450D01*
X036400Y005743D01*
X036400Y006157D01*
X036107Y006450D01*
X035693Y006450D01*
X036107Y006450D01*
X036126Y006469D01*
X036520Y006075D01*
X036520Y005354D01*
X036404Y005180D01*
X035825Y005180D01*
X035720Y005075D01*
X035120Y004475D01*
X035120Y002580D01*
X035101Y002580D01*
X035120Y002636D02*
X034791Y002636D01*
X034949Y002795D02*
X035120Y002795D01*
X035120Y002953D02*
X035080Y002953D01*
X035080Y003112D02*
X035120Y003112D01*
X035120Y003270D02*
X035080Y003270D01*
X035080Y003429D02*
X035120Y003429D01*
X035120Y003587D02*
X035080Y003587D01*
X035080Y003746D02*
X035120Y003746D01*
X035120Y003904D02*
X035080Y003904D01*
X035080Y004063D02*
X035120Y004063D01*
X035120Y004221D02*
X035080Y004221D01*
X035080Y004380D02*
X035120Y004380D01*
X035080Y004538D02*
X035183Y004538D01*
X035080Y004697D02*
X035342Y004697D01*
X035500Y004855D02*
X035080Y004855D01*
X035080Y005014D02*
X035659Y005014D01*
X035817Y005172D02*
X035080Y005172D01*
X035080Y005331D02*
X036504Y005331D01*
X036520Y005489D02*
X036146Y005489D01*
X036305Y005648D02*
X036520Y005648D01*
X036520Y005806D02*
X036400Y005806D01*
X036400Y005965D02*
X036520Y005965D01*
X036472Y006123D02*
X036400Y006123D01*
X036314Y006282D02*
X036276Y006282D01*
X036155Y006440D02*
X036117Y006440D01*
X036506Y006599D02*
X036820Y006599D01*
X036820Y006757D02*
X036400Y006757D01*
X036400Y006916D02*
X036730Y006916D01*
X036571Y007074D02*
X036400Y007074D01*
X036413Y007233D02*
X036325Y007233D01*
X036254Y007391D02*
X036166Y007391D01*
X036447Y007708D02*
X043485Y007708D01*
X043476Y007717D02*
X043617Y007576D01*
X043801Y007500D01*
X043999Y007500D01*
X044183Y007576D01*
X044324Y007717D01*
X044400Y007901D01*
X044400Y008099D01*
X044324Y008283D01*
X044183Y008424D01*
X043999Y008500D01*
X044183Y008576D01*
X044324Y008717D01*
X044400Y008901D01*
X044400Y009099D01*
X044324Y009283D01*
X044183Y009424D01*
X043999Y009500D01*
X044183Y009576D01*
X044324Y009717D01*
X044400Y009901D01*
X044400Y010099D01*
X044324Y010283D01*
X044183Y010424D01*
X043999Y010500D01*
X044183Y010576D01*
X044324Y010717D01*
X044400Y010901D01*
X044400Y011099D01*
X044324Y011283D01*
X044183Y011424D01*
X043999Y011500D01*
X044183Y011576D01*
X044324Y011717D01*
X044400Y011901D01*
X044400Y012099D01*
X044324Y012283D01*
X044183Y012424D01*
X043999Y012500D01*
X044183Y012576D01*
X044324Y012717D01*
X044400Y012901D01*
X044400Y013099D01*
X044324Y013283D01*
X044183Y013424D01*
X043999Y013500D01*
X043801Y013500D01*
X043617Y013424D01*
X043476Y013283D01*
X043400Y013099D01*
X043400Y012901D01*
X043476Y012717D01*
X043617Y012576D01*
X043801Y012500D01*
X043999Y012500D01*
X043801Y012500D01*
X043617Y012424D01*
X043476Y012283D01*
X043400Y012099D01*
X043400Y011901D01*
X043476Y011717D01*
X043617Y011576D01*
X043801Y011500D01*
X043999Y011500D01*
X043801Y011500D01*
X043617Y011424D01*
X043476Y011283D01*
X043400Y011099D01*
X043400Y010901D01*
X043476Y010717D01*
X043617Y010576D01*
X043801Y010500D01*
X043999Y010500D01*
X043801Y010500D01*
X043617Y010424D01*
X043476Y010283D01*
X043400Y010099D01*
X043400Y009901D01*
X043476Y009717D01*
X043617Y009576D01*
X043801Y009500D01*
X043999Y009500D01*
X043801Y009500D01*
X043617Y009424D01*
X043476Y009283D01*
X043400Y009099D01*
X043400Y008901D01*
X043476Y008717D01*
X043617Y008576D01*
X043801Y008500D01*
X043999Y008500D01*
X043801Y008500D01*
X043617Y008424D01*
X043476Y008283D01*
X043400Y008099D01*
X043400Y007901D01*
X043476Y007717D01*
X043414Y007867D02*
X036288Y007867D01*
X035948Y008134D02*
X035992Y008242D01*
X035992Y008358D01*
X035948Y008466D01*
X035880Y008534D01*
X035880Y011612D01*
X035892Y011642D01*
X035892Y011758D01*
X035848Y011866D01*
X035766Y011948D01*
X035658Y011992D01*
X035542Y011992D01*
X035434Y011948D01*
X035352Y011866D01*
X035308Y011758D01*
X035308Y011642D01*
X035352Y011534D01*
X035434Y011452D01*
X035520Y011417D01*
X035520Y008534D01*
X035452Y008466D01*
X035408Y008358D01*
X035408Y008242D01*
X035452Y008134D01*
X035534Y008052D01*
X035642Y008008D01*
X035758Y008008D01*
X035866Y008052D01*
X035948Y008134D01*
X035968Y008184D02*
X043435Y008184D01*
X043400Y008025D02*
X035800Y008025D01*
X035600Y008025D02*
X031980Y008025D01*
X031980Y007867D02*
X035512Y007867D01*
X035353Y007708D02*
X032006Y007708D01*
X031980Y007734D02*
X031980Y019717D01*
X032066Y019752D01*
X032148Y019834D01*
X032192Y019942D01*
X032192Y020058D01*
X032148Y020166D01*
X032066Y020248D01*
X031958Y020292D01*
X031842Y020292D01*
X031734Y020248D01*
X031652Y020166D01*
X031608Y020058D01*
X031608Y019942D01*
X031620Y019912D01*
X031620Y007734D01*
X031552Y007666D01*
X031508Y007558D01*
X031508Y007442D01*
X031552Y007334D01*
X031634Y007252D01*
X031742Y007208D01*
X031858Y007208D01*
X031966Y007252D01*
X032048Y007334D01*
X032092Y007442D01*
X032092Y007558D01*
X032048Y007666D01*
X031980Y007734D01*
X032092Y007550D02*
X035195Y007550D01*
X035387Y007233D02*
X035475Y007233D01*
X035546Y007391D02*
X035634Y007391D01*
X035400Y007074D02*
X035400Y007074D01*
X035400Y006916D02*
X035400Y006916D01*
X035400Y006757D02*
X035400Y006757D01*
X035256Y006599D02*
X035544Y006599D01*
X035683Y006440D02*
X035117Y006440D01*
X035276Y006282D02*
X035524Y006282D01*
X035400Y006123D02*
X035400Y006123D01*
X035400Y005965D02*
X035400Y005965D01*
X035400Y005806D02*
X035400Y005806D01*
X035305Y005648D02*
X035495Y005648D01*
X035654Y005489D02*
X035146Y005489D01*
X034720Y005331D02*
X028180Y005331D01*
X028180Y005489D02*
X033654Y005489D01*
X033495Y005648D02*
X028180Y005648D01*
X028180Y005806D02*
X033400Y005806D01*
X033400Y005965D02*
X029578Y005965D01*
X029566Y005952D02*
X029648Y006034D01*
X029692Y006142D01*
X029692Y006258D01*
X029648Y006366D01*
X029566Y006448D01*
X029458Y006492D01*
X029342Y006492D01*
X029234Y006448D01*
X029152Y006366D01*
X029108Y006258D01*
X029108Y006142D01*
X029152Y006034D01*
X029234Y005952D01*
X029342Y005908D01*
X029458Y005908D01*
X029566Y005952D01*
X029685Y006123D02*
X033400Y006123D01*
X033524Y006282D02*
X029683Y006282D01*
X029574Y006440D02*
X033683Y006440D01*
X033544Y006599D02*
X028992Y006599D01*
X028992Y006542D02*
X028948Y006434D01*
X028866Y006352D01*
X028758Y006308D01*
X028642Y006308D01*
X028534Y006352D01*
X028452Y006434D01*
X028408Y006542D01*
X028408Y006658D01*
X028452Y006766D01*
X028520Y006834D01*
X028520Y008066D01*
X028452Y008134D01*
X028408Y008242D01*
X028408Y008358D01*
X028452Y008466D01*
X028534Y008548D01*
X028642Y008592D01*
X028758Y008592D01*
X028866Y008548D01*
X028948Y008466D01*
X028992Y008358D01*
X028992Y008242D01*
X028948Y008134D01*
X028880Y008066D01*
X028880Y006834D01*
X028948Y006766D01*
X028992Y006658D01*
X028992Y006542D01*
X028950Y006440D02*
X029226Y006440D01*
X029117Y006282D02*
X028180Y006282D01*
X028180Y006440D02*
X028450Y006440D01*
X028408Y006599D02*
X028180Y006599D01*
X028180Y006757D02*
X028448Y006757D01*
X028520Y006916D02*
X028180Y006916D01*
X028180Y007074D02*
X028520Y007074D01*
X028520Y007233D02*
X028180Y007233D01*
X028180Y007391D02*
X028520Y007391D01*
X028520Y007550D02*
X028180Y007550D01*
X028180Y007708D02*
X028520Y007708D01*
X028520Y007867D02*
X028180Y007867D01*
X028180Y008025D02*
X028520Y008025D01*
X028432Y008184D02*
X028180Y008184D01*
X028180Y008342D02*
X028408Y008342D01*
X028487Y008501D02*
X028180Y008501D01*
X028180Y008659D02*
X029840Y008659D01*
X029840Y008750D02*
X029840Y007734D01*
X029772Y007666D01*
X029728Y007558D01*
X029728Y007442D01*
X029772Y007334D01*
X029854Y007252D01*
X029962Y007208D01*
X030078Y007208D01*
X030186Y007252D01*
X030268Y007334D01*
X030312Y007442D01*
X030312Y007558D01*
X030268Y007666D01*
X030200Y007734D01*
X030200Y008786D01*
X030248Y008834D01*
X030292Y008942D01*
X030292Y009058D01*
X030248Y009166D01*
X030166Y009248D01*
X030058Y009292D01*
X029942Y009292D01*
X029834Y009248D01*
X029752Y009166D01*
X029708Y009058D01*
X029708Y008942D01*
X029752Y008834D01*
X029834Y008752D01*
X029840Y008750D01*
X029769Y008818D02*
X028180Y008818D01*
X028180Y008976D02*
X029708Y008976D01*
X029739Y009135D02*
X028180Y009135D01*
X028180Y009293D02*
X031620Y009293D01*
X031620Y009135D02*
X030261Y009135D01*
X030292Y008976D02*
X031620Y008976D01*
X031620Y008818D02*
X030231Y008818D01*
X030200Y008659D02*
X031620Y008659D01*
X031620Y008501D02*
X030200Y008501D01*
X030200Y008342D02*
X031620Y008342D01*
X031620Y008184D02*
X030200Y008184D01*
X030200Y008025D02*
X031620Y008025D01*
X031620Y007867D02*
X030200Y007867D01*
X030226Y007708D02*
X031594Y007708D01*
X031508Y007550D02*
X030312Y007550D01*
X030291Y007391D02*
X031529Y007391D01*
X031681Y007233D02*
X030139Y007233D01*
X029901Y007233D02*
X028880Y007233D01*
X028880Y007391D02*
X029749Y007391D01*
X029728Y007550D02*
X028880Y007550D01*
X028880Y007708D02*
X029814Y007708D01*
X029840Y007867D02*
X028880Y007867D01*
X028880Y008025D02*
X029840Y008025D01*
X029840Y008184D02*
X028968Y008184D01*
X028992Y008342D02*
X029840Y008342D01*
X029840Y008501D02*
X028913Y008501D01*
X027820Y008501D02*
X025880Y008501D01*
X025880Y008659D02*
X027820Y008659D01*
X027820Y008818D02*
X025880Y008818D01*
X025880Y008976D02*
X027820Y008976D01*
X027820Y009135D02*
X025880Y009135D01*
X025880Y009293D02*
X027820Y009293D01*
X027820Y009452D02*
X025880Y009452D01*
X025880Y009610D02*
X027820Y009610D01*
X027820Y009769D02*
X025880Y009769D01*
X025880Y009927D02*
X027820Y009927D01*
X027820Y010086D02*
X025880Y010086D01*
X025880Y010244D02*
X027820Y010244D01*
X027820Y010403D02*
X025880Y010403D01*
X025880Y010561D02*
X027820Y010561D01*
X027820Y010720D02*
X025880Y010720D01*
X025880Y010878D02*
X027820Y010878D01*
X027820Y011037D02*
X025880Y011037D01*
X025880Y011195D02*
X027820Y011195D01*
X027820Y011354D02*
X025880Y011354D01*
X025880Y011512D02*
X027820Y011512D01*
X027820Y011671D02*
X025880Y011671D01*
X025880Y011829D02*
X027820Y011829D01*
X027820Y011988D02*
X025880Y011988D01*
X025880Y012146D02*
X027820Y012146D01*
X027820Y012305D02*
X025880Y012305D01*
X025880Y012463D02*
X027820Y012463D01*
X027820Y012622D02*
X025880Y012622D01*
X025880Y012780D02*
X027820Y012780D01*
X027820Y012939D02*
X025880Y012939D01*
X025880Y013097D02*
X027820Y013097D01*
X027820Y013256D02*
X025880Y013256D01*
X025880Y013266D02*
X025948Y013334D01*
X025992Y013442D01*
X025992Y013558D01*
X025948Y013666D01*
X025866Y013748D01*
X025758Y013792D01*
X025642Y013792D01*
X025534Y013748D01*
X025452Y013666D01*
X025408Y013558D01*
X025408Y013442D01*
X025452Y013334D01*
X025520Y013266D01*
X025520Y007525D01*
X025808Y007238D01*
X025808Y007142D01*
X025852Y007034D01*
X025934Y006952D01*
X026042Y006908D01*
X026158Y006908D01*
X026266Y006952D01*
X026348Y007034D01*
X026392Y007142D01*
X026392Y007258D01*
X026348Y007366D01*
X026266Y007448D01*
X026158Y007492D01*
X026062Y007492D01*
X025880Y007675D01*
X025880Y013266D01*
X025981Y013414D02*
X027820Y013414D01*
X027820Y013573D02*
X025987Y013573D01*
X025883Y013731D02*
X027820Y013731D01*
X027820Y013890D02*
X025395Y013890D01*
X025400Y013901D02*
X025324Y013717D01*
X025183Y013576D01*
X024999Y013500D01*
X024801Y013500D01*
X024617Y013576D01*
X024476Y013717D01*
X024400Y013901D01*
X024400Y014099D01*
X024476Y014283D01*
X024617Y014424D01*
X024801Y014500D01*
X024999Y014500D01*
X025183Y014576D01*
X025324Y014717D01*
X025400Y014901D01*
X025400Y015099D01*
X025324Y015283D01*
X025183Y015424D01*
X024999Y015500D01*
X025183Y015576D01*
X025324Y015717D01*
X025400Y015901D01*
X025400Y016099D01*
X025324Y016283D01*
X025183Y016424D01*
X024999Y016500D01*
X025183Y016576D01*
X025324Y016717D01*
X025400Y016901D01*
X027820Y016901D01*
X027820Y016743D02*
X025335Y016743D01*
X025400Y016901D02*
X025400Y017099D01*
X025324Y017283D01*
X025183Y017424D01*
X024999Y017500D01*
X025183Y017576D01*
X025324Y017717D01*
X025400Y017901D01*
X025400Y018099D01*
X025324Y018283D01*
X025183Y018424D01*
X024999Y018500D01*
X025183Y018576D01*
X025324Y018717D01*
X025400Y018901D01*
X025400Y019099D01*
X025324Y019283D01*
X025183Y019424D01*
X024999Y019500D01*
X024801Y019500D01*
X024617Y019424D01*
X024476Y019283D01*
X024400Y019099D01*
X024400Y018901D01*
X024476Y018717D01*
X024617Y018576D01*
X024801Y018500D01*
X024999Y018500D01*
X024801Y018500D01*
X024617Y018424D01*
X024476Y018283D01*
X024400Y018099D01*
X024400Y017901D01*
X024476Y017717D01*
X024617Y017576D01*
X024801Y017500D01*
X024999Y017500D01*
X024801Y017500D01*
X024617Y017424D01*
X024476Y017283D01*
X024400Y017099D01*
X024400Y016901D01*
X022540Y016901D01*
X022666Y016743D02*
X024465Y016743D01*
X024476Y016717D02*
X024617Y016576D01*
X024801Y016500D01*
X024999Y016500D01*
X024801Y016500D01*
X024617Y016424D01*
X024476Y016283D01*
X024400Y016099D01*
X024400Y015901D01*
X024476Y015717D01*
X024617Y015576D01*
X024801Y015500D01*
X024999Y015500D01*
X024801Y015500D01*
X024617Y015424D01*
X024476Y015283D01*
X024400Y015099D01*
X024400Y014901D01*
X024476Y014717D01*
X024617Y014576D01*
X024801Y014500D01*
X024999Y014500D01*
X025183Y014424D01*
X025324Y014283D01*
X025400Y014099D01*
X025400Y013901D01*
X025400Y014048D02*
X027820Y014048D01*
X027820Y014207D02*
X025356Y014207D01*
X025242Y014365D02*
X027820Y014365D01*
X027820Y014524D02*
X025056Y014524D01*
X025289Y014682D02*
X027820Y014682D01*
X027820Y014841D02*
X025375Y014841D01*
X025400Y014999D02*
X027820Y014999D01*
X027820Y015158D02*
X025376Y015158D01*
X025291Y015316D02*
X027820Y015316D01*
X027820Y015475D02*
X025061Y015475D01*
X025240Y015633D02*
X027820Y015633D01*
X027820Y015792D02*
X025355Y015792D01*
X025400Y015950D02*
X027820Y015950D01*
X027820Y016109D02*
X025396Y016109D01*
X025331Y016267D02*
X027820Y016267D01*
X027820Y016426D02*
X025179Y016426D01*
X025191Y016584D02*
X027820Y016584D01*
X028180Y016584D02*
X031620Y016584D01*
X031620Y016426D02*
X028180Y016426D01*
X028180Y016267D02*
X031620Y016267D01*
X031620Y016109D02*
X028180Y016109D01*
X028180Y015950D02*
X031620Y015950D01*
X031620Y015792D02*
X028180Y015792D01*
X028180Y015633D02*
X031620Y015633D01*
X031620Y015475D02*
X028180Y015475D01*
X028180Y015316D02*
X031620Y015316D01*
X031620Y015158D02*
X028180Y015158D01*
X028180Y014999D02*
X031620Y014999D01*
X031620Y014841D02*
X028180Y014841D01*
X028180Y014682D02*
X031620Y014682D01*
X031620Y014524D02*
X028180Y014524D01*
X028180Y014365D02*
X031620Y014365D01*
X031620Y014207D02*
X028180Y014207D01*
X028180Y014048D02*
X031620Y014048D01*
X031620Y013890D02*
X028180Y013890D01*
X028180Y013731D02*
X031620Y013731D01*
X031620Y013573D02*
X028180Y013573D01*
X028180Y013414D02*
X031620Y013414D01*
X031620Y013256D02*
X028180Y013256D01*
X028180Y013097D02*
X031620Y013097D01*
X031620Y012939D02*
X028180Y012939D01*
X028180Y012780D02*
X031620Y012780D01*
X031620Y012622D02*
X028180Y012622D01*
X028180Y012463D02*
X031620Y012463D01*
X031620Y012305D02*
X028180Y012305D01*
X028180Y012146D02*
X031620Y012146D01*
X031620Y011988D02*
X028180Y011988D01*
X028180Y011829D02*
X031620Y011829D01*
X031620Y011671D02*
X028180Y011671D01*
X028180Y011512D02*
X031620Y011512D01*
X031620Y011354D02*
X028180Y011354D01*
X028180Y011195D02*
X031620Y011195D01*
X031620Y011037D02*
X028180Y011037D01*
X028180Y010878D02*
X031620Y010878D01*
X031620Y010720D02*
X028180Y010720D01*
X028180Y010561D02*
X031620Y010561D01*
X031620Y010403D02*
X028180Y010403D01*
X028180Y010244D02*
X031620Y010244D01*
X031620Y010086D02*
X028180Y010086D01*
X028180Y009927D02*
X031620Y009927D01*
X031620Y009769D02*
X028180Y009769D01*
X028180Y009610D02*
X031620Y009610D01*
X031620Y009452D02*
X028180Y009452D01*
X027820Y008342D02*
X025880Y008342D01*
X025880Y008184D02*
X027820Y008184D01*
X027820Y008025D02*
X025880Y008025D01*
X025880Y007867D02*
X027820Y007867D01*
X027820Y007708D02*
X025880Y007708D01*
X026005Y007550D02*
X027820Y007550D01*
X027820Y007391D02*
X026323Y007391D01*
X026392Y007233D02*
X027820Y007233D01*
X027820Y007074D02*
X026364Y007074D01*
X026178Y006916D02*
X027820Y006916D01*
X027820Y006757D02*
X027058Y006757D01*
X027051Y006760D02*
X026749Y006760D01*
X026470Y006644D01*
X026256Y006430D01*
X026140Y006151D01*
X026140Y005849D01*
X026256Y005570D01*
X026470Y005356D01*
X026749Y005240D01*
X027051Y005240D01*
X027330Y005356D01*
X027544Y005570D01*
X027660Y005849D01*
X027660Y006151D01*
X027544Y006430D01*
X027330Y006644D01*
X027051Y006760D01*
X026742Y006757D02*
X025341Y006757D01*
X025324Y006717D02*
X025400Y006901D01*
X025400Y007099D01*
X025324Y007283D01*
X025183Y007424D01*
X024999Y007500D01*
X025183Y007576D01*
X025324Y007717D01*
X025400Y007901D01*
X025400Y008099D01*
X025324Y008283D01*
X025183Y008424D01*
X024999Y008500D01*
X025183Y008576D01*
X025324Y008717D01*
X025400Y008901D01*
X025400Y009099D01*
X025324Y009283D01*
X025183Y009424D01*
X024999Y009500D01*
X025183Y009576D01*
X025324Y009717D01*
X025400Y009901D01*
X025400Y010099D01*
X025324Y010283D01*
X025183Y010424D01*
X024999Y010500D01*
X025183Y010576D01*
X025324Y010717D01*
X025400Y010901D01*
X025400Y011099D01*
X025324Y011283D01*
X025183Y011424D01*
X024999Y011500D01*
X024801Y011500D01*
X024617Y011424D01*
X024476Y011283D01*
X024400Y011099D01*
X024400Y010901D01*
X024476Y010717D01*
X024617Y010576D01*
X024801Y010500D01*
X024999Y010500D01*
X024801Y010500D01*
X024617Y010424D01*
X024476Y010283D01*
X024400Y010099D01*
X024400Y009901D01*
X024476Y009717D01*
X024617Y009576D01*
X024801Y009500D01*
X024999Y009500D01*
X024801Y009500D01*
X024617Y009424D01*
X024476Y009283D01*
X024400Y009099D01*
X024400Y008901D01*
X024476Y008717D01*
X024617Y008576D01*
X024801Y008500D01*
X024999Y008500D01*
X024801Y008500D01*
X024617Y008424D01*
X024476Y008283D01*
X024400Y008099D01*
X024400Y007901D01*
X024476Y007717D01*
X024617Y007576D01*
X024801Y007500D01*
X024999Y007500D01*
X024801Y007500D01*
X024617Y007424D01*
X024476Y007283D01*
X024400Y007099D01*
X024400Y006901D01*
X024476Y006717D01*
X024617Y006576D01*
X024801Y006500D01*
X024999Y006500D01*
X025183Y006576D01*
X025324Y006717D01*
X025206Y006599D02*
X026424Y006599D01*
X026265Y006440D02*
X024180Y006440D01*
X024180Y006282D02*
X026194Y006282D01*
X026140Y006123D02*
X024180Y006123D01*
X024180Y005965D02*
X026140Y005965D01*
X026158Y005806D02*
X024180Y005806D01*
X024180Y005648D02*
X026223Y005648D01*
X026336Y005489D02*
X024180Y005489D01*
X024180Y005331D02*
X026531Y005331D01*
X027269Y005331D02*
X027820Y005331D01*
X027820Y005489D02*
X027464Y005489D01*
X027577Y005648D02*
X027820Y005648D01*
X027820Y005806D02*
X027642Y005806D01*
X027660Y005965D02*
X027820Y005965D01*
X027820Y006123D02*
X027660Y006123D01*
X027606Y006282D02*
X027820Y006282D01*
X027820Y006440D02*
X027535Y006440D01*
X027376Y006599D02*
X027820Y006599D01*
X028180Y006123D02*
X029115Y006123D01*
X029222Y005965D02*
X028180Y005965D01*
X028180Y005172D02*
X034720Y005172D01*
X034720Y005014D02*
X028180Y005014D01*
X028180Y004855D02*
X034720Y004855D01*
X034720Y004697D02*
X028180Y004697D01*
X028180Y004538D02*
X034720Y004538D01*
X034720Y004380D02*
X028213Y004380D01*
X028327Y004221D02*
X034720Y004221D01*
X034720Y004063D02*
X028348Y004063D01*
X028296Y003904D02*
X034720Y003904D01*
X034720Y003746D02*
X033309Y003746D01*
X032499Y002580D02*
X032101Y002580D01*
X031820Y002299D01*
X031820Y001901D01*
X032101Y001620D01*
X032499Y001620D01*
X032780Y001901D01*
X032780Y002299D01*
X032499Y002580D01*
X032601Y002478D02*
X032999Y002478D01*
X032840Y002319D02*
X032760Y002319D01*
X032780Y002161D02*
X032820Y002161D01*
X032820Y002002D02*
X032780Y002002D01*
X032722Y001844D02*
X032878Y001844D01*
X033036Y001685D02*
X032564Y001685D01*
X032036Y001685D02*
X031564Y001685D01*
X031722Y001844D02*
X031878Y001844D01*
X031820Y002002D02*
X031780Y002002D01*
X031780Y002161D02*
X031820Y002161D01*
X031840Y002319D02*
X031760Y002319D01*
X031601Y002478D02*
X031999Y002478D01*
X033564Y001685D02*
X034036Y001685D01*
X033878Y001844D02*
X033722Y001844D01*
X033780Y002002D02*
X033820Y002002D01*
X033820Y002161D02*
X033780Y002161D01*
X033760Y002319D02*
X033840Y002319D01*
X034760Y002319D02*
X034840Y002319D01*
X034820Y002161D02*
X034780Y002161D01*
X034780Y002002D02*
X034820Y002002D01*
X034878Y001844D02*
X034722Y001844D01*
X034564Y001685D02*
X035036Y001685D01*
X035564Y001685D02*
X036036Y001685D01*
X035878Y001844D02*
X035722Y001844D01*
X035780Y002002D02*
X035820Y002002D01*
X035820Y002161D02*
X035780Y002161D01*
X035760Y002319D02*
X035840Y002319D01*
X035999Y002478D02*
X035601Y002478D01*
X035480Y002636D02*
X036581Y002636D01*
X036740Y002795D02*
X035480Y002795D01*
X035480Y002953D02*
X036820Y002953D01*
X036820Y003112D02*
X035480Y003112D01*
X035480Y003270D02*
X036820Y003270D01*
X036820Y003429D02*
X035480Y003429D01*
X035480Y003587D02*
X036820Y003587D01*
X036820Y003746D02*
X035480Y003746D01*
X035480Y003904D02*
X036820Y003904D01*
X036820Y004063D02*
X035480Y004063D01*
X035480Y004221D02*
X036820Y004221D01*
X036820Y004380D02*
X035534Y004380D01*
X035693Y004538D02*
X036820Y004538D01*
X036820Y004697D02*
X035851Y004697D01*
X036620Y004855D02*
X036820Y004855D01*
X036820Y005014D02*
X036725Y005014D01*
X037180Y005014D02*
X045600Y005014D01*
X045600Y005172D02*
X037180Y005172D01*
X037180Y005331D02*
X037531Y005331D01*
X037336Y005489D02*
X037180Y005489D01*
X037180Y005648D02*
X037223Y005648D01*
X037194Y006282D02*
X037180Y006282D01*
X037180Y006440D02*
X037265Y006440D01*
X037180Y006599D02*
X037424Y006599D01*
X037180Y006757D02*
X037742Y006757D01*
X038058Y006757D02*
X043459Y006757D01*
X043476Y006717D02*
X043617Y006576D01*
X043801Y006500D01*
X043999Y006500D01*
X044183Y006576D01*
X044324Y006717D01*
X044400Y006901D01*
X044400Y007099D01*
X044324Y007283D01*
X044183Y007424D01*
X043999Y007500D01*
X043801Y007500D01*
X043617Y007424D01*
X043476Y007283D01*
X043400Y007099D01*
X043400Y006901D01*
X043476Y006717D01*
X043594Y006599D02*
X038376Y006599D01*
X038535Y006440D02*
X045600Y006440D01*
X045600Y006282D02*
X038606Y006282D01*
X038660Y006123D02*
X045600Y006123D01*
X045600Y005965D02*
X038660Y005965D01*
X038642Y005806D02*
X045600Y005806D01*
X045600Y005648D02*
X038577Y005648D01*
X038464Y005489D02*
X045600Y005489D01*
X045600Y005331D02*
X038269Y005331D01*
X037180Y004855D02*
X045600Y004855D01*
X045600Y004697D02*
X037180Y004697D01*
X037180Y004538D02*
X045600Y004538D01*
X045600Y004380D02*
X037180Y004380D01*
X037180Y004221D02*
X045600Y004221D01*
X045600Y004063D02*
X037180Y004063D01*
X037180Y003904D02*
X045600Y003904D01*
X045600Y003746D02*
X037180Y003746D01*
X037180Y003587D02*
X045600Y003587D01*
X045600Y003429D02*
X044499Y003429D01*
X044375Y003480D02*
X044025Y003480D01*
X043702Y003346D01*
X043454Y003098D01*
X043320Y002775D01*
X043320Y002425D01*
X043454Y002102D01*
X043702Y001854D01*
X044025Y001720D01*
X044375Y001720D01*
X044698Y001854D01*
X044946Y002102D01*
X045080Y002425D01*
X045080Y002775D01*
X044946Y003098D01*
X044698Y003346D01*
X044375Y003480D01*
X044775Y003270D02*
X045600Y003270D01*
X045600Y003112D02*
X044933Y003112D01*
X045006Y002953D02*
X045600Y002953D01*
X045600Y002795D02*
X045072Y002795D01*
X045080Y002636D02*
X045600Y002636D01*
X045600Y002478D02*
X045080Y002478D01*
X045036Y002319D02*
X045600Y002319D01*
X045600Y002161D02*
X044970Y002161D01*
X044847Y002002D02*
X045600Y002002D01*
X045600Y001844D02*
X044673Y001844D01*
X045600Y001685D02*
X040564Y001685D01*
X040499Y001620D02*
X040780Y001901D01*
X040780Y002299D01*
X040499Y002580D01*
X040101Y002580D01*
X039820Y002299D01*
X039820Y001901D01*
X040101Y001620D01*
X040499Y001620D01*
X040722Y001844D02*
X043727Y001844D01*
X043553Y002002D02*
X040780Y002002D01*
X040780Y002161D02*
X043430Y002161D01*
X043364Y002319D02*
X040760Y002319D01*
X040601Y002478D02*
X043320Y002478D01*
X043320Y002636D02*
X037091Y002636D01*
X037101Y002580D02*
X036820Y002299D01*
X036820Y001901D01*
X037101Y001620D01*
X037499Y001620D01*
X037780Y001901D01*
X037780Y002299D01*
X037499Y002580D01*
X037101Y002580D01*
X036999Y002478D02*
X036932Y002478D01*
X036840Y002319D02*
X036774Y002319D01*
X036780Y002161D02*
X036820Y002161D01*
X036820Y002002D02*
X036780Y002002D01*
X036722Y001844D02*
X036878Y001844D01*
X037036Y001685D02*
X036564Y001685D01*
X037564Y001685D02*
X038036Y001685D01*
X038101Y001620D02*
X038499Y001620D01*
X038780Y001901D01*
X038780Y002299D01*
X038499Y002580D01*
X038101Y002580D01*
X037820Y002299D01*
X037820Y001901D01*
X038101Y001620D01*
X037878Y001844D02*
X037722Y001844D01*
X037780Y002002D02*
X037820Y002002D01*
X037820Y002161D02*
X037780Y002161D01*
X037760Y002319D02*
X037840Y002319D01*
X037999Y002478D02*
X037601Y002478D01*
X037180Y002795D02*
X043328Y002795D01*
X043394Y002953D02*
X037180Y002953D01*
X037180Y003112D02*
X043467Y003112D01*
X043625Y003270D02*
X037180Y003270D01*
X037180Y003429D02*
X043901Y003429D01*
X044206Y006599D02*
X045600Y006599D01*
X045600Y006757D02*
X044341Y006757D01*
X044400Y006916D02*
X045600Y006916D01*
X045600Y007074D02*
X044400Y007074D01*
X044345Y007233D02*
X045600Y007233D01*
X045600Y007391D02*
X044216Y007391D01*
X044119Y007550D02*
X045600Y007550D01*
X045600Y007708D02*
X044315Y007708D01*
X044386Y007867D02*
X045600Y007867D01*
X045600Y008025D02*
X044400Y008025D01*
X044365Y008184D02*
X045600Y008184D01*
X045600Y008342D02*
X044265Y008342D01*
X044001Y008501D02*
X045600Y008501D01*
X045600Y008659D02*
X044266Y008659D01*
X044366Y008818D02*
X045600Y008818D01*
X045600Y008976D02*
X044400Y008976D01*
X044385Y009135D02*
X045600Y009135D01*
X045600Y009293D02*
X044314Y009293D01*
X044117Y009452D02*
X045600Y009452D01*
X045600Y009610D02*
X044217Y009610D01*
X044345Y009769D02*
X045600Y009769D01*
X045600Y009927D02*
X044400Y009927D01*
X044400Y010086D02*
X045600Y010086D01*
X045600Y010244D02*
X044340Y010244D01*
X044205Y010403D02*
X045600Y010403D01*
X045600Y010561D02*
X044147Y010561D01*
X044325Y010720D02*
X045600Y010720D01*
X045600Y010878D02*
X044391Y010878D01*
X044400Y011037D02*
X045600Y011037D01*
X045600Y011195D02*
X044360Y011195D01*
X044254Y011354D02*
X045600Y011354D01*
X045600Y011512D02*
X044028Y011512D01*
X043772Y011512D02*
X037080Y011512D01*
X037080Y011354D02*
X043546Y011354D01*
X043440Y011195D02*
X037080Y011195D01*
X037080Y011037D02*
X043400Y011037D01*
X043409Y010878D02*
X037080Y010878D01*
X037080Y010720D02*
X043475Y010720D01*
X043653Y010561D02*
X037080Y010561D01*
X037080Y010403D02*
X043595Y010403D01*
X043460Y010244D02*
X037080Y010244D01*
X037080Y010086D02*
X043400Y010086D01*
X043400Y009927D02*
X037080Y009927D01*
X037080Y009769D02*
X043455Y009769D01*
X043583Y009610D02*
X037080Y009610D01*
X037080Y009452D02*
X043683Y009452D01*
X043486Y009293D02*
X037080Y009293D01*
X037080Y009234D02*
X037080Y013066D01*
X037148Y013134D01*
X037192Y013242D01*
X037192Y013358D01*
X037148Y013466D01*
X037066Y013548D01*
X036958Y013592D01*
X036842Y013592D01*
X036734Y013548D01*
X036652Y013466D01*
X036608Y013358D01*
X036608Y013242D01*
X036652Y013134D01*
X036720Y013066D01*
X036720Y009234D01*
X036652Y009166D01*
X036608Y009058D01*
X036608Y008942D01*
X036652Y008834D01*
X036734Y008752D01*
X036842Y008708D01*
X036958Y008708D01*
X037066Y008752D01*
X037148Y008834D01*
X037192Y008942D01*
X037192Y009058D01*
X037148Y009166D01*
X037080Y009234D01*
X037161Y009135D02*
X043415Y009135D01*
X043400Y008976D02*
X037192Y008976D01*
X037131Y008818D02*
X043434Y008818D01*
X043534Y008659D02*
X035880Y008659D01*
X035880Y008818D02*
X036669Y008818D01*
X036608Y008976D02*
X035880Y008976D01*
X035880Y009135D02*
X036639Y009135D01*
X036720Y009293D02*
X035880Y009293D01*
X035880Y009452D02*
X036720Y009452D01*
X036720Y009610D02*
X035880Y009610D01*
X035880Y009769D02*
X036720Y009769D01*
X036720Y009927D02*
X035880Y009927D01*
X035880Y010086D02*
X036720Y010086D01*
X036720Y010244D02*
X035880Y010244D01*
X035880Y010403D02*
X036720Y010403D01*
X036720Y010561D02*
X035880Y010561D01*
X035880Y010720D02*
X036720Y010720D01*
X036720Y010878D02*
X035880Y010878D01*
X035880Y011037D02*
X036720Y011037D01*
X036720Y011195D02*
X035880Y011195D01*
X035880Y011354D02*
X036720Y011354D01*
X036720Y011512D02*
X035880Y011512D01*
X035892Y011671D02*
X036720Y011671D01*
X036720Y011829D02*
X035863Y011829D01*
X035670Y011988D02*
X036720Y011988D01*
X036720Y012146D02*
X035072Y012146D01*
X035096Y012156D02*
X035216Y012276D01*
X035281Y012433D01*
X035281Y012603D01*
X035216Y012760D01*
X035096Y012880D01*
X035019Y012911D01*
X035096Y012943D01*
X035216Y013063D01*
X035281Y013220D01*
X035281Y013390D01*
X035216Y013547D01*
X035096Y013667D01*
X035019Y013699D01*
X035096Y013730D01*
X035216Y013851D01*
X035281Y014008D01*
X035281Y014178D01*
X035216Y014335D01*
X035096Y014455D01*
X035019Y014486D01*
X035096Y014518D01*
X035216Y014638D01*
X035281Y014795D01*
X035281Y014965D01*
X035216Y015122D01*
X035096Y015242D01*
X035019Y015274D01*
X035096Y015305D01*
X035216Y015425D01*
X035281Y015582D01*
X035281Y015752D01*
X035216Y015909D01*
X035096Y016030D01*
X035019Y016061D01*
X035096Y016093D01*
X035216Y016213D01*
X035281Y016370D01*
X035281Y016540D01*
X035216Y016697D01*
X035096Y016817D01*
X035019Y016849D01*
X035096Y016880D01*
X035216Y017000D01*
X035242Y017062D01*
X035317Y017062D01*
X035580Y017325D01*
X035580Y019975D01*
X035380Y020175D01*
X035275Y020280D01*
X033225Y020280D01*
X033025Y020080D01*
X032920Y019975D01*
X032920Y017734D01*
X032852Y017666D01*
X032808Y017558D01*
X032808Y017442D01*
X032852Y017334D01*
X032934Y017252D01*
X033042Y017208D01*
X033158Y017208D01*
X033266Y017252D01*
X033348Y017334D01*
X033392Y017442D01*
X033392Y017558D01*
X033348Y017666D01*
X033280Y017734D01*
X033280Y019825D01*
X033375Y019920D01*
X033778Y019920D01*
X033704Y019846D01*
X033639Y019689D01*
X033639Y019519D01*
X033704Y019362D01*
X033824Y019242D01*
X033901Y019211D01*
X033824Y019179D01*
X033704Y019059D01*
X033639Y018902D01*
X033639Y018732D01*
X033704Y018575D01*
X033824Y018455D01*
X033901Y018423D01*
X033824Y018392D01*
X033704Y018272D01*
X033639Y018115D01*
X033639Y017945D01*
X033704Y017788D01*
X033824Y017667D01*
X033901Y017636D01*
X033824Y017604D01*
X033704Y017484D01*
X033639Y017327D01*
X033639Y017157D01*
X033704Y017000D01*
X033824Y016880D01*
X033901Y016849D01*
X033824Y016817D01*
X033704Y016697D01*
X033639Y016540D01*
X033639Y016370D01*
X033704Y016213D01*
X033824Y016093D01*
X033901Y016061D01*
X033824Y016030D01*
X033704Y015909D01*
X033639Y015752D01*
X033639Y015582D01*
X033704Y015425D01*
X033824Y015305D01*
X033901Y015274D01*
X033824Y015242D01*
X033704Y015122D01*
X033639Y014965D01*
X033639Y014795D01*
X033704Y014638D01*
X033824Y014518D01*
X033901Y014486D01*
X033824Y014455D01*
X033704Y014335D01*
X033639Y014178D01*
X033639Y014008D01*
X033704Y013851D01*
X033824Y013730D01*
X033901Y013699D01*
X033824Y013667D01*
X033704Y013547D01*
X033639Y013390D01*
X033639Y013220D01*
X033704Y013063D01*
X033824Y012943D01*
X033901Y012911D01*
X033824Y012880D01*
X033704Y012760D01*
X033639Y012603D01*
X033639Y012433D01*
X033704Y012276D01*
X033824Y012156D01*
X033901Y012124D01*
X033824Y012093D01*
X033704Y011972D01*
X033639Y011815D01*
X033639Y011645D01*
X033704Y011488D01*
X033824Y011368D01*
X033901Y011337D01*
X033824Y011305D01*
X033704Y011185D01*
X033639Y011028D01*
X033639Y010858D01*
X033704Y010701D01*
X033824Y010581D01*
X033901Y010549D01*
X033824Y010518D01*
X033704Y010398D01*
X033639Y010241D01*
X033639Y010071D01*
X033704Y009914D01*
X033824Y009793D01*
X033981Y009728D01*
X034151Y009728D01*
X034308Y009793D01*
X034428Y009914D01*
X034460Y009990D01*
X034492Y009914D01*
X034612Y009793D01*
X034769Y009728D01*
X034939Y009728D01*
X035096Y009793D01*
X035216Y009914D01*
X035281Y010071D01*
X035281Y010241D01*
X035216Y010398D01*
X035096Y010518D01*
X035019Y010549D01*
X035096Y010581D01*
X035216Y010701D01*
X035281Y010858D01*
X035281Y011028D01*
X035216Y011185D01*
X035096Y011305D01*
X035019Y011337D01*
X035096Y011368D01*
X035216Y011488D01*
X035281Y011645D01*
X035281Y011815D01*
X035216Y011972D01*
X035096Y012093D01*
X035019Y012124D01*
X035096Y012156D01*
X035201Y011988D02*
X035530Y011988D01*
X035337Y011829D02*
X035275Y011829D01*
X035281Y011671D02*
X035308Y011671D01*
X035374Y011512D02*
X035226Y011512D01*
X035060Y011354D02*
X035520Y011354D01*
X035520Y011195D02*
X035206Y011195D01*
X035277Y011037D02*
X035520Y011037D01*
X035520Y010878D02*
X035281Y010878D01*
X035223Y010720D02*
X035520Y010720D01*
X035520Y010561D02*
X035048Y010561D01*
X035211Y010403D02*
X035520Y010403D01*
X035520Y010244D02*
X035279Y010244D01*
X035281Y010086D02*
X035520Y010086D01*
X035520Y009927D02*
X035221Y009927D01*
X035035Y009769D02*
X035520Y009769D01*
X035520Y009610D02*
X031980Y009610D01*
X031980Y009452D02*
X035520Y009452D01*
X035520Y009293D02*
X031980Y009293D01*
X031980Y009135D02*
X035520Y009135D01*
X035520Y008976D02*
X031980Y008976D01*
X031980Y008818D02*
X035520Y008818D01*
X035520Y008659D02*
X031980Y008659D01*
X031980Y008501D02*
X035487Y008501D01*
X035408Y008342D02*
X031980Y008342D01*
X031980Y008184D02*
X035432Y008184D01*
X035913Y008501D02*
X043799Y008501D01*
X043535Y008342D02*
X035992Y008342D01*
X036605Y007550D02*
X043681Y007550D01*
X043584Y007391D02*
X036764Y007391D01*
X036922Y007233D02*
X043455Y007233D01*
X043400Y007074D02*
X037081Y007074D01*
X037180Y006916D02*
X043400Y006916D01*
X039499Y002580D02*
X039101Y002580D01*
X038820Y002299D01*
X038820Y001901D01*
X039101Y001620D01*
X039499Y001620D01*
X039780Y001901D01*
X039780Y002299D01*
X039499Y002580D01*
X039601Y002478D02*
X039999Y002478D01*
X039840Y002319D02*
X039760Y002319D01*
X039780Y002161D02*
X039820Y002161D01*
X039820Y002002D02*
X039780Y002002D01*
X039722Y001844D02*
X039878Y001844D01*
X040036Y001685D02*
X039564Y001685D01*
X039036Y001685D02*
X038564Y001685D01*
X038722Y001844D02*
X038878Y001844D01*
X038820Y002002D02*
X038780Y002002D01*
X038780Y002161D02*
X038820Y002161D01*
X038840Y002319D02*
X038760Y002319D01*
X038601Y002478D02*
X038999Y002478D01*
X034654Y005489D02*
X034146Y005489D01*
X034305Y005648D02*
X034495Y005648D01*
X034400Y005806D02*
X034400Y005806D01*
X034400Y005965D02*
X034400Y005965D01*
X034400Y006123D02*
X034400Y006123D01*
X034276Y006282D02*
X034524Y006282D01*
X034683Y006440D02*
X034117Y006440D01*
X034256Y006599D02*
X034544Y006599D01*
X034400Y006757D02*
X034400Y006757D01*
X034400Y006916D02*
X034400Y006916D01*
X034400Y007074D02*
X034400Y007074D01*
X034325Y007233D02*
X034475Y007233D01*
X034634Y007391D02*
X034166Y007391D01*
X033634Y007391D02*
X032071Y007391D01*
X031919Y007233D02*
X033475Y007233D01*
X033400Y007074D02*
X028880Y007074D01*
X028880Y006916D02*
X033400Y006916D01*
X033400Y006757D02*
X028952Y006757D01*
X027820Y005172D02*
X024180Y005172D01*
X024180Y005014D02*
X027820Y005014D01*
X027820Y004855D02*
X024180Y004855D01*
X024180Y004697D02*
X027820Y004697D01*
X027820Y004538D02*
X024180Y004538D01*
X024257Y004380D02*
X027787Y004380D01*
X027673Y004221D02*
X024396Y004221D01*
X024534Y004063D02*
X027652Y004063D01*
X027704Y003904D02*
X024673Y003904D01*
X024334Y003746D02*
X005764Y003746D01*
X005746Y003702D02*
X005880Y004025D01*
X005880Y004375D01*
X005746Y004698D01*
X005498Y004946D01*
X005175Y005080D01*
X004825Y005080D01*
X004502Y004946D01*
X004254Y004698D01*
X004120Y004375D01*
X004120Y004025D01*
X004254Y003702D01*
X004502Y003454D01*
X004825Y003320D01*
X005175Y003320D01*
X005498Y003454D01*
X005746Y003702D01*
X005632Y003587D02*
X024472Y003587D01*
X024611Y003429D02*
X005437Y003429D01*
X005830Y003904D02*
X024195Y003904D01*
X024056Y004063D02*
X005880Y004063D01*
X005880Y004221D02*
X023917Y004221D01*
X023818Y004380D02*
X023093Y004380D01*
X023066Y004352D02*
X023148Y004434D01*
X023192Y004542D01*
X023192Y004658D01*
X023148Y004766D01*
X023080Y004834D01*
X023080Y005806D01*
X023080Y005806D01*
X023134Y005752D01*
X023242Y005708D01*
X023358Y005708D01*
X023466Y005752D01*
X023548Y005834D01*
X023592Y005942D01*
X023592Y006058D01*
X023548Y006166D01*
X023480Y006234D01*
X023480Y014666D01*
X023548Y014734D01*
X023592Y014842D01*
X023592Y014958D01*
X023548Y015066D01*
X023466Y015148D01*
X023358Y015192D01*
X023242Y015192D01*
X023134Y015148D01*
X023052Y015066D01*
X023008Y014958D01*
X023008Y014842D01*
X023052Y014734D01*
X023120Y014666D01*
X023120Y006234D01*
X023080Y006194D01*
X023080Y013275D01*
X022975Y013380D01*
X022775Y013580D01*
X022692Y013580D01*
X022644Y013697D01*
X022497Y013844D01*
X022304Y013924D01*
X022096Y013924D01*
X021903Y013844D01*
X021756Y013697D01*
X021676Y013504D01*
X021676Y013296D01*
X021756Y013103D01*
X021903Y012956D01*
X022096Y012876D01*
X022304Y012876D01*
X022497Y012956D01*
X022644Y013103D01*
X022673Y013173D01*
X022720Y013125D01*
X022720Y012013D01*
X022644Y012197D01*
X022497Y012344D01*
X022304Y012424D01*
X022096Y012424D01*
X021903Y012344D01*
X021756Y012197D01*
X021676Y012004D01*
X021676Y011796D01*
X021756Y011603D01*
X021903Y011456D01*
X022096Y011376D01*
X022304Y011376D01*
X022497Y011456D01*
X022644Y011603D01*
X022720Y011787D01*
X022720Y010513D01*
X022644Y010697D01*
X022497Y010844D01*
X022304Y010924D01*
X022096Y010924D01*
X021903Y010844D01*
X021756Y010697D01*
X021676Y010504D01*
X021676Y010296D01*
X021756Y010103D01*
X021903Y009956D01*
X022096Y009876D01*
X022304Y009876D01*
X022497Y009956D01*
X022644Y010103D01*
X022720Y010287D01*
X022720Y009013D01*
X022644Y009197D01*
X022497Y009344D01*
X022304Y009424D01*
X022096Y009424D01*
X021903Y009344D01*
X021756Y009197D01*
X021676Y009004D01*
X021676Y008796D01*
X021756Y008603D01*
X021903Y008456D01*
X022096Y008376D01*
X022304Y008376D01*
X022497Y008456D01*
X022644Y008603D01*
X022720Y008787D01*
X022720Y007513D01*
X022644Y007697D01*
X022497Y007844D01*
X022304Y007924D01*
X022096Y007924D01*
X021903Y007844D01*
X021756Y007697D01*
X021676Y007504D01*
X021676Y007296D01*
X021756Y007103D01*
X021903Y006956D01*
X022096Y006876D01*
X022304Y006876D01*
X022497Y006956D01*
X022644Y007103D01*
X022720Y007287D01*
X022720Y006013D01*
X022644Y006197D01*
X022497Y006344D01*
X022304Y006424D01*
X022096Y006424D01*
X021903Y006344D01*
X021756Y006197D01*
X021676Y006004D01*
X021676Y005796D01*
X021756Y005603D01*
X021903Y005456D01*
X022096Y005376D01*
X022304Y005376D01*
X022497Y005456D01*
X022644Y005603D01*
X022720Y005787D01*
X022720Y004834D01*
X022652Y004766D01*
X022608Y004658D01*
X022608Y004542D01*
X022652Y004434D01*
X022734Y004352D01*
X022842Y004308D01*
X022958Y004308D01*
X023066Y004352D01*
X023191Y004538D02*
X023820Y004538D01*
X023820Y004697D02*
X023177Y004697D01*
X023080Y004855D02*
X023820Y004855D01*
X023820Y005014D02*
X023080Y005014D01*
X023080Y005172D02*
X023820Y005172D01*
X023820Y005331D02*
X023080Y005331D01*
X023080Y005489D02*
X023820Y005489D01*
X023820Y005648D02*
X023080Y005648D01*
X022720Y005648D02*
X022662Y005648D01*
X022720Y005489D02*
X022530Y005489D01*
X022720Y005331D02*
X021183Y005331D01*
X021180Y005334D02*
X021180Y009166D01*
X021248Y009234D01*
X021292Y009342D01*
X021292Y009458D01*
X021248Y009566D01*
X021166Y009648D01*
X021058Y009692D01*
X020942Y009692D01*
X020834Y009648D01*
X020752Y009566D01*
X020708Y009458D01*
X020708Y009342D01*
X020752Y009234D01*
X020820Y009166D01*
X020820Y005334D01*
X020752Y005266D01*
X020708Y005158D01*
X020708Y005042D01*
X020752Y004934D01*
X020834Y004852D01*
X020942Y004808D01*
X021058Y004808D01*
X021166Y004852D01*
X021248Y004934D01*
X021292Y005042D01*
X021292Y005158D01*
X021248Y005266D01*
X021180Y005334D01*
X021180Y005489D02*
X021870Y005489D01*
X021738Y005648D02*
X021180Y005648D01*
X021180Y005806D02*
X021676Y005806D01*
X021676Y005965D02*
X021180Y005965D01*
X021180Y006123D02*
X021726Y006123D01*
X021841Y006282D02*
X021180Y006282D01*
X021180Y006440D02*
X022720Y006440D01*
X022720Y006282D02*
X022559Y006282D01*
X022674Y006123D02*
X022720Y006123D01*
X023080Y006282D02*
X023120Y006282D01*
X023120Y006440D02*
X023080Y006440D01*
X023080Y006599D02*
X023120Y006599D01*
X023120Y006757D02*
X023080Y006757D01*
X023080Y006916D02*
X023120Y006916D01*
X023120Y007074D02*
X023080Y007074D01*
X023080Y007233D02*
X023120Y007233D01*
X023120Y007391D02*
X023080Y007391D01*
X023080Y007550D02*
X023120Y007550D01*
X023120Y007708D02*
X023080Y007708D01*
X023080Y007867D02*
X023120Y007867D01*
X023120Y008025D02*
X023080Y008025D01*
X023080Y008184D02*
X023120Y008184D01*
X023120Y008342D02*
X023080Y008342D01*
X023080Y008501D02*
X023120Y008501D01*
X023120Y008659D02*
X023080Y008659D01*
X023080Y008818D02*
X023120Y008818D01*
X023120Y008976D02*
X023080Y008976D01*
X023080Y009135D02*
X023120Y009135D01*
X023120Y009293D02*
X023080Y009293D01*
X023080Y009452D02*
X023120Y009452D01*
X023120Y009610D02*
X023080Y009610D01*
X023080Y009769D02*
X023120Y009769D01*
X023120Y009927D02*
X023080Y009927D01*
X023080Y010086D02*
X023120Y010086D01*
X023120Y010244D02*
X023080Y010244D01*
X023080Y010403D02*
X023120Y010403D01*
X023120Y010561D02*
X023080Y010561D01*
X023080Y010720D02*
X023120Y010720D01*
X023120Y010878D02*
X023080Y010878D01*
X023080Y011037D02*
X023120Y011037D01*
X023120Y011195D02*
X023080Y011195D01*
X023080Y011354D02*
X023120Y011354D01*
X023120Y011512D02*
X023080Y011512D01*
X023080Y011671D02*
X023120Y011671D01*
X023120Y011829D02*
X023080Y011829D01*
X023080Y011988D02*
X023120Y011988D01*
X023120Y012146D02*
X023080Y012146D01*
X023080Y012305D02*
X023120Y012305D01*
X023120Y012463D02*
X023080Y012463D01*
X023080Y012622D02*
X023120Y012622D01*
X023120Y012780D02*
X023080Y012780D01*
X023080Y012939D02*
X023120Y012939D01*
X023120Y013097D02*
X023080Y013097D01*
X023080Y013256D02*
X023120Y013256D01*
X023120Y013414D02*
X022941Y013414D01*
X022782Y013573D02*
X023120Y013573D01*
X023120Y013731D02*
X022610Y013731D01*
X022387Y013890D02*
X023120Y013890D01*
X023120Y014048D02*
X014880Y014048D01*
X014880Y013890D02*
X022013Y013890D01*
X021790Y013731D02*
X014880Y013731D01*
X014880Y013573D02*
X021705Y013573D01*
X021676Y013414D02*
X014880Y013414D01*
X014880Y013256D02*
X021693Y013256D01*
X021762Y013097D02*
X014880Y013097D01*
X014880Y012939D02*
X021946Y012939D01*
X022454Y012939D02*
X022720Y012939D01*
X022720Y013097D02*
X022638Y013097D01*
X022720Y012780D02*
X014880Y012780D01*
X014880Y012622D02*
X022720Y012622D01*
X022720Y012463D02*
X014880Y012463D01*
X014880Y012305D02*
X021864Y012305D01*
X021735Y012146D02*
X019268Y012146D01*
X019266Y012148D02*
X019158Y012192D01*
X019042Y012192D01*
X018934Y012148D01*
X018852Y012066D01*
X018808Y011958D01*
X018808Y011842D01*
X018852Y011734D01*
X018920Y011666D01*
X018920Y008434D01*
X018852Y008366D01*
X018808Y008258D01*
X018808Y008142D01*
X018852Y008034D01*
X018934Y007952D01*
X019042Y007908D01*
X019158Y007908D01*
X019266Y007952D01*
X019348Y008034D01*
X019392Y008142D01*
X019392Y008258D01*
X019348Y008366D01*
X019280Y008434D01*
X019280Y011666D01*
X019348Y011734D01*
X019392Y011842D01*
X019392Y011958D01*
X019348Y012066D01*
X019266Y012148D01*
X019380Y011988D02*
X021676Y011988D01*
X021676Y011829D02*
X019387Y011829D01*
X019284Y011671D02*
X021728Y011671D01*
X021847Y011512D02*
X019280Y011512D01*
X019280Y011354D02*
X022720Y011354D01*
X022720Y011512D02*
X022553Y011512D01*
X022672Y011671D02*
X022720Y011671D01*
X022720Y012146D02*
X022665Y012146D01*
X022720Y012305D02*
X022536Y012305D01*
X023480Y012305D02*
X023820Y012305D01*
X023820Y012463D02*
X023480Y012463D01*
X023480Y012622D02*
X023820Y012622D01*
X023820Y012780D02*
X023480Y012780D01*
X023480Y012939D02*
X023820Y012939D01*
X023820Y013097D02*
X023480Y013097D01*
X023480Y013256D02*
X023820Y013256D01*
X023820Y013414D02*
X023480Y013414D01*
X023480Y013573D02*
X023820Y013573D01*
X023820Y013731D02*
X023480Y013731D01*
X023480Y013890D02*
X023820Y013890D01*
X023820Y014048D02*
X023480Y014048D01*
X023480Y014207D02*
X023820Y014207D01*
X023820Y014365D02*
X023480Y014365D01*
X023480Y014524D02*
X023820Y014524D01*
X023820Y014682D02*
X023496Y014682D01*
X023592Y014841D02*
X023820Y014841D01*
X023820Y014999D02*
X023576Y014999D01*
X023443Y015158D02*
X023820Y015158D01*
X023820Y015316D02*
X022625Y015316D01*
X022644Y015297D02*
X022497Y015444D01*
X022304Y015524D01*
X022096Y015524D01*
X021903Y015444D01*
X021756Y015297D01*
X021676Y015104D01*
X021676Y014896D01*
X021756Y014703D01*
X021903Y014556D01*
X022096Y014476D01*
X022304Y014476D01*
X022497Y014556D01*
X022644Y014703D01*
X022724Y014896D01*
X022724Y015104D01*
X022644Y015297D01*
X022702Y015158D02*
X023157Y015158D01*
X023024Y014999D02*
X022724Y014999D01*
X022701Y014841D02*
X023008Y014841D01*
X023104Y014682D02*
X022623Y014682D01*
X022418Y014524D02*
X023120Y014524D01*
X023120Y014365D02*
X014880Y014365D01*
X014880Y014207D02*
X023120Y014207D01*
X024180Y014207D02*
X024444Y014207D01*
X024400Y014048D02*
X024180Y014048D01*
X024180Y013890D02*
X024405Y013890D01*
X024470Y013731D02*
X024180Y013731D01*
X024180Y013573D02*
X024625Y013573D01*
X024180Y013414D02*
X025419Y013414D01*
X025413Y013573D02*
X025175Y013573D01*
X025330Y013731D02*
X025517Y013731D01*
X025520Y013256D02*
X024180Y013256D01*
X024180Y013097D02*
X025520Y013097D01*
X025520Y012939D02*
X024180Y012939D01*
X024180Y012780D02*
X025520Y012780D01*
X025520Y012622D02*
X024180Y012622D01*
X024180Y012463D02*
X024711Y012463D01*
X024801Y012500D02*
X024617Y012424D01*
X024476Y012283D01*
X024400Y012099D01*
X024400Y011901D01*
X024476Y011717D01*
X024617Y011576D01*
X024801Y011500D01*
X024999Y011500D01*
X025183Y011576D01*
X025324Y011717D01*
X025400Y011901D01*
X025400Y012099D01*
X025324Y012283D01*
X025183Y012424D01*
X024999Y012500D01*
X024801Y012500D01*
X025089Y012463D02*
X025520Y012463D01*
X025520Y012305D02*
X025303Y012305D01*
X025381Y012146D02*
X025520Y012146D01*
X025520Y011988D02*
X025400Y011988D01*
X025370Y011829D02*
X025520Y011829D01*
X025520Y011671D02*
X025278Y011671D01*
X025520Y011512D02*
X025028Y011512D01*
X024772Y011512D02*
X024180Y011512D01*
X024180Y011354D02*
X024546Y011354D01*
X024440Y011195D02*
X024180Y011195D01*
X024180Y011037D02*
X024400Y011037D01*
X024409Y010878D02*
X024180Y010878D01*
X024180Y010720D02*
X024475Y010720D01*
X024653Y010561D02*
X024180Y010561D01*
X024180Y010403D02*
X024595Y010403D01*
X024460Y010244D02*
X024180Y010244D01*
X024180Y010086D02*
X024400Y010086D01*
X024400Y009927D02*
X024180Y009927D01*
X024180Y009769D02*
X024455Y009769D01*
X024583Y009610D02*
X024180Y009610D01*
X024180Y009452D02*
X024683Y009452D01*
X024486Y009293D02*
X024180Y009293D01*
X024180Y009135D02*
X024415Y009135D01*
X024400Y008976D02*
X024180Y008976D01*
X024180Y008818D02*
X024434Y008818D01*
X024534Y008659D02*
X024180Y008659D01*
X024180Y008501D02*
X024799Y008501D01*
X025001Y008501D02*
X025520Y008501D01*
X025520Y008659D02*
X025266Y008659D01*
X025366Y008818D02*
X025520Y008818D01*
X025520Y008976D02*
X025400Y008976D01*
X025385Y009135D02*
X025520Y009135D01*
X025520Y009293D02*
X025314Y009293D01*
X025117Y009452D02*
X025520Y009452D01*
X025520Y009610D02*
X025217Y009610D01*
X025345Y009769D02*
X025520Y009769D01*
X025520Y009927D02*
X025400Y009927D01*
X025400Y010086D02*
X025520Y010086D01*
X025520Y010244D02*
X025340Y010244D01*
X025205Y010403D02*
X025520Y010403D01*
X025520Y010561D02*
X025147Y010561D01*
X025325Y010720D02*
X025520Y010720D01*
X025520Y010878D02*
X025391Y010878D01*
X025400Y011037D02*
X025520Y011037D01*
X025520Y011195D02*
X025360Y011195D01*
X025254Y011354D02*
X025520Y011354D01*
X024522Y011671D02*
X024180Y011671D01*
X024180Y011829D02*
X024430Y011829D01*
X024400Y011988D02*
X024180Y011988D01*
X024180Y012146D02*
X024419Y012146D01*
X024497Y012305D02*
X024180Y012305D01*
X023820Y012146D02*
X023480Y012146D01*
X023480Y011988D02*
X023820Y011988D01*
X023820Y011829D02*
X023480Y011829D01*
X023480Y011671D02*
X023820Y011671D01*
X023820Y011512D02*
X023480Y011512D01*
X023480Y011354D02*
X023820Y011354D01*
X023820Y011195D02*
X023480Y011195D01*
X023480Y011037D02*
X023820Y011037D01*
X023820Y010878D02*
X023480Y010878D01*
X023480Y010720D02*
X023820Y010720D01*
X023820Y010561D02*
X023480Y010561D01*
X023480Y010403D02*
X023820Y010403D01*
X023820Y010244D02*
X023480Y010244D01*
X023480Y010086D02*
X023820Y010086D01*
X023820Y009927D02*
X023480Y009927D01*
X023480Y009769D02*
X023820Y009769D01*
X023820Y009610D02*
X023480Y009610D01*
X023480Y009452D02*
X023820Y009452D01*
X023820Y009293D02*
X023480Y009293D01*
X023480Y009135D02*
X023820Y009135D01*
X023820Y008976D02*
X023480Y008976D01*
X023480Y008818D02*
X023820Y008818D01*
X023820Y008659D02*
X023480Y008659D01*
X023480Y008501D02*
X023820Y008501D01*
X023820Y008342D02*
X023480Y008342D01*
X023480Y008184D02*
X023820Y008184D01*
X023820Y008025D02*
X023480Y008025D01*
X023480Y007867D02*
X023820Y007867D01*
X023820Y007708D02*
X023480Y007708D01*
X023480Y007550D02*
X023820Y007550D01*
X023820Y007391D02*
X023480Y007391D01*
X023480Y007233D02*
X023820Y007233D01*
X023820Y007074D02*
X023480Y007074D01*
X023480Y006916D02*
X023820Y006916D01*
X023820Y006757D02*
X023480Y006757D01*
X023480Y006599D02*
X023820Y006599D01*
X023820Y006440D02*
X023480Y006440D01*
X023480Y006282D02*
X023820Y006282D01*
X023820Y006123D02*
X023566Y006123D01*
X023592Y005965D02*
X023820Y005965D01*
X023820Y005806D02*
X023520Y005806D01*
X022720Y005172D02*
X021287Y005172D01*
X021281Y005014D02*
X022720Y005014D01*
X022720Y004855D02*
X021169Y004855D01*
X020831Y004855D02*
X005589Y004855D01*
X005747Y004697D02*
X022623Y004697D01*
X022609Y004538D02*
X005812Y004538D01*
X005878Y004380D02*
X022707Y004380D01*
X020817Y005331D02*
X020410Y005331D01*
X020510Y005430D02*
X020270Y005190D01*
X019930Y005190D01*
X019690Y005430D01*
X019690Y005770D01*
X019930Y006010D01*
X020270Y006010D01*
X020510Y005770D01*
X020510Y005430D01*
X020510Y005489D02*
X020820Y005489D01*
X020820Y005648D02*
X020510Y005648D01*
X020474Y005806D02*
X020820Y005806D01*
X020820Y005965D02*
X020315Y005965D01*
X019885Y005965D02*
X019315Y005965D01*
X019270Y006010D02*
X018930Y006010D01*
X018730Y005810D01*
X017606Y005810D01*
X017586Y005858D01*
X017458Y005986D01*
X017291Y006055D01*
X017109Y006055D01*
X016942Y005986D01*
X016814Y005858D01*
X016745Y005691D01*
X016745Y005509D01*
X016814Y005342D01*
X016942Y005214D01*
X017109Y005145D01*
X017291Y005145D01*
X017458Y005214D01*
X017586Y005342D01*
X017606Y005390D01*
X018730Y005390D01*
X018930Y005190D01*
X019270Y005190D01*
X019510Y005430D01*
X019510Y005770D01*
X019270Y006010D01*
X019474Y005806D02*
X019726Y005806D01*
X019690Y005648D02*
X019510Y005648D01*
X019510Y005489D02*
X019690Y005489D01*
X019790Y005331D02*
X019410Y005331D01*
X019100Y005600D02*
X017200Y005600D01*
X017356Y005172D02*
X020713Y005172D01*
X020719Y005014D02*
X005336Y005014D01*
X004664Y005014D02*
X000700Y005014D01*
X000700Y005172D02*
X015044Y005172D01*
X015109Y005145D02*
X015291Y005145D01*
X015458Y005214D01*
X015586Y005342D01*
X015655Y005509D01*
X015655Y005691D01*
X015586Y005858D01*
X015458Y005986D01*
X015410Y006006D01*
X015410Y007313D01*
X015887Y007790D01*
X016170Y007790D01*
X016410Y008030D01*
X016410Y008370D01*
X016170Y008610D01*
X015830Y008610D01*
X015590Y008370D01*
X015590Y008087D01*
X014990Y007487D01*
X014990Y006006D01*
X014942Y005986D01*
X014814Y005858D01*
X014794Y005810D01*
X013770Y005810D01*
X013570Y006010D01*
X013230Y006010D01*
X012990Y005770D01*
X012990Y005430D01*
X013230Y005190D01*
X013570Y005190D01*
X013770Y005390D01*
X014794Y005390D01*
X014814Y005342D01*
X014942Y005214D01*
X015109Y005145D01*
X015356Y005172D02*
X017044Y005172D01*
X016826Y005331D02*
X015574Y005331D01*
X015647Y005489D02*
X016753Y005489D01*
X016745Y005648D02*
X015655Y005648D01*
X015607Y005806D02*
X016793Y005806D01*
X016921Y005965D02*
X015479Y005965D01*
X015410Y006123D02*
X020820Y006123D01*
X020820Y006282D02*
X015410Y006282D01*
X015410Y006440D02*
X020820Y006440D01*
X020820Y006599D02*
X015410Y006599D01*
X015410Y006757D02*
X020820Y006757D01*
X020820Y006916D02*
X015410Y006916D01*
X015410Y007074D02*
X020820Y007074D01*
X020820Y007233D02*
X015410Y007233D01*
X015488Y007391D02*
X020820Y007391D01*
X020820Y007550D02*
X015646Y007550D01*
X015805Y007708D02*
X020820Y007708D01*
X020820Y007867D02*
X017246Y007867D01*
X017170Y007790D02*
X017410Y008030D01*
X017410Y008370D01*
X017170Y008610D01*
X016830Y008610D01*
X016590Y008370D01*
X016590Y008030D01*
X016830Y007790D01*
X017170Y007790D01*
X017405Y008025D02*
X018861Y008025D01*
X018808Y008184D02*
X017410Y008184D01*
X017410Y008342D02*
X018842Y008342D01*
X018920Y008501D02*
X017279Y008501D01*
X016721Y008501D02*
X016279Y008501D01*
X016410Y008342D02*
X016590Y008342D01*
X016590Y008184D02*
X016410Y008184D01*
X016405Y008025D02*
X016595Y008025D01*
X016754Y007867D02*
X016246Y007867D01*
X016000Y008200D02*
X015200Y007400D01*
X015200Y005600D01*
X013400Y005600D01*
X013710Y005331D02*
X014826Y005331D01*
X014921Y005965D02*
X013615Y005965D01*
X013185Y005965D02*
X012615Y005965D01*
X012570Y006010D02*
X012230Y006010D01*
X011990Y005770D01*
X011990Y005430D01*
X012230Y005190D01*
X012570Y005190D01*
X012810Y005430D01*
X012810Y005770D01*
X012570Y006010D01*
X012774Y005806D02*
X013026Y005806D01*
X012990Y005648D02*
X012810Y005648D01*
X012810Y005489D02*
X012990Y005489D01*
X013090Y005331D02*
X012710Y005331D01*
X012090Y005331D02*
X000700Y005331D01*
X000700Y005489D02*
X011990Y005489D01*
X011990Y005648D02*
X000700Y005648D01*
X000700Y005806D02*
X012026Y005806D01*
X012185Y005965D02*
X000700Y005965D01*
X000700Y006123D02*
X014990Y006123D01*
X014990Y006282D02*
X000700Y006282D01*
X000700Y006440D02*
X014990Y006440D01*
X014990Y006599D02*
X000700Y006599D01*
X000700Y006757D02*
X014990Y006757D01*
X014990Y006916D02*
X000700Y006916D01*
X000700Y007074D02*
X014990Y007074D01*
X014990Y007233D02*
X000700Y007233D01*
X000700Y007391D02*
X014990Y007391D01*
X015053Y007550D02*
X000700Y007550D01*
X000700Y007708D02*
X015211Y007708D01*
X015370Y007867D02*
X000700Y007867D01*
X000700Y008025D02*
X015528Y008025D01*
X015590Y008184D02*
X000700Y008184D01*
X000700Y008342D02*
X015590Y008342D01*
X015721Y008501D02*
X011355Y008501D01*
X011275Y008420D02*
X011531Y008676D01*
X011704Y008676D01*
X011897Y008756D01*
X012044Y008903D01*
X012124Y009096D01*
X012124Y009304D01*
X012044Y009497D01*
X011897Y009644D01*
X011704Y009724D01*
X011496Y009724D01*
X011303Y009644D01*
X011156Y009497D01*
X011076Y009304D01*
X011076Y009096D01*
X011156Y008903D01*
X011202Y008857D01*
X011125Y008780D01*
X005975Y008780D01*
X004280Y010475D01*
X004280Y014270D01*
X004486Y014270D01*
X004644Y014335D01*
X004765Y014456D01*
X004820Y014590D01*
X004820Y013525D01*
X005970Y012375D01*
X005970Y011814D01*
X006035Y011656D01*
X006156Y011535D01*
X006220Y011509D01*
X006220Y010300D01*
X005990Y010070D01*
X005990Y009730D01*
X006230Y009490D01*
X006570Y009490D01*
X006810Y009730D01*
X006810Y010070D01*
X006580Y010300D01*
X006580Y011509D01*
X006644Y011535D01*
X006765Y011656D01*
X006830Y011814D01*
X006830Y012586D01*
X006765Y012744D01*
X006644Y012865D01*
X006486Y012930D01*
X006314Y012930D01*
X006156Y012865D01*
X006073Y012781D01*
X005180Y013675D01*
X005180Y017675D01*
X005075Y017780D01*
X004830Y018025D01*
X004830Y018186D01*
X004765Y018344D01*
X004644Y018465D01*
X004486Y018530D01*
X003925Y018530D01*
X003180Y019275D01*
X003180Y023674D01*
X003253Y023704D01*
X003379Y023830D01*
X003447Y023994D01*
X003447Y024806D01*
X003379Y024970D01*
X003253Y025096D01*
X003089Y025164D01*
X002911Y025164D01*
X002747Y025096D01*
X002621Y024970D01*
X002553Y024806D01*
X002553Y023994D01*
X002621Y023830D01*
X002747Y023704D01*
X002820Y023674D01*
X002820Y019125D01*
X003519Y018427D01*
X003435Y018344D01*
X003370Y018186D01*
X003370Y018014D01*
X003435Y017856D01*
X003556Y017735D01*
X003714Y017670D01*
X004486Y017670D01*
X004620Y017726D01*
X004820Y017525D01*
X004820Y017373D01*
X004781Y017426D01*
X004726Y017481D01*
X004662Y017528D01*
X004592Y017563D01*
X004517Y017588D01*
X004439Y017600D01*
X004110Y017600D01*
X004110Y017110D01*
X004090Y017110D01*
X004090Y017600D01*
X003761Y017600D01*
X003683Y017588D01*
X003608Y017563D01*
X003538Y017528D01*
X003474Y017481D01*
X003419Y017426D01*
X003372Y017362D01*
X003337Y017292D01*
X003312Y017217D01*
X003300Y017139D01*
X003300Y017110D01*
X004090Y017110D01*
X004090Y017090D01*
X004110Y017090D01*
X004110Y016600D01*
X004439Y016600D01*
X004517Y016612D01*
X004592Y016637D01*
X004662Y016672D01*
X004726Y016719D01*
X004781Y016774D01*
X004820Y016827D01*
X004820Y015810D01*
X004765Y015944D01*
X004644Y016065D01*
X004486Y016130D01*
X003714Y016130D01*
X003556Y016065D01*
X003435Y015944D01*
X003409Y015880D01*
X002925Y015880D01*
X002820Y015775D01*
X002313Y015267D01*
X002270Y015310D01*
X001945Y015310D01*
X001580Y015675D01*
X001580Y015841D01*
X001801Y015620D01*
X002000Y015620D01*
X002199Y015620D01*
X002480Y015901D01*
X002480Y016100D01*
X002480Y016299D01*
X002199Y016580D01*
X002000Y016580D01*
X002000Y016100D01*
X002000Y016100D01*
X002480Y016100D01*
X002000Y016100D01*
X002000Y016100D01*
X002000Y016580D01*
X001801Y016580D01*
X001580Y016359D01*
X001580Y016825D01*
X001637Y016883D01*
X001830Y016690D01*
X002170Y016690D01*
X002410Y016930D01*
X002410Y017270D01*
X002180Y017500D01*
X002180Y017900D01*
X002410Y018130D01*
X002410Y018470D01*
X002170Y018710D01*
X001830Y018710D01*
X001590Y018470D01*
X001590Y018130D01*
X001820Y017900D01*
X001820Y017500D01*
X001600Y017280D01*
X001525Y017280D01*
X001325Y017080D01*
X001220Y016975D01*
X001220Y015525D01*
X001690Y015055D01*
X001690Y014730D01*
X001930Y014490D01*
X002270Y014490D01*
X002510Y014730D01*
X002510Y014955D01*
X003075Y015520D01*
X003409Y015520D01*
X003435Y015456D01*
X003556Y015335D01*
X003714Y015270D01*
X004486Y015270D01*
X004644Y015335D01*
X004765Y015456D01*
X004820Y015590D01*
X004820Y014810D01*
X004765Y014944D01*
X004644Y015065D01*
X004486Y015130D01*
X003714Y015130D01*
X003556Y015065D01*
X003435Y014944D01*
X003370Y014786D01*
X003370Y014614D01*
X003435Y014456D01*
X003556Y014335D01*
X003714Y014270D01*
X003920Y014270D01*
X003920Y010325D01*
X005720Y008525D01*
X005825Y008420D01*
X011275Y008420D01*
X011514Y008659D02*
X018920Y008659D01*
X018920Y008818D02*
X011958Y008818D01*
X012074Y008976D02*
X018920Y008976D01*
X018920Y009135D02*
X012124Y009135D01*
X012124Y009293D02*
X018920Y009293D01*
X018920Y009452D02*
X012063Y009452D01*
X011931Y009610D02*
X018920Y009610D01*
X018920Y009769D02*
X010510Y009769D01*
X010510Y009730D02*
X010270Y009490D01*
X009930Y009490D01*
X009690Y009730D01*
X009690Y010070D01*
X009930Y010310D01*
X010270Y010310D01*
X010510Y010070D01*
X010510Y009730D01*
X010390Y009610D02*
X011269Y009610D01*
X011137Y009452D02*
X009330Y009452D01*
X009299Y009420D02*
X009580Y009701D01*
X009580Y009900D01*
X009580Y010099D01*
X009299Y010380D01*
X009100Y010380D01*
X009100Y009900D01*
X009580Y009900D01*
X009100Y009900D01*
X009100Y009900D01*
X009100Y009900D01*
X009100Y009420D01*
X009299Y009420D01*
X009100Y009420D02*
X009100Y009900D01*
X009100Y009900D01*
X009100Y009900D01*
X008620Y009900D01*
X008620Y010099D01*
X008901Y010380D01*
X009100Y010380D01*
X009100Y009900D01*
X008620Y009900D01*
X008620Y009701D01*
X008901Y009420D01*
X009100Y009420D01*
X009100Y009452D02*
X009100Y009452D01*
X009100Y009610D02*
X009100Y009610D01*
X009100Y009769D02*
X009100Y009769D01*
X009100Y009927D02*
X009100Y009927D01*
X009100Y010086D02*
X009100Y010086D01*
X009100Y010244D02*
X009100Y010244D01*
X009435Y010244D02*
X009864Y010244D01*
X009706Y010086D02*
X009580Y010086D01*
X009580Y009927D02*
X009690Y009927D01*
X009690Y009769D02*
X009580Y009769D01*
X009489Y009610D02*
X009810Y009610D01*
X010510Y009927D02*
X015095Y009927D01*
X015142Y009908D02*
X015258Y009908D01*
X015366Y009952D01*
X015448Y010034D01*
X015492Y010142D01*
X015492Y010258D01*
X015448Y010366D01*
X015366Y010448D01*
X015258Y010492D01*
X015142Y010492D01*
X015034Y010448D01*
X014952Y010366D01*
X014908Y010258D01*
X014908Y010142D01*
X014952Y010034D01*
X015034Y009952D01*
X015142Y009908D01*
X015305Y009927D02*
X018920Y009927D01*
X018920Y010086D02*
X015469Y010086D01*
X015492Y010244D02*
X018920Y010244D01*
X018920Y010403D02*
X015411Y010403D01*
X014989Y010403D02*
X014616Y010403D01*
X014648Y010434D02*
X014692Y010542D01*
X014692Y010638D01*
X014880Y010825D01*
X014880Y016375D01*
X014792Y016462D01*
X014792Y016558D01*
X014748Y016666D01*
X014666Y016748D01*
X014558Y016792D01*
X014442Y016792D01*
X014334Y016748D01*
X014252Y016666D01*
X014208Y016558D01*
X014208Y016442D01*
X014252Y016334D01*
X014334Y016252D01*
X014442Y016208D01*
X014520Y016208D01*
X014520Y010975D01*
X014438Y010892D01*
X014342Y010892D01*
X014234Y010848D01*
X014152Y010766D01*
X014108Y010658D01*
X014108Y010542D01*
X014152Y010434D01*
X014234Y010352D01*
X014342Y010308D01*
X014458Y010308D01*
X014566Y010352D01*
X014648Y010434D01*
X014692Y010561D02*
X018920Y010561D01*
X018920Y010720D02*
X014774Y010720D01*
X014880Y010878D02*
X018920Y010878D01*
X018920Y011037D02*
X014880Y011037D01*
X014880Y011195D02*
X018920Y011195D01*
X018920Y011354D02*
X014880Y011354D01*
X014880Y011512D02*
X018920Y011512D01*
X018916Y011671D02*
X014880Y011671D01*
X014880Y011829D02*
X018813Y011829D01*
X018820Y011988D02*
X014880Y011988D01*
X014880Y012146D02*
X018932Y012146D01*
X019280Y011195D02*
X022720Y011195D01*
X022720Y011037D02*
X019280Y011037D01*
X019280Y010878D02*
X021986Y010878D01*
X021779Y010720D02*
X019280Y010720D01*
X019280Y010561D02*
X021700Y010561D01*
X021676Y010403D02*
X019280Y010403D01*
X019280Y010244D02*
X021698Y010244D01*
X021774Y010086D02*
X019280Y010086D01*
X019280Y009927D02*
X021973Y009927D01*
X022427Y009927D02*
X022720Y009927D01*
X022720Y009769D02*
X019280Y009769D01*
X019280Y009610D02*
X020796Y009610D01*
X020708Y009452D02*
X019280Y009452D01*
X019280Y009293D02*
X020728Y009293D01*
X020820Y009135D02*
X019280Y009135D01*
X019280Y008976D02*
X020820Y008976D01*
X020820Y008818D02*
X019280Y008818D01*
X019280Y008659D02*
X020820Y008659D01*
X020820Y008501D02*
X019280Y008501D01*
X019358Y008342D02*
X020820Y008342D01*
X020820Y008184D02*
X019392Y008184D01*
X019339Y008025D02*
X020820Y008025D01*
X021180Y008025D02*
X022720Y008025D01*
X022720Y007867D02*
X022442Y007867D01*
X022633Y007708D02*
X022720Y007708D01*
X022705Y007550D02*
X022720Y007550D01*
X022697Y007233D02*
X022720Y007233D01*
X022720Y007074D02*
X022615Y007074D01*
X022720Y006916D02*
X022399Y006916D01*
X022720Y006757D02*
X021180Y006757D01*
X021180Y006599D02*
X022720Y006599D01*
X022001Y006916D02*
X021180Y006916D01*
X021180Y007074D02*
X021785Y007074D01*
X021703Y007233D02*
X021180Y007233D01*
X021180Y007391D02*
X021676Y007391D01*
X021695Y007550D02*
X021180Y007550D01*
X021180Y007708D02*
X021767Y007708D01*
X021958Y007867D02*
X021180Y007867D01*
X021180Y008184D02*
X022720Y008184D01*
X022720Y008342D02*
X021180Y008342D01*
X021180Y008501D02*
X021859Y008501D01*
X021733Y008659D02*
X021180Y008659D01*
X021180Y008818D02*
X021676Y008818D01*
X021676Y008976D02*
X021180Y008976D01*
X021180Y009135D02*
X021730Y009135D01*
X021852Y009293D02*
X021272Y009293D01*
X021292Y009452D02*
X022720Y009452D01*
X022720Y009610D02*
X021204Y009610D01*
X022548Y009293D02*
X022720Y009293D01*
X022720Y009135D02*
X022670Y009135D01*
X022667Y008659D02*
X022720Y008659D01*
X022720Y008501D02*
X022541Y008501D01*
X024180Y008342D02*
X024535Y008342D01*
X024435Y008184D02*
X024180Y008184D01*
X024180Y008025D02*
X024400Y008025D01*
X024414Y007867D02*
X024180Y007867D01*
X024180Y007708D02*
X024485Y007708D01*
X024681Y007550D02*
X024180Y007550D01*
X024180Y007391D02*
X024584Y007391D01*
X024455Y007233D02*
X024180Y007233D01*
X024180Y007074D02*
X024400Y007074D01*
X024400Y006916D02*
X024180Y006916D01*
X024180Y006757D02*
X024459Y006757D01*
X024594Y006599D02*
X024180Y006599D01*
X025400Y006916D02*
X026022Y006916D01*
X025836Y007074D02*
X025400Y007074D01*
X025345Y007233D02*
X025808Y007233D01*
X025654Y007391D02*
X025216Y007391D01*
X025119Y007550D02*
X025520Y007550D01*
X025520Y007708D02*
X025315Y007708D01*
X025386Y007867D02*
X025520Y007867D01*
X025520Y008025D02*
X025400Y008025D01*
X025365Y008184D02*
X025520Y008184D01*
X025520Y008342D02*
X025265Y008342D01*
X022720Y010086D02*
X022626Y010086D01*
X022702Y010244D02*
X022720Y010244D01*
X022700Y010561D02*
X022720Y010561D01*
X022720Y010720D02*
X022621Y010720D01*
X022720Y010878D02*
X022414Y010878D01*
X024180Y014365D02*
X024558Y014365D01*
X024744Y014524D02*
X024180Y014524D01*
X024180Y014682D02*
X024511Y014682D01*
X024425Y014841D02*
X024180Y014841D01*
X024180Y014999D02*
X024400Y014999D01*
X024424Y015158D02*
X024180Y015158D01*
X024180Y015316D02*
X024509Y015316D01*
X024739Y015475D02*
X024180Y015475D01*
X024122Y015633D02*
X024560Y015633D01*
X024445Y015792D02*
X023963Y015792D01*
X023805Y015950D02*
X024400Y015950D01*
X024404Y016109D02*
X023646Y016109D01*
X023488Y016267D02*
X024469Y016267D01*
X024621Y016426D02*
X023329Y016426D01*
X023171Y016584D02*
X024609Y016584D01*
X024476Y016717D02*
X024400Y016901D01*
X024400Y017060D02*
X019039Y017060D01*
X019110Y017130D02*
X018870Y016890D01*
X018530Y016890D01*
X018290Y017130D01*
X018290Y017470D01*
X018530Y017710D01*
X018870Y017710D01*
X019110Y017470D01*
X019110Y017130D01*
X019110Y017218D02*
X024449Y017218D01*
X024569Y017377D02*
X019110Y017377D01*
X019045Y017535D02*
X024716Y017535D01*
X024499Y017694D02*
X018886Y017694D01*
X018514Y017694D02*
X017886Y017694D01*
X017870Y017710D02*
X017530Y017710D01*
X017290Y017470D01*
X017290Y017130D01*
X017530Y016890D01*
X017870Y016890D01*
X018110Y017130D01*
X018110Y017470D01*
X017870Y017710D01*
X018045Y017535D02*
X018355Y017535D01*
X018290Y017377D02*
X018110Y017377D01*
X018110Y017218D02*
X018290Y017218D01*
X018361Y017060D02*
X018039Y017060D01*
X017881Y016901D02*
X018519Y016901D01*
X018881Y016901D02*
X021860Y016901D01*
X021734Y016743D02*
X014671Y016743D01*
X014782Y016584D02*
X021676Y016584D01*
X021676Y016426D02*
X014829Y016426D01*
X014880Y016267D02*
X021730Y016267D01*
X021851Y016109D02*
X014880Y016109D01*
X014880Y015950D02*
X023295Y015950D01*
X023137Y016109D02*
X022549Y016109D01*
X022670Y016267D02*
X022978Y016267D01*
X023454Y015792D02*
X014880Y015792D01*
X014880Y015633D02*
X023612Y015633D01*
X023771Y015475D02*
X022423Y015475D01*
X021977Y015475D02*
X014880Y015475D01*
X014880Y015316D02*
X021775Y015316D01*
X021698Y015158D02*
X014880Y015158D01*
X014880Y014999D02*
X021676Y014999D01*
X021699Y014841D02*
X014880Y014841D01*
X014880Y014682D02*
X021777Y014682D01*
X021982Y014524D02*
X014880Y014524D01*
X014520Y014524D02*
X010980Y014524D01*
X010980Y014475D02*
X010980Y017175D01*
X010875Y017280D01*
X009780Y018375D01*
X009780Y021125D01*
X009973Y021319D01*
X010056Y021235D01*
X010214Y021170D01*
X010915Y021170D01*
X010775Y021030D01*
X010214Y021030D01*
X010056Y020965D01*
X009935Y020844D01*
X009870Y020686D01*
X009870Y020514D01*
X009935Y020356D01*
X010056Y020235D01*
X010214Y020170D01*
X010986Y020170D01*
X011144Y020235D01*
X011265Y020356D01*
X011330Y020514D01*
X011330Y020686D01*
X011265Y020844D01*
X011181Y020927D01*
X011580Y021325D01*
X011580Y022475D01*
X011475Y022580D01*
X011330Y022725D01*
X011330Y022786D01*
X011265Y022944D01*
X011144Y023065D01*
X010986Y023130D01*
X010214Y023130D01*
X010056Y023065D01*
X009935Y022944D01*
X009870Y022786D01*
X009870Y022614D01*
X009935Y022456D01*
X010056Y022335D01*
X010214Y022270D01*
X010986Y022270D01*
X011144Y022335D01*
X011177Y022369D01*
X011220Y022325D01*
X011220Y021888D01*
X011144Y021965D01*
X010986Y022030D01*
X010214Y022030D01*
X010056Y021965D01*
X009935Y021844D01*
X009898Y021752D01*
X009525Y021380D01*
X009420Y021275D01*
X009420Y018225D01*
X010620Y017025D01*
X010620Y014325D01*
X011125Y013821D01*
X011076Y013704D01*
X011076Y013496D01*
X011156Y013303D01*
X011303Y013156D01*
X011496Y013076D01*
X011704Y013076D01*
X011897Y013156D01*
X012044Y013303D01*
X012124Y013496D01*
X012124Y013704D01*
X012044Y013897D01*
X011897Y014044D01*
X011704Y014124D01*
X011496Y014124D01*
X011379Y014075D01*
X010980Y014475D01*
X011090Y014365D02*
X014520Y014365D01*
X014520Y014207D02*
X011248Y014207D01*
X011056Y013890D02*
X010089Y013890D01*
X010029Y013950D02*
X010280Y014201D01*
X010280Y014400D01*
X010280Y014599D01*
X009999Y014880D01*
X009800Y014880D01*
X009800Y014400D01*
X009800Y014400D01*
X010280Y014400D01*
X009800Y014400D01*
X009800Y014400D01*
X009800Y014400D01*
X009320Y014400D01*
X009320Y014599D01*
X009601Y014880D01*
X009800Y014880D01*
X009800Y014400D01*
X009800Y013500D01*
X010280Y013500D01*
X010280Y013699D01*
X010029Y013950D01*
X010127Y014048D02*
X010897Y014048D01*
X010739Y014207D02*
X010280Y014207D01*
X010280Y014365D02*
X010620Y014365D01*
X010620Y014524D02*
X010280Y014524D01*
X010197Y014682D02*
X010620Y014682D01*
X010620Y014841D02*
X010038Y014841D01*
X009970Y014990D02*
X010210Y015230D01*
X010210Y015570D01*
X009970Y015810D01*
X009630Y015810D01*
X009390Y015570D01*
X009390Y015230D01*
X009630Y014990D01*
X009970Y014990D01*
X009979Y014999D02*
X010620Y014999D01*
X010620Y015158D02*
X010137Y015158D01*
X010210Y015316D02*
X010620Y015316D01*
X010620Y015475D02*
X010210Y015475D01*
X010147Y015633D02*
X010620Y015633D01*
X010620Y015792D02*
X009988Y015792D01*
X009612Y015792D02*
X008880Y015792D01*
X008880Y015950D02*
X010620Y015950D01*
X010620Y016109D02*
X008880Y016109D01*
X008880Y016267D02*
X010620Y016267D01*
X010620Y016426D02*
X008829Y016426D01*
X008880Y016375D02*
X008775Y016480D01*
X008375Y016880D01*
X007891Y016880D01*
X007865Y016944D01*
X007744Y017065D01*
X007586Y017130D01*
X006814Y017130D01*
X006656Y017065D01*
X006535Y016944D01*
X006470Y016786D01*
X006470Y016614D01*
X006535Y016456D01*
X006656Y016335D01*
X006814Y016270D01*
X007586Y016270D01*
X007744Y016335D01*
X007865Y016456D01*
X007891Y016520D01*
X008225Y016520D01*
X008520Y016225D01*
X008520Y012625D01*
X009165Y011980D01*
X009100Y011980D01*
X009100Y011500D01*
X009580Y011500D01*
X009580Y011699D01*
X009459Y011820D01*
X009525Y011820D01*
X009690Y011655D01*
X009690Y011330D01*
X009930Y011090D01*
X010270Y011090D01*
X010510Y011330D01*
X010510Y011670D01*
X010270Y011910D01*
X009945Y011910D01*
X009765Y012090D01*
X009970Y012090D01*
X010210Y012330D01*
X010210Y012670D01*
X009970Y012910D01*
X009630Y012910D01*
X009390Y012670D01*
X009390Y012330D01*
X009540Y012180D01*
X009475Y012180D01*
X008880Y012775D01*
X008880Y016375D01*
X008671Y016584D02*
X010620Y016584D01*
X010620Y016743D02*
X008512Y016743D01*
X008320Y016426D02*
X007834Y016426D01*
X007882Y016901D02*
X010620Y016901D01*
X010586Y017060D02*
X007749Y017060D01*
X007586Y017270D02*
X007744Y017335D01*
X007865Y017456D01*
X007930Y017614D01*
X007930Y017786D01*
X007865Y017944D01*
X007744Y018065D01*
X007586Y018130D01*
X006814Y018130D01*
X006656Y018065D01*
X006535Y017944D01*
X006470Y017786D01*
X006470Y017614D01*
X006535Y017456D01*
X006656Y017335D01*
X006814Y017270D01*
X007586Y017270D01*
X007785Y017377D02*
X010269Y017377D01*
X010110Y017535D02*
X007897Y017535D01*
X007930Y017694D02*
X009952Y017694D01*
X009793Y017852D02*
X007902Y017852D01*
X007798Y018011D02*
X009635Y018011D01*
X009476Y018169D02*
X006180Y018169D01*
X006180Y018011D02*
X006602Y018011D01*
X006498Y017852D02*
X006110Y017852D01*
X006110Y017855D02*
X006180Y017925D01*
X006180Y019000D01*
X006410Y019230D01*
X006410Y019570D01*
X006180Y019800D01*
X006180Y020125D01*
X007180Y021125D01*
X007180Y021400D01*
X007410Y021630D01*
X007410Y021970D01*
X007180Y022200D01*
X007180Y022909D01*
X007244Y022935D01*
X007365Y023056D01*
X007430Y023214D01*
X007430Y023986D01*
X007365Y024144D01*
X007244Y024265D01*
X007086Y024330D01*
X006914Y024330D01*
X006756Y024265D01*
X006635Y024144D01*
X006570Y023986D01*
X006570Y023214D01*
X006635Y023056D01*
X006756Y022935D01*
X006820Y022909D01*
X006820Y022200D01*
X006590Y021970D01*
X006590Y021630D01*
X006820Y021400D01*
X006820Y021275D01*
X005925Y020380D01*
X005820Y020275D01*
X005820Y019800D01*
X005590Y019570D01*
X005590Y019230D01*
X005820Y019000D01*
X005820Y018110D01*
X005530Y018110D01*
X005290Y017870D01*
X005290Y017530D01*
X005530Y017290D01*
X005870Y017290D01*
X006110Y017530D01*
X006110Y017855D01*
X006110Y017694D02*
X006470Y017694D01*
X006503Y017535D02*
X006110Y017535D01*
X005956Y017377D02*
X006615Y017377D01*
X006651Y017060D02*
X005920Y017060D01*
X005870Y017110D02*
X005530Y017110D01*
X005290Y016870D01*
X005290Y016530D01*
X005530Y016290D01*
X005870Y016290D01*
X006110Y016530D01*
X006110Y016870D01*
X005870Y017110D01*
X006079Y016901D02*
X006518Y016901D01*
X006470Y016743D02*
X006110Y016743D01*
X006110Y016584D02*
X006483Y016584D01*
X006566Y016426D02*
X006005Y016426D01*
X005395Y016426D02*
X005180Y016426D01*
X005180Y016584D02*
X005290Y016584D01*
X005290Y016743D02*
X005180Y016743D01*
X005180Y016901D02*
X005321Y016901D01*
X005180Y017060D02*
X005480Y017060D01*
X005444Y017377D02*
X005180Y017377D01*
X005180Y017535D02*
X005290Y017535D01*
X005290Y017694D02*
X005161Y017694D01*
X005290Y017852D02*
X005003Y017852D01*
X004844Y018011D02*
X005431Y018011D01*
X005820Y018169D02*
X004830Y018169D01*
X004771Y018328D02*
X005820Y018328D01*
X005820Y018486D02*
X004592Y018486D01*
X004517Y018912D02*
X004592Y018937D01*
X004662Y018972D01*
X004726Y019019D01*
X004781Y019074D01*
X004828Y019138D01*
X004863Y019208D01*
X004888Y019283D01*
X004900Y019361D01*
X004900Y019390D01*
X004110Y019390D01*
X004110Y019410D01*
X004090Y019410D01*
X004090Y019900D01*
X003761Y019900D01*
X003683Y019888D01*
X003608Y019863D01*
X003538Y019828D01*
X003474Y019781D01*
X003419Y019726D01*
X003372Y019662D01*
X003337Y019592D01*
X003312Y019517D01*
X003300Y019439D01*
X003300Y019410D01*
X004090Y019410D01*
X004090Y019390D01*
X004110Y019390D01*
X004110Y018900D01*
X004439Y018900D01*
X004517Y018912D01*
X004641Y018962D02*
X005820Y018962D01*
X005820Y018803D02*
X003652Y018803D01*
X003683Y018912D02*
X003761Y018900D01*
X004090Y018900D01*
X004090Y019390D01*
X003300Y019390D01*
X003300Y019361D01*
X003312Y019283D01*
X003337Y019208D01*
X003372Y019138D01*
X003419Y019074D01*
X003474Y019019D01*
X003538Y018972D01*
X003608Y018937D01*
X003683Y018912D01*
X003559Y018962D02*
X003493Y018962D01*
X003385Y019120D02*
X003335Y019120D01*
X003314Y019279D02*
X003180Y019279D01*
X003180Y019437D02*
X003300Y019437D01*
X003338Y019596D02*
X003180Y019596D01*
X003180Y019754D02*
X003447Y019754D01*
X003556Y020035D02*
X003714Y019970D01*
X004486Y019970D01*
X004644Y020035D01*
X004765Y020156D01*
X004830Y020314D01*
X004830Y020486D01*
X004765Y020644D01*
X004681Y020727D01*
X005080Y021125D01*
X005080Y022875D01*
X004975Y022980D01*
X004904Y023051D01*
X004930Y023114D01*
X004930Y023286D01*
X004865Y023444D01*
X004744Y023565D01*
X004586Y023630D01*
X003814Y023630D01*
X003656Y023565D01*
X003535Y023444D01*
X003470Y023286D01*
X003470Y023114D01*
X003535Y022956D01*
X003656Y022835D01*
X003814Y022770D01*
X004586Y022770D01*
X004649Y022796D01*
X004720Y022725D01*
X004720Y022574D01*
X004586Y022630D01*
X003814Y022630D01*
X003656Y022565D01*
X003535Y022444D01*
X003470Y022286D01*
X003470Y022114D01*
X003535Y021956D01*
X003656Y021835D01*
X003814Y021770D01*
X004586Y021770D01*
X004720Y021826D01*
X004720Y021275D01*
X004275Y020830D01*
X003714Y020830D01*
X003556Y020765D01*
X003435Y020644D01*
X003370Y020486D01*
X003370Y020314D01*
X003435Y020156D01*
X003556Y020035D01*
X003521Y020071D02*
X003180Y020071D01*
X003180Y019913D02*
X005820Y019913D01*
X005820Y020071D02*
X004679Y020071D01*
X004795Y020230D02*
X005820Y020230D01*
X005933Y020388D02*
X004830Y020388D01*
X004805Y020547D02*
X006092Y020547D01*
X006250Y020705D02*
X004703Y020705D01*
X004818Y020864D02*
X006409Y020864D01*
X006567Y021022D02*
X004977Y021022D01*
X005080Y021181D02*
X006726Y021181D01*
X006820Y021339D02*
X005080Y021339D01*
X005080Y021498D02*
X005723Y021498D01*
X005830Y021390D02*
X006170Y021390D01*
X006410Y021630D01*
X006410Y021970D01*
X006180Y022200D01*
X006180Y022909D01*
X006244Y022935D01*
X006365Y023056D01*
X006430Y023214D01*
X006430Y023986D01*
X006365Y024144D01*
X006244Y024265D01*
X006180Y024291D01*
X006180Y025009D01*
X006244Y025035D01*
X006365Y025156D01*
X006430Y025314D01*
X006430Y026086D01*
X006365Y026244D01*
X006244Y026365D01*
X006086Y026430D01*
X005914Y026430D01*
X005756Y026365D01*
X005635Y026244D01*
X005570Y026086D01*
X005570Y025314D01*
X005635Y025156D01*
X005756Y025035D01*
X005820Y025009D01*
X005820Y024291D01*
X005756Y024265D01*
X005635Y024144D01*
X005570Y023986D01*
X005570Y023214D01*
X005635Y023056D01*
X005756Y022935D01*
X005820Y022909D01*
X005820Y022200D01*
X005590Y021970D01*
X005590Y021630D01*
X005830Y021390D01*
X005590Y021656D02*
X005080Y021656D01*
X005080Y021815D02*
X005590Y021815D01*
X005593Y021973D02*
X005080Y021973D01*
X005080Y022132D02*
X005752Y022132D01*
X005820Y022290D02*
X005080Y022290D01*
X005080Y022449D02*
X005820Y022449D01*
X005820Y022607D02*
X005080Y022607D01*
X005080Y022766D02*
X005820Y022766D01*
X005784Y022924D02*
X005031Y022924D01*
X004917Y023083D02*
X005625Y023083D01*
X005570Y023241D02*
X004930Y023241D01*
X004883Y023400D02*
X005570Y023400D01*
X005570Y023558D02*
X004750Y023558D01*
X004680Y022766D02*
X003180Y022766D01*
X003180Y022924D02*
X003568Y022924D01*
X003483Y023083D02*
X003180Y023083D01*
X003180Y023241D02*
X003470Y023241D01*
X003517Y023400D02*
X003180Y023400D01*
X003180Y023558D02*
X003650Y023558D01*
X003397Y023875D02*
X005570Y023875D01*
X005570Y023717D02*
X003265Y023717D01*
X003447Y024034D02*
X005590Y024034D01*
X005684Y024192D02*
X003447Y024192D01*
X003447Y024351D02*
X005820Y024351D01*
X005820Y024509D02*
X003447Y024509D01*
X003447Y024668D02*
X005820Y024668D01*
X005820Y024826D02*
X003438Y024826D01*
X003364Y024985D02*
X005820Y024985D01*
X005649Y025143D02*
X003139Y025143D01*
X002861Y025143D02*
X002139Y025143D01*
X002089Y025164D02*
X001911Y025164D01*
X001747Y025096D01*
X001621Y024970D01*
X001553Y024806D01*
X001553Y023994D01*
X001621Y023830D01*
X001747Y023704D01*
X001911Y023636D01*
X002089Y023636D01*
X002253Y023704D01*
X002379Y023830D01*
X002447Y023994D01*
X002447Y024806D01*
X002379Y024970D01*
X002253Y025096D01*
X002089Y025164D01*
X001861Y025143D02*
X000700Y025143D01*
X000700Y024985D02*
X001636Y024985D01*
X001562Y024826D02*
X000700Y024826D01*
X000700Y024668D02*
X001553Y024668D01*
X001553Y024509D02*
X000700Y024509D01*
X000700Y024351D02*
X001553Y024351D01*
X001553Y024192D02*
X000700Y024192D01*
X000700Y024034D02*
X001553Y024034D01*
X001603Y023875D02*
X000700Y023875D01*
X000700Y023717D02*
X001735Y023717D01*
X002265Y023717D02*
X002735Y023717D01*
X002820Y023558D02*
X000700Y023558D01*
X000700Y023400D02*
X002820Y023400D01*
X002820Y023241D02*
X000700Y023241D01*
X000700Y023083D02*
X002820Y023083D01*
X002820Y022924D02*
X000700Y022924D01*
X000700Y022766D02*
X002820Y022766D01*
X002820Y022607D02*
X000700Y022607D01*
X000700Y022449D02*
X002820Y022449D01*
X002820Y022290D02*
X000700Y022290D01*
X000700Y022132D02*
X002820Y022132D01*
X002820Y021973D02*
X000700Y021973D01*
X000700Y021815D02*
X002820Y021815D01*
X002820Y021656D02*
X002324Y021656D01*
X002410Y021570D02*
X002170Y021810D01*
X001830Y021810D01*
X001590Y021570D01*
X001590Y021545D01*
X001225Y021180D01*
X001120Y021075D01*
X001120Y019925D01*
X001590Y019455D01*
X001590Y019130D01*
X001830Y018890D01*
X002170Y018890D01*
X002410Y019130D01*
X002410Y019470D01*
X002170Y019710D01*
X001845Y019710D01*
X001480Y020075D01*
X001480Y020925D01*
X001687Y021133D01*
X001830Y020990D01*
X002170Y020990D01*
X002410Y021230D01*
X002410Y021570D01*
X002410Y021498D02*
X002820Y021498D01*
X002820Y021339D02*
X002410Y021339D01*
X002360Y021181D02*
X002820Y021181D01*
X002820Y021022D02*
X002202Y021022D01*
X002170Y020810D02*
X001830Y020810D01*
X001590Y020570D01*
X001590Y020230D01*
X001830Y019990D01*
X002170Y019990D01*
X002410Y020230D01*
X002410Y020570D01*
X002170Y020810D01*
X002275Y020705D02*
X002820Y020705D01*
X002820Y020547D02*
X002410Y020547D01*
X002410Y020388D02*
X002820Y020388D01*
X002820Y020230D02*
X002409Y020230D01*
X002251Y020071D02*
X002820Y020071D01*
X002820Y019913D02*
X001642Y019913D01*
X001749Y020071D02*
X001484Y020071D01*
X001480Y020230D02*
X001591Y020230D01*
X001590Y020388D02*
X001480Y020388D01*
X001480Y020547D02*
X001590Y020547D01*
X001480Y020705D02*
X001725Y020705D01*
X001480Y020864D02*
X002820Y020864D01*
X003180Y020864D02*
X004309Y020864D01*
X004467Y021022D02*
X003180Y021022D01*
X003180Y021181D02*
X004626Y021181D01*
X004720Y021339D02*
X003180Y021339D01*
X003180Y021498D02*
X004720Y021498D01*
X004720Y021656D02*
X003180Y021656D01*
X003180Y021815D02*
X003707Y021815D01*
X003529Y021973D02*
X003180Y021973D01*
X003180Y022132D02*
X003470Y022132D01*
X003472Y022290D02*
X003180Y022290D01*
X003180Y022449D02*
X003540Y022449D01*
X003759Y022607D02*
X003180Y022607D01*
X001676Y021656D02*
X000700Y021656D01*
X000700Y021498D02*
X001543Y021498D01*
X001384Y021339D02*
X000700Y021339D01*
X000700Y021181D02*
X001226Y021181D01*
X001120Y021022D02*
X000700Y021022D01*
X000700Y020864D02*
X001120Y020864D01*
X001120Y020705D02*
X000700Y020705D01*
X000700Y020547D02*
X001120Y020547D01*
X001120Y020388D02*
X000700Y020388D01*
X000700Y020230D02*
X001120Y020230D01*
X001120Y020071D02*
X000700Y020071D01*
X000700Y019913D02*
X001133Y019913D01*
X001291Y019754D02*
X000700Y019754D01*
X000700Y019596D02*
X001450Y019596D01*
X001590Y019437D02*
X000700Y019437D01*
X000700Y019279D02*
X001590Y019279D01*
X001600Y019120D02*
X000700Y019120D01*
X000700Y018962D02*
X001759Y018962D01*
X001765Y018645D02*
X000700Y018645D01*
X000700Y018803D02*
X003142Y018803D01*
X002984Y018962D02*
X002241Y018962D01*
X002400Y019120D02*
X002825Y019120D01*
X002820Y019279D02*
X002410Y019279D01*
X002410Y019437D02*
X002820Y019437D01*
X002820Y019596D02*
X002284Y019596D01*
X001801Y019754D02*
X002820Y019754D01*
X003180Y020230D02*
X003405Y020230D01*
X003370Y020388D02*
X003180Y020388D01*
X003180Y020547D02*
X003395Y020547D01*
X003497Y020705D02*
X003180Y020705D01*
X004110Y019900D02*
X004110Y019410D01*
X004900Y019410D01*
X004900Y019439D01*
X004888Y019517D01*
X004863Y019592D01*
X004828Y019662D01*
X004781Y019726D01*
X004726Y019781D01*
X004662Y019828D01*
X004592Y019863D01*
X004517Y019888D01*
X004439Y019900D01*
X004110Y019900D01*
X004110Y019754D02*
X004090Y019754D01*
X004090Y019596D02*
X004110Y019596D01*
X004110Y019437D02*
X004090Y019437D01*
X004090Y019279D02*
X004110Y019279D01*
X004110Y019120D02*
X004090Y019120D01*
X004090Y018962D02*
X004110Y018962D01*
X003810Y018645D02*
X005820Y018645D01*
X006180Y018645D02*
X009420Y018645D01*
X009420Y018803D02*
X006180Y018803D01*
X006180Y018962D02*
X006760Y018962D01*
X006801Y018920D02*
X007000Y018920D01*
X007199Y018920D01*
X007450Y019171D01*
X007701Y018920D01*
X007900Y018920D01*
X008099Y018920D01*
X008380Y019201D01*
X008380Y019400D01*
X008380Y019599D01*
X008099Y019880D01*
X007900Y019880D01*
X007900Y019400D01*
X007900Y019400D01*
X008380Y019400D01*
X007900Y019400D01*
X007900Y019400D01*
X007900Y019880D01*
X007701Y019880D01*
X007450Y019629D01*
X007199Y019880D01*
X007000Y019880D01*
X007000Y019400D01*
X007000Y019400D01*
X007480Y019400D01*
X007900Y019400D01*
X007900Y018920D01*
X007900Y019400D01*
X007900Y019400D01*
X007900Y019400D01*
X007000Y019400D01*
X007000Y019400D01*
X007000Y019880D01*
X006801Y019880D01*
X006520Y019599D01*
X006520Y019400D01*
X007000Y019400D01*
X007000Y018920D01*
X007000Y019400D01*
X007000Y019400D01*
X007000Y019400D01*
X006520Y019400D01*
X006520Y019201D01*
X006801Y018920D01*
X007000Y018962D02*
X007000Y018962D01*
X007000Y019120D02*
X007000Y019120D01*
X007000Y019279D02*
X007000Y019279D01*
X007000Y019437D02*
X007000Y019437D01*
X007000Y019596D02*
X007000Y019596D01*
X007000Y019754D02*
X007000Y019754D01*
X007325Y019754D02*
X007575Y019754D01*
X007900Y019754D02*
X007900Y019754D01*
X007900Y019596D02*
X007900Y019596D01*
X007900Y019437D02*
X007900Y019437D01*
X007900Y019279D02*
X007900Y019279D01*
X007900Y019120D02*
X007900Y019120D01*
X007900Y018962D02*
X007900Y018962D01*
X008140Y018962D02*
X009420Y018962D01*
X009420Y019120D02*
X009200Y019120D01*
X009310Y019230D02*
X009070Y018990D01*
X008730Y018990D01*
X008490Y019230D01*
X008490Y019570D01*
X008720Y019800D01*
X008720Y020200D01*
X008490Y020430D01*
X008490Y020770D01*
X008730Y021010D01*
X009070Y021010D01*
X009310Y020770D01*
X009310Y020430D01*
X009080Y020200D01*
X009080Y019800D01*
X009310Y019570D01*
X009310Y019230D01*
X009310Y019279D02*
X009420Y019279D01*
X009420Y019437D02*
X009310Y019437D01*
X009284Y019596D02*
X009420Y019596D01*
X009420Y019754D02*
X009126Y019754D01*
X009080Y019913D02*
X009420Y019913D01*
X009420Y020071D02*
X009080Y020071D01*
X009109Y020230D02*
X009420Y020230D01*
X009420Y020388D02*
X009268Y020388D01*
X009310Y020547D02*
X009420Y020547D01*
X009420Y020705D02*
X009310Y020705D01*
X009216Y020864D02*
X009420Y020864D01*
X009420Y021022D02*
X007077Y021022D01*
X007180Y021181D02*
X009420Y021181D01*
X009484Y021339D02*
X009219Y021339D01*
X009310Y021430D02*
X009070Y021190D01*
X008730Y021190D01*
X008490Y021430D01*
X008490Y021770D01*
X008730Y022010D01*
X009070Y022010D01*
X009310Y021770D01*
X009310Y021430D01*
X009310Y021498D02*
X009643Y021498D01*
X009801Y021656D02*
X009310Y021656D01*
X009265Y021815D02*
X009923Y021815D01*
X010077Y021973D02*
X009107Y021973D01*
X009070Y022290D02*
X009310Y022530D01*
X009310Y022870D01*
X009070Y023110D01*
X008730Y023110D01*
X008490Y022870D01*
X008490Y022530D01*
X008730Y022290D01*
X007180Y022290D01*
X007180Y022449D02*
X008572Y022449D01*
X008490Y022607D02*
X007180Y022607D01*
X007180Y022766D02*
X008490Y022766D01*
X008544Y022924D02*
X007216Y022924D01*
X007375Y023083D02*
X008703Y023083D01*
X008730Y023290D02*
X009070Y023290D01*
X009310Y023530D01*
X009310Y023870D01*
X009070Y024110D01*
X008730Y024110D01*
X008490Y023870D01*
X008490Y023530D01*
X008730Y023290D01*
X008621Y023400D02*
X007430Y023400D01*
X007430Y023558D02*
X008490Y023558D01*
X008490Y023717D02*
X007430Y023717D01*
X007430Y023875D02*
X008495Y023875D01*
X008654Y024034D02*
X007410Y024034D01*
X007316Y024192D02*
X014153Y024192D01*
X013995Y024351D02*
X006180Y024351D01*
X006180Y024509D02*
X012583Y024509D01*
X012535Y024556D02*
X012656Y024435D01*
X012814Y024370D01*
X012986Y024370D01*
X013144Y024435D01*
X013265Y024556D01*
X013330Y024714D01*
X013330Y025486D01*
X013265Y025644D01*
X013144Y025765D01*
X012986Y025830D01*
X012814Y025830D01*
X012656Y025765D01*
X012535Y025644D01*
X012470Y025486D01*
X012470Y024714D01*
X012535Y024556D01*
X012489Y024668D02*
X006180Y024668D01*
X006180Y024826D02*
X012470Y024826D01*
X012470Y024985D02*
X007279Y024985D01*
X007262Y024972D02*
X007326Y025019D01*
X007381Y025074D01*
X007428Y025138D01*
X007463Y025208D01*
X007488Y025283D01*
X007500Y025361D01*
X007500Y025690D01*
X007010Y025690D01*
X007010Y025710D01*
X007500Y025710D01*
X007500Y026039D01*
X007488Y026117D01*
X007463Y026192D01*
X007428Y026262D01*
X007381Y026326D01*
X007326Y026381D01*
X007262Y026428D01*
X007192Y026463D01*
X007117Y026488D01*
X007039Y026500D01*
X007010Y026500D01*
X007010Y025710D01*
X006990Y025710D01*
X006990Y026500D01*
X006961Y026500D01*
X006883Y026488D01*
X006808Y026463D01*
X006738Y026428D01*
X006674Y026381D01*
X006619Y026326D01*
X006572Y026262D01*
X006537Y026192D01*
X006512Y026117D01*
X006500Y026039D01*
X006500Y025710D01*
X006990Y025710D01*
X006990Y025690D01*
X007010Y025690D01*
X007010Y024900D01*
X007039Y024900D01*
X007117Y024912D01*
X007192Y024937D01*
X007262Y024972D01*
X007430Y025143D02*
X012470Y025143D01*
X012470Y025302D02*
X007491Y025302D01*
X007500Y025460D02*
X012470Y025460D01*
X012525Y025619D02*
X007500Y025619D01*
X007500Y025777D02*
X012687Y025777D01*
X013113Y025777D02*
X013687Y025777D01*
X013656Y025765D02*
X013535Y025644D01*
X013470Y025486D01*
X013470Y024714D01*
X013535Y024556D01*
X013656Y024435D01*
X013814Y024370D01*
X013975Y024370D01*
X014620Y023725D01*
X014620Y017734D01*
X014552Y017666D01*
X014508Y017558D01*
X014508Y017442D01*
X014552Y017334D01*
X014634Y017252D01*
X014742Y017208D01*
X014858Y017208D01*
X014966Y017252D01*
X015048Y017334D01*
X015092Y017442D01*
X015092Y017558D01*
X015048Y017666D01*
X014980Y017734D01*
X014980Y023875D01*
X014875Y023980D01*
X014875Y023980D01*
X014274Y024580D01*
X014330Y024714D01*
X014330Y025486D01*
X014265Y025644D01*
X014144Y025765D01*
X013986Y025830D01*
X013814Y025830D01*
X013656Y025765D01*
X013525Y025619D02*
X013275Y025619D01*
X013330Y025460D02*
X013470Y025460D01*
X013470Y025302D02*
X013330Y025302D01*
X013330Y025143D02*
X013470Y025143D01*
X013470Y024985D02*
X013330Y024985D01*
X013330Y024826D02*
X013470Y024826D01*
X013489Y024668D02*
X013311Y024668D01*
X013217Y024509D02*
X013583Y024509D01*
X014311Y024668D02*
X014990Y024668D01*
X014990Y024530D02*
X015230Y024290D01*
X015570Y024290D01*
X015810Y024530D01*
X015810Y024870D01*
X015570Y025110D01*
X015230Y025110D01*
X014990Y024870D01*
X014990Y024530D01*
X015011Y024509D02*
X014346Y024509D01*
X014504Y024351D02*
X015170Y024351D01*
X015630Y024351D02*
X043462Y024351D01*
X043476Y024317D02*
X043617Y024176D01*
X043801Y024100D01*
X043617Y024024D01*
X043476Y023883D01*
X043400Y023699D01*
X043400Y023501D01*
X043476Y023317D01*
X043617Y023176D01*
X043801Y023100D01*
X043617Y023024D01*
X043476Y022883D01*
X043400Y022699D01*
X043400Y022501D01*
X043476Y022317D01*
X043617Y022176D01*
X043801Y022100D01*
X043617Y022024D01*
X043476Y021883D01*
X043400Y021699D01*
X043400Y021501D01*
X043476Y021317D01*
X043617Y021176D01*
X043801Y021100D01*
X043999Y021100D01*
X044183Y021176D01*
X044324Y021317D01*
X044400Y021501D01*
X044400Y021699D01*
X044324Y021883D01*
X044183Y022024D01*
X043999Y022100D01*
X043801Y022100D01*
X043999Y022100D01*
X044183Y022176D01*
X044324Y022317D01*
X044400Y022501D01*
X044400Y022699D01*
X044324Y022883D01*
X044183Y023024D01*
X043999Y023100D01*
X043801Y023100D01*
X043999Y023100D01*
X044183Y023176D01*
X044324Y023317D01*
X044400Y023501D01*
X044400Y023699D01*
X044324Y023883D01*
X044183Y024024D01*
X043999Y024100D01*
X043801Y024100D01*
X043999Y024100D01*
X044183Y024176D01*
X044324Y024317D01*
X044400Y024501D01*
X044400Y024699D01*
X044324Y024883D01*
X044183Y025024D01*
X043999Y025100D01*
X043801Y025100D01*
X043617Y025024D01*
X043476Y024883D01*
X043400Y024699D01*
X043400Y024501D01*
X043476Y024317D01*
X043601Y024192D02*
X014663Y024192D01*
X014821Y024034D02*
X043640Y024034D01*
X043473Y023875D02*
X014980Y023875D01*
X014980Y023717D02*
X043407Y023717D01*
X043400Y023558D02*
X014980Y023558D01*
X014980Y023400D02*
X043442Y023400D01*
X043552Y023241D02*
X014980Y023241D01*
X014980Y023083D02*
X043758Y023083D01*
X044042Y023083D02*
X045600Y023083D01*
X045600Y023241D02*
X044248Y023241D01*
X044358Y023400D02*
X045600Y023400D01*
X045600Y023558D02*
X044400Y023558D01*
X044393Y023717D02*
X045600Y023717D01*
X045600Y023875D02*
X044327Y023875D01*
X044160Y024034D02*
X045600Y024034D01*
X045600Y024192D02*
X044199Y024192D01*
X044338Y024351D02*
X045600Y024351D01*
X045600Y024509D02*
X044400Y024509D01*
X044400Y024668D02*
X045600Y024668D01*
X045600Y024826D02*
X044348Y024826D01*
X044223Y024985D02*
X045600Y024985D01*
X045600Y025143D02*
X014330Y025143D01*
X014330Y024985D02*
X015105Y024985D01*
X014990Y024826D02*
X014330Y024826D01*
X014330Y025302D02*
X015219Y025302D01*
X015230Y025290D02*
X015570Y025290D01*
X015810Y025530D01*
X015810Y025870D01*
X015570Y026110D01*
X015230Y026110D01*
X014990Y025870D01*
X014990Y025530D01*
X015230Y025290D01*
X015060Y025460D02*
X014330Y025460D01*
X014275Y025619D02*
X014990Y025619D01*
X014990Y025777D02*
X014113Y025777D01*
X013970Y026490D02*
X013630Y026490D01*
X013390Y026730D01*
X013390Y027070D01*
X013630Y027310D01*
X013970Y027310D01*
X014210Y027070D01*
X014210Y026730D01*
X013970Y026490D01*
X014049Y026570D02*
X016322Y026570D01*
X016356Y026535D02*
X016514Y026470D01*
X016686Y026470D01*
X016844Y026535D01*
X016965Y026656D01*
X017030Y026814D01*
X017030Y027586D01*
X016965Y027744D01*
X016844Y027865D01*
X016686Y027930D01*
X016514Y027930D01*
X016356Y027865D01*
X016235Y027744D01*
X016170Y027586D01*
X016170Y026814D01*
X016235Y026656D01*
X016356Y026535D01*
X016206Y026728D02*
X014208Y026728D01*
X014210Y026887D02*
X016170Y026887D01*
X016170Y027045D02*
X014210Y027045D01*
X014076Y027204D02*
X016170Y027204D01*
X016170Y027362D02*
X007392Y027362D01*
X007379Y027330D02*
X007447Y027494D01*
X007447Y028306D01*
X007379Y028470D01*
X007253Y028596D01*
X007089Y028664D01*
X007080Y028664D01*
X007080Y031205D01*
X007172Y031243D01*
X007307Y031378D01*
X007380Y031555D01*
X007380Y032445D01*
X007307Y032622D01*
X007172Y032757D01*
X006995Y032830D01*
X006805Y032830D01*
X006628Y032757D01*
X006493Y032622D01*
X006420Y032445D01*
X006420Y031555D01*
X006493Y031378D01*
X006628Y031243D01*
X006720Y031205D01*
X006720Y028569D01*
X006621Y028470D01*
X006553Y028306D01*
X006553Y027494D01*
X006621Y027330D01*
X006747Y027204D01*
X006911Y027136D01*
X007089Y027136D01*
X007253Y027204D01*
X007379Y027330D01*
X007251Y027204D02*
X012524Y027204D01*
X012630Y027310D02*
X012390Y027070D01*
X012390Y026730D01*
X012630Y026490D01*
X012970Y026490D01*
X013210Y026730D01*
X013210Y027070D01*
X012970Y027310D01*
X012630Y027310D01*
X012390Y027045D02*
X000700Y027045D01*
X000700Y026887D02*
X012390Y026887D01*
X012392Y026728D02*
X000700Y026728D01*
X000700Y026570D02*
X012551Y026570D01*
X013049Y026570D02*
X013551Y026570D01*
X013392Y026728D02*
X013208Y026728D01*
X013210Y026887D02*
X013390Y026887D01*
X013390Y027045D02*
X013210Y027045D01*
X013076Y027204D02*
X013524Y027204D01*
X015056Y025936D02*
X007500Y025936D01*
X007491Y026094D02*
X015214Y026094D01*
X015586Y026094D02*
X024246Y026094D01*
X024256Y026070D02*
X024470Y025856D01*
X024749Y025740D01*
X025051Y025740D01*
X025330Y025856D01*
X025544Y026070D01*
X025660Y026349D01*
X025660Y026651D01*
X025544Y026930D01*
X025330Y027144D01*
X025051Y027260D01*
X024749Y027260D01*
X024470Y027144D01*
X024256Y026930D01*
X024140Y026651D01*
X024140Y026349D01*
X024256Y026070D01*
X024390Y025936D02*
X015744Y025936D01*
X015810Y025777D02*
X024660Y025777D01*
X025140Y025777D02*
X043170Y025777D01*
X043140Y025849D02*
X043256Y025570D01*
X043470Y025356D01*
X043749Y025240D01*
X044051Y025240D01*
X044330Y025356D01*
X044544Y025570D01*
X044660Y025849D01*
X044660Y026151D01*
X044544Y026430D01*
X044330Y026644D01*
X044051Y026760D01*
X043749Y026760D01*
X043470Y026644D01*
X043256Y026430D01*
X043140Y026151D01*
X043140Y025849D01*
X043140Y025936D02*
X025410Y025936D01*
X025554Y026094D02*
X043140Y026094D01*
X043182Y026253D02*
X025620Y026253D01*
X025660Y026411D02*
X043248Y026411D01*
X043395Y026570D02*
X025660Y026570D01*
X025628Y026728D02*
X043672Y026728D01*
X044128Y026728D02*
X045600Y026728D01*
X045600Y026570D02*
X044405Y026570D01*
X044552Y026411D02*
X045600Y026411D01*
X045600Y026253D02*
X044618Y026253D01*
X044660Y026094D02*
X045600Y026094D01*
X045600Y025936D02*
X044660Y025936D01*
X044630Y025777D02*
X045600Y025777D01*
X045600Y025619D02*
X044565Y025619D01*
X044435Y025460D02*
X045600Y025460D01*
X045600Y025302D02*
X044200Y025302D01*
X043600Y025302D02*
X015581Y025302D01*
X015740Y025460D02*
X043365Y025460D01*
X043235Y025619D02*
X015810Y025619D01*
X015695Y024985D02*
X043577Y024985D01*
X043452Y024826D02*
X015810Y024826D01*
X015810Y024668D02*
X043400Y024668D01*
X043400Y024509D02*
X015789Y024509D01*
X014620Y023717D02*
X011330Y023717D01*
X011330Y023786D02*
X011330Y023614D01*
X011265Y023456D01*
X011144Y023335D01*
X010986Y023270D01*
X010214Y023270D01*
X010056Y023335D01*
X009935Y023456D01*
X009870Y023614D01*
X009870Y023786D01*
X009935Y023944D01*
X010056Y024065D01*
X010214Y024130D01*
X010986Y024130D01*
X011144Y024065D01*
X011265Y023944D01*
X011330Y023786D01*
X011293Y023875D02*
X014470Y023875D01*
X014312Y024034D02*
X011175Y024034D01*
X011307Y023558D02*
X014620Y023558D01*
X014620Y023400D02*
X011208Y023400D01*
X011100Y023083D02*
X012603Y023083D01*
X012590Y023070D02*
X012590Y022730D01*
X012820Y022500D01*
X012820Y016575D01*
X011821Y015575D01*
X011704Y015624D01*
X011496Y015624D01*
X011303Y015544D01*
X011156Y015397D01*
X011076Y015204D01*
X011076Y014996D01*
X011156Y014803D01*
X011303Y014656D01*
X011496Y014576D01*
X011704Y014576D01*
X011897Y014656D01*
X012044Y014803D01*
X012124Y014996D01*
X012124Y015204D01*
X012075Y015321D01*
X013180Y016425D01*
X013180Y022500D01*
X013410Y022730D01*
X013410Y023070D01*
X013170Y023310D01*
X012830Y023310D01*
X012590Y023070D01*
X012590Y022924D02*
X011273Y022924D01*
X011330Y022766D02*
X012590Y022766D01*
X012713Y022607D02*
X011448Y022607D01*
X011580Y022449D02*
X012820Y022449D01*
X012820Y022290D02*
X011580Y022290D01*
X011580Y022132D02*
X012820Y022132D01*
X012820Y021973D02*
X011580Y021973D01*
X011580Y021815D02*
X012820Y021815D01*
X012820Y021656D02*
X011580Y021656D01*
X011580Y021498D02*
X012820Y021498D01*
X012820Y021339D02*
X011580Y021339D01*
X011435Y021181D02*
X012820Y021181D01*
X012820Y021022D02*
X011277Y021022D01*
X011245Y020864D02*
X012820Y020864D01*
X012820Y020705D02*
X011322Y020705D01*
X011330Y020547D02*
X012820Y020547D01*
X012820Y020388D02*
X011278Y020388D01*
X011129Y020230D02*
X012820Y020230D01*
X012820Y020071D02*
X009780Y020071D01*
X009780Y019913D02*
X012820Y019913D01*
X012820Y019754D02*
X009780Y019754D01*
X009780Y019596D02*
X012820Y019596D01*
X012820Y019437D02*
X009780Y019437D01*
X009780Y019279D02*
X012820Y019279D01*
X012820Y019120D02*
X009780Y019120D01*
X009780Y018962D02*
X012820Y018962D01*
X012820Y018803D02*
X009780Y018803D01*
X009780Y018645D02*
X012820Y018645D01*
X012820Y018486D02*
X009780Y018486D01*
X009827Y018328D02*
X012820Y018328D01*
X012820Y018169D02*
X009986Y018169D01*
X010144Y018011D02*
X012820Y018011D01*
X012820Y017852D02*
X010303Y017852D01*
X010461Y017694D02*
X012820Y017694D01*
X012820Y017535D02*
X010620Y017535D01*
X010778Y017377D02*
X012820Y017377D01*
X012820Y017218D02*
X010937Y017218D01*
X010980Y017060D02*
X012820Y017060D01*
X012820Y016901D02*
X011940Y016901D01*
X011897Y016944D02*
X011704Y017024D01*
X011496Y017024D01*
X011303Y016944D01*
X011156Y016797D01*
X011076Y016604D01*
X011076Y016396D01*
X011156Y016203D01*
X011303Y016056D01*
X011496Y015976D01*
X011704Y015976D01*
X011897Y016056D01*
X012044Y016203D01*
X012124Y016396D01*
X012124Y016604D01*
X012044Y016797D01*
X011897Y016944D01*
X012066Y016743D02*
X012820Y016743D01*
X012820Y016584D02*
X012124Y016584D01*
X012124Y016426D02*
X012671Y016426D01*
X012512Y016267D02*
X012070Y016267D01*
X011949Y016109D02*
X012354Y016109D01*
X012195Y015950D02*
X010980Y015950D01*
X010980Y015792D02*
X012037Y015792D01*
X011878Y015633D02*
X010980Y015633D01*
X010980Y015475D02*
X011234Y015475D01*
X011123Y015316D02*
X010980Y015316D01*
X010980Y015158D02*
X011076Y015158D01*
X011076Y014999D02*
X010980Y014999D01*
X010980Y014841D02*
X011141Y014841D01*
X011277Y014682D02*
X010980Y014682D01*
X011923Y014682D02*
X014520Y014682D01*
X014520Y014841D02*
X012059Y014841D01*
X012124Y014999D02*
X014520Y014999D01*
X014520Y015158D02*
X012124Y015158D01*
X012077Y015316D02*
X014520Y015316D01*
X014520Y015475D02*
X012229Y015475D01*
X012388Y015633D02*
X014520Y015633D01*
X014520Y015792D02*
X012546Y015792D01*
X012705Y015950D02*
X014520Y015950D01*
X014520Y016109D02*
X012863Y016109D01*
X013022Y016267D02*
X014319Y016267D01*
X014214Y016426D02*
X013180Y016426D01*
X013180Y016584D02*
X014218Y016584D01*
X014329Y016743D02*
X013180Y016743D01*
X013180Y016901D02*
X017519Y016901D01*
X017361Y017060D02*
X013180Y017060D01*
X013180Y017218D02*
X014716Y017218D01*
X014884Y017218D02*
X017290Y017218D01*
X017290Y017377D02*
X015065Y017377D01*
X015092Y017535D02*
X017355Y017535D01*
X017514Y017694D02*
X015020Y017694D01*
X014980Y017852D02*
X024420Y017852D01*
X024400Y018011D02*
X014980Y018011D01*
X014980Y018169D02*
X024429Y018169D01*
X024520Y018328D02*
X014980Y018328D01*
X014980Y018486D02*
X024767Y018486D01*
X025033Y018486D02*
X031620Y018486D01*
X031620Y018328D02*
X028019Y018328D01*
X027781Y018328D02*
X025280Y018328D01*
X025371Y018169D02*
X027593Y018169D01*
X027552Y018011D02*
X025400Y018011D01*
X025380Y017852D02*
X027584Y017852D01*
X027730Y017694D02*
X025301Y017694D01*
X025084Y017535D02*
X027820Y017535D01*
X027820Y017377D02*
X025231Y017377D01*
X025351Y017218D02*
X027820Y017218D01*
X027820Y017060D02*
X025400Y017060D01*
X025252Y018645D02*
X031620Y018645D01*
X031620Y018803D02*
X025360Y018803D01*
X025400Y018962D02*
X031620Y018962D01*
X031620Y019120D02*
X025391Y019120D01*
X025326Y019279D02*
X031620Y019279D01*
X031620Y019437D02*
X025151Y019437D01*
X025183Y019576D02*
X025324Y019717D01*
X025400Y019901D01*
X025400Y020099D01*
X025324Y020283D01*
X025183Y020424D01*
X024999Y020500D01*
X024801Y020500D01*
X024617Y020424D01*
X024476Y020283D01*
X024400Y020099D01*
X024400Y019901D01*
X024476Y019717D01*
X024617Y019576D01*
X024801Y019500D01*
X024999Y019500D01*
X025183Y019576D01*
X025203Y019596D02*
X031620Y019596D01*
X031620Y019754D02*
X025339Y019754D01*
X025400Y019913D02*
X031620Y019913D01*
X031613Y020071D02*
X025400Y020071D01*
X025346Y020230D02*
X031716Y020230D01*
X032084Y020230D02*
X033175Y020230D01*
X033016Y020071D02*
X032187Y020071D01*
X032180Y019913D02*
X032920Y019913D01*
X032920Y019754D02*
X032068Y019754D01*
X031980Y019596D02*
X032920Y019596D01*
X032920Y019437D02*
X031980Y019437D01*
X031980Y019279D02*
X032920Y019279D01*
X032920Y019120D02*
X031980Y019120D01*
X031980Y018962D02*
X032920Y018962D01*
X032920Y018803D02*
X031980Y018803D01*
X031980Y018645D02*
X032920Y018645D01*
X032920Y018486D02*
X031980Y018486D01*
X031980Y018328D02*
X032920Y018328D01*
X032920Y018169D02*
X031980Y018169D01*
X031980Y018011D02*
X032920Y018011D01*
X032920Y017852D02*
X031980Y017852D01*
X031980Y017694D02*
X032880Y017694D01*
X032808Y017535D02*
X031980Y017535D01*
X031980Y017377D02*
X032835Y017377D01*
X033016Y017218D02*
X031980Y017218D01*
X031980Y017060D02*
X033680Y017060D01*
X033639Y017218D02*
X033184Y017218D01*
X033365Y017377D02*
X033660Y017377D01*
X033755Y017535D02*
X033392Y017535D01*
X033320Y017694D02*
X033798Y017694D01*
X033677Y017852D02*
X033280Y017852D01*
X033280Y018011D02*
X033639Y018011D01*
X033662Y018169D02*
X033280Y018169D01*
X033280Y018328D02*
X033760Y018328D01*
X033793Y018486D02*
X033280Y018486D01*
X033280Y018645D02*
X033675Y018645D01*
X033639Y018803D02*
X033280Y018803D01*
X033280Y018962D02*
X033664Y018962D01*
X033765Y019120D02*
X033280Y019120D01*
X033280Y019279D02*
X033788Y019279D01*
X033673Y019437D02*
X033280Y019437D01*
X033280Y019596D02*
X033639Y019596D01*
X033666Y019754D02*
X033280Y019754D01*
X033367Y019913D02*
X033770Y019913D01*
X035325Y020230D02*
X043563Y020230D01*
X043617Y020176D02*
X043801Y020100D01*
X043999Y020100D01*
X044183Y020176D01*
X044324Y020317D01*
X044400Y020501D01*
X044400Y020699D01*
X044324Y020883D01*
X044183Y021024D01*
X043999Y021100D01*
X043801Y021100D01*
X043617Y021024D01*
X043476Y020883D01*
X043400Y020699D01*
X043400Y020501D01*
X043476Y020317D01*
X043617Y020176D01*
X043617Y020024D02*
X043476Y019883D01*
X043400Y019699D01*
X043400Y019501D01*
X043476Y019317D01*
X043617Y019176D01*
X043801Y019100D01*
X043999Y019100D01*
X044183Y019176D01*
X044324Y019317D01*
X044400Y019501D01*
X044400Y019699D01*
X044324Y019883D01*
X044183Y020024D01*
X043999Y020100D01*
X043801Y020100D01*
X043617Y020024D01*
X043731Y020071D02*
X035484Y020071D01*
X035380Y020175D02*
X035380Y020175D01*
X035580Y019913D02*
X043505Y019913D01*
X043423Y019754D02*
X035580Y019754D01*
X035580Y019596D02*
X043400Y019596D01*
X043426Y019437D02*
X035580Y019437D01*
X035580Y019279D02*
X043514Y019279D01*
X043617Y019024D02*
X043801Y019100D01*
X043999Y019100D01*
X044183Y019024D01*
X044324Y018883D01*
X044400Y018699D01*
X044400Y018501D01*
X044324Y018317D01*
X044183Y018176D01*
X043999Y018100D01*
X043801Y018100D01*
X043617Y018176D01*
X043476Y018317D01*
X043400Y018501D01*
X043400Y018699D01*
X043476Y018883D01*
X043617Y019024D01*
X043554Y018962D02*
X035580Y018962D01*
X035580Y019120D02*
X043752Y019120D01*
X044048Y019120D02*
X045600Y019120D01*
X045600Y018962D02*
X044246Y018962D01*
X044357Y018803D02*
X045600Y018803D01*
X045600Y018645D02*
X044400Y018645D01*
X044394Y018486D02*
X045600Y018486D01*
X045600Y018328D02*
X044328Y018328D01*
X044166Y018169D02*
X045600Y018169D01*
X045600Y018011D02*
X044197Y018011D01*
X044183Y018024D02*
X043999Y018100D01*
X043801Y018100D01*
X043617Y018024D01*
X043476Y017883D01*
X043400Y017699D01*
X043400Y017501D01*
X043476Y017317D01*
X043617Y017176D01*
X043801Y017100D01*
X043999Y017100D01*
X044183Y017176D01*
X044324Y017317D01*
X044400Y017501D01*
X044400Y017699D01*
X044324Y017883D01*
X044183Y018024D01*
X044337Y017852D02*
X045600Y017852D01*
X045600Y017694D02*
X044400Y017694D01*
X044400Y017535D02*
X045600Y017535D01*
X045600Y017377D02*
X044349Y017377D01*
X044225Y017218D02*
X045600Y017218D01*
X045600Y017060D02*
X044097Y017060D01*
X044183Y017024D02*
X043999Y017100D01*
X043801Y017100D01*
X043617Y017024D01*
X043476Y016883D01*
X043400Y016699D01*
X043400Y016501D01*
X043476Y016317D01*
X043617Y016176D01*
X043801Y016100D01*
X043999Y016100D01*
X044183Y016176D01*
X044324Y016317D01*
X044400Y016501D01*
X044400Y016699D01*
X044324Y016883D01*
X044183Y017024D01*
X044306Y016901D02*
X045600Y016901D01*
X045600Y016743D02*
X044382Y016743D01*
X044400Y016584D02*
X045600Y016584D01*
X045600Y016426D02*
X044369Y016426D01*
X044274Y016267D02*
X045600Y016267D01*
X045600Y016109D02*
X044020Y016109D01*
X043999Y016100D02*
X043801Y016100D01*
X043617Y016024D01*
X043476Y015883D01*
X043400Y015699D01*
X043400Y015501D01*
X043476Y015317D01*
X043617Y015176D01*
X043801Y015100D01*
X043999Y015100D01*
X044183Y015176D01*
X044324Y015317D01*
X044400Y015501D01*
X044400Y015699D01*
X044324Y015883D01*
X044183Y016024D01*
X043999Y016100D01*
X043780Y016109D02*
X035112Y016109D01*
X035175Y015950D02*
X043543Y015950D01*
X043438Y015792D02*
X035265Y015792D01*
X035281Y015633D02*
X043400Y015633D01*
X043411Y015475D02*
X035236Y015475D01*
X035106Y015316D02*
X043477Y015316D01*
X043662Y015158D02*
X035180Y015158D01*
X035267Y014999D02*
X045600Y014999D01*
X045600Y014841D02*
X035281Y014841D01*
X035234Y014682D02*
X045600Y014682D01*
X045600Y014524D02*
X035101Y014524D01*
X035185Y014365D02*
X043558Y014365D01*
X043617Y014424D02*
X043476Y014283D01*
X043400Y014099D01*
X043400Y013901D01*
X043476Y013717D01*
X043617Y013576D01*
X043801Y013500D01*
X043999Y013500D01*
X044183Y013576D01*
X044324Y013717D01*
X044400Y013901D01*
X044400Y014099D01*
X044324Y014283D01*
X044183Y014424D01*
X043999Y014500D01*
X043801Y014500D01*
X043617Y014424D01*
X043444Y014207D02*
X035269Y014207D01*
X035281Y014048D02*
X043400Y014048D01*
X043405Y013890D02*
X035232Y013890D01*
X035096Y013731D02*
X043470Y013731D01*
X043625Y013573D02*
X037006Y013573D01*
X036794Y013573D02*
X035190Y013573D01*
X035271Y013414D02*
X036631Y013414D01*
X036608Y013256D02*
X035281Y013256D01*
X035230Y013097D02*
X036689Y013097D01*
X036720Y012939D02*
X035085Y012939D01*
X035196Y012780D02*
X036720Y012780D01*
X036720Y012622D02*
X035273Y012622D01*
X035281Y012463D02*
X036720Y012463D01*
X036720Y012305D02*
X035228Y012305D01*
X033848Y012146D02*
X031980Y012146D01*
X031980Y011988D02*
X033719Y011988D01*
X033645Y011829D02*
X031980Y011829D01*
X031980Y011671D02*
X033639Y011671D01*
X033694Y011512D02*
X031980Y011512D01*
X031980Y011354D02*
X033860Y011354D01*
X033714Y011195D02*
X031980Y011195D01*
X031980Y011037D02*
X033643Y011037D01*
X033639Y010878D02*
X031980Y010878D01*
X031980Y010720D02*
X033697Y010720D01*
X033872Y010561D02*
X031980Y010561D01*
X031980Y010403D02*
X033709Y010403D01*
X033641Y010244D02*
X031980Y010244D01*
X031980Y010086D02*
X033639Y010086D01*
X033699Y009927D02*
X031980Y009927D01*
X031980Y009769D02*
X033885Y009769D01*
X034248Y009769D02*
X034672Y009769D01*
X034486Y009927D02*
X034434Y009927D01*
X037080Y011671D02*
X043522Y011671D01*
X043430Y011829D02*
X037080Y011829D01*
X037080Y011988D02*
X043400Y011988D01*
X043419Y012146D02*
X037080Y012146D01*
X037080Y012305D02*
X043497Y012305D01*
X043711Y012463D02*
X037080Y012463D01*
X037080Y012622D02*
X043571Y012622D01*
X043450Y012780D02*
X037080Y012780D01*
X037080Y012939D02*
X043400Y012939D01*
X043400Y013097D02*
X037111Y013097D01*
X037192Y013256D02*
X043465Y013256D01*
X043607Y013414D02*
X037169Y013414D01*
X033824Y013731D02*
X031980Y013731D01*
X031980Y013573D02*
X033730Y013573D01*
X033649Y013414D02*
X031980Y013414D01*
X031980Y013256D02*
X033639Y013256D01*
X033690Y013097D02*
X031980Y013097D01*
X031980Y012939D02*
X033835Y012939D01*
X033724Y012780D02*
X031980Y012780D01*
X031980Y012622D02*
X033647Y012622D01*
X033639Y012463D02*
X031980Y012463D01*
X031980Y012305D02*
X033692Y012305D01*
X033688Y013890D02*
X031980Y013890D01*
X031980Y014048D02*
X033639Y014048D01*
X033651Y014207D02*
X031980Y014207D01*
X031980Y014365D02*
X033735Y014365D01*
X033819Y014524D02*
X031980Y014524D01*
X031980Y014682D02*
X033686Y014682D01*
X033639Y014841D02*
X031980Y014841D01*
X031980Y014999D02*
X033653Y014999D01*
X033740Y015158D02*
X031980Y015158D01*
X031980Y015316D02*
X033814Y015316D01*
X033684Y015475D02*
X031980Y015475D01*
X031980Y015633D02*
X033639Y015633D01*
X033655Y015792D02*
X031980Y015792D01*
X031980Y015950D02*
X033745Y015950D01*
X033808Y016109D02*
X031980Y016109D01*
X031980Y016267D02*
X033682Y016267D01*
X033639Y016426D02*
X031980Y016426D01*
X031980Y016584D02*
X033657Y016584D01*
X033750Y016743D02*
X031980Y016743D01*
X031980Y016901D02*
X033803Y016901D01*
X035117Y016901D02*
X043494Y016901D01*
X043418Y016743D02*
X035170Y016743D01*
X035263Y016584D02*
X043400Y016584D01*
X043431Y016426D02*
X035281Y016426D01*
X035238Y016267D02*
X043526Y016267D01*
X044257Y015950D02*
X045600Y015950D01*
X045600Y015792D02*
X044362Y015792D01*
X044400Y015633D02*
X045600Y015633D01*
X045600Y015475D02*
X044389Y015475D01*
X044323Y015316D02*
X045600Y015316D01*
X045600Y015158D02*
X044138Y015158D01*
X044242Y014365D02*
X045600Y014365D01*
X045600Y014207D02*
X044356Y014207D01*
X044400Y014048D02*
X045600Y014048D01*
X045600Y013890D02*
X044395Y013890D01*
X044330Y013731D02*
X045600Y013731D01*
X045600Y013573D02*
X044175Y013573D01*
X044193Y013414D02*
X045600Y013414D01*
X045600Y013256D02*
X044335Y013256D01*
X044400Y013097D02*
X045600Y013097D01*
X045600Y012939D02*
X044400Y012939D01*
X044350Y012780D02*
X045600Y012780D01*
X045600Y012622D02*
X044229Y012622D01*
X044089Y012463D02*
X045600Y012463D01*
X045600Y012305D02*
X044303Y012305D01*
X044381Y012146D02*
X045600Y012146D01*
X045600Y011988D02*
X044400Y011988D01*
X044370Y011829D02*
X045600Y011829D01*
X045600Y011671D02*
X044278Y011671D01*
X043703Y017060D02*
X035240Y017060D01*
X035473Y017218D02*
X043575Y017218D01*
X043451Y017377D02*
X035580Y017377D01*
X035580Y017535D02*
X043400Y017535D01*
X043400Y017694D02*
X035580Y017694D01*
X035580Y017852D02*
X043463Y017852D01*
X043603Y018011D02*
X035580Y018011D01*
X035580Y018169D02*
X043634Y018169D01*
X043472Y018328D02*
X035580Y018328D01*
X035580Y018486D02*
X043406Y018486D01*
X043400Y018645D02*
X035580Y018645D01*
X035580Y018803D02*
X043443Y018803D01*
X044286Y019279D02*
X045600Y019279D01*
X045600Y019437D02*
X044374Y019437D01*
X044400Y019596D02*
X045600Y019596D01*
X045600Y019754D02*
X044377Y019754D01*
X044295Y019913D02*
X045600Y019913D01*
X045600Y020071D02*
X044069Y020071D01*
X044237Y020230D02*
X045600Y020230D01*
X045600Y020388D02*
X044353Y020388D01*
X044400Y020547D02*
X045600Y020547D01*
X045600Y020705D02*
X044398Y020705D01*
X044332Y020864D02*
X045600Y020864D01*
X045600Y021022D02*
X044185Y021022D01*
X044188Y021181D02*
X045600Y021181D01*
X045600Y021339D02*
X044333Y021339D01*
X044399Y021498D02*
X045600Y021498D01*
X045600Y021656D02*
X044400Y021656D01*
X044352Y021815D02*
X045600Y021815D01*
X045600Y021973D02*
X044234Y021973D01*
X044076Y022132D02*
X045600Y022132D01*
X045600Y022290D02*
X044297Y022290D01*
X044378Y022449D02*
X045600Y022449D01*
X045600Y022607D02*
X044400Y022607D01*
X044373Y022766D02*
X045600Y022766D01*
X045600Y022924D02*
X044283Y022924D01*
X043517Y022924D02*
X014980Y022924D01*
X014980Y022766D02*
X043427Y022766D01*
X043400Y022607D02*
X014980Y022607D01*
X014980Y022449D02*
X043422Y022449D01*
X043503Y022290D02*
X017218Y022290D01*
X017265Y022244D02*
X017144Y022365D01*
X016986Y022430D01*
X016214Y022430D01*
X016056Y022365D01*
X015935Y022244D01*
X015870Y022086D01*
X015870Y021914D01*
X015935Y021756D01*
X016056Y021635D01*
X016214Y021570D01*
X016986Y021570D01*
X017144Y021635D01*
X017265Y021756D01*
X017330Y021914D01*
X017330Y022086D01*
X017265Y022244D01*
X017311Y022132D02*
X043724Y022132D01*
X043566Y021973D02*
X023306Y021973D01*
X023199Y022080D02*
X023000Y022080D01*
X023000Y021600D01*
X023480Y021600D01*
X023480Y021799D01*
X023199Y022080D01*
X023000Y022080D02*
X023000Y021600D01*
X023000Y021600D01*
X023000Y021600D01*
X023000Y021600D01*
X022520Y021600D01*
X022520Y021799D01*
X022801Y022080D01*
X023000Y022080D01*
X023000Y021973D02*
X023000Y021973D01*
X023000Y021815D02*
X023000Y021815D01*
X023000Y021656D02*
X023000Y021656D01*
X023000Y021600D02*
X022520Y021600D01*
X022520Y021401D01*
X022801Y021120D01*
X023000Y021120D01*
X023199Y021120D01*
X023480Y021401D01*
X023480Y021600D01*
X023000Y021600D01*
X023000Y021120D01*
X023000Y021600D01*
X023000Y021600D01*
X023000Y021498D02*
X023000Y021498D01*
X023000Y021339D02*
X023000Y021339D01*
X023000Y021181D02*
X023000Y021181D01*
X023259Y021181D02*
X024434Y021181D01*
X024400Y021099D02*
X024400Y020901D01*
X024476Y020717D01*
X024617Y020576D01*
X024801Y020500D01*
X024999Y020500D01*
X025183Y020576D01*
X025324Y020717D01*
X025400Y020901D01*
X025400Y021099D01*
X025324Y021283D01*
X025183Y021424D01*
X024999Y021500D01*
X024801Y021500D01*
X024617Y021424D01*
X024476Y021283D01*
X024400Y021099D01*
X024400Y021022D02*
X017330Y021022D01*
X017330Y021086D02*
X017265Y021244D01*
X017144Y021365D01*
X016986Y021430D01*
X016214Y021430D01*
X016056Y021365D01*
X015935Y021244D01*
X015870Y021086D01*
X015870Y020914D01*
X015935Y020756D01*
X016056Y020635D01*
X016214Y020570D01*
X016986Y020570D01*
X017144Y020635D01*
X017265Y020756D01*
X017330Y020914D01*
X017330Y021086D01*
X017291Y021181D02*
X022741Y021181D01*
X022582Y021339D02*
X022319Y021339D01*
X022410Y021430D02*
X022170Y021190D01*
X021830Y021190D01*
X021590Y021430D01*
X021590Y021770D01*
X021830Y022010D01*
X022170Y022010D01*
X022410Y021770D01*
X022410Y021430D01*
X022410Y021498D02*
X022520Y021498D01*
X022520Y021656D02*
X022410Y021656D01*
X022365Y021815D02*
X022536Y021815D01*
X022694Y021973D02*
X022207Y021973D01*
X021793Y021973D02*
X017330Y021973D01*
X017289Y021815D02*
X021635Y021815D01*
X021590Y021656D02*
X017164Y021656D01*
X017169Y021339D02*
X021681Y021339D01*
X021590Y021498D02*
X014980Y021498D01*
X014980Y021656D02*
X016036Y021656D01*
X015911Y021815D02*
X014980Y021815D01*
X014980Y021973D02*
X015870Y021973D01*
X015889Y022132D02*
X014980Y022132D01*
X014980Y022290D02*
X015982Y022290D01*
X016031Y021339D02*
X014980Y021339D01*
X014980Y021181D02*
X015909Y021181D01*
X015870Y021022D02*
X014980Y021022D01*
X014980Y020864D02*
X015891Y020864D01*
X015987Y020705D02*
X014980Y020705D01*
X014980Y020547D02*
X024688Y020547D01*
X024581Y020388D02*
X014980Y020388D01*
X014980Y020230D02*
X024454Y020230D01*
X024400Y020071D02*
X014980Y020071D01*
X014980Y019913D02*
X024400Y019913D01*
X024461Y019754D02*
X023325Y019754D01*
X023199Y019880D02*
X023480Y019599D01*
X023480Y019400D01*
X023000Y019400D01*
X023000Y019400D01*
X023000Y019400D01*
X023000Y019880D01*
X023199Y019880D01*
X023000Y019880D02*
X022801Y019880D01*
X022520Y019599D01*
X022520Y019400D01*
X023000Y019400D01*
X023480Y019400D01*
X023480Y019201D01*
X023199Y018920D01*
X023000Y018920D01*
X023000Y019400D01*
X023000Y019400D01*
X023000Y019400D01*
X023000Y019880D01*
X023000Y019754D02*
X023000Y019754D01*
X023000Y019596D02*
X023000Y019596D01*
X023000Y019437D02*
X023000Y019437D01*
X023000Y019400D02*
X022520Y019400D01*
X022520Y019201D01*
X022801Y018920D01*
X023000Y018920D01*
X023000Y019400D01*
X023000Y019279D02*
X023000Y019279D01*
X023000Y019120D02*
X023000Y019120D01*
X023000Y018962D02*
X023000Y018962D01*
X023240Y018962D02*
X024400Y018962D01*
X024409Y019120D02*
X023399Y019120D01*
X023480Y019279D02*
X024474Y019279D01*
X024649Y019437D02*
X023480Y019437D01*
X023480Y019596D02*
X024597Y019596D01*
X024440Y018803D02*
X014980Y018803D01*
X014980Y018645D02*
X024548Y018645D01*
X022760Y018962D02*
X014980Y018962D01*
X014980Y019120D02*
X017400Y019120D01*
X017430Y019090D02*
X017770Y019090D01*
X018010Y019330D01*
X018010Y019670D01*
X017770Y019910D01*
X017430Y019910D01*
X017190Y019670D01*
X017190Y019330D01*
X017430Y019090D01*
X017242Y019279D02*
X014980Y019279D01*
X014980Y019437D02*
X017190Y019437D01*
X017190Y019596D02*
X014980Y019596D01*
X014980Y019754D02*
X017274Y019754D01*
X017926Y019754D02*
X018274Y019754D01*
X018190Y019670D02*
X018190Y019330D01*
X018430Y019090D01*
X018770Y019090D01*
X019010Y019330D01*
X019010Y019670D01*
X018770Y019910D01*
X018430Y019910D01*
X018190Y019670D01*
X018190Y019596D02*
X018010Y019596D01*
X018010Y019437D02*
X018190Y019437D01*
X018242Y019279D02*
X017958Y019279D01*
X017800Y019120D02*
X018400Y019120D01*
X018800Y019120D02*
X021700Y019120D01*
X021590Y019230D02*
X021830Y018990D01*
X022170Y018990D01*
X022410Y019230D01*
X022410Y019570D01*
X022170Y019810D01*
X021830Y019810D01*
X021590Y019570D01*
X021590Y019230D01*
X021590Y019279D02*
X018958Y019279D01*
X019010Y019437D02*
X021590Y019437D01*
X021616Y019596D02*
X019010Y019596D01*
X018926Y019754D02*
X021774Y019754D01*
X022226Y019754D02*
X022675Y019754D01*
X022520Y019596D02*
X022384Y019596D01*
X022410Y019437D02*
X022520Y019437D01*
X022520Y019279D02*
X022410Y019279D01*
X022300Y019120D02*
X022601Y019120D01*
X024415Y020864D02*
X017309Y020864D01*
X017213Y020705D02*
X024488Y020705D01*
X025112Y020547D02*
X043400Y020547D01*
X043402Y020705D02*
X025312Y020705D01*
X025385Y020864D02*
X043468Y020864D01*
X043615Y021022D02*
X025400Y021022D01*
X025366Y021181D02*
X043612Y021181D01*
X043467Y021339D02*
X025268Y021339D01*
X025005Y021498D02*
X043401Y021498D01*
X043400Y021656D02*
X023480Y021656D01*
X023480Y021498D02*
X024795Y021498D01*
X024532Y021339D02*
X023418Y021339D01*
X023464Y021815D02*
X043448Y021815D01*
X043447Y020388D02*
X025219Y020388D01*
X028207Y018169D02*
X031620Y018169D01*
X031620Y018011D02*
X028248Y018011D01*
X028215Y017852D02*
X031620Y017852D01*
X031620Y017694D02*
X028180Y017694D01*
X028180Y017535D02*
X031620Y017535D01*
X031620Y017377D02*
X028180Y017377D01*
X028180Y017218D02*
X031620Y017218D01*
X031620Y017060D02*
X028180Y017060D01*
X028180Y016901D02*
X031620Y016901D01*
X031620Y016743D02*
X028180Y016743D01*
X024180Y026253D02*
X007432Y026253D01*
X007285Y026411D02*
X024140Y026411D01*
X024140Y026570D02*
X017878Y026570D01*
X017844Y026535D02*
X017965Y026656D01*
X018030Y026814D01*
X018030Y027586D01*
X017965Y027744D01*
X017844Y027865D01*
X017686Y027930D01*
X017514Y027930D01*
X017356Y027865D01*
X017235Y027744D01*
X017170Y027586D01*
X017170Y026814D01*
X017235Y026656D01*
X017356Y026535D01*
X017514Y026470D01*
X017686Y026470D01*
X017844Y026535D01*
X017994Y026728D02*
X024172Y026728D01*
X024238Y026887D02*
X018030Y026887D01*
X018030Y027045D02*
X024370Y027045D01*
X024613Y027204D02*
X018030Y027204D01*
X018030Y027362D02*
X045600Y027362D01*
X045600Y027204D02*
X025187Y027204D01*
X025430Y027045D02*
X045600Y027045D01*
X045600Y026887D02*
X025562Y026887D01*
X030305Y030903D02*
X030403Y030805D01*
X030531Y030752D01*
X030669Y030752D01*
X030797Y030805D01*
X030895Y030903D01*
X030948Y031031D01*
X030948Y031169D01*
X030895Y031297D01*
X030797Y031395D01*
X030669Y031448D01*
X030531Y031448D01*
X030403Y031395D01*
X030305Y031297D01*
X030252Y031169D01*
X030252Y031031D01*
X030305Y030903D01*
X030359Y030849D02*
X014980Y030849D01*
X014980Y030691D02*
X045600Y030691D01*
X045600Y030849D02*
X033041Y030849D01*
X032997Y030805D02*
X033095Y030903D01*
X033148Y031031D01*
X033148Y031169D01*
X033095Y031297D01*
X032997Y031395D01*
X032869Y031448D01*
X032731Y031448D01*
X032603Y031395D01*
X032505Y031297D01*
X032452Y031169D01*
X032452Y031031D01*
X032505Y030903D01*
X032603Y030805D01*
X032731Y030752D01*
X032869Y030752D01*
X032997Y030805D01*
X033138Y031008D02*
X045600Y031008D01*
X045600Y031166D02*
X033148Y031166D01*
X033068Y031325D02*
X045600Y031325D01*
X045600Y031483D02*
X014980Y031483D01*
X014980Y031325D02*
X030332Y031325D01*
X030252Y031166D02*
X014980Y031166D01*
X014980Y031008D02*
X030262Y031008D01*
X030182Y031508D02*
X030344Y031508D01*
X030494Y031570D01*
X030608Y031685D01*
X030670Y031834D01*
X030670Y032551D01*
X030608Y032701D01*
X030494Y032816D01*
X030344Y032878D01*
X030182Y032878D01*
X030032Y032816D01*
X029918Y032701D01*
X029856Y032551D01*
X029856Y031834D01*
X029918Y031685D01*
X030032Y031570D01*
X030182Y031508D01*
X029961Y031642D02*
X018727Y031642D01*
X018675Y031620D02*
X018998Y031754D01*
X019246Y032002D01*
X019380Y032325D01*
X019380Y032675D01*
X019246Y032998D01*
X018998Y033246D01*
X018675Y033380D01*
X018325Y033380D01*
X018002Y033246D01*
X017754Y032998D01*
X017620Y032675D01*
X017620Y032325D01*
X017754Y032002D01*
X018002Y031754D01*
X018325Y031620D01*
X018675Y031620D01*
X018273Y031642D02*
X014980Y031642D01*
X014980Y031774D02*
X015053Y031804D01*
X015179Y031930D01*
X015247Y032094D01*
X015247Y032906D01*
X015179Y033070D01*
X015053Y033196D01*
X014889Y033264D01*
X014711Y033264D01*
X014547Y033196D01*
X014421Y033070D01*
X014353Y032906D01*
X014353Y032094D01*
X014421Y031930D01*
X014547Y031804D01*
X014620Y031774D01*
X014620Y029425D01*
X014890Y029155D01*
X014890Y028830D01*
X015130Y028590D01*
X015470Y028590D01*
X015710Y028830D01*
X015710Y029170D01*
X015470Y029410D01*
X015145Y029410D01*
X014980Y029575D01*
X014980Y029740D01*
X015130Y029590D01*
X015470Y029590D01*
X015710Y029830D01*
X015710Y030170D01*
X015470Y030410D01*
X015130Y030410D01*
X014980Y030260D01*
X014980Y031774D01*
X015043Y031800D02*
X017955Y031800D01*
X017797Y031959D02*
X015191Y031959D01*
X015247Y032117D02*
X017706Y032117D01*
X017640Y032276D02*
X015247Y032276D01*
X015247Y032434D02*
X017620Y032434D01*
X017620Y032593D02*
X015247Y032593D01*
X015247Y032751D02*
X017651Y032751D01*
X017717Y032910D02*
X015245Y032910D01*
X015180Y033068D02*
X017824Y033068D01*
X017982Y033227D02*
X014979Y033227D01*
X014621Y033227D02*
X013979Y033227D01*
X014053Y033196D02*
X013889Y033264D01*
X013711Y033264D01*
X013547Y033196D01*
X013421Y033070D01*
X013353Y032906D01*
X013353Y032094D01*
X013421Y031930D01*
X013547Y031804D01*
X013711Y031736D01*
X013889Y031736D01*
X014053Y031804D01*
X014179Y031930D01*
X014247Y032094D01*
X014247Y032906D01*
X014179Y033070D01*
X014053Y033196D01*
X014180Y033068D02*
X014420Y033068D01*
X014355Y032910D02*
X014245Y032910D01*
X014247Y032751D02*
X014353Y032751D01*
X014353Y032593D02*
X014247Y032593D01*
X014247Y032434D02*
X014353Y032434D01*
X014353Y032276D02*
X014247Y032276D01*
X014247Y032117D02*
X014353Y032117D01*
X014409Y031959D02*
X014191Y031959D01*
X014043Y031800D02*
X014557Y031800D01*
X014620Y031642D02*
X010150Y031642D01*
X010165Y031656D02*
X010044Y031535D01*
X009886Y031470D01*
X009114Y031470D01*
X008956Y031535D01*
X008835Y031656D01*
X008770Y031814D01*
X008770Y031986D01*
X008835Y032144D01*
X008956Y032265D01*
X009114Y032330D01*
X009886Y032330D01*
X010044Y032265D01*
X010165Y032144D01*
X010230Y031986D01*
X010230Y031814D01*
X010165Y031656D01*
X010224Y031800D02*
X012557Y031800D01*
X012547Y031804D02*
X012711Y031736D01*
X012889Y031736D01*
X013053Y031804D01*
X013179Y031930D01*
X013247Y032094D01*
X013247Y032906D01*
X013179Y033070D01*
X013053Y033196D01*
X012889Y033264D01*
X012711Y033264D01*
X012547Y033196D01*
X012421Y033070D01*
X012353Y032906D01*
X012353Y032094D01*
X012421Y031930D01*
X012547Y031804D01*
X012409Y031959D02*
X010230Y031959D01*
X010176Y032117D02*
X012353Y032117D01*
X012353Y032276D02*
X010017Y032276D01*
X009984Y032434D02*
X012353Y032434D01*
X012353Y032593D02*
X010195Y032593D01*
X010181Y032574D02*
X010228Y032638D01*
X010263Y032708D01*
X010288Y032783D01*
X010300Y032861D01*
X010300Y032890D01*
X009510Y032890D01*
X009510Y032910D01*
X009490Y032910D01*
X009490Y033400D01*
X009161Y033400D01*
X009083Y033388D01*
X009008Y033363D01*
X008938Y033328D01*
X008874Y033281D01*
X008819Y033226D01*
X008772Y033162D01*
X008737Y033092D01*
X008712Y033017D01*
X008700Y032939D01*
X008700Y032910D01*
X009490Y032910D01*
X009490Y032890D01*
X009510Y032890D01*
X009510Y032400D01*
X009839Y032400D01*
X009917Y032412D01*
X009992Y032437D01*
X010062Y032472D01*
X010126Y032519D01*
X010181Y032574D01*
X010277Y032751D02*
X012353Y032751D01*
X012355Y032910D02*
X009510Y032910D01*
X009510Y033400D01*
X009839Y033400D01*
X009917Y033388D01*
X009992Y033363D01*
X010062Y033328D01*
X010126Y033281D01*
X010181Y033226D01*
X010228Y033162D01*
X010263Y033092D01*
X010288Y033017D01*
X010300Y032939D01*
X010300Y032910D01*
X009510Y032910D01*
X009490Y032910D02*
X002830Y032910D01*
X002830Y032986D02*
X002765Y033144D01*
X002644Y033265D01*
X002486Y033330D01*
X001714Y033330D01*
X001556Y033265D01*
X001435Y033144D01*
X001370Y032986D01*
X001370Y032814D01*
X001435Y032656D01*
X001556Y032535D01*
X001714Y032470D01*
X002486Y032470D01*
X002644Y032535D01*
X002765Y032656D01*
X002830Y032814D01*
X002830Y032986D01*
X002796Y033068D02*
X008729Y033068D01*
X008700Y032890D02*
X008700Y032861D01*
X008712Y032783D01*
X008737Y032708D01*
X008772Y032638D01*
X008819Y032574D01*
X008874Y032519D01*
X008938Y032472D01*
X009008Y032437D01*
X009083Y032412D01*
X009161Y032400D01*
X009490Y032400D01*
X009490Y032890D01*
X008700Y032890D01*
X008723Y032751D02*
X007178Y032751D01*
X007319Y032593D02*
X008805Y032593D01*
X009016Y032434D02*
X007380Y032434D01*
X007380Y032276D02*
X008983Y032276D01*
X008824Y032117D02*
X007380Y032117D01*
X007380Y031959D02*
X008770Y031959D01*
X008776Y031800D02*
X007380Y031800D01*
X007380Y031642D02*
X008850Y031642D01*
X009083Y031483D02*
X007350Y031483D01*
X007253Y031325D02*
X014620Y031325D01*
X014620Y031483D02*
X009917Y031483D01*
X009510Y032434D02*
X009490Y032434D01*
X009490Y032593D02*
X009510Y032593D01*
X009510Y032751D02*
X009490Y032751D01*
X009490Y033068D02*
X009510Y033068D01*
X009510Y033227D02*
X009490Y033227D01*
X009490Y033385D02*
X009510Y033385D01*
X009925Y033385D02*
X045600Y033385D01*
X045600Y033227D02*
X032577Y033227D01*
X032563Y033241D02*
X032450Y033287D01*
X032328Y033287D01*
X032215Y033241D01*
X032129Y033154D01*
X032082Y033041D01*
X032082Y032919D01*
X032129Y032806D01*
X032215Y032720D01*
X032328Y032673D01*
X032450Y032673D01*
X032563Y032720D01*
X032649Y032806D01*
X032696Y032919D01*
X032696Y033041D01*
X032649Y033154D01*
X032563Y033241D01*
X032685Y033068D02*
X045600Y033068D01*
X045600Y032910D02*
X032692Y032910D01*
X032594Y032751D02*
X032841Y032751D01*
X032792Y032701D02*
X032906Y032816D01*
X033056Y032878D01*
X033218Y032878D01*
X033368Y032816D01*
X033482Y032701D01*
X033544Y032551D01*
X033544Y031834D01*
X033482Y031685D01*
X033368Y031570D01*
X033218Y031508D01*
X033056Y031508D01*
X032906Y031570D01*
X032792Y031685D01*
X032730Y031834D01*
X032730Y032551D01*
X032792Y032701D01*
X032747Y032593D02*
X030653Y032593D01*
X030670Y032434D02*
X032730Y032434D01*
X032730Y032276D02*
X030670Y032276D01*
X030670Y032117D02*
X032730Y032117D01*
X032730Y031959D02*
X030670Y031959D01*
X030656Y031800D02*
X032744Y031800D01*
X032835Y031642D02*
X030565Y031642D01*
X030868Y031325D02*
X032532Y031325D01*
X032452Y031166D02*
X030948Y031166D01*
X030938Y031008D02*
X032462Y031008D01*
X032559Y030849D02*
X030841Y030849D01*
X029870Y031800D02*
X019045Y031800D01*
X019203Y031959D02*
X029856Y031959D01*
X029856Y032117D02*
X019294Y032117D01*
X019360Y032276D02*
X029856Y032276D01*
X029856Y032434D02*
X019380Y032434D01*
X019380Y032593D02*
X029873Y032593D01*
X029967Y032751D02*
X019349Y032751D01*
X019283Y032910D02*
X030708Y032910D01*
X030704Y032919D02*
X030751Y032806D01*
X030837Y032720D01*
X030950Y032673D01*
X031072Y032673D01*
X031185Y032720D01*
X031271Y032806D01*
X031318Y032919D01*
X031318Y033041D01*
X031271Y033154D01*
X031185Y033241D01*
X031072Y033287D01*
X030950Y033287D01*
X030837Y033241D01*
X030751Y033154D01*
X030704Y033041D01*
X030704Y032919D01*
X030715Y033068D02*
X019176Y033068D01*
X019018Y033227D02*
X030823Y033227D01*
X031199Y033227D02*
X032201Y033227D01*
X032093Y033068D02*
X031307Y033068D01*
X031314Y032910D02*
X032086Y032910D01*
X032184Y032751D02*
X031216Y032751D01*
X030806Y032751D02*
X030559Y032751D01*
X030539Y033702D02*
X032861Y033702D01*
X032755Y033861D02*
X030645Y033861D01*
X029987Y033702D02*
X000700Y033702D01*
X000700Y033544D02*
X045600Y033544D01*
X045600Y033702D02*
X033413Y033702D01*
X033519Y033861D02*
X045600Y033861D01*
X045600Y032751D02*
X033433Y032751D01*
X033527Y032593D02*
X045600Y032593D01*
X045600Y032434D02*
X033544Y032434D01*
X033544Y032276D02*
X045600Y032276D01*
X045600Y032117D02*
X033544Y032117D01*
X033544Y031959D02*
X045600Y031959D01*
X045600Y031800D02*
X033530Y031800D01*
X033439Y031642D02*
X045600Y031642D01*
X045600Y030532D02*
X014980Y030532D01*
X014980Y030374D02*
X015094Y030374D01*
X015506Y030374D02*
X017394Y030374D01*
X017430Y030410D02*
X017190Y030170D01*
X017190Y029830D01*
X017430Y029590D01*
X017770Y029590D01*
X018010Y029830D01*
X018010Y030170D01*
X017770Y030410D01*
X017430Y030410D01*
X017235Y030215D02*
X015665Y030215D01*
X015710Y030057D02*
X017190Y030057D01*
X017190Y029898D02*
X015710Y029898D01*
X015619Y029740D02*
X017281Y029740D01*
X017430Y029410D02*
X017190Y029170D01*
X017190Y028830D01*
X017430Y028590D01*
X017770Y028590D01*
X018010Y028830D01*
X018010Y029170D01*
X017770Y029410D01*
X017430Y029410D01*
X017284Y029264D02*
X015616Y029264D01*
X015710Y029106D02*
X017190Y029106D01*
X017190Y028947D02*
X015710Y028947D01*
X015668Y028789D02*
X017232Y028789D01*
X017390Y028630D02*
X015510Y028630D01*
X015090Y028630D02*
X007170Y028630D01*
X007080Y028789D02*
X014932Y028789D01*
X014890Y028947D02*
X013927Y028947D01*
X013870Y028890D02*
X014110Y029130D01*
X014110Y029470D01*
X013870Y029710D01*
X013530Y029710D01*
X013290Y029470D01*
X013290Y029130D01*
X013530Y028890D01*
X013870Y028890D01*
X014085Y029106D02*
X014890Y029106D01*
X014781Y029264D02*
X014110Y029264D01*
X014110Y029423D02*
X014623Y029423D01*
X014620Y029581D02*
X013999Y029581D01*
X013401Y029581D02*
X012999Y029581D01*
X013110Y029470D02*
X012870Y029710D01*
X012530Y029710D01*
X012290Y029470D01*
X012290Y029130D01*
X012530Y028890D01*
X012870Y028890D01*
X013110Y029130D01*
X013110Y029470D01*
X013110Y029423D02*
X013290Y029423D01*
X013290Y029264D02*
X013110Y029264D01*
X013085Y029106D02*
X013315Y029106D01*
X013473Y028947D02*
X012927Y028947D01*
X012473Y028947D02*
X007080Y028947D01*
X007080Y029106D02*
X012315Y029106D01*
X012290Y029264D02*
X007080Y029264D01*
X007080Y029423D02*
X012290Y029423D01*
X012401Y029581D02*
X007080Y029581D01*
X007080Y029740D02*
X014620Y029740D01*
X014620Y029898D02*
X007080Y029898D01*
X007080Y030057D02*
X014620Y030057D01*
X014620Y030215D02*
X007080Y030215D01*
X007080Y030374D02*
X014620Y030374D01*
X014620Y030532D02*
X007080Y030532D01*
X007080Y030691D02*
X014620Y030691D01*
X014620Y030849D02*
X007080Y030849D01*
X007080Y031008D02*
X014620Y031008D01*
X014620Y031166D02*
X007080Y031166D01*
X006720Y031166D02*
X000700Y031166D01*
X000700Y031008D02*
X006720Y031008D01*
X006720Y030849D02*
X000700Y030849D01*
X000700Y030691D02*
X006720Y030691D01*
X006720Y030532D02*
X000700Y030532D01*
X000700Y030374D02*
X006720Y030374D01*
X006720Y030215D02*
X000700Y030215D01*
X000700Y030057D02*
X006720Y030057D01*
X006720Y029898D02*
X000700Y029898D01*
X000700Y029740D02*
X006720Y029740D01*
X006720Y029581D02*
X000700Y029581D01*
X000700Y029423D02*
X006720Y029423D01*
X006720Y029264D02*
X000700Y029264D01*
X000700Y029106D02*
X006720Y029106D01*
X006720Y028947D02*
X000700Y028947D01*
X000700Y028789D02*
X006720Y028789D01*
X006720Y028630D02*
X006170Y028630D01*
X006089Y028664D02*
X005911Y028664D01*
X005747Y028596D01*
X005621Y028470D01*
X005553Y028306D01*
X005553Y027494D01*
X005621Y027330D01*
X005747Y027204D01*
X005911Y027136D01*
X006089Y027136D01*
X006253Y027204D01*
X006379Y027330D01*
X006447Y027494D01*
X006447Y028306D01*
X006379Y028470D01*
X006253Y028596D01*
X006089Y028664D01*
X005830Y028630D02*
X005311Y028630D01*
X005337Y028611D02*
X005271Y028659D01*
X005198Y028696D01*
X005121Y028721D01*
X005041Y028734D01*
X005018Y028734D01*
X005018Y027918D01*
X005517Y027918D01*
X005517Y028258D01*
X005504Y028338D01*
X005479Y028415D01*
X005442Y028488D01*
X005394Y028554D01*
X005337Y028611D01*
X005450Y028472D02*
X005623Y028472D01*
X005556Y028313D02*
X005508Y028313D01*
X005517Y028155D02*
X005553Y028155D01*
X005553Y027996D02*
X005517Y027996D01*
X005517Y027882D02*
X005018Y027882D01*
X005018Y027918D01*
X004982Y027918D01*
X004982Y027882D01*
X005018Y027882D01*
X005018Y027066D01*
X005041Y027066D01*
X005121Y027079D01*
X005198Y027104D01*
X005271Y027141D01*
X005337Y027189D01*
X005394Y027246D01*
X005442Y027312D01*
X005479Y027385D01*
X005504Y027462D01*
X005517Y027542D01*
X005517Y027882D01*
X005517Y027838D02*
X005553Y027838D01*
X005553Y027679D02*
X005517Y027679D01*
X005513Y027521D02*
X005553Y027521D01*
X005608Y027362D02*
X005467Y027362D01*
X005351Y027204D02*
X005749Y027204D01*
X006251Y027204D02*
X006749Y027204D01*
X006608Y027362D02*
X006392Y027362D01*
X006447Y027521D02*
X006553Y027521D01*
X006553Y027679D02*
X006447Y027679D01*
X006447Y027838D02*
X006553Y027838D01*
X006553Y027996D02*
X006447Y027996D01*
X006447Y028155D02*
X006553Y028155D01*
X006556Y028313D02*
X006444Y028313D01*
X006377Y028472D02*
X006623Y028472D01*
X007377Y028472D02*
X045600Y028472D01*
X045600Y028630D02*
X017810Y028630D01*
X017968Y028789D02*
X045600Y028789D01*
X045600Y028947D02*
X018010Y028947D01*
X018010Y029106D02*
X045600Y029106D01*
X045600Y029264D02*
X017916Y029264D01*
X017919Y029740D02*
X045600Y029740D01*
X045600Y029898D02*
X018010Y029898D01*
X018010Y030057D02*
X045600Y030057D01*
X045600Y030215D02*
X017965Y030215D01*
X017806Y030374D02*
X045600Y030374D01*
X045600Y029581D02*
X014980Y029581D01*
X014980Y029740D02*
X014981Y029740D01*
X015132Y029423D02*
X045600Y029423D01*
X045600Y028313D02*
X007444Y028313D01*
X007447Y028155D02*
X045600Y028155D01*
X045600Y027996D02*
X007447Y027996D01*
X007447Y027838D02*
X016329Y027838D01*
X016209Y027679D02*
X007447Y027679D01*
X007447Y027521D02*
X016170Y027521D01*
X016871Y027838D02*
X017329Y027838D01*
X017209Y027679D02*
X016991Y027679D01*
X017030Y027521D02*
X017170Y027521D01*
X017170Y027362D02*
X017030Y027362D01*
X017030Y027204D02*
X017170Y027204D01*
X017170Y027045D02*
X017030Y027045D01*
X017030Y026887D02*
X017170Y026887D01*
X017206Y026728D02*
X016994Y026728D01*
X016878Y026570D02*
X017322Y026570D01*
X018030Y027521D02*
X045600Y027521D01*
X045600Y027679D02*
X017991Y027679D01*
X017871Y027838D02*
X045600Y027838D01*
X029881Y033861D02*
X000700Y033861D01*
X000700Y033385D02*
X009075Y033385D01*
X008819Y033227D02*
X002682Y033227D01*
X002804Y032751D02*
X004622Y032751D01*
X004628Y032757D02*
X004493Y032622D01*
X004420Y032445D01*
X004420Y031555D01*
X004493Y031378D01*
X004628Y031243D01*
X004805Y031170D01*
X004995Y031170D01*
X005172Y031243D01*
X005307Y031378D01*
X005380Y031555D01*
X005380Y032445D01*
X005307Y032622D01*
X005172Y032757D01*
X004995Y032830D01*
X004805Y032830D01*
X004628Y032757D01*
X004481Y032593D02*
X002701Y032593D01*
X002592Y032363D02*
X002517Y032388D01*
X002439Y032400D01*
X002110Y032400D01*
X002110Y031910D01*
X002090Y031910D01*
X002090Y032400D01*
X001761Y032400D01*
X001683Y032388D01*
X001608Y032363D01*
X001538Y032328D01*
X001474Y032281D01*
X001419Y032226D01*
X001372Y032162D01*
X001337Y032092D01*
X001312Y032017D01*
X001300Y031939D01*
X001300Y031910D01*
X002090Y031910D01*
X002090Y031890D01*
X002110Y031890D01*
X002110Y031910D01*
X002900Y031910D01*
X002900Y031939D01*
X002888Y032017D01*
X002863Y032092D01*
X002828Y032162D01*
X002781Y032226D01*
X002726Y032281D01*
X002662Y032328D01*
X002592Y032363D01*
X002732Y032276D02*
X004420Y032276D01*
X004420Y032434D02*
X000700Y032434D01*
X000700Y032276D02*
X001468Y032276D01*
X001349Y032117D02*
X000700Y032117D01*
X000700Y031959D02*
X001303Y031959D01*
X001300Y031890D02*
X001300Y031861D01*
X001312Y031783D01*
X001337Y031708D01*
X001372Y031638D01*
X001419Y031574D01*
X001474Y031519D01*
X001538Y031472D01*
X001608Y031437D01*
X001683Y031412D01*
X001761Y031400D01*
X002090Y031400D01*
X002090Y031890D01*
X001300Y031890D01*
X001310Y031800D02*
X000700Y031800D01*
X000700Y031642D02*
X001371Y031642D01*
X001523Y031483D02*
X000700Y031483D01*
X000700Y031325D02*
X004547Y031325D01*
X004450Y031483D02*
X002677Y031483D01*
X002662Y031472D02*
X002726Y031519D01*
X002781Y031574D01*
X002828Y031638D01*
X002863Y031708D01*
X002888Y031783D01*
X002900Y031861D01*
X002900Y031890D01*
X002110Y031890D01*
X002110Y031400D01*
X002439Y031400D01*
X002517Y031412D01*
X002592Y031437D01*
X002662Y031472D01*
X002829Y031642D02*
X004420Y031642D01*
X004420Y031800D02*
X002890Y031800D01*
X002897Y031959D02*
X004420Y031959D01*
X004420Y032117D02*
X002851Y032117D01*
X002110Y032117D02*
X002090Y032117D01*
X002090Y031959D02*
X002110Y031959D01*
X002110Y031800D02*
X002090Y031800D01*
X002090Y031642D02*
X002110Y031642D01*
X002110Y031483D02*
X002090Y031483D01*
X002090Y032276D02*
X002110Y032276D01*
X001499Y032593D02*
X000700Y032593D01*
X000700Y032751D02*
X001396Y032751D01*
X001370Y032910D02*
X000700Y032910D01*
X000700Y033068D02*
X001404Y033068D01*
X001518Y033227D02*
X000700Y033227D01*
X005178Y032751D02*
X006622Y032751D01*
X006481Y032593D02*
X005319Y032593D01*
X005380Y032434D02*
X006420Y032434D01*
X006420Y032276D02*
X005380Y032276D01*
X005380Y032117D02*
X006420Y032117D01*
X006420Y031959D02*
X005380Y031959D01*
X005380Y031800D02*
X006420Y031800D01*
X006420Y031642D02*
X005380Y031642D01*
X005350Y031483D02*
X006450Y031483D01*
X006547Y031325D02*
X005253Y031325D01*
X004982Y028734D02*
X004959Y028734D01*
X004879Y028721D01*
X004802Y028696D01*
X004729Y028659D01*
X004663Y028611D01*
X004606Y028554D01*
X004558Y028488D01*
X004521Y028415D01*
X004496Y028338D01*
X004483Y028258D01*
X004483Y027918D01*
X004982Y027918D01*
X004982Y028734D01*
X004982Y028630D02*
X005018Y028630D01*
X005018Y028472D02*
X004982Y028472D01*
X004982Y028313D02*
X005018Y028313D01*
X005018Y028155D02*
X004982Y028155D01*
X004982Y027996D02*
X005018Y027996D01*
X004982Y027882D02*
X004483Y027882D01*
X004483Y027542D01*
X004496Y027462D01*
X004521Y027385D01*
X004558Y027312D01*
X004606Y027246D01*
X004663Y027189D01*
X004729Y027141D01*
X004802Y027104D01*
X004879Y027079D01*
X004959Y027066D01*
X004982Y027066D01*
X004982Y027882D01*
X004982Y027838D02*
X005018Y027838D01*
X005018Y027679D02*
X004982Y027679D01*
X004982Y027521D02*
X005018Y027521D01*
X005018Y027362D02*
X004982Y027362D01*
X004982Y027204D02*
X005018Y027204D01*
X004649Y027204D02*
X000700Y027204D01*
X000700Y027362D02*
X004533Y027362D01*
X004487Y027521D02*
X000700Y027521D01*
X000700Y027679D02*
X004483Y027679D01*
X004483Y027838D02*
X000700Y027838D01*
X000700Y027996D02*
X004483Y027996D01*
X004483Y028155D02*
X000700Y028155D01*
X000700Y028313D02*
X004492Y028313D01*
X004550Y028472D02*
X000700Y028472D01*
X000700Y028630D02*
X004689Y028630D01*
X005869Y026411D02*
X000700Y026411D01*
X000700Y026253D02*
X005644Y026253D01*
X005574Y026094D02*
X000700Y026094D01*
X000700Y025936D02*
X005570Y025936D01*
X005570Y025777D02*
X000700Y025777D01*
X000700Y025619D02*
X005570Y025619D01*
X005570Y025460D02*
X000700Y025460D01*
X000700Y025302D02*
X005575Y025302D01*
X006180Y024985D02*
X006721Y024985D01*
X006738Y024972D02*
X006808Y024937D01*
X006883Y024912D01*
X006961Y024900D01*
X006990Y024900D01*
X006990Y025690D01*
X006500Y025690D01*
X006500Y025361D01*
X006512Y025283D01*
X006537Y025208D01*
X006572Y025138D01*
X006619Y025074D01*
X006674Y025019D01*
X006738Y024972D01*
X006570Y025143D02*
X006351Y025143D01*
X006425Y025302D02*
X006509Y025302D01*
X006500Y025460D02*
X006430Y025460D01*
X006430Y025619D02*
X006500Y025619D01*
X006500Y025777D02*
X006430Y025777D01*
X006430Y025936D02*
X006500Y025936D01*
X006509Y026094D02*
X006426Y026094D01*
X006356Y026253D02*
X006568Y026253D01*
X006715Y026411D02*
X006131Y026411D01*
X006990Y026411D02*
X007010Y026411D01*
X007010Y026253D02*
X006990Y026253D01*
X006990Y026094D02*
X007010Y026094D01*
X007010Y025936D02*
X006990Y025936D01*
X006990Y025777D02*
X007010Y025777D01*
X007010Y025619D02*
X006990Y025619D01*
X006990Y025460D02*
X007010Y025460D01*
X007010Y025302D02*
X006990Y025302D01*
X006990Y025143D02*
X007010Y025143D01*
X007010Y024985D02*
X006990Y024985D01*
X006684Y024192D02*
X006316Y024192D01*
X006410Y024034D02*
X006590Y024034D01*
X006570Y023875D02*
X006430Y023875D01*
X006430Y023717D02*
X006570Y023717D01*
X006570Y023558D02*
X006430Y023558D01*
X006430Y023400D02*
X006570Y023400D01*
X006570Y023241D02*
X006430Y023241D01*
X006375Y023083D02*
X006625Y023083D01*
X006784Y022924D02*
X006216Y022924D01*
X006180Y022766D02*
X006820Y022766D01*
X006820Y022607D02*
X006180Y022607D01*
X006180Y022449D02*
X006820Y022449D01*
X006820Y022290D02*
X006180Y022290D01*
X006248Y022132D02*
X006752Y022132D01*
X006593Y021973D02*
X006407Y021973D01*
X006410Y021815D02*
X006590Y021815D01*
X006590Y021656D02*
X006410Y021656D01*
X006277Y021498D02*
X006723Y021498D01*
X007180Y021339D02*
X008581Y021339D01*
X008490Y021498D02*
X007277Y021498D01*
X007410Y021656D02*
X008490Y021656D01*
X008535Y021815D02*
X007410Y021815D01*
X007407Y021973D02*
X008693Y021973D01*
X008730Y022290D02*
X009070Y022290D01*
X010166Y022290D01*
X009943Y022449D02*
X009228Y022449D01*
X009310Y022607D02*
X009873Y022607D01*
X009870Y022766D02*
X009310Y022766D01*
X009256Y022924D02*
X009927Y022924D01*
X010100Y023083D02*
X009097Y023083D01*
X009179Y023400D02*
X009992Y023400D01*
X009893Y023558D02*
X009310Y023558D01*
X009310Y023717D02*
X009870Y023717D01*
X009907Y023875D02*
X009305Y023875D01*
X009146Y024034D02*
X010025Y024034D01*
X011034Y022290D02*
X011220Y022290D01*
X011220Y022132D02*
X007248Y022132D01*
X007430Y023241D02*
X012761Y023241D01*
X013239Y023241D02*
X013662Y023241D01*
X013801Y023380D02*
X013520Y023099D01*
X013520Y022900D01*
X014000Y022900D01*
X014480Y022900D01*
X014480Y023099D01*
X014199Y023380D01*
X014000Y023380D01*
X014000Y022900D01*
X014000Y022900D01*
X014000Y022900D01*
X014480Y022900D01*
X014480Y022701D01*
X014199Y022420D01*
X014000Y022420D01*
X014000Y022900D01*
X014000Y022900D01*
X014000Y022900D01*
X014000Y023380D01*
X013801Y023380D01*
X014000Y023241D02*
X014000Y023241D01*
X014000Y023083D02*
X014000Y023083D01*
X014000Y022924D02*
X014000Y022924D01*
X014000Y022900D02*
X013520Y022900D01*
X013520Y022701D01*
X013801Y022420D01*
X014000Y022420D01*
X014000Y022900D01*
X014000Y022766D02*
X014000Y022766D01*
X014000Y022607D02*
X014000Y022607D01*
X014000Y022449D02*
X014000Y022449D01*
X014227Y022449D02*
X014620Y022449D01*
X014620Y022607D02*
X014386Y022607D01*
X014480Y022766D02*
X014620Y022766D01*
X014620Y022924D02*
X014480Y022924D01*
X014480Y023083D02*
X014620Y023083D01*
X014620Y023241D02*
X014338Y023241D01*
X013520Y023083D02*
X013397Y023083D01*
X013410Y022924D02*
X013520Y022924D01*
X013520Y022766D02*
X013410Y022766D01*
X013287Y022607D02*
X013614Y022607D01*
X013773Y022449D02*
X013180Y022449D01*
X013180Y022290D02*
X014620Y022290D01*
X014620Y022132D02*
X013180Y022132D01*
X013180Y021973D02*
X014620Y021973D01*
X014620Y021815D02*
X013180Y021815D01*
X013180Y021656D02*
X014620Y021656D01*
X014620Y021498D02*
X013180Y021498D01*
X013180Y021339D02*
X014620Y021339D01*
X014620Y021181D02*
X013180Y021181D01*
X013180Y021022D02*
X014620Y021022D01*
X014620Y020864D02*
X013180Y020864D01*
X013180Y020705D02*
X014620Y020705D01*
X014620Y020547D02*
X013180Y020547D01*
X013180Y020388D02*
X014620Y020388D01*
X014620Y020230D02*
X013180Y020230D01*
X013180Y020071D02*
X014620Y020071D01*
X014620Y019913D02*
X013180Y019913D01*
X013180Y019754D02*
X014620Y019754D01*
X014620Y019596D02*
X013180Y019596D01*
X013180Y019437D02*
X014620Y019437D01*
X014620Y019279D02*
X013180Y019279D01*
X013180Y019120D02*
X014620Y019120D01*
X014620Y018962D02*
X013180Y018962D01*
X013180Y018803D02*
X014620Y018803D01*
X014620Y018645D02*
X013180Y018645D01*
X013180Y018486D02*
X014620Y018486D01*
X014620Y018328D02*
X013180Y018328D01*
X013180Y018169D02*
X014620Y018169D01*
X014620Y018011D02*
X013180Y018011D01*
X013180Y017852D02*
X014620Y017852D01*
X014580Y017694D02*
X013180Y017694D01*
X013180Y017535D02*
X014508Y017535D01*
X014535Y017377D02*
X013180Y017377D01*
X011260Y016901D02*
X010980Y016901D01*
X010980Y016743D02*
X011134Y016743D01*
X011076Y016584D02*
X010980Y016584D01*
X010980Y016426D02*
X011076Y016426D01*
X011130Y016267D02*
X010980Y016267D01*
X010980Y016109D02*
X011251Y016109D01*
X010427Y017218D02*
X005180Y017218D01*
X004820Y017377D02*
X004817Y017377D01*
X004810Y017535D02*
X004648Y017535D01*
X004652Y017694D02*
X004542Y017694D01*
X004110Y017535D02*
X004090Y017535D01*
X004090Y017377D02*
X004110Y017377D01*
X004110Y017218D02*
X004090Y017218D01*
X004090Y017090D02*
X003300Y017090D01*
X003300Y017061D01*
X003312Y016983D01*
X003337Y016908D01*
X003372Y016838D01*
X003419Y016774D01*
X003474Y016719D01*
X003538Y016672D01*
X003608Y016637D01*
X003683Y016612D01*
X003761Y016600D01*
X004090Y016600D01*
X004090Y017090D01*
X004090Y017060D02*
X004110Y017060D01*
X004110Y016901D02*
X004090Y016901D01*
X004090Y016743D02*
X004110Y016743D01*
X003450Y016743D02*
X002222Y016743D01*
X002381Y016901D02*
X003340Y016901D01*
X003300Y017060D02*
X002410Y017060D01*
X002410Y017218D02*
X003313Y017218D01*
X003383Y017377D02*
X002303Y017377D01*
X002180Y017535D02*
X003552Y017535D01*
X003658Y017694D02*
X002180Y017694D01*
X002180Y017852D02*
X003440Y017852D01*
X003372Y018011D02*
X002290Y018011D01*
X002410Y018169D02*
X003370Y018169D01*
X003429Y018328D02*
X002410Y018328D01*
X002394Y018486D02*
X003459Y018486D01*
X003301Y018645D02*
X002235Y018645D01*
X001606Y018486D02*
X000700Y018486D01*
X000700Y018328D02*
X001590Y018328D01*
X001590Y018169D02*
X000700Y018169D01*
X000700Y018011D02*
X001710Y018011D01*
X001820Y017852D02*
X000700Y017852D01*
X000700Y017694D02*
X001820Y017694D01*
X001820Y017535D02*
X000700Y017535D01*
X000700Y017377D02*
X001697Y017377D01*
X001463Y017218D02*
X000700Y017218D01*
X000700Y017060D02*
X001305Y017060D01*
X001220Y016901D02*
X000700Y016901D01*
X000700Y016743D02*
X001220Y016743D01*
X001220Y016584D02*
X000700Y016584D01*
X000700Y016426D02*
X001220Y016426D01*
X001220Y016267D02*
X000700Y016267D01*
X000700Y016109D02*
X001220Y016109D01*
X001220Y015950D02*
X000700Y015950D01*
X000700Y015792D02*
X001220Y015792D01*
X001220Y015633D02*
X000700Y015633D01*
X000700Y015475D02*
X001271Y015475D01*
X001429Y015316D02*
X000700Y015316D01*
X000700Y015158D02*
X001588Y015158D01*
X001690Y014999D02*
X000700Y014999D01*
X000700Y014841D02*
X001690Y014841D01*
X001738Y014682D02*
X000700Y014682D01*
X000700Y014524D02*
X001897Y014524D01*
X001901Y014380D02*
X001620Y014099D01*
X001620Y013900D01*
X002100Y013900D01*
X002100Y013900D01*
X002100Y014380D01*
X002299Y014380D01*
X002580Y014099D01*
X002580Y013900D01*
X002100Y013900D01*
X002100Y013900D01*
X002100Y013900D01*
X002100Y014380D01*
X001901Y014380D01*
X001886Y014365D02*
X000700Y014365D01*
X000700Y014207D02*
X001728Y014207D01*
X001620Y014048D02*
X000700Y014048D01*
X000700Y013890D02*
X001620Y013890D01*
X001620Y013900D02*
X001620Y013701D01*
X001901Y013420D01*
X002100Y013420D01*
X002299Y013420D01*
X002580Y013701D01*
X002580Y013900D01*
X002100Y013900D01*
X002100Y013420D01*
X002100Y013900D01*
X002100Y013900D01*
X001620Y013900D01*
X001620Y013731D02*
X000700Y013731D01*
X000700Y013573D02*
X001749Y013573D01*
X002100Y013573D02*
X002100Y013573D01*
X002100Y013731D02*
X002100Y013731D01*
X002100Y013890D02*
X002100Y013890D01*
X002100Y014048D02*
X002100Y014048D01*
X002100Y014207D02*
X002100Y014207D01*
X002100Y014365D02*
X002100Y014365D01*
X002314Y014365D02*
X003527Y014365D01*
X003408Y014524D02*
X002303Y014524D01*
X002462Y014682D02*
X003370Y014682D01*
X003393Y014841D02*
X002510Y014841D01*
X002554Y014999D02*
X003491Y014999D01*
X003603Y015316D02*
X002871Y015316D01*
X003029Y015475D02*
X003428Y015475D01*
X002837Y015792D02*
X002370Y015792D01*
X002480Y015950D02*
X003442Y015950D01*
X003663Y016109D02*
X002480Y016109D01*
X002480Y016267D02*
X004820Y016267D01*
X004820Y016109D02*
X004537Y016109D01*
X004758Y015950D02*
X004820Y015950D01*
X005180Y015950D02*
X008520Y015950D01*
X008520Y015792D02*
X007788Y015792D01*
X007770Y015810D02*
X007430Y015810D01*
X007190Y015570D01*
X007190Y015230D01*
X007430Y014990D01*
X007770Y014990D01*
X008010Y015230D01*
X008010Y015570D01*
X007770Y015810D01*
X007947Y015633D02*
X008520Y015633D01*
X008520Y015475D02*
X008010Y015475D01*
X008010Y015316D02*
X008520Y015316D01*
X008520Y015158D02*
X007937Y015158D01*
X007779Y014999D02*
X008520Y014999D01*
X008520Y014841D02*
X007838Y014841D01*
X007799Y014880D02*
X007600Y014880D01*
X007600Y014400D01*
X007600Y014400D01*
X008080Y014400D01*
X008080Y014599D01*
X007799Y014880D01*
X007600Y014880D02*
X007401Y014880D01*
X007120Y014599D01*
X007120Y014400D01*
X007600Y014400D01*
X007600Y014400D01*
X007600Y014400D01*
X007600Y014880D01*
X007600Y014841D02*
X007600Y014841D01*
X007600Y014682D02*
X007600Y014682D01*
X007600Y014524D02*
X007600Y014524D01*
X007600Y014400D02*
X007120Y014400D01*
X007120Y014201D01*
X007401Y013920D01*
X007600Y013920D01*
X007799Y013920D01*
X008080Y014201D01*
X008080Y014400D01*
X007600Y014400D01*
X007600Y013920D01*
X007600Y014400D01*
X007600Y014400D01*
X007600Y014365D02*
X007600Y014365D01*
X007600Y014207D02*
X007600Y014207D01*
X007600Y014048D02*
X007600Y014048D01*
X007927Y014048D02*
X008520Y014048D01*
X008520Y013890D02*
X005180Y013890D01*
X005180Y014048D02*
X007273Y014048D01*
X007120Y014207D02*
X005180Y014207D01*
X005180Y014365D02*
X007120Y014365D01*
X007120Y014524D02*
X005180Y014524D01*
X005180Y014682D02*
X007203Y014682D01*
X007362Y014841D02*
X005180Y014841D01*
X005180Y014999D02*
X007421Y014999D01*
X007263Y015158D02*
X005180Y015158D01*
X005180Y015316D02*
X007190Y015316D01*
X007190Y015475D02*
X005180Y015475D01*
X005180Y015633D02*
X007253Y015633D01*
X007412Y015792D02*
X005180Y015792D01*
X005180Y016109D02*
X008520Y016109D01*
X008478Y016267D02*
X005180Y016267D01*
X004820Y016426D02*
X002353Y016426D01*
X002000Y016426D02*
X002000Y016426D01*
X002000Y016267D02*
X002000Y016267D01*
X002000Y016109D02*
X002000Y016109D01*
X002000Y016100D02*
X002000Y015620D01*
X002000Y016100D01*
X002000Y016100D01*
X002000Y015950D02*
X002000Y015950D01*
X002000Y015792D02*
X002000Y015792D01*
X002000Y015633D02*
X002000Y015633D01*
X002212Y015633D02*
X002678Y015633D01*
X002520Y015475D02*
X001780Y015475D01*
X001788Y015633D02*
X001622Y015633D01*
X001630Y015792D02*
X001580Y015792D01*
X001939Y015316D02*
X002361Y015316D01*
X002712Y015158D02*
X004820Y015158D01*
X004820Y015316D02*
X004597Y015316D01*
X004772Y015475D02*
X004820Y015475D01*
X004820Y014999D02*
X004709Y014999D01*
X004807Y014841D02*
X004820Y014841D01*
X004820Y014524D02*
X004792Y014524D01*
X004820Y014365D02*
X004673Y014365D01*
X004820Y014207D02*
X004280Y014207D01*
X004280Y014048D02*
X004820Y014048D01*
X004820Y013890D02*
X004280Y013890D01*
X004280Y013731D02*
X004820Y013731D01*
X004820Y013573D02*
X004280Y013573D01*
X004280Y013414D02*
X004931Y013414D01*
X005090Y013256D02*
X004280Y013256D01*
X004280Y013097D02*
X005248Y013097D01*
X005407Y012939D02*
X004280Y012939D01*
X004280Y012780D02*
X005565Y012780D01*
X005724Y012622D02*
X004280Y012622D01*
X004280Y012463D02*
X005882Y012463D01*
X005970Y012305D02*
X004280Y012305D01*
X004280Y012146D02*
X005970Y012146D01*
X005970Y011988D02*
X004280Y011988D01*
X004280Y011829D02*
X005970Y011829D01*
X006030Y011671D02*
X004280Y011671D01*
X004280Y011512D02*
X006213Y011512D01*
X006220Y011354D02*
X004280Y011354D01*
X004280Y011195D02*
X006220Y011195D01*
X006220Y011037D02*
X004280Y011037D01*
X004280Y010878D02*
X006220Y010878D01*
X006220Y010720D02*
X004280Y010720D01*
X004280Y010561D02*
X006220Y010561D01*
X006220Y010403D02*
X004352Y010403D01*
X004511Y010244D02*
X006164Y010244D01*
X006006Y010086D02*
X004669Y010086D01*
X004828Y009927D02*
X005990Y009927D01*
X005990Y009769D02*
X004986Y009769D01*
X005145Y009610D02*
X006110Y009610D01*
X006690Y009610D02*
X007110Y009610D01*
X007230Y009490D02*
X007570Y009490D01*
X007810Y009730D01*
X007810Y010070D01*
X007580Y010300D01*
X007580Y011509D01*
X007644Y011535D01*
X007765Y011656D01*
X007830Y011814D01*
X007830Y012586D01*
X007765Y012744D01*
X007644Y012865D01*
X007486Y012930D01*
X007314Y012930D01*
X007156Y012865D01*
X007035Y012744D01*
X006970Y012586D01*
X006970Y011814D01*
X007035Y011656D01*
X007156Y011535D01*
X007220Y011509D01*
X007220Y010300D01*
X006990Y010070D01*
X006990Y009730D01*
X007230Y009490D01*
X006990Y009769D02*
X006810Y009769D01*
X006810Y009927D02*
X006990Y009927D01*
X007006Y010086D02*
X006794Y010086D01*
X006636Y010244D02*
X007164Y010244D01*
X007220Y010403D02*
X006580Y010403D01*
X006580Y010561D02*
X007220Y010561D01*
X007220Y010720D02*
X006580Y010720D01*
X006580Y010878D02*
X007220Y010878D01*
X007220Y011037D02*
X006580Y011037D01*
X006580Y011195D02*
X007220Y011195D01*
X007220Y011354D02*
X006580Y011354D01*
X006587Y011512D02*
X007213Y011512D01*
X007030Y011671D02*
X006770Y011671D01*
X006830Y011829D02*
X006970Y011829D01*
X006970Y011988D02*
X006830Y011988D01*
X006830Y012146D02*
X006970Y012146D01*
X006970Y012305D02*
X006830Y012305D01*
X006830Y012463D02*
X006970Y012463D01*
X006985Y012622D02*
X006815Y012622D01*
X006728Y012780D02*
X007072Y012780D01*
X007728Y012780D02*
X008520Y012780D01*
X008520Y012939D02*
X005916Y012939D01*
X005758Y013097D02*
X008520Y013097D01*
X008520Y013256D02*
X005599Y013256D01*
X005441Y013414D02*
X008520Y013414D01*
X008520Y013573D02*
X005282Y013573D01*
X005180Y013731D02*
X008520Y013731D01*
X008880Y013731D02*
X009352Y013731D01*
X009320Y013699D02*
X009320Y013500D01*
X009800Y013500D01*
X009800Y013500D01*
X009800Y013500D01*
X009800Y013500D01*
X010280Y013500D01*
X010280Y013301D01*
X009999Y013020D01*
X009800Y013020D01*
X009800Y013500D01*
X009800Y013500D01*
X009800Y013920D01*
X009800Y014400D01*
X009800Y014400D01*
X009320Y014400D01*
X009320Y014201D01*
X009571Y013950D01*
X009320Y013699D01*
X009320Y013573D02*
X008880Y013573D01*
X008880Y013414D02*
X009320Y013414D01*
X009320Y013500D02*
X009320Y013301D01*
X009601Y013020D01*
X009800Y013020D01*
X009800Y013500D01*
X009320Y013500D01*
X009366Y013256D02*
X008880Y013256D01*
X008880Y013097D02*
X009524Y013097D01*
X009800Y013097D02*
X009800Y013097D01*
X009800Y013256D02*
X009800Y013256D01*
X009800Y013414D02*
X009800Y013414D01*
X009800Y013573D02*
X009800Y013573D01*
X009800Y013731D02*
X009800Y013731D01*
X009800Y013890D02*
X009800Y013890D01*
X009800Y014048D02*
X009800Y014048D01*
X009800Y014207D02*
X009800Y014207D01*
X009800Y014365D02*
X009800Y014365D01*
X009800Y014524D02*
X009800Y014524D01*
X009800Y014682D02*
X009800Y014682D01*
X009800Y014841D02*
X009800Y014841D01*
X009562Y014841D02*
X008880Y014841D01*
X008880Y014999D02*
X009621Y014999D01*
X009463Y015158D02*
X008880Y015158D01*
X008880Y015316D02*
X009390Y015316D01*
X009390Y015475D02*
X008880Y015475D01*
X008880Y015633D02*
X009453Y015633D01*
X009403Y014682D02*
X008880Y014682D01*
X008880Y014524D02*
X009320Y014524D01*
X009320Y014365D02*
X008880Y014365D01*
X008880Y014207D02*
X009320Y014207D01*
X009473Y014048D02*
X008880Y014048D01*
X008880Y013890D02*
X009511Y013890D01*
X010248Y013731D02*
X011087Y013731D01*
X011076Y013573D02*
X010280Y013573D01*
X010280Y013414D02*
X011110Y013414D01*
X011204Y013256D02*
X010234Y013256D01*
X010076Y013097D02*
X011446Y013097D01*
X011754Y013097D02*
X014520Y013097D01*
X014520Y012939D02*
X008880Y012939D01*
X008880Y012780D02*
X009500Y012780D01*
X009390Y012622D02*
X009033Y012622D01*
X009192Y012463D02*
X009390Y012463D01*
X009416Y012305D02*
X009350Y012305D01*
X009158Y011988D02*
X007830Y011988D01*
X007830Y012146D02*
X008999Y012146D01*
X008901Y011980D02*
X008620Y011699D01*
X008620Y011500D01*
X009100Y011500D01*
X009100Y011500D01*
X009100Y011500D01*
X009580Y011500D01*
X009580Y011301D01*
X009299Y011020D01*
X009100Y011020D01*
X009100Y011500D01*
X009100Y011500D01*
X009100Y011500D01*
X009100Y011980D01*
X008901Y011980D01*
X008750Y011829D02*
X007830Y011829D01*
X007770Y011671D02*
X008620Y011671D01*
X008620Y011512D02*
X007587Y011512D01*
X007580Y011354D02*
X008620Y011354D01*
X008620Y011301D02*
X008901Y011020D01*
X009100Y011020D01*
X009100Y011500D01*
X008620Y011500D01*
X008620Y011301D01*
X008726Y011195D02*
X007580Y011195D01*
X007580Y011037D02*
X008885Y011037D01*
X009100Y011037D02*
X009100Y011037D01*
X009100Y011195D02*
X009100Y011195D01*
X009100Y011354D02*
X009100Y011354D01*
X009100Y011512D02*
X009100Y011512D01*
X009100Y011671D02*
X009100Y011671D01*
X009100Y011829D02*
X009100Y011829D01*
X009580Y011671D02*
X009675Y011671D01*
X009690Y011512D02*
X009580Y011512D01*
X009580Y011354D02*
X009690Y011354D01*
X009825Y011195D02*
X009474Y011195D01*
X009315Y011037D02*
X011196Y011037D01*
X011156Y010997D02*
X011076Y010804D01*
X011076Y010596D01*
X011156Y010403D01*
X011303Y010256D01*
X011496Y010176D01*
X011704Y010176D01*
X011897Y010256D01*
X012044Y010403D01*
X012124Y010596D01*
X012124Y010804D01*
X012044Y010997D01*
X011897Y011144D01*
X011704Y011224D01*
X011496Y011224D01*
X011303Y011144D01*
X011156Y010997D01*
X011107Y010878D02*
X007580Y010878D01*
X007580Y010720D02*
X011076Y010720D01*
X011091Y010561D02*
X007580Y010561D01*
X007580Y010403D02*
X011157Y010403D01*
X011332Y010244D02*
X010336Y010244D01*
X010494Y010086D02*
X014931Y010086D01*
X014908Y010244D02*
X011868Y010244D01*
X012043Y010403D02*
X014184Y010403D01*
X014108Y010561D02*
X012109Y010561D01*
X012124Y010720D02*
X014133Y010720D01*
X014307Y010878D02*
X012093Y010878D01*
X012004Y011037D02*
X014520Y011037D01*
X014520Y011195D02*
X011773Y011195D01*
X011427Y011195D02*
X010375Y011195D01*
X010510Y011354D02*
X014520Y011354D01*
X014520Y011512D02*
X010510Y011512D01*
X010509Y011671D02*
X014520Y011671D01*
X014520Y011829D02*
X011970Y011829D01*
X011897Y011756D02*
X012044Y011903D01*
X012124Y012096D01*
X012124Y012304D01*
X012044Y012497D01*
X011897Y012644D01*
X011704Y012724D01*
X011496Y012724D01*
X011303Y012644D01*
X011156Y012497D01*
X011076Y012304D01*
X011076Y012096D01*
X011156Y011903D01*
X011303Y011756D01*
X011496Y011676D01*
X011704Y011676D01*
X011897Y011756D01*
X012079Y011988D02*
X014520Y011988D01*
X014520Y012146D02*
X012124Y012146D01*
X012124Y012305D02*
X014520Y012305D01*
X014520Y012463D02*
X012058Y012463D01*
X011919Y012622D02*
X014520Y012622D01*
X014520Y012780D02*
X010100Y012780D01*
X010210Y012622D02*
X011281Y012622D01*
X011142Y012463D02*
X010210Y012463D01*
X010184Y012305D02*
X011076Y012305D01*
X011076Y012146D02*
X010026Y012146D01*
X009867Y011988D02*
X011121Y011988D01*
X011230Y011829D02*
X010351Y011829D01*
X008841Y012305D02*
X007830Y012305D01*
X007830Y012463D02*
X008682Y012463D01*
X008524Y012622D02*
X007815Y012622D01*
X008080Y014207D02*
X008520Y014207D01*
X008520Y014365D02*
X008080Y014365D01*
X008080Y014524D02*
X008520Y014524D01*
X008520Y014682D02*
X007997Y014682D01*
X004820Y016584D02*
X001580Y016584D01*
X001580Y016426D02*
X001647Y016426D01*
X001580Y016743D02*
X001778Y016743D01*
X002472Y014207D02*
X003920Y014207D01*
X003920Y014048D02*
X002580Y014048D01*
X002580Y013890D02*
X003920Y013890D01*
X003920Y013731D02*
X002580Y013731D01*
X002451Y013573D02*
X003920Y013573D01*
X003920Y013414D02*
X000700Y013414D01*
X000700Y013256D02*
X003920Y013256D01*
X003920Y013097D02*
X000700Y013097D01*
X000700Y012939D02*
X003920Y012939D01*
X003920Y012780D02*
X000700Y012780D01*
X000700Y012622D02*
X003920Y012622D01*
X003920Y012463D02*
X000700Y012463D01*
X000700Y012305D02*
X003920Y012305D01*
X003920Y012146D02*
X000700Y012146D01*
X000700Y011988D02*
X003920Y011988D01*
X003920Y011829D02*
X000700Y011829D01*
X000700Y011671D02*
X003920Y011671D01*
X003920Y011512D02*
X000700Y011512D01*
X000700Y011354D02*
X003920Y011354D01*
X003920Y011195D02*
X000700Y011195D01*
X000700Y011037D02*
X003920Y011037D01*
X003920Y010878D02*
X000700Y010878D01*
X000700Y010720D02*
X003920Y010720D01*
X003920Y010561D02*
X000700Y010561D01*
X000700Y010403D02*
X003920Y010403D01*
X004001Y010244D02*
X000700Y010244D01*
X000700Y010086D02*
X004160Y010086D01*
X004318Y009927D02*
X000700Y009927D01*
X000700Y009769D02*
X004477Y009769D01*
X004635Y009610D02*
X000700Y009610D01*
X000700Y009452D02*
X004794Y009452D01*
X004952Y009293D02*
X000700Y009293D01*
X000700Y009135D02*
X005111Y009135D01*
X005269Y008976D02*
X000700Y008976D01*
X000700Y008818D02*
X005428Y008818D01*
X005586Y008659D02*
X000700Y008659D01*
X000700Y008501D02*
X005745Y008501D01*
X005937Y008818D02*
X011163Y008818D01*
X011126Y008976D02*
X005779Y008976D01*
X005620Y009135D02*
X011076Y009135D01*
X011076Y009293D02*
X005462Y009293D01*
X005303Y009452D02*
X008870Y009452D01*
X008711Y009610D02*
X007690Y009610D01*
X007810Y009769D02*
X008620Y009769D01*
X008620Y009927D02*
X007810Y009927D01*
X007794Y010086D02*
X008620Y010086D01*
X008765Y010244D02*
X007636Y010244D01*
X011996Y013256D02*
X014520Y013256D01*
X014520Y013414D02*
X012090Y013414D01*
X012124Y013573D02*
X014520Y013573D01*
X014520Y013731D02*
X012113Y013731D01*
X012047Y013890D02*
X014520Y013890D01*
X014520Y014048D02*
X011887Y014048D01*
X009420Y018328D02*
X006180Y018328D01*
X006180Y018486D02*
X009420Y018486D01*
X008600Y019120D02*
X008299Y019120D01*
X008380Y019279D02*
X008490Y019279D01*
X008490Y019437D02*
X008380Y019437D01*
X008380Y019596D02*
X008516Y019596D01*
X008674Y019754D02*
X008225Y019754D01*
X008720Y019913D02*
X006180Y019913D01*
X006180Y020071D02*
X008720Y020071D01*
X008691Y020230D02*
X006284Y020230D01*
X006443Y020388D02*
X008532Y020388D01*
X008490Y020547D02*
X006601Y020547D01*
X006760Y020705D02*
X008490Y020705D01*
X008584Y020864D02*
X006918Y020864D01*
X006675Y019754D02*
X006226Y019754D01*
X006384Y019596D02*
X006520Y019596D01*
X006520Y019437D02*
X006410Y019437D01*
X006410Y019279D02*
X006520Y019279D01*
X006601Y019120D02*
X006300Y019120D01*
X005700Y019120D02*
X004815Y019120D01*
X004886Y019279D02*
X005590Y019279D01*
X005590Y019437D02*
X004900Y019437D01*
X004862Y019596D02*
X005616Y019596D01*
X005774Y019754D02*
X004753Y019754D01*
X007240Y018962D02*
X007660Y018962D01*
X007501Y019120D02*
X007399Y019120D01*
X009780Y020230D02*
X010071Y020230D01*
X009922Y020388D02*
X009780Y020388D01*
X009780Y020547D02*
X009870Y020547D01*
X009878Y020705D02*
X009780Y020705D01*
X009780Y020864D02*
X009955Y020864D01*
X009780Y021022D02*
X010195Y021022D01*
X010189Y021181D02*
X009835Y021181D01*
X011123Y021973D02*
X011220Y021973D01*
X004720Y021815D02*
X004693Y021815D01*
X004720Y022607D02*
X004641Y022607D01*
X002603Y023875D02*
X002397Y023875D01*
X002447Y024034D02*
X002553Y024034D01*
X002553Y024192D02*
X002447Y024192D01*
X002447Y024351D02*
X002553Y024351D01*
X002553Y024509D02*
X002447Y024509D01*
X002447Y024668D02*
X002553Y024668D01*
X002562Y024826D02*
X002438Y024826D01*
X002364Y024985D02*
X002636Y024985D01*
X001798Y021022D02*
X001577Y021022D01*
X004750Y016743D02*
X004820Y016743D01*
X017479Y005965D02*
X018885Y005965D01*
X018790Y005331D02*
X017574Y005331D01*
X004563Y003429D02*
X000700Y003429D01*
X000700Y003587D02*
X004368Y003587D01*
X004236Y003746D02*
X000700Y003746D01*
X000700Y003904D02*
X004170Y003904D01*
X004120Y004063D02*
X000700Y004063D01*
X000700Y004221D02*
X004120Y004221D01*
X004122Y004380D02*
X000700Y004380D01*
X000700Y004538D02*
X004188Y004538D01*
X004253Y004697D02*
X000700Y004697D01*
X000700Y004855D02*
X004410Y004855D01*
X036665Y006440D02*
X036820Y006440D01*
X013557Y031800D02*
X013043Y031800D01*
X013191Y031959D02*
X013409Y031959D01*
X013353Y032117D02*
X013247Y032117D01*
X013247Y032276D02*
X013353Y032276D01*
X013353Y032434D02*
X013247Y032434D01*
X013247Y032593D02*
X013353Y032593D01*
X013353Y032751D02*
X013247Y032751D01*
X013245Y032910D02*
X013355Y032910D01*
X013420Y033068D02*
X013180Y033068D01*
X012979Y033227D02*
X013621Y033227D01*
X012621Y033227D02*
X010181Y033227D01*
X010271Y033068D02*
X012420Y033068D01*
D23*
X014800Y032500D02*
X014800Y029500D01*
X015300Y029000D01*
X013900Y025100D02*
X013900Y024700D01*
X014800Y023800D01*
X014800Y017500D01*
X014500Y016500D02*
X014700Y016300D01*
X014700Y010900D01*
X014400Y010600D01*
X011800Y009200D02*
X011600Y009200D01*
X011800Y009200D02*
X011200Y008600D01*
X005900Y008600D01*
X004100Y010400D01*
X004100Y014700D01*
X004100Y015700D02*
X003000Y015700D01*
X002200Y014900D01*
X002100Y014900D01*
X001400Y015600D01*
X001400Y016900D01*
X001600Y017100D01*
X002000Y017100D01*
X002000Y018300D01*
X002000Y019300D02*
X001300Y020000D01*
X001300Y021000D01*
X001700Y021400D01*
X002000Y021400D01*
X004100Y020400D02*
X004900Y021200D01*
X004900Y022800D01*
X004500Y023200D01*
X004200Y023200D01*
X003000Y024400D02*
X003000Y019200D01*
X004100Y018100D01*
X004500Y018100D01*
X005000Y017600D01*
X005000Y013600D01*
X006400Y012200D01*
X006400Y009900D01*
X007400Y009900D02*
X007400Y012200D01*
X008700Y012700D02*
X009400Y012000D01*
X009600Y012000D01*
X010100Y011500D01*
X008700Y012700D02*
X008700Y016300D01*
X008300Y016700D01*
X007200Y016700D01*
X006000Y018000D02*
X005700Y017700D01*
X006000Y018000D02*
X006000Y019400D01*
X006000Y020200D01*
X007000Y021200D01*
X007000Y021800D01*
X007000Y023600D01*
X006000Y023600D02*
X006000Y021800D01*
X006000Y023600D02*
X006000Y025700D01*
X007000Y027900D02*
X006900Y028000D01*
X006900Y032000D01*
X010600Y022700D02*
X011100Y022700D01*
X011400Y022400D01*
X011400Y021400D01*
X010600Y020600D01*
X009600Y021200D02*
X009600Y018300D01*
X010800Y017100D01*
X010800Y014400D01*
X011600Y013600D01*
X011600Y015100D02*
X013000Y016500D01*
X013000Y022900D01*
X010700Y021600D02*
X010600Y021600D01*
X010000Y021600D01*
X009600Y021200D01*
X008900Y020600D02*
X008900Y019400D01*
X019100Y011900D02*
X019100Y008200D01*
X021000Y009400D02*
X021000Y005100D01*
X022900Y004600D02*
X022900Y013200D01*
X022700Y013400D01*
X022200Y013400D01*
X023300Y014900D02*
X023300Y006000D01*
X024000Y004400D02*
X024700Y003600D01*
X033200Y003600D01*
X034350Y002450D01*
X034900Y003000D01*
X034900Y005950D01*
X034900Y006950D02*
X034900Y007000D01*
X035600Y007700D01*
X036200Y007700D01*
X037000Y006900D01*
X037000Y002800D01*
X036300Y002100D01*
X035300Y002100D02*
X035300Y004400D01*
X035900Y005000D01*
X036500Y005000D01*
X036700Y005300D01*
X036700Y006150D01*
X035900Y006950D01*
X035700Y008300D02*
X035700Y011600D01*
X035600Y011700D01*
X036900Y013300D02*
X036900Y009000D01*
X031800Y007500D02*
X031800Y019900D01*
X031900Y020000D01*
X033100Y019900D02*
X033100Y017500D01*
X034854Y017242D02*
X035242Y017242D01*
X035400Y017400D01*
X035400Y019900D01*
X035200Y020100D01*
X033300Y020100D01*
X033100Y019900D01*
X028000Y017900D02*
X027900Y018000D01*
X028000Y017900D02*
X028000Y004100D01*
X028700Y006600D02*
X028700Y008300D01*
X030000Y009000D02*
X030020Y008980D01*
X030020Y007500D01*
X026100Y007200D02*
X025700Y007600D01*
X025700Y013500D01*
X024000Y015500D02*
X024000Y004400D01*
X034300Y002400D02*
X034300Y002100D01*
X034300Y002400D02*
X034350Y002450D01*
X024000Y015500D02*
X023000Y016500D01*
X022200Y016500D01*
D24*
X027900Y018000D03*
X030600Y031100D03*
X032800Y031100D03*
X028000Y004100D03*
M02*
