G75*
G70*
%OFA0B0*%
%FSLAX24Y24*%
%IPPOS*%
%LPD*%
%AMOC8*
5,1,8,0,0,1.08239X$1,22.5*
%
%ADD10C,0.0000*%
D10*
X000100Y000100D02*
X000100Y035100D01*
X046100Y035100D01*
X046100Y000100D01*
X000100Y000100D01*
X004250Y004200D02*
X004252Y004254D01*
X004258Y004308D01*
X004268Y004361D01*
X004281Y004414D01*
X004298Y004465D01*
X004319Y004515D01*
X004344Y004563D01*
X004372Y004610D01*
X004403Y004654D01*
X004437Y004696D01*
X004474Y004735D01*
X004514Y004772D01*
X004557Y004805D01*
X004602Y004836D01*
X004649Y004863D01*
X004697Y004886D01*
X004748Y004906D01*
X004799Y004923D01*
X004852Y004935D01*
X004905Y004944D01*
X004959Y004949D01*
X005014Y004950D01*
X005068Y004947D01*
X005121Y004940D01*
X005174Y004929D01*
X005227Y004915D01*
X005278Y004897D01*
X005327Y004875D01*
X005375Y004850D01*
X005421Y004821D01*
X005465Y004789D01*
X005506Y004754D01*
X005544Y004716D01*
X005580Y004675D01*
X005613Y004632D01*
X005643Y004587D01*
X005669Y004539D01*
X005692Y004490D01*
X005711Y004439D01*
X005726Y004388D01*
X005738Y004335D01*
X005746Y004281D01*
X005750Y004227D01*
X005750Y004173D01*
X005746Y004119D01*
X005738Y004065D01*
X005726Y004012D01*
X005711Y003961D01*
X005692Y003910D01*
X005669Y003861D01*
X005643Y003813D01*
X005613Y003768D01*
X005580Y003725D01*
X005544Y003684D01*
X005506Y003646D01*
X005465Y003611D01*
X005421Y003579D01*
X005375Y003550D01*
X005327Y003525D01*
X005278Y003503D01*
X005227Y003485D01*
X005174Y003471D01*
X005121Y003460D01*
X005068Y003453D01*
X005014Y003450D01*
X004959Y003451D01*
X004905Y003456D01*
X004852Y003465D01*
X004799Y003477D01*
X004748Y003494D01*
X004697Y003514D01*
X004649Y003537D01*
X004602Y003564D01*
X004557Y003595D01*
X004514Y003628D01*
X004474Y003665D01*
X004437Y003704D01*
X004403Y003746D01*
X004372Y003790D01*
X004344Y003837D01*
X004319Y003885D01*
X004298Y003935D01*
X004281Y003986D01*
X004268Y004039D01*
X004258Y004092D01*
X004252Y004146D01*
X004250Y004200D01*
X026270Y006000D02*
X026272Y006050D01*
X026278Y006100D01*
X026288Y006149D01*
X026302Y006197D01*
X026319Y006244D01*
X026340Y006289D01*
X026365Y006333D01*
X026393Y006374D01*
X026425Y006413D01*
X026459Y006450D01*
X026496Y006484D01*
X026536Y006514D01*
X026578Y006541D01*
X026622Y006565D01*
X026668Y006586D01*
X026715Y006602D01*
X026763Y006615D01*
X026813Y006624D01*
X026862Y006629D01*
X026913Y006630D01*
X026963Y006627D01*
X027012Y006620D01*
X027061Y006609D01*
X027109Y006594D01*
X027155Y006576D01*
X027200Y006554D01*
X027243Y006528D01*
X027284Y006499D01*
X027323Y006467D01*
X027359Y006432D01*
X027391Y006394D01*
X027421Y006354D01*
X027448Y006311D01*
X027471Y006267D01*
X027490Y006221D01*
X027506Y006173D01*
X027518Y006124D01*
X027526Y006075D01*
X027530Y006025D01*
X027530Y005975D01*
X027526Y005925D01*
X027518Y005876D01*
X027506Y005827D01*
X027490Y005779D01*
X027471Y005733D01*
X027448Y005689D01*
X027421Y005646D01*
X027391Y005606D01*
X027359Y005568D01*
X027323Y005533D01*
X027284Y005501D01*
X027243Y005472D01*
X027200Y005446D01*
X027155Y005424D01*
X027109Y005406D01*
X027061Y005391D01*
X027012Y005380D01*
X026963Y005373D01*
X026913Y005370D01*
X026862Y005371D01*
X026813Y005376D01*
X026763Y005385D01*
X026715Y005398D01*
X026668Y005414D01*
X026622Y005435D01*
X026578Y005459D01*
X026536Y005486D01*
X026496Y005516D01*
X026459Y005550D01*
X026425Y005587D01*
X026393Y005626D01*
X026365Y005667D01*
X026340Y005711D01*
X026319Y005756D01*
X026302Y005803D01*
X026288Y005851D01*
X026278Y005900D01*
X026272Y005950D01*
X026270Y006000D01*
X037270Y006000D02*
X037272Y006050D01*
X037278Y006100D01*
X037288Y006149D01*
X037302Y006197D01*
X037319Y006244D01*
X037340Y006289D01*
X037365Y006333D01*
X037393Y006374D01*
X037425Y006413D01*
X037459Y006450D01*
X037496Y006484D01*
X037536Y006514D01*
X037578Y006541D01*
X037622Y006565D01*
X037668Y006586D01*
X037715Y006602D01*
X037763Y006615D01*
X037813Y006624D01*
X037862Y006629D01*
X037913Y006630D01*
X037963Y006627D01*
X038012Y006620D01*
X038061Y006609D01*
X038109Y006594D01*
X038155Y006576D01*
X038200Y006554D01*
X038243Y006528D01*
X038284Y006499D01*
X038323Y006467D01*
X038359Y006432D01*
X038391Y006394D01*
X038421Y006354D01*
X038448Y006311D01*
X038471Y006267D01*
X038490Y006221D01*
X038506Y006173D01*
X038518Y006124D01*
X038526Y006075D01*
X038530Y006025D01*
X038530Y005975D01*
X038526Y005925D01*
X038518Y005876D01*
X038506Y005827D01*
X038490Y005779D01*
X038471Y005733D01*
X038448Y005689D01*
X038421Y005646D01*
X038391Y005606D01*
X038359Y005568D01*
X038323Y005533D01*
X038284Y005501D01*
X038243Y005472D01*
X038200Y005446D01*
X038155Y005424D01*
X038109Y005406D01*
X038061Y005391D01*
X038012Y005380D01*
X037963Y005373D01*
X037913Y005370D01*
X037862Y005371D01*
X037813Y005376D01*
X037763Y005385D01*
X037715Y005398D01*
X037668Y005414D01*
X037622Y005435D01*
X037578Y005459D01*
X037536Y005486D01*
X037496Y005516D01*
X037459Y005550D01*
X037425Y005587D01*
X037393Y005626D01*
X037365Y005667D01*
X037340Y005711D01*
X037319Y005756D01*
X037302Y005803D01*
X037288Y005851D01*
X037278Y005900D01*
X037272Y005950D01*
X037270Y006000D01*
X043450Y002600D02*
X043452Y002654D01*
X043458Y002708D01*
X043468Y002761D01*
X043481Y002814D01*
X043498Y002865D01*
X043519Y002915D01*
X043544Y002963D01*
X043572Y003010D01*
X043603Y003054D01*
X043637Y003096D01*
X043674Y003135D01*
X043714Y003172D01*
X043757Y003205D01*
X043802Y003236D01*
X043849Y003263D01*
X043897Y003286D01*
X043948Y003306D01*
X043999Y003323D01*
X044052Y003335D01*
X044105Y003344D01*
X044159Y003349D01*
X044214Y003350D01*
X044268Y003347D01*
X044321Y003340D01*
X044374Y003329D01*
X044427Y003315D01*
X044478Y003297D01*
X044527Y003275D01*
X044575Y003250D01*
X044621Y003221D01*
X044665Y003189D01*
X044706Y003154D01*
X044744Y003116D01*
X044780Y003075D01*
X044813Y003032D01*
X044843Y002987D01*
X044869Y002939D01*
X044892Y002890D01*
X044911Y002839D01*
X044926Y002788D01*
X044938Y002735D01*
X044946Y002681D01*
X044950Y002627D01*
X044950Y002573D01*
X044946Y002519D01*
X044938Y002465D01*
X044926Y002412D01*
X044911Y002361D01*
X044892Y002310D01*
X044869Y002261D01*
X044843Y002213D01*
X044813Y002168D01*
X044780Y002125D01*
X044744Y002084D01*
X044706Y002046D01*
X044665Y002011D01*
X044621Y001979D01*
X044575Y001950D01*
X044527Y001925D01*
X044478Y001903D01*
X044427Y001885D01*
X044374Y001871D01*
X044321Y001860D01*
X044268Y001853D01*
X044214Y001850D01*
X044159Y001851D01*
X044105Y001856D01*
X044052Y001865D01*
X043999Y001877D01*
X043948Y001894D01*
X043897Y001914D01*
X043849Y001937D01*
X043802Y001964D01*
X043757Y001995D01*
X043714Y002028D01*
X043674Y002065D01*
X043637Y002104D01*
X043603Y002146D01*
X043572Y002190D01*
X043544Y002237D01*
X043519Y002285D01*
X043498Y002335D01*
X043481Y002386D01*
X043468Y002439D01*
X043458Y002492D01*
X043452Y002546D01*
X043450Y002600D01*
X043270Y026000D02*
X043272Y026050D01*
X043278Y026100D01*
X043288Y026149D01*
X043302Y026197D01*
X043319Y026244D01*
X043340Y026289D01*
X043365Y026333D01*
X043393Y026374D01*
X043425Y026413D01*
X043459Y026450D01*
X043496Y026484D01*
X043536Y026514D01*
X043578Y026541D01*
X043622Y026565D01*
X043668Y026586D01*
X043715Y026602D01*
X043763Y026615D01*
X043813Y026624D01*
X043862Y026629D01*
X043913Y026630D01*
X043963Y026627D01*
X044012Y026620D01*
X044061Y026609D01*
X044109Y026594D01*
X044155Y026576D01*
X044200Y026554D01*
X044243Y026528D01*
X044284Y026499D01*
X044323Y026467D01*
X044359Y026432D01*
X044391Y026394D01*
X044421Y026354D01*
X044448Y026311D01*
X044471Y026267D01*
X044490Y026221D01*
X044506Y026173D01*
X044518Y026124D01*
X044526Y026075D01*
X044530Y026025D01*
X044530Y025975D01*
X044526Y025925D01*
X044518Y025876D01*
X044506Y025827D01*
X044490Y025779D01*
X044471Y025733D01*
X044448Y025689D01*
X044421Y025646D01*
X044391Y025606D01*
X044359Y025568D01*
X044323Y025533D01*
X044284Y025501D01*
X044243Y025472D01*
X044200Y025446D01*
X044155Y025424D01*
X044109Y025406D01*
X044061Y025391D01*
X044012Y025380D01*
X043963Y025373D01*
X043913Y025370D01*
X043862Y025371D01*
X043813Y025376D01*
X043763Y025385D01*
X043715Y025398D01*
X043668Y025414D01*
X043622Y025435D01*
X043578Y025459D01*
X043536Y025486D01*
X043496Y025516D01*
X043459Y025550D01*
X043425Y025587D01*
X043393Y025626D01*
X043365Y025667D01*
X043340Y025711D01*
X043319Y025756D01*
X043302Y025803D01*
X043288Y025851D01*
X043278Y025900D01*
X043272Y025950D01*
X043270Y026000D01*
X032212Y032980D02*
X032214Y033006D01*
X032220Y033032D01*
X032230Y033057D01*
X032243Y033080D01*
X032259Y033100D01*
X032279Y033118D01*
X032301Y033133D01*
X032324Y033145D01*
X032350Y033153D01*
X032376Y033157D01*
X032402Y033157D01*
X032428Y033153D01*
X032454Y033145D01*
X032478Y033133D01*
X032499Y033118D01*
X032519Y033100D01*
X032535Y033080D01*
X032548Y033057D01*
X032558Y033032D01*
X032564Y033006D01*
X032566Y032980D01*
X032564Y032954D01*
X032558Y032928D01*
X032548Y032903D01*
X032535Y032880D01*
X032519Y032860D01*
X032499Y032842D01*
X032477Y032827D01*
X032454Y032815D01*
X032428Y032807D01*
X032402Y032803D01*
X032376Y032803D01*
X032350Y032807D01*
X032324Y032815D01*
X032300Y032827D01*
X032279Y032842D01*
X032259Y032860D01*
X032243Y032880D01*
X032230Y032903D01*
X032220Y032928D01*
X032214Y032954D01*
X032212Y032980D01*
X030834Y032980D02*
X030836Y033006D01*
X030842Y033032D01*
X030852Y033057D01*
X030865Y033080D01*
X030881Y033100D01*
X030901Y033118D01*
X030923Y033133D01*
X030946Y033145D01*
X030972Y033153D01*
X030998Y033157D01*
X031024Y033157D01*
X031050Y033153D01*
X031076Y033145D01*
X031100Y033133D01*
X031121Y033118D01*
X031141Y033100D01*
X031157Y033080D01*
X031170Y033057D01*
X031180Y033032D01*
X031186Y033006D01*
X031188Y032980D01*
X031186Y032954D01*
X031180Y032928D01*
X031170Y032903D01*
X031157Y032880D01*
X031141Y032860D01*
X031121Y032842D01*
X031099Y032827D01*
X031076Y032815D01*
X031050Y032807D01*
X031024Y032803D01*
X030998Y032803D01*
X030972Y032807D01*
X030946Y032815D01*
X030922Y032827D01*
X030901Y032842D01*
X030881Y032860D01*
X030865Y032880D01*
X030852Y032903D01*
X030842Y032928D01*
X030836Y032954D01*
X030834Y032980D01*
X024270Y026500D02*
X024272Y026550D01*
X024278Y026600D01*
X024288Y026649D01*
X024302Y026697D01*
X024319Y026744D01*
X024340Y026789D01*
X024365Y026833D01*
X024393Y026874D01*
X024425Y026913D01*
X024459Y026950D01*
X024496Y026984D01*
X024536Y027014D01*
X024578Y027041D01*
X024622Y027065D01*
X024668Y027086D01*
X024715Y027102D01*
X024763Y027115D01*
X024813Y027124D01*
X024862Y027129D01*
X024913Y027130D01*
X024963Y027127D01*
X025012Y027120D01*
X025061Y027109D01*
X025109Y027094D01*
X025155Y027076D01*
X025200Y027054D01*
X025243Y027028D01*
X025284Y026999D01*
X025323Y026967D01*
X025359Y026932D01*
X025391Y026894D01*
X025421Y026854D01*
X025448Y026811D01*
X025471Y026767D01*
X025490Y026721D01*
X025506Y026673D01*
X025518Y026624D01*
X025526Y026575D01*
X025530Y026525D01*
X025530Y026475D01*
X025526Y026425D01*
X025518Y026376D01*
X025506Y026327D01*
X025490Y026279D01*
X025471Y026233D01*
X025448Y026189D01*
X025421Y026146D01*
X025391Y026106D01*
X025359Y026068D01*
X025323Y026033D01*
X025284Y026001D01*
X025243Y025972D01*
X025200Y025946D01*
X025155Y025924D01*
X025109Y025906D01*
X025061Y025891D01*
X025012Y025880D01*
X024963Y025873D01*
X024913Y025870D01*
X024862Y025871D01*
X024813Y025876D01*
X024763Y025885D01*
X024715Y025898D01*
X024668Y025914D01*
X024622Y025935D01*
X024578Y025959D01*
X024536Y025986D01*
X024496Y026016D01*
X024459Y026050D01*
X024425Y026087D01*
X024393Y026126D01*
X024365Y026167D01*
X024340Y026211D01*
X024319Y026256D01*
X024302Y026303D01*
X024288Y026351D01*
X024278Y026400D01*
X024272Y026450D01*
X024270Y026500D01*
X017750Y032500D02*
X017752Y032554D01*
X017758Y032608D01*
X017768Y032661D01*
X017781Y032714D01*
X017798Y032765D01*
X017819Y032815D01*
X017844Y032863D01*
X017872Y032910D01*
X017903Y032954D01*
X017937Y032996D01*
X017974Y033035D01*
X018014Y033072D01*
X018057Y033105D01*
X018102Y033136D01*
X018149Y033163D01*
X018197Y033186D01*
X018248Y033206D01*
X018299Y033223D01*
X018352Y033235D01*
X018405Y033244D01*
X018459Y033249D01*
X018514Y033250D01*
X018568Y033247D01*
X018621Y033240D01*
X018674Y033229D01*
X018727Y033215D01*
X018778Y033197D01*
X018827Y033175D01*
X018875Y033150D01*
X018921Y033121D01*
X018965Y033089D01*
X019006Y033054D01*
X019044Y033016D01*
X019080Y032975D01*
X019113Y032932D01*
X019143Y032887D01*
X019169Y032839D01*
X019192Y032790D01*
X019211Y032739D01*
X019226Y032688D01*
X019238Y032635D01*
X019246Y032581D01*
X019250Y032527D01*
X019250Y032473D01*
X019246Y032419D01*
X019238Y032365D01*
X019226Y032312D01*
X019211Y032261D01*
X019192Y032210D01*
X019169Y032161D01*
X019143Y032113D01*
X019113Y032068D01*
X019080Y032025D01*
X019044Y031984D01*
X019006Y031946D01*
X018965Y031911D01*
X018921Y031879D01*
X018875Y031850D01*
X018827Y031825D01*
X018778Y031803D01*
X018727Y031785D01*
X018674Y031771D01*
X018621Y031760D01*
X018568Y031753D01*
X018514Y031750D01*
X018459Y031751D01*
X018405Y031756D01*
X018352Y031765D01*
X018299Y031777D01*
X018248Y031794D01*
X018197Y031814D01*
X018149Y031837D01*
X018102Y031864D01*
X018057Y031895D01*
X018014Y031928D01*
X017974Y031965D01*
X017937Y032004D01*
X017903Y032046D01*
X017872Y032090D01*
X017844Y032137D01*
X017819Y032185D01*
X017798Y032235D01*
X017781Y032286D01*
X017768Y032339D01*
X017758Y032392D01*
X017752Y032446D01*
X017750Y032500D01*
M02*
