%
M48
M72
T01C0.0125
T02C0.0236
T03C0.0276
T04C0.0315
T05C0.0320
T06C0.0354
T07C0.0360
T08C0.0394
T09C0.0400
T10C0.0433
T11C0.1260
T12C0.1500
%
T01
X14300Y11100
X14400Y10600
X15200Y10200
X19100Y11900
X21000Y9400
X19100Y8200
X21000Y5100
X22900Y4600
X23300Y6000
X26100Y7200
X28700Y6600
X29400Y6200
X30020Y7500
X28700Y8300
X30000Y9000
X31800Y7500
X35700Y8300
X36900Y9000
X35600Y11700
X36900Y13300
X33100Y17500
X31900Y20000
X25700Y13500
X23300Y14900
X14800Y17500
X14500Y16500
X21300Y23000
T02
X27900Y18000
X30600Y31100
X32800Y31100
X28000Y4100
T03
X17200Y5600
X15200Y5600
T04
X30263Y32193
X30263Y34280
X33137Y34280
X33137Y32193
T05
X23000Y21600
X22000Y21600
X22000Y19400
X23000Y19400
X18600Y19500
X17600Y19500
X17700Y17300
X18700Y17300
X14000Y22900
X13000Y22900
X15400Y24700
X15400Y25700
X13800Y26900
X12800Y26900
X15300Y29000
X15300Y30000
X13700Y29300
X12700Y29300
X17600Y29000
X17600Y30000
X8900Y23700
X8900Y22700
X8900Y21600
X8900Y20600
X8900Y19400
X7900Y19400
X7000Y19400
X6000Y19400
X5700Y17700
X5700Y16700
X7600Y15400
X7600Y14400
X9800Y14400
X9800Y15400
X9800Y13500
X9800Y12500
X10100Y11500
X9100Y11500
X9100Y9900
X10100Y9900
X7400Y9900
X6400Y9900
X2100Y13900
X2100Y14900
X2000Y16100
X2000Y17100
X2000Y18300
X2000Y19300
X2000Y20400
X2000Y21400
X6000Y21800
X7000Y21800
X6900Y32000
X4900Y32000
X16000Y8200
X17000Y8200
X19100Y5600
X20100Y5600
X18500Y2700
X17500Y2700
X15800Y2700
X14800Y2700
X13400Y5600
X12400Y5600
T06
X34066Y10156
X34066Y10943
X34066Y11730
X34854Y11730
X34854Y10943
X34854Y10156
X34854Y12518
X34854Y13305
X34066Y13305
X34066Y12518
X34066Y14093
X34066Y14880
X34066Y15667
X34854Y15667
X34854Y14880
X34854Y14093
X34854Y16455
X34854Y17242
X34066Y17242
X34066Y16455
X34066Y18030
X34066Y18817
X34066Y19604
X34854Y19604
X34854Y18817
X34854Y18030
X32389Y32980
X31011Y32980
T07
X17600Y27200
X16600Y27200
X13900Y25100
X12900Y25100
X10600Y23700
X10600Y22700
X10600Y21600
X10600Y20600
X7200Y17700
X7200Y16700
X4100Y17100
X4100Y18100
X4100Y19400
X4100Y20400
X4200Y22200
X4200Y23200
X6000Y23600
X7000Y23600
X7000Y25700
X6000Y25700
X9500Y31900
X9500Y32900
X2100Y32900
X2100Y31900
X16600Y22000
X16600Y21000
X7400Y12200
X6400Y12200
X4100Y14700
X4100Y15700
T08
X3000Y24400
X2000Y24400
X5000Y27900
X6000Y27900
X7000Y27900
X12800Y32500
X13800Y32500
X14800Y32500
T09
X24900Y21000
X24900Y20000
X24900Y19000
X24900Y18000
X24900Y17000
X24900Y16000
X24900Y15000
X24900Y14000
X24900Y12000
X24900Y11000
X24900Y10000
X24900Y9000
X24900Y8000
X24900Y7000
X31300Y2100
X32300Y2100
X33300Y2100
X34300Y2100
X35300Y2100
X36300Y2100
X37300Y2100
X38300Y2100
X39300Y2100
X40300Y2100
X35900Y5950
X34900Y5950
X33900Y5950
X33900Y6950
X34900Y6950
X35900Y6950
X43900Y7000
X43900Y8000
X43900Y9000
X43900Y10000
X43900Y11000
X43900Y12000
X43900Y13000
X43900Y14000
X43900Y15600
X43900Y16600
X43900Y17600
X43900Y18600
X43900Y19600
X43900Y20600
X43900Y21600
X43900Y22600
X43900Y23600
X43900Y24600
T10
X22200Y16500
X22200Y15000
X22200Y13400
X22200Y11900
X22200Y10400
X22200Y8900
X22200Y7400
X22200Y5900
X11600Y9200
X11600Y10700
X11600Y12200
X11600Y13600
X11600Y15100
X11600Y16500
T11
X24900Y26500
X43900Y26000
X37900Y6000
X26900Y6000
T12
X5000Y4200
X18500Y32500
X44200Y2600
M30
