G75*
G70*
%OFA0B0*%
%FSLAX24Y24*%
%IPPOS*%
%LPD*%
%AMOC8*
5,1,8,0,0,1.08239X$1,22.5*
%
%ADD10C,0.0060*%
%ADD11OC8,0.0560*%
%ADD12R,0.2441X0.1063*%
%ADD13C,0.0600*%
%ADD14R,0.0866X0.0236*%
%ADD15R,0.0591X0.0157*%
%ADD16C,0.0650*%
%ADD17C,0.0787*%
%ADD18OC8,0.0700*%
%ADD19R,0.0394X0.0433*%
%ADD20R,0.0433X0.0394*%
%ADD21C,0.0594*%
%ADD22C,0.0634*%
%ADD23C,0.0700*%
%ADD24R,0.0560X0.0170*%
%ADD25C,0.0740*%
%ADD26R,0.0250X0.0500*%
%ADD27C,0.0040*%
%ADD28OC8,0.0740*%
%ADD29C,0.0555*%
%ADD30R,0.0197X0.0787*%
%ADD31C,0.0100*%
%ADD32C,0.0325*%
%ADD33C,0.0436*%
%ADD34C,0.0160*%
D10*
X030330Y022937D02*
X030437Y022830D01*
X030650Y022830D01*
X030757Y022937D01*
X030975Y022937D02*
X031081Y023044D01*
X031402Y023044D01*
X031402Y023150D02*
X031402Y022830D01*
X031081Y022830D01*
X030975Y022937D01*
X031081Y023257D02*
X031295Y023257D01*
X031402Y023150D01*
X031619Y022830D02*
X031833Y022830D01*
X031726Y022830D02*
X031726Y023471D01*
X031619Y023471D01*
X032049Y023471D02*
X032369Y023471D01*
X032476Y023364D01*
X032476Y023150D01*
X032369Y023044D01*
X032049Y023044D01*
X032049Y022830D02*
X032049Y023471D01*
X032693Y023471D02*
X032800Y023471D01*
X032800Y022830D01*
X032693Y022830D02*
X032907Y022830D01*
X033123Y022937D02*
X033230Y022830D01*
X033550Y022830D01*
X033550Y023257D01*
X033768Y023150D02*
X033768Y022937D01*
X033874Y022830D01*
X034195Y022830D01*
X034195Y022723D02*
X034195Y023257D01*
X033874Y023257D01*
X033768Y023150D01*
X034195Y022723D02*
X034088Y022616D01*
X033981Y022616D01*
X034412Y022616D02*
X034626Y022830D01*
X034519Y022830D01*
X034519Y022937D01*
X034626Y022937D01*
X034626Y022830D01*
X035486Y022937D02*
X035486Y023471D01*
X035913Y023471D02*
X035913Y022937D01*
X035807Y022830D01*
X035593Y022830D01*
X035486Y022937D01*
X036131Y022937D02*
X036238Y022830D01*
X036451Y022830D01*
X036558Y022937D01*
X036558Y023364D02*
X036451Y023471D01*
X036238Y023471D01*
X036131Y023364D01*
X036131Y022937D01*
X037420Y022830D02*
X037634Y022830D01*
X037527Y022830D02*
X037527Y023471D01*
X037420Y023471D02*
X037634Y023471D01*
X037850Y023257D02*
X037850Y022830D01*
X037850Y023044D02*
X038063Y023257D01*
X038170Y023257D01*
X038387Y023257D02*
X038600Y022830D01*
X038814Y023257D01*
X039031Y023257D02*
X039138Y023257D01*
X039138Y022830D01*
X039031Y022830D02*
X039245Y022830D01*
X039461Y022830D02*
X039461Y023257D01*
X039781Y023257D01*
X039888Y023150D01*
X039888Y022830D01*
X040106Y022937D02*
X040106Y023150D01*
X040212Y023257D01*
X040426Y023257D01*
X040533Y023150D01*
X040533Y023044D01*
X040106Y023044D01*
X040106Y022937D02*
X040212Y022830D01*
X040426Y022830D01*
X039138Y023471D02*
X039138Y023577D01*
X038299Y024416D02*
X038512Y024630D01*
X038405Y024630D01*
X038405Y024737D01*
X038512Y024737D01*
X038512Y024630D01*
X039373Y024630D02*
X039373Y025271D01*
X039800Y025271D01*
X040018Y025057D02*
X040445Y025057D01*
X040018Y024630D01*
X040445Y024630D01*
X040662Y024737D02*
X040769Y024844D01*
X041089Y024844D01*
X041089Y024950D02*
X041089Y024630D01*
X040769Y024630D01*
X040662Y024737D01*
X040769Y025057D02*
X040982Y025057D01*
X041089Y024950D01*
X041307Y025057D02*
X041307Y024630D01*
X041734Y024630D02*
X041734Y024950D01*
X041627Y025057D01*
X041307Y025057D01*
X041951Y024737D02*
X042058Y024844D01*
X042378Y024844D01*
X042378Y024950D02*
X042378Y024630D01*
X042058Y024630D01*
X041951Y024737D01*
X042058Y025057D02*
X042271Y025057D01*
X042378Y024950D01*
X043240Y024630D02*
X043454Y024844D01*
X043667Y024630D01*
X043667Y025271D01*
X043240Y025271D02*
X043240Y024630D01*
X043885Y024630D02*
X043992Y024630D01*
X043992Y024737D01*
X043885Y024737D01*
X043885Y024630D01*
X044207Y024416D02*
X044421Y024630D01*
X044314Y024630D01*
X044314Y024737D01*
X044421Y024737D01*
X044421Y024630D01*
X045281Y024737D02*
X045388Y024630D01*
X045495Y024630D01*
X045602Y024737D01*
X045602Y025271D01*
X045708Y025271D02*
X045495Y025271D01*
X045926Y024950D02*
X046033Y025057D01*
X046246Y025057D01*
X046353Y024950D01*
X046353Y024844D01*
X045926Y024844D01*
X045926Y024950D02*
X045926Y024737D01*
X046033Y024630D01*
X046246Y024630D01*
X046677Y024630D02*
X046677Y025164D01*
X046784Y025271D01*
X046784Y024950D02*
X046570Y024950D01*
X047000Y024950D02*
X047214Y024950D01*
X047107Y025164D02*
X047214Y025271D01*
X047107Y025164D02*
X047107Y024630D01*
X048288Y024630D02*
X048288Y025271D01*
X048501Y025271D02*
X048074Y025271D01*
X048719Y024737D02*
X048826Y024737D01*
X048826Y024630D01*
X048719Y024630D01*
X048719Y024737D01*
X039800Y024630D02*
X039373Y024630D01*
X039373Y024950D02*
X039586Y024950D01*
X037439Y024737D02*
X037439Y024630D01*
X037332Y024630D01*
X037332Y024737D01*
X037439Y024737D01*
X037114Y024630D02*
X036687Y025271D01*
X037114Y025271D02*
X036687Y024630D01*
X035827Y024630D02*
X035613Y024630D01*
X035720Y024630D02*
X035720Y025057D01*
X035613Y025057D01*
X035396Y025057D02*
X035396Y024523D01*
X035289Y024416D01*
X035182Y024416D01*
X035075Y024630D02*
X035396Y024630D01*
X035075Y024630D02*
X034969Y024737D01*
X034969Y025057D01*
X034751Y024950D02*
X034751Y024630D01*
X034751Y024950D02*
X034644Y025057D01*
X034324Y025057D01*
X034324Y024630D01*
X034108Y024630D02*
X033894Y024630D01*
X034001Y024630D02*
X034001Y025057D01*
X033894Y025057D01*
X034001Y025271D02*
X034001Y025377D01*
X033250Y025271D02*
X033250Y024630D01*
X033677Y024630D01*
X032388Y024630D02*
X032067Y024630D01*
X031961Y024737D01*
X031961Y025057D01*
X031743Y024950D02*
X031743Y024737D01*
X031636Y024630D01*
X031316Y024630D01*
X031316Y025271D01*
X031316Y025057D02*
X031636Y025057D01*
X031743Y024950D01*
X032388Y025057D02*
X032388Y024523D01*
X032281Y024416D01*
X032174Y024416D01*
X033123Y023257D02*
X033123Y022937D01*
X030757Y023364D02*
X030650Y023471D01*
X030437Y023471D01*
X030330Y023364D01*
X030330Y022937D01*
X028520Y024523D02*
X028414Y024416D01*
X028307Y024416D01*
X028520Y024523D02*
X028520Y025057D01*
X028200Y025057D01*
X028093Y024950D01*
X028093Y024737D01*
X028200Y024630D01*
X028520Y024630D01*
X028738Y024630D02*
X028738Y025057D01*
X029058Y025057D01*
X029165Y024950D01*
X029165Y024630D01*
X029382Y024737D02*
X029382Y024950D01*
X029489Y025057D01*
X029703Y025057D01*
X029809Y024950D01*
X029809Y024844D01*
X029382Y024844D01*
X029382Y024737D02*
X029489Y024630D01*
X029703Y024630D01*
X030027Y024737D02*
X030027Y024950D01*
X030134Y025057D01*
X030454Y025057D01*
X030454Y025271D02*
X030454Y024630D01*
X030134Y024630D01*
X030027Y024737D01*
X027877Y024630D02*
X027664Y024630D01*
X027770Y024630D02*
X027770Y025057D01*
X027664Y025057D01*
X027446Y025057D02*
X027126Y025057D01*
X027019Y024950D01*
X027126Y024844D01*
X027339Y024844D01*
X027446Y024737D01*
X027339Y024630D01*
X027019Y024630D01*
X026802Y024844D02*
X026375Y024844D01*
X026375Y024950D02*
X026481Y025057D01*
X026695Y025057D01*
X026802Y024950D01*
X026802Y024844D01*
X026695Y024630D02*
X026481Y024630D01*
X026375Y024737D01*
X026375Y024950D01*
X026157Y024737D02*
X026157Y025164D01*
X026050Y025271D01*
X025730Y025271D01*
X025730Y024630D01*
X026050Y024630D01*
X026157Y024737D01*
X027770Y025271D02*
X027770Y025377D01*
X035720Y025377D02*
X035720Y025271D01*
D11*
X023000Y021600D03*
X022000Y021600D03*
X022000Y019400D03*
X023000Y019400D03*
X018600Y019500D03*
X017600Y019500D03*
X017700Y017300D03*
X018700Y017300D03*
X014000Y022900D03*
X013000Y022900D03*
X015400Y024700D03*
X015400Y025700D03*
X013800Y026900D03*
X012800Y026900D03*
X015300Y029000D03*
X015300Y030000D03*
X013700Y029300D03*
X012700Y029300D03*
X017600Y029000D03*
X017600Y030000D03*
X008900Y023700D03*
X008900Y022700D03*
X008900Y021600D03*
X008900Y020600D03*
X008900Y019400D03*
X007900Y019400D03*
X007000Y019400D03*
X006000Y019400D03*
X005700Y017700D03*
X005700Y016700D03*
X007600Y015400D03*
X007600Y014400D03*
X009800Y014400D03*
X009800Y015400D03*
X009800Y013500D03*
X009800Y012500D03*
X010100Y011500D03*
X009100Y011500D03*
X009100Y009900D03*
X010100Y009900D03*
X007400Y009900D03*
X006400Y009900D03*
X002100Y013900D03*
X002100Y014900D03*
X002000Y016100D03*
X002000Y017100D03*
X002000Y018300D03*
X002000Y019300D03*
X002000Y020400D03*
X002000Y021400D03*
X006000Y021800D03*
X007000Y021800D03*
X016000Y008200D03*
X017000Y008200D03*
X019100Y005600D03*
X020100Y005600D03*
X018500Y002700D03*
X017500Y002700D03*
X015800Y002700D03*
X014800Y002700D03*
X013400Y005600D03*
X012400Y005600D03*
D12*
X009300Y027270D03*
X009300Y030530D03*
X002500Y030530D03*
X002500Y027270D03*
D13*
X006000Y026000D02*
X006000Y025400D01*
X007000Y025400D02*
X007000Y026000D01*
X007000Y023900D02*
X007000Y023300D01*
X006000Y023300D02*
X006000Y023900D01*
X004500Y023200D02*
X003900Y023200D01*
X003900Y022200D02*
X004500Y022200D01*
X004400Y020400D02*
X003800Y020400D01*
X003800Y019400D02*
X004400Y019400D01*
X004400Y018100D02*
X003800Y018100D01*
X003800Y017100D02*
X004400Y017100D01*
X004400Y015700D02*
X003800Y015700D01*
X003800Y014700D02*
X004400Y014700D01*
X006400Y012500D02*
X006400Y011900D01*
X007400Y011900D02*
X007400Y012500D01*
X007500Y016700D02*
X006900Y016700D01*
X006900Y017700D02*
X007500Y017700D01*
X010300Y020600D02*
X010900Y020600D01*
X010900Y021600D02*
X010300Y021600D01*
X010300Y022700D02*
X010900Y022700D01*
X010900Y023700D02*
X010300Y023700D01*
X012900Y024800D02*
X012900Y025400D01*
X013900Y025400D02*
X013900Y024800D01*
X016600Y026900D02*
X016600Y027500D01*
X017600Y027500D02*
X017600Y026900D01*
X016900Y022000D02*
X016300Y022000D01*
X016300Y021000D02*
X016900Y021000D01*
X009800Y031900D02*
X009200Y031900D01*
X009200Y032900D02*
X009800Y032900D01*
X002400Y032900D02*
X001800Y032900D01*
X001800Y031900D02*
X002400Y031900D01*
D14*
X018476Y022550D03*
X018476Y022050D03*
X018476Y021550D03*
X018476Y021050D03*
X020524Y021050D03*
X020524Y021550D03*
X020524Y022050D03*
X020524Y022550D03*
D15*
X018127Y012952D03*
X018127Y012696D03*
X018127Y012440D03*
X018127Y012184D03*
X018127Y011928D03*
X018127Y011672D03*
X018127Y011416D03*
X018127Y011160D03*
X018127Y010904D03*
X018127Y010648D03*
X015273Y010648D03*
X015273Y010904D03*
X015273Y011160D03*
X015273Y011416D03*
X015273Y011672D03*
X015273Y011928D03*
X015273Y012184D03*
X015273Y012440D03*
X015273Y012696D03*
X015273Y012952D03*
D16*
X015200Y005600D03*
X017200Y005600D03*
D17*
X022200Y005900D03*
X022200Y007400D03*
X022200Y008900D03*
X022200Y010400D03*
X022200Y011900D03*
X022200Y013400D03*
X022200Y015000D03*
X022200Y016500D03*
X011600Y016500D03*
X011600Y015100D03*
X011600Y013600D03*
X011600Y012200D03*
X011600Y010700D03*
X011600Y009200D03*
D18*
X031300Y002100D03*
X032300Y002100D03*
X033300Y002100D03*
X034300Y002100D03*
X035300Y002100D03*
X036300Y002100D03*
X037300Y002100D03*
X038300Y002100D03*
X039300Y002100D03*
X040300Y002100D03*
D19*
X015300Y013965D03*
X015300Y014635D03*
D20*
X020165Y012200D03*
X020835Y012200D03*
X021035Y010400D03*
X020365Y010400D03*
D21*
X034066Y010156D03*
X034066Y010943D03*
X034066Y011730D03*
X034854Y011730D03*
X034854Y010943D03*
X034854Y010156D03*
X034854Y012518D03*
X034854Y013305D03*
X034066Y013305D03*
X034066Y012518D03*
X034066Y014093D03*
X034066Y014880D03*
X034066Y015667D03*
X034854Y015667D03*
X034854Y014880D03*
X034854Y014093D03*
X034854Y016455D03*
X034854Y017242D03*
X034066Y017242D03*
X034066Y016455D03*
X034066Y018030D03*
X034066Y018817D03*
X034066Y019604D03*
X034854Y019604D03*
X034854Y018817D03*
X034854Y018030D03*
D22*
X014800Y032183D02*
X014800Y032817D01*
X013800Y032817D02*
X013800Y032183D01*
X012800Y032183D02*
X012800Y032817D01*
X007000Y028217D02*
X007000Y027583D01*
X006000Y027583D02*
X006000Y028217D01*
X005000Y028217D02*
X005000Y027583D01*
X003000Y024717D02*
X003000Y024083D01*
X002000Y024083D02*
X002000Y024717D01*
D23*
X004900Y031650D02*
X004900Y032350D01*
X006900Y032350D02*
X006900Y031650D01*
D24*
X030140Y006980D03*
X030140Y006730D03*
X030140Y006470D03*
X030140Y006220D03*
X031860Y006220D03*
X031860Y006470D03*
X031860Y006730D03*
X031860Y006980D03*
D25*
X024900Y007000D03*
X024900Y008000D03*
X024900Y009000D03*
X024900Y010000D03*
X024900Y011000D03*
X024900Y012000D03*
X024900Y014000D03*
X024900Y015000D03*
X024900Y016000D03*
X024900Y017000D03*
X024900Y018000D03*
X024900Y019000D03*
X024900Y020000D03*
X024900Y021000D03*
X043900Y020600D03*
X043900Y019600D03*
X043900Y018600D03*
X043900Y017600D03*
X043900Y016600D03*
X043900Y015600D03*
X043900Y014000D03*
X043900Y013000D03*
X043900Y012000D03*
X043900Y011000D03*
X043900Y010000D03*
X043900Y009000D03*
X043900Y008000D03*
X043900Y007000D03*
X043900Y021600D03*
X043900Y022600D03*
X043900Y023600D03*
X043900Y024600D03*
D26*
X039600Y028940D03*
X039210Y028940D03*
X038810Y028940D03*
X038400Y028940D03*
D27*
X027290Y030300D02*
X027290Y030660D01*
X027450Y030660D01*
X027450Y030300D01*
X027290Y030300D01*
X027290Y030339D02*
X027450Y030339D01*
X027450Y030378D02*
X027290Y030378D01*
X027290Y030417D02*
X027450Y030417D01*
X027450Y030456D02*
X027290Y030456D01*
X027290Y030495D02*
X027450Y030495D01*
X027450Y030534D02*
X027290Y030534D01*
X027290Y030573D02*
X027450Y030573D01*
X027450Y030612D02*
X027290Y030612D01*
X027290Y030651D02*
X027450Y030651D01*
X026290Y030660D02*
X026290Y030300D01*
X026290Y030660D02*
X026450Y030660D01*
X026450Y030300D01*
X026290Y030300D01*
X026290Y030339D02*
X026450Y030339D01*
X026450Y030378D02*
X026290Y030378D01*
X026290Y030417D02*
X026450Y030417D01*
X026450Y030456D02*
X026290Y030456D01*
X026290Y030495D02*
X026450Y030495D01*
X026450Y030534D02*
X026290Y030534D01*
X026290Y030573D02*
X026450Y030573D01*
X026450Y030612D02*
X026290Y030612D01*
X026290Y030651D02*
X026450Y030651D01*
D28*
X033900Y006950D03*
X034900Y006950D03*
X035900Y006950D03*
X035900Y005950D03*
X034900Y005950D03*
X033900Y005950D03*
D29*
X033137Y031915D02*
X033137Y032470D01*
X033137Y034002D02*
X033137Y034557D01*
X030263Y034557D02*
X030263Y034002D01*
X030263Y032470D02*
X030263Y031915D01*
D30*
X031070Y032094D03*
X031385Y032094D03*
X031700Y032094D03*
X032015Y032094D03*
X032330Y032094D03*
D31*
X008000Y009300D02*
X007400Y009900D01*
X008000Y009300D02*
X009500Y009300D01*
X010100Y009900D01*
X010900Y010700D01*
X011600Y010700D01*
X012572Y011672D01*
X015273Y011672D01*
X015273Y011416D02*
X015257Y011400D01*
X012600Y011400D01*
X012300Y011100D01*
X012300Y009700D01*
X011800Y009200D01*
X011600Y009200D01*
X014300Y011100D02*
X014360Y011160D01*
X015273Y011160D01*
X015273Y010904D02*
X015269Y010900D01*
X014700Y010900D01*
X014400Y010600D01*
X015200Y010648D02*
X015200Y010200D01*
X015200Y010648D02*
X015273Y010648D01*
X015273Y011928D02*
X011872Y011928D01*
X011600Y012200D01*
X010900Y011500D01*
X010100Y011500D01*
X009800Y012500D02*
X010500Y012500D01*
X011600Y013600D01*
X013400Y013600D01*
X013700Y013300D01*
X013700Y012800D01*
X014300Y012200D01*
X015257Y012200D01*
X015273Y012184D01*
X015273Y012440D02*
X014360Y012440D01*
X013900Y012900D01*
X013900Y014700D01*
X013500Y015100D01*
X011600Y015100D01*
X010100Y015100D01*
X009800Y015400D01*
X007600Y015400D01*
X007200Y017700D02*
X005700Y017700D01*
X004100Y020400D02*
X002000Y020400D01*
X001000Y021300D02*
X001900Y022200D01*
X004200Y022200D01*
X004200Y023200D02*
X002800Y023200D01*
X002000Y024000D01*
X002000Y024400D01*
X002500Y027270D02*
X004370Y027270D01*
X005000Y027900D01*
X006000Y027900D02*
X006000Y025700D01*
X007000Y025700D02*
X007730Y025700D01*
X009300Y027270D01*
X012900Y025100D02*
X012900Y023100D01*
X013000Y022900D01*
X013000Y023400D01*
X013500Y023900D01*
X021400Y023900D01*
X022000Y023300D01*
X022000Y021600D01*
X021950Y021550D01*
X021950Y019450D01*
X022000Y019400D01*
X021950Y021550D02*
X020524Y021550D01*
X020524Y022550D02*
X020850Y022550D01*
X021300Y023000D01*
X018476Y022050D02*
X016650Y022050D01*
X016600Y022000D01*
X016600Y021000D02*
X017100Y021000D01*
X018600Y019500D01*
X018600Y017400D01*
X018700Y017300D01*
X018700Y016700D01*
X018500Y016500D01*
X014500Y016500D01*
X013600Y016100D02*
X013300Y016400D01*
X014400Y017500D01*
X014800Y017500D01*
X013600Y016100D02*
X013600Y015300D01*
X014100Y014800D01*
X014100Y013000D01*
X014404Y012696D01*
X015273Y012696D01*
X015273Y012952D02*
X015273Y013938D01*
X015300Y013965D01*
X015300Y014635D02*
X018435Y014635D01*
X020500Y016700D01*
X021600Y016700D01*
X021900Y017000D01*
X024100Y017000D01*
X024600Y017500D01*
X033100Y017500D01*
X034037Y018000D02*
X027900Y018000D01*
X024900Y018000D01*
X022200Y016500D02*
X020600Y016500D01*
X018127Y014027D01*
X018127Y012952D01*
X018127Y012696D02*
X018596Y012696D01*
X018800Y012900D01*
X018800Y013700D01*
X020100Y015000D01*
X022200Y015000D01*
X023200Y015000D01*
X023300Y014900D01*
X022200Y013400D02*
X019700Y013400D01*
X018740Y012440D01*
X018127Y012440D01*
X018127Y012184D02*
X020149Y012184D01*
X020165Y012200D01*
X020165Y012665D01*
X020300Y012800D01*
X025000Y012800D01*
X025700Y013500D01*
X022200Y011900D02*
X021900Y012200D01*
X020835Y012200D01*
X020100Y011400D02*
X020400Y011100D01*
X020400Y010435D01*
X020365Y010400D01*
X020365Y010035D01*
X021000Y009400D01*
X020800Y008900D02*
X022200Y008900D01*
X021600Y008000D02*
X022200Y007400D01*
X022200Y006576D02*
X018127Y010648D01*
X018127Y010904D02*
X018996Y010904D01*
X019500Y010400D01*
X019500Y009700D01*
X021200Y008000D01*
X021600Y008000D01*
X020800Y008900D02*
X019900Y009800D01*
X019900Y010500D01*
X019240Y011160D01*
X018127Y011160D01*
X018143Y011400D02*
X018127Y011416D01*
X018143Y011400D02*
X020100Y011400D01*
X019100Y011900D02*
X019072Y011928D01*
X018127Y011928D01*
X018127Y011672D02*
X017572Y011672D01*
X017500Y011600D01*
X017500Y009300D01*
X017200Y009000D01*
X016900Y009000D01*
X016600Y008700D01*
X016600Y007800D01*
X017200Y007200D01*
X017200Y005600D01*
X014800Y003200D01*
X014800Y002700D01*
X015800Y002700D02*
X017500Y002700D01*
X021000Y005100D02*
X028900Y005100D01*
X029400Y005700D01*
X031340Y005700D01*
X031860Y006220D01*
X031860Y006470D02*
X032570Y006470D01*
X033000Y006900D01*
X033000Y007200D01*
X033400Y007600D01*
X035250Y007600D01*
X035900Y006950D01*
X035700Y008300D02*
X028700Y008300D01*
X030000Y009000D02*
X036900Y009000D01*
X031860Y007440D02*
X031860Y006980D01*
X031860Y006730D01*
X031860Y007440D02*
X031800Y007500D01*
X030140Y006980D02*
X030020Y007500D01*
X026400Y007500D01*
X026100Y007200D01*
X026600Y007000D02*
X029400Y007000D01*
X029670Y006730D01*
X030140Y006730D01*
X030140Y006470D02*
X029730Y006470D01*
X028700Y006600D01*
X029400Y006200D02*
X029420Y006220D01*
X030140Y006220D01*
X031900Y005000D02*
X043200Y005000D01*
X044600Y006400D01*
X044600Y009300D01*
X043900Y010000D01*
X044800Y011100D02*
X043900Y012000D01*
X044800Y011100D02*
X044800Y006300D01*
X043300Y004800D01*
X032700Y004800D01*
X032300Y004400D01*
X032300Y002100D01*
X031300Y002100D02*
X031300Y004400D01*
X031900Y005000D01*
X030700Y004100D02*
X030700Y001600D01*
X031000Y001300D01*
X035500Y001300D01*
X036300Y002100D01*
X037400Y001000D02*
X030200Y001000D01*
X028000Y003200D01*
X028000Y004100D01*
X030200Y004600D02*
X030700Y004100D01*
X030200Y004600D02*
X022900Y004600D01*
X023300Y006000D02*
X025600Y006000D01*
X026600Y007000D01*
X022200Y006576D02*
X022200Y005900D01*
X019100Y008200D02*
X017000Y008200D01*
X021035Y010400D02*
X022200Y010400D01*
X017700Y017300D02*
X017600Y017400D01*
X017600Y019500D01*
X013300Y016400D02*
X013200Y016500D01*
X011600Y016500D01*
X010600Y020600D02*
X008900Y020600D01*
X008900Y021600D02*
X010600Y021600D01*
X010600Y022700D02*
X008900Y022700D01*
X008900Y023700D02*
X010600Y023700D01*
X011000Y024100D01*
X011000Y030200D01*
X010670Y030530D01*
X009300Y030530D01*
X009230Y030600D01*
X005400Y030600D01*
X004900Y031100D01*
X004900Y032000D01*
X004370Y030530D02*
X006000Y028900D01*
X006000Y027900D01*
X004370Y030530D02*
X002500Y030530D01*
X009300Y030530D02*
X009500Y030730D01*
X009500Y031900D01*
X015300Y029000D02*
X017600Y029000D01*
X017600Y027200D01*
X017600Y026000D01*
X017300Y025700D01*
X015400Y025700D01*
X014500Y025700D01*
X013900Y025100D01*
X002000Y018300D02*
X001700Y018300D01*
X001000Y019000D01*
X001000Y021300D01*
X030600Y031100D02*
X031070Y031570D01*
X031070Y032094D01*
X032330Y032094D02*
X032330Y031670D01*
X032800Y031100D01*
X043900Y017600D02*
X045000Y016500D01*
X045000Y006200D01*
X043400Y004600D01*
X033600Y004600D01*
X033300Y004300D01*
X033300Y002100D01*
X037400Y001000D02*
X038300Y001900D01*
X038300Y002100D01*
D32*
X031800Y007500D03*
X030020Y007500D03*
X028700Y006600D03*
X029400Y006200D03*
X028700Y008300D03*
X030000Y009000D03*
X026100Y007200D03*
X023300Y006000D03*
X022900Y004600D03*
X021000Y005100D03*
X019100Y008200D03*
X021000Y009400D03*
X019100Y011900D03*
X015200Y010200D03*
X014400Y010600D03*
X014300Y011100D03*
X014500Y016500D03*
X014800Y017500D03*
X021300Y023000D03*
X023300Y014900D03*
X025700Y013500D03*
X033100Y017500D03*
X031900Y020000D03*
X036900Y013300D03*
X035600Y011700D03*
X036900Y009000D03*
X035700Y008300D03*
D33*
X028000Y004100D03*
X027900Y018000D03*
X030600Y031100D03*
X032800Y031100D03*
D34*
X033671Y020000D02*
X031900Y020000D01*
X024900Y020000D01*
X024900Y019000D02*
X033883Y019000D01*
X034066Y018817D01*
X034066Y018030D02*
X034037Y018000D01*
X034854Y018030D02*
X034883Y018000D01*
X043100Y018000D01*
X043500Y017600D01*
X043900Y017600D01*
X043900Y016600D02*
X043500Y016600D01*
X042900Y017200D01*
X034896Y017200D01*
X034854Y017242D01*
X034854Y016455D02*
X034909Y016400D01*
X042800Y016400D01*
X043600Y015600D01*
X043900Y015600D01*
X043900Y014100D02*
X042400Y015600D01*
X034921Y015600D01*
X034854Y015667D01*
X034874Y014900D02*
X034854Y014880D01*
X034874Y014900D02*
X042000Y014900D01*
X043900Y013000D01*
X043900Y014000D02*
X043900Y014100D01*
X043700Y012000D02*
X041600Y014100D01*
X034861Y014100D01*
X034854Y014093D01*
X034066Y014093D02*
X034059Y014100D01*
X027100Y014100D01*
X025000Y012000D01*
X024900Y012000D01*
X024900Y011000D02*
X027200Y013300D01*
X034061Y013300D01*
X034066Y013305D01*
X034066Y012518D02*
X034049Y012500D01*
X027400Y012500D01*
X024900Y010000D01*
X024900Y009000D02*
X027600Y011700D01*
X034036Y011700D01*
X034066Y011730D01*
X034066Y010943D02*
X034023Y010900D01*
X027800Y010900D01*
X024900Y008000D01*
X024900Y007000D02*
X025000Y007000D01*
X028100Y010100D01*
X034011Y010100D01*
X034066Y010156D01*
X034854Y010156D02*
X034909Y010100D01*
X039900Y010100D01*
X043000Y007000D01*
X043900Y007000D01*
X043900Y008000D02*
X043200Y008000D01*
X040300Y010900D01*
X034897Y010900D01*
X034854Y010943D01*
X034884Y011700D02*
X034854Y011730D01*
X034884Y011700D02*
X035600Y011700D01*
X040700Y011700D01*
X043400Y009000D01*
X043900Y009000D01*
X043900Y010000D02*
X043500Y010000D01*
X041000Y012500D01*
X034871Y012500D01*
X034854Y012518D01*
X034859Y013300D02*
X034854Y013305D01*
X034859Y013300D02*
X036900Y013300D01*
X041300Y013300D01*
X043600Y011000D01*
X043900Y011000D01*
X043900Y012000D02*
X043700Y012000D01*
X043900Y018600D02*
X043400Y018600D01*
X043200Y018800D01*
X034871Y018800D01*
X034854Y018817D01*
X034858Y019600D02*
X034854Y019604D01*
X034858Y019600D02*
X043900Y019600D01*
X034066Y019604D02*
X033671Y020000D01*
X034046Y014900D02*
X034066Y014880D01*
X034046Y014900D02*
X025900Y014900D01*
X025000Y014000D01*
X024900Y014000D01*
M02*
