G75*
G70*
%OFA0B0*%
%FSLAX24Y24*%
%IPPOS*%
%LPD*%
%AMOC8*
5,1,8,0,0,1.08239X$1,22.5*
%
%ADD10C,0.0520*%
%ADD11C,0.0560*%
%ADD12C,0.0476*%
%ADD13C,0.0650*%
%ADD14C,0.0600*%
%ADD15C,0.0554*%
%ADD16C,0.0594*%
%ADD17C,0.0515*%
%ADD18C,0.0325*%
%ADD19C,0.0436*%
%ADD20C,0.0160*%
D10*
X012400Y005600D03*
X013400Y005600D03*
X016000Y008200D03*
X017000Y008200D03*
X019100Y005600D03*
X020100Y005600D03*
X018500Y002700D03*
X017500Y002700D03*
X015800Y002700D03*
X014800Y002700D03*
X010100Y009900D03*
X009100Y009900D03*
X007400Y009900D03*
X006400Y009900D03*
X009100Y011500D03*
X010100Y011500D03*
X009800Y012500D03*
X009800Y013500D03*
X009800Y014400D03*
X009800Y015400D03*
X007600Y015400D03*
X007600Y014400D03*
X005700Y016700D03*
X005700Y017700D03*
X006000Y019400D03*
X007000Y019400D03*
X007900Y019400D03*
X008900Y019400D03*
X008900Y020600D03*
X008900Y021600D03*
X008900Y022700D03*
X008900Y023700D03*
X007000Y021800D03*
X006000Y021800D03*
X002000Y021400D03*
X002000Y020400D03*
X002000Y019300D03*
X002000Y018300D03*
X002000Y017100D03*
X002000Y016100D03*
X002100Y014900D03*
X002100Y013900D03*
X013000Y022900D03*
X014000Y022900D03*
X015400Y024700D03*
X015400Y025700D03*
X013800Y026900D03*
X012800Y026900D03*
X015300Y029000D03*
X015300Y030000D03*
X013700Y029300D03*
X012700Y029300D03*
X017600Y029000D03*
X017600Y030000D03*
X022000Y021600D03*
X023000Y021600D03*
X023000Y019400D03*
X022000Y019400D03*
X018600Y019500D03*
X017600Y019500D03*
X017700Y017300D03*
X018700Y017300D03*
X006900Y032000D03*
X004900Y032000D03*
D11*
X002100Y031900D03*
X002100Y032900D03*
X009500Y032900D03*
X009500Y031900D03*
X016600Y027200D03*
X017600Y027200D03*
X013900Y025100D03*
X012900Y025100D03*
X010600Y023700D03*
X010600Y022700D03*
X010600Y021600D03*
X010600Y020600D03*
X007200Y017700D03*
X007200Y016700D03*
X004100Y017100D03*
X004100Y018100D03*
X004100Y019400D03*
X004100Y020400D03*
X004200Y022200D03*
X004200Y023200D03*
X006000Y023600D03*
X007000Y023600D03*
X007000Y025700D03*
X006000Y025700D03*
X016600Y022000D03*
X016600Y021000D03*
X007400Y012200D03*
X006400Y012200D03*
X004100Y014700D03*
X004100Y015700D03*
D12*
X015200Y005600D03*
X017200Y005600D03*
D13*
X022200Y005900D03*
X022200Y007400D03*
X022200Y008900D03*
X022200Y010400D03*
X022200Y011900D03*
X022200Y013400D03*
X022200Y015000D03*
X022200Y016500D03*
X011600Y016500D03*
X011600Y015100D03*
X011600Y013600D03*
X011600Y012200D03*
X011600Y010700D03*
X011600Y009200D03*
D14*
X024900Y009000D03*
X024900Y010000D03*
X024900Y011000D03*
X024900Y012000D03*
X024900Y014000D03*
X024900Y015000D03*
X024900Y016000D03*
X024900Y017000D03*
X024900Y018000D03*
X024900Y019000D03*
X024900Y020000D03*
X024900Y021000D03*
X024900Y008000D03*
X024900Y007000D03*
X031300Y002100D03*
X032300Y002100D03*
X033300Y002100D03*
X034300Y002100D03*
X035300Y002100D03*
X036300Y002100D03*
X037300Y002100D03*
X038300Y002100D03*
X039300Y002100D03*
X040300Y002100D03*
X035900Y005950D03*
X034900Y005950D03*
X033900Y005950D03*
X033900Y006950D03*
X034900Y006950D03*
X035900Y006950D03*
X043900Y007000D03*
X043900Y008000D03*
X043900Y009000D03*
X043900Y010000D03*
X043900Y011000D03*
X043900Y012000D03*
X043900Y013000D03*
X043900Y014000D03*
X043900Y015600D03*
X043900Y016600D03*
X043900Y017600D03*
X043900Y018600D03*
X043900Y019600D03*
X043900Y020600D03*
X043900Y021600D03*
X043900Y022600D03*
X043900Y023600D03*
X043900Y024600D03*
D15*
X034854Y019604D03*
X034854Y018817D03*
X034854Y018030D03*
X034066Y018030D03*
X034066Y018817D03*
X034066Y019604D03*
X034066Y017242D03*
X034066Y016455D03*
X034066Y015667D03*
X034066Y014880D03*
X034066Y014093D03*
X034854Y014093D03*
X034854Y014880D03*
X034854Y015667D03*
X034854Y016455D03*
X034854Y017242D03*
X034854Y013305D03*
X034854Y012518D03*
X034854Y011730D03*
X034854Y010943D03*
X034854Y010156D03*
X034066Y010156D03*
X034066Y010943D03*
X034066Y011730D03*
X034066Y012518D03*
X034066Y013305D03*
D16*
X014800Y032500D03*
X013800Y032500D03*
X012800Y032500D03*
X007000Y027900D03*
X006000Y027900D03*
X005000Y027900D03*
X003000Y024400D03*
X002000Y024400D03*
D17*
X030263Y032193D03*
X030263Y034280D03*
X033137Y034280D03*
X033137Y032193D03*
D18*
X021300Y023000D03*
X014800Y017500D03*
X014500Y016500D03*
X019100Y011900D03*
X021000Y009400D03*
X019100Y008200D03*
X021000Y005100D03*
X022900Y004600D03*
X023300Y006000D03*
X026100Y007200D03*
X028700Y006600D03*
X029400Y006200D03*
X030020Y007500D03*
X028700Y008300D03*
X030000Y009000D03*
X031800Y007500D03*
X035700Y008300D03*
X036900Y009000D03*
X035600Y011700D03*
X036900Y013300D03*
X033100Y017500D03*
X031900Y020000D03*
X025700Y013500D03*
X023300Y014900D03*
X015200Y010200D03*
X014400Y010600D03*
X014300Y011100D03*
D19*
X027900Y018000D03*
X030600Y031100D03*
X032800Y031100D03*
X028000Y004100D03*
D20*
X045600Y000600D02*
X000700Y000600D01*
X000700Y033600D01*
X045600Y033600D01*
X045600Y000600D01*
X045600Y000734D02*
X000700Y000734D01*
X000700Y000893D02*
X045600Y000893D01*
X045600Y001051D02*
X000700Y001051D01*
X000700Y001210D02*
X045600Y001210D01*
X045600Y001368D02*
X000700Y001368D01*
X000700Y001527D02*
X045600Y001527D01*
X045600Y001685D02*
X040422Y001685D01*
X040386Y001670D02*
X040544Y001735D01*
X040665Y001856D01*
X040730Y002014D01*
X040730Y002186D01*
X040665Y002344D01*
X040544Y002465D01*
X040386Y002530D01*
X040214Y002530D01*
X040056Y002465D01*
X039935Y002344D01*
X039870Y002186D01*
X039870Y002014D01*
X039935Y001856D01*
X040056Y001735D01*
X040214Y001670D01*
X040386Y001670D01*
X040178Y001685D02*
X039422Y001685D01*
X039386Y001670D02*
X039544Y001735D01*
X039665Y001856D01*
X039730Y002014D01*
X039730Y002186D01*
X039665Y002344D01*
X039544Y002465D01*
X039386Y002530D01*
X039214Y002530D01*
X039056Y002465D01*
X038935Y002344D01*
X038870Y002186D01*
X038870Y002014D01*
X038935Y001856D01*
X039056Y001735D01*
X039214Y001670D01*
X039386Y001670D01*
X039178Y001685D02*
X038422Y001685D01*
X038386Y001670D02*
X038544Y001735D01*
X038665Y001856D01*
X038730Y002014D01*
X038730Y002186D01*
X038665Y002344D01*
X038544Y002465D01*
X038386Y002530D01*
X038214Y002530D01*
X038056Y002465D01*
X037935Y002344D01*
X037870Y002186D01*
X037870Y002014D01*
X037935Y001856D01*
X038056Y001735D01*
X038214Y001670D01*
X038386Y001670D01*
X038178Y001685D02*
X037579Y001685D01*
X037562Y001672D02*
X037626Y001719D01*
X037681Y001774D01*
X037728Y001838D01*
X037763Y001908D01*
X037788Y001983D01*
X037800Y002061D01*
X037800Y002080D01*
X037320Y002080D01*
X037320Y002120D01*
X037280Y002120D01*
X037280Y002600D01*
X037261Y002600D01*
X037183Y002588D01*
X037108Y002563D01*
X037038Y002528D01*
X036974Y002481D01*
X036919Y002426D01*
X036872Y002362D01*
X036837Y002292D01*
X036812Y002217D01*
X036800Y002139D01*
X036800Y002120D01*
X037280Y002120D01*
X037280Y002080D01*
X036800Y002080D01*
X036800Y002061D01*
X036812Y001983D01*
X036837Y001908D01*
X036872Y001838D01*
X036919Y001774D01*
X036974Y001719D01*
X037038Y001672D01*
X037108Y001637D01*
X037183Y001612D01*
X037261Y001600D01*
X037280Y001600D01*
X037280Y002080D01*
X037320Y002080D01*
X037320Y001600D01*
X037339Y001600D01*
X037417Y001612D01*
X037492Y001637D01*
X037562Y001672D01*
X037730Y001844D02*
X037948Y001844D01*
X037875Y002002D02*
X037791Y002002D01*
X037800Y002120D02*
X037800Y002139D01*
X037788Y002217D01*
X037763Y002292D01*
X037728Y002362D01*
X037681Y002426D01*
X037626Y002481D01*
X037562Y002528D01*
X037492Y002563D01*
X037417Y002588D01*
X037339Y002600D01*
X037320Y002600D01*
X037320Y002120D01*
X037800Y002120D01*
X037797Y002161D02*
X037870Y002161D01*
X037925Y002319D02*
X037750Y002319D01*
X037630Y002478D02*
X038088Y002478D01*
X038512Y002478D02*
X039088Y002478D01*
X038925Y002319D02*
X038675Y002319D01*
X038730Y002161D02*
X038870Y002161D01*
X038875Y002002D02*
X038725Y002002D01*
X038652Y001844D02*
X038948Y001844D01*
X039652Y001844D02*
X039948Y001844D01*
X039875Y002002D02*
X039725Y002002D01*
X039730Y002161D02*
X039870Y002161D01*
X039925Y002319D02*
X039675Y002319D01*
X039512Y002478D02*
X040088Y002478D01*
X040512Y002478D02*
X043320Y002478D01*
X043320Y002425D02*
X043454Y002102D01*
X043702Y001854D01*
X044025Y001720D01*
X044375Y001720D01*
X044698Y001854D01*
X044946Y002102D01*
X045080Y002425D01*
X045080Y002775D01*
X044946Y003098D01*
X044698Y003346D01*
X044375Y003480D01*
X044025Y003480D01*
X043702Y003346D01*
X043454Y003098D01*
X043320Y002775D01*
X043320Y002425D01*
X043364Y002319D02*
X040675Y002319D01*
X040730Y002161D02*
X043430Y002161D01*
X043553Y002002D02*
X040725Y002002D01*
X040652Y001844D02*
X043727Y001844D01*
X043320Y002636D02*
X018890Y002636D01*
X018890Y002622D02*
X018831Y002479D01*
X018721Y002369D01*
X018578Y002310D01*
X018422Y002310D01*
X018279Y002369D01*
X018169Y002479D01*
X018110Y002622D01*
X018110Y002778D01*
X018169Y002921D01*
X018279Y003031D01*
X018422Y003090D01*
X018578Y003090D01*
X018721Y003031D01*
X018831Y002921D01*
X018890Y002778D01*
X018890Y002622D01*
X018829Y002478D02*
X031088Y002478D01*
X031056Y002465D02*
X030935Y002344D01*
X030870Y002186D01*
X030870Y002014D01*
X030935Y001856D01*
X031056Y001735D01*
X031214Y001670D01*
X031386Y001670D01*
X031544Y001735D01*
X031665Y001856D01*
X031730Y002014D01*
X031730Y002186D01*
X031665Y002344D01*
X031544Y002465D01*
X031386Y002530D01*
X031214Y002530D01*
X031056Y002465D01*
X030925Y002319D02*
X018599Y002319D01*
X018401Y002319D02*
X017599Y002319D01*
X017578Y002310D02*
X017721Y002369D01*
X017831Y002479D01*
X017890Y002622D01*
X017890Y002778D01*
X017831Y002921D01*
X017721Y003031D01*
X017578Y003090D01*
X017422Y003090D01*
X017279Y003031D01*
X017169Y002921D01*
X017110Y002778D01*
X017110Y002622D01*
X017169Y002479D01*
X017279Y002369D01*
X017422Y002310D01*
X017578Y002310D01*
X017401Y002319D02*
X015899Y002319D01*
X015878Y002310D02*
X016021Y002369D01*
X016131Y002479D01*
X016190Y002622D01*
X016190Y002778D01*
X016131Y002921D01*
X016021Y003031D01*
X015878Y003090D01*
X015722Y003090D01*
X015579Y003031D01*
X015469Y002921D01*
X015410Y002778D01*
X015410Y002622D01*
X015469Y002479D01*
X015579Y002369D01*
X015722Y002310D01*
X015878Y002310D01*
X015701Y002319D02*
X014899Y002319D01*
X014878Y002310D02*
X015021Y002369D01*
X015131Y002479D01*
X015190Y002622D01*
X015190Y002778D01*
X015131Y002921D01*
X015021Y003031D01*
X014878Y003090D01*
X014722Y003090D01*
X014579Y003031D01*
X014469Y002921D01*
X014410Y002778D01*
X014410Y002622D01*
X014469Y002479D01*
X014579Y002369D01*
X014722Y002310D01*
X014878Y002310D01*
X014701Y002319D02*
X000700Y002319D01*
X000700Y002161D02*
X030870Y002161D01*
X030875Y002002D02*
X000700Y002002D01*
X000700Y001844D02*
X030948Y001844D01*
X031178Y001685D02*
X000700Y001685D01*
X000700Y002478D02*
X014471Y002478D01*
X014410Y002636D02*
X000700Y002636D01*
X000700Y002795D02*
X014417Y002795D01*
X014501Y002953D02*
X000700Y002953D01*
X000700Y003112D02*
X043467Y003112D01*
X043394Y002953D02*
X018799Y002953D01*
X018883Y002795D02*
X043328Y002795D01*
X043625Y003270D02*
X000700Y003270D01*
X000700Y003429D02*
X004563Y003429D01*
X004502Y003454D02*
X004825Y003320D01*
X005175Y003320D01*
X005498Y003454D01*
X005746Y003702D01*
X005880Y004025D01*
X005880Y004375D01*
X005746Y004698D01*
X005498Y004946D01*
X005175Y005080D01*
X004825Y005080D01*
X004502Y004946D01*
X004254Y004698D01*
X004120Y004375D01*
X004120Y004025D01*
X004254Y003702D01*
X004502Y003454D01*
X004368Y003587D02*
X000700Y003587D01*
X000700Y003746D02*
X004236Y003746D01*
X004170Y003904D02*
X000700Y003904D01*
X000700Y004063D02*
X004120Y004063D01*
X004120Y004221D02*
X000700Y004221D01*
X000700Y004380D02*
X004122Y004380D01*
X004188Y004538D02*
X000700Y004538D01*
X000700Y004697D02*
X004253Y004697D01*
X004410Y004855D02*
X000700Y004855D01*
X000700Y005014D02*
X004664Y005014D01*
X005336Y005014D02*
X020719Y005014D01*
X020708Y005042D02*
X020752Y004934D01*
X020834Y004852D01*
X020942Y004808D01*
X021058Y004808D01*
X021166Y004852D01*
X021248Y004934D01*
X021292Y005042D01*
X021292Y005158D01*
X021248Y005266D01*
X021166Y005348D01*
X021058Y005392D01*
X020942Y005392D01*
X020834Y005348D01*
X020752Y005266D01*
X020708Y005158D01*
X020708Y005042D01*
X020713Y005172D02*
X000700Y005172D01*
X000700Y005331D02*
X012118Y005331D01*
X012069Y005379D02*
X012179Y005269D01*
X012322Y005210D01*
X012478Y005210D01*
X012621Y005269D01*
X012731Y005379D01*
X012790Y005522D01*
X012790Y005678D01*
X012731Y005821D01*
X012621Y005931D01*
X012478Y005990D01*
X012322Y005990D01*
X012179Y005931D01*
X012069Y005821D01*
X012010Y005678D01*
X012010Y005522D01*
X012069Y005379D01*
X012024Y005489D02*
X000700Y005489D01*
X000700Y005648D02*
X012010Y005648D01*
X012063Y005806D02*
X000700Y005806D01*
X000700Y005965D02*
X012261Y005965D01*
X012539Y005965D02*
X013261Y005965D01*
X013322Y005990D02*
X013179Y005931D01*
X013069Y005821D01*
X013010Y005678D01*
X013010Y005522D01*
X013069Y005379D01*
X013179Y005269D01*
X013322Y005210D01*
X013478Y005210D01*
X013621Y005269D01*
X013731Y005379D01*
X013790Y005522D01*
X013790Y005678D01*
X013731Y005821D01*
X013621Y005931D01*
X013478Y005990D01*
X013322Y005990D01*
X013539Y005965D02*
X015119Y005965D01*
X015127Y005968D02*
X014992Y005912D01*
X014888Y005808D01*
X014832Y005673D01*
X014832Y005527D01*
X014888Y005392D01*
X014992Y005288D01*
X015127Y005232D01*
X015273Y005232D01*
X015408Y005288D01*
X015512Y005392D01*
X015568Y005527D01*
X015568Y005673D01*
X015512Y005808D01*
X015408Y005912D01*
X015273Y005968D01*
X015127Y005968D01*
X015281Y005965D02*
X017119Y005965D01*
X017127Y005968D02*
X016992Y005912D01*
X016888Y005808D01*
X016832Y005673D01*
X016832Y005527D01*
X016888Y005392D01*
X016992Y005288D01*
X017127Y005232D01*
X017273Y005232D01*
X017408Y005288D01*
X017512Y005392D01*
X017568Y005527D01*
X017568Y005673D01*
X017512Y005808D01*
X017408Y005912D01*
X017273Y005968D01*
X017127Y005968D01*
X017281Y005965D02*
X018961Y005965D01*
X019022Y005990D02*
X018879Y005931D01*
X018769Y005821D01*
X018710Y005678D01*
X018710Y005522D01*
X018769Y005379D01*
X018879Y005269D01*
X019022Y005210D01*
X019178Y005210D01*
X019321Y005269D01*
X019431Y005379D01*
X019490Y005522D01*
X019490Y005678D01*
X019431Y005821D01*
X019321Y005931D01*
X019178Y005990D01*
X019022Y005990D01*
X019239Y005965D02*
X019961Y005965D01*
X020022Y005990D02*
X019879Y005931D01*
X019769Y005821D01*
X019710Y005678D01*
X019710Y005522D01*
X019769Y005379D01*
X019879Y005269D01*
X020022Y005210D01*
X020178Y005210D01*
X020321Y005269D01*
X020431Y005379D01*
X020490Y005522D01*
X020490Y005678D01*
X020431Y005821D01*
X020321Y005931D01*
X020178Y005990D01*
X020022Y005990D01*
X020239Y005965D02*
X021745Y005965D01*
X021745Y005990D02*
X021745Y005810D01*
X021814Y005642D01*
X021942Y005514D01*
X022110Y005445D01*
X022290Y005445D01*
X022458Y005514D01*
X022586Y005642D01*
X022655Y005810D01*
X022655Y005990D01*
X022586Y006158D01*
X022458Y006286D01*
X022290Y006355D01*
X022110Y006355D01*
X021942Y006286D01*
X021814Y006158D01*
X021745Y005990D01*
X021800Y006123D02*
X000700Y006123D01*
X000700Y006282D02*
X021938Y006282D01*
X021747Y005806D02*
X020437Y005806D01*
X020490Y005648D02*
X021812Y005648D01*
X022004Y005489D02*
X020476Y005489D01*
X020382Y005331D02*
X020817Y005331D01*
X021183Y005331D02*
X026531Y005331D01*
X026470Y005356D02*
X026749Y005240D01*
X027051Y005240D01*
X027330Y005356D01*
X027544Y005570D01*
X027660Y005849D01*
X027660Y006151D01*
X027544Y006430D01*
X027330Y006644D01*
X027051Y006760D01*
X026749Y006760D01*
X026470Y006644D01*
X026256Y006430D01*
X026140Y006151D01*
X026140Y005849D01*
X026256Y005570D01*
X026470Y005356D01*
X026336Y005489D02*
X022396Y005489D01*
X022588Y005648D02*
X026223Y005648D01*
X026158Y005806D02*
X023520Y005806D01*
X023548Y005834D02*
X023592Y005942D01*
X023592Y006058D01*
X023548Y006166D01*
X023466Y006248D01*
X023358Y006292D01*
X023242Y006292D01*
X023134Y006248D01*
X023052Y006166D01*
X023008Y006058D01*
X023008Y005942D01*
X023052Y005834D01*
X023134Y005752D01*
X023242Y005708D01*
X023358Y005708D01*
X023466Y005752D01*
X023548Y005834D01*
X023592Y005965D02*
X026140Y005965D01*
X026140Y006123D02*
X023566Y006123D01*
X023385Y006282D02*
X026194Y006282D01*
X026265Y006440D02*
X000700Y006440D01*
X000700Y006599D02*
X024746Y006599D01*
X024814Y006570D02*
X024986Y006570D01*
X025144Y006635D01*
X025265Y006756D01*
X025330Y006914D01*
X025330Y007086D01*
X025265Y007244D01*
X025144Y007365D01*
X024986Y007430D01*
X024814Y007430D01*
X024656Y007365D01*
X024535Y007244D01*
X024470Y007086D01*
X024470Y006914D01*
X024535Y006756D01*
X024656Y006635D01*
X024814Y006570D01*
X025054Y006599D02*
X026424Y006599D01*
X026742Y006757D02*
X025265Y006757D01*
X025330Y006916D02*
X026022Y006916D01*
X026042Y006908D02*
X026158Y006908D01*
X026266Y006952D01*
X026348Y007034D01*
X026392Y007142D01*
X026392Y007258D01*
X026348Y007366D01*
X026266Y007448D01*
X026158Y007492D01*
X026042Y007492D01*
X025934Y007448D01*
X025852Y007366D01*
X025808Y007258D01*
X025808Y007142D01*
X025852Y007034D01*
X025934Y006952D01*
X026042Y006908D01*
X026178Y006916D02*
X033470Y006916D01*
X033470Y006864D02*
X033535Y006706D01*
X033656Y006585D01*
X033814Y006520D01*
X033986Y006520D01*
X034144Y006585D01*
X034265Y006706D01*
X034330Y006864D01*
X034330Y007036D01*
X034265Y007194D01*
X034144Y007315D01*
X033986Y007380D01*
X033814Y007380D01*
X033656Y007315D01*
X033535Y007194D01*
X033470Y007036D01*
X033470Y006864D01*
X033515Y006757D02*
X028952Y006757D01*
X028948Y006766D02*
X028866Y006848D01*
X028758Y006892D01*
X028642Y006892D01*
X028534Y006848D01*
X028452Y006766D01*
X028408Y006658D01*
X028408Y006542D01*
X028452Y006434D01*
X028534Y006352D01*
X028642Y006308D01*
X028758Y006308D01*
X028866Y006352D01*
X028948Y006434D01*
X028992Y006542D01*
X028992Y006658D01*
X028948Y006766D01*
X028992Y006599D02*
X033643Y006599D01*
X033814Y006380D02*
X033656Y006315D01*
X033535Y006194D01*
X033470Y006036D01*
X033470Y005864D01*
X033535Y005706D01*
X033656Y005585D01*
X033814Y005520D01*
X033986Y005520D01*
X034144Y005585D01*
X034265Y005706D01*
X034330Y005864D01*
X034330Y006036D01*
X034265Y006194D01*
X034144Y006315D01*
X033986Y006380D01*
X033814Y006380D01*
X033623Y006282D02*
X029683Y006282D01*
X029692Y006258D02*
X029648Y006366D01*
X029566Y006448D01*
X029458Y006492D01*
X029342Y006492D01*
X029234Y006448D01*
X029152Y006366D01*
X029108Y006258D01*
X029108Y006142D01*
X029152Y006034D01*
X029234Y005952D01*
X029342Y005908D01*
X029458Y005908D01*
X029566Y005952D01*
X029648Y006034D01*
X029692Y006142D01*
X029692Y006258D01*
X029685Y006123D02*
X033506Y006123D01*
X033470Y005965D02*
X029578Y005965D01*
X029222Y005965D02*
X027660Y005965D01*
X027660Y006123D02*
X029115Y006123D01*
X029117Y006282D02*
X027606Y006282D01*
X027535Y006440D02*
X028450Y006440D01*
X028408Y006599D02*
X027376Y006599D01*
X027058Y006757D02*
X028448Y006757D01*
X028950Y006440D02*
X029226Y006440D01*
X029574Y006440D02*
X035798Y006440D01*
X035783Y006438D02*
X035708Y006413D01*
X035638Y006378D01*
X035574Y006331D01*
X035519Y006276D01*
X035472Y006212D01*
X035437Y006142D01*
X035412Y006067D01*
X035400Y005989D01*
X035400Y005970D01*
X035880Y005970D01*
X035880Y006450D01*
X035861Y006450D01*
X035783Y006438D01*
X035814Y006520D02*
X035986Y006520D01*
X036144Y006585D01*
X036265Y006706D01*
X036330Y006864D01*
X036330Y007036D01*
X036265Y007194D01*
X036144Y007315D01*
X035986Y007380D01*
X035814Y007380D01*
X035656Y007315D01*
X035535Y007194D01*
X035470Y007036D01*
X035470Y006864D01*
X035535Y006706D01*
X035656Y006585D01*
X035814Y006520D01*
X035880Y006440D02*
X035920Y006440D01*
X035920Y006450D02*
X035939Y006450D01*
X036017Y006438D01*
X036092Y006413D01*
X036162Y006378D01*
X036226Y006331D01*
X036281Y006276D01*
X036328Y006212D01*
X036363Y006142D01*
X036388Y006067D01*
X036400Y005989D01*
X036400Y005970D01*
X035920Y005970D01*
X035920Y005930D01*
X036400Y005930D01*
X036400Y005911D01*
X036388Y005833D01*
X036363Y005758D01*
X036328Y005688D01*
X036281Y005624D01*
X036226Y005569D01*
X036162Y005522D01*
X036092Y005487D01*
X036017Y005462D01*
X035939Y005450D01*
X035920Y005450D01*
X035920Y005930D01*
X035880Y005930D01*
X035880Y005450D01*
X035861Y005450D01*
X035783Y005462D01*
X035708Y005487D01*
X035638Y005522D01*
X035574Y005569D01*
X035519Y005624D01*
X035472Y005688D01*
X035437Y005758D01*
X035412Y005833D01*
X035400Y005911D01*
X035400Y005930D01*
X035880Y005930D01*
X035880Y005970D01*
X035920Y005970D01*
X035920Y006450D01*
X036002Y006440D02*
X037265Y006440D01*
X037256Y006430D02*
X037140Y006151D01*
X037140Y005849D01*
X037256Y005570D01*
X037470Y005356D01*
X037749Y005240D01*
X038051Y005240D01*
X038330Y005356D01*
X038544Y005570D01*
X038660Y005849D01*
X038660Y006151D01*
X038544Y006430D01*
X038330Y006644D01*
X038051Y006760D01*
X037749Y006760D01*
X037470Y006644D01*
X037256Y006430D01*
X037194Y006282D02*
X036276Y006282D01*
X036370Y006123D02*
X037140Y006123D01*
X037140Y005965D02*
X035920Y005965D01*
X035880Y005965D02*
X035330Y005965D01*
X035330Y006036D02*
X035265Y006194D01*
X035144Y006315D01*
X034986Y006380D01*
X034814Y006380D01*
X034656Y006315D01*
X034535Y006194D01*
X034470Y006036D01*
X034470Y005864D01*
X034535Y005706D01*
X034656Y005585D01*
X034814Y005520D01*
X034986Y005520D01*
X035144Y005585D01*
X035265Y005706D01*
X035330Y005864D01*
X035330Y006036D01*
X035294Y006123D02*
X035430Y006123D01*
X035524Y006282D02*
X035177Y006282D01*
X035144Y006585D02*
X034986Y006520D01*
X034814Y006520D01*
X034656Y006585D01*
X034535Y006706D01*
X034470Y006864D01*
X034470Y007036D01*
X034535Y007194D01*
X034656Y007315D01*
X034814Y007380D01*
X034986Y007380D01*
X035144Y007315D01*
X035265Y007194D01*
X035330Y007036D01*
X035330Y006864D01*
X035265Y006706D01*
X035144Y006585D01*
X035157Y006599D02*
X035643Y006599D01*
X035515Y006757D02*
X035285Y006757D01*
X035330Y006916D02*
X035470Y006916D01*
X035486Y007074D02*
X035314Y007074D01*
X035226Y007233D02*
X035574Y007233D01*
X036226Y007233D02*
X043531Y007233D01*
X043535Y007244D02*
X043470Y007086D01*
X043470Y006914D01*
X043535Y006756D01*
X043656Y006635D01*
X043814Y006570D01*
X043986Y006570D01*
X044144Y006635D01*
X044265Y006756D01*
X044330Y006914D01*
X044330Y007086D01*
X044265Y007244D01*
X044144Y007365D01*
X043986Y007430D01*
X043814Y007430D01*
X043656Y007365D01*
X043535Y007244D01*
X043470Y007074D02*
X036314Y007074D01*
X036330Y006916D02*
X043470Y006916D01*
X043535Y006757D02*
X038058Y006757D01*
X037742Y006757D02*
X036285Y006757D01*
X036157Y006599D02*
X037424Y006599D01*
X037158Y005806D02*
X036379Y005806D01*
X036298Y005648D02*
X037223Y005648D01*
X037336Y005489D02*
X036097Y005489D01*
X035920Y005489D02*
X035880Y005489D01*
X035880Y005648D02*
X035920Y005648D01*
X035920Y005806D02*
X035880Y005806D01*
X035880Y006123D02*
X035920Y006123D01*
X035920Y006282D02*
X035880Y006282D01*
X035421Y005806D02*
X035306Y005806D01*
X035206Y005648D02*
X035502Y005648D01*
X035703Y005489D02*
X027464Y005489D01*
X027577Y005648D02*
X033594Y005648D01*
X033494Y005806D02*
X027642Y005806D01*
X027269Y005331D02*
X037531Y005331D01*
X038269Y005331D02*
X045600Y005331D01*
X045600Y005489D02*
X038464Y005489D01*
X038577Y005648D02*
X045600Y005648D01*
X045600Y005806D02*
X038642Y005806D01*
X038660Y005965D02*
X045600Y005965D01*
X045600Y006123D02*
X038660Y006123D01*
X038606Y006282D02*
X045600Y006282D01*
X045600Y006440D02*
X038535Y006440D01*
X038376Y006599D02*
X043746Y006599D01*
X044054Y006599D02*
X045600Y006599D01*
X045600Y006757D02*
X044265Y006757D01*
X044330Y006916D02*
X045600Y006916D01*
X045600Y007074D02*
X044330Y007074D01*
X044269Y007233D02*
X045600Y007233D01*
X045600Y007391D02*
X044080Y007391D01*
X043986Y007570D02*
X043814Y007570D01*
X043656Y007635D01*
X043535Y007756D01*
X043470Y007914D01*
X043470Y008086D01*
X043535Y008244D01*
X043656Y008365D01*
X043814Y008430D01*
X043986Y008430D01*
X044144Y008365D01*
X044265Y008244D01*
X044330Y008086D01*
X044330Y007914D01*
X044265Y007756D01*
X044144Y007635D01*
X043986Y007570D01*
X044216Y007708D02*
X045600Y007708D01*
X045600Y007550D02*
X032092Y007550D01*
X032092Y007558D02*
X032048Y007666D01*
X031966Y007748D01*
X031858Y007792D01*
X031742Y007792D01*
X031634Y007748D01*
X031552Y007666D01*
X031508Y007558D01*
X031508Y007442D01*
X031552Y007334D01*
X031634Y007252D01*
X031742Y007208D01*
X031858Y007208D01*
X031966Y007252D01*
X032048Y007334D01*
X032092Y007442D01*
X032092Y007558D01*
X032071Y007391D02*
X043720Y007391D01*
X043584Y007708D02*
X032006Y007708D01*
X031594Y007708D02*
X030226Y007708D01*
X030186Y007748D02*
X030078Y007792D01*
X029962Y007792D01*
X029854Y007748D01*
X029772Y007666D01*
X029728Y007558D01*
X029728Y007442D01*
X029772Y007334D01*
X029854Y007252D01*
X029962Y007208D01*
X030078Y007208D01*
X030186Y007252D01*
X030268Y007334D01*
X030312Y007442D01*
X030312Y007558D01*
X030268Y007666D01*
X030186Y007748D01*
X030312Y007550D02*
X031508Y007550D01*
X031529Y007391D02*
X030291Y007391D01*
X030139Y007233D02*
X031681Y007233D01*
X031919Y007233D02*
X033574Y007233D01*
X033486Y007074D02*
X026364Y007074D01*
X026392Y007233D02*
X029901Y007233D01*
X029749Y007391D02*
X026323Y007391D01*
X025877Y007391D02*
X025080Y007391D01*
X024986Y007570D02*
X024814Y007570D01*
X024656Y007635D01*
X024535Y007756D01*
X024470Y007914D01*
X024470Y008086D01*
X024535Y008244D01*
X024656Y008365D01*
X024814Y008430D01*
X024986Y008430D01*
X025144Y008365D01*
X025265Y008244D01*
X025330Y008086D01*
X025330Y007914D01*
X025265Y007756D01*
X025144Y007635D01*
X024986Y007570D01*
X025216Y007708D02*
X029814Y007708D01*
X029728Y007550D02*
X022630Y007550D01*
X022655Y007490D02*
X022586Y007658D01*
X022458Y007786D01*
X022290Y007855D01*
X022110Y007855D01*
X021942Y007786D01*
X021814Y007658D01*
X021745Y007490D01*
X021745Y007310D01*
X021814Y007142D01*
X021942Y007014D01*
X022110Y006945D01*
X022290Y006945D01*
X022458Y007014D01*
X022586Y007142D01*
X022655Y007310D01*
X022655Y007490D01*
X022655Y007391D02*
X024720Y007391D01*
X024531Y007233D02*
X022623Y007233D01*
X022517Y007074D02*
X024470Y007074D01*
X024470Y006916D02*
X000700Y006916D01*
X000700Y007074D02*
X021883Y007074D01*
X021777Y007233D02*
X000700Y007233D01*
X000700Y007391D02*
X021745Y007391D01*
X021770Y007550D02*
X000700Y007550D01*
X000700Y007708D02*
X021865Y007708D01*
X022535Y007708D02*
X024584Y007708D01*
X024490Y007867D02*
X017214Y007867D01*
X017221Y007869D02*
X017331Y007979D01*
X017390Y008122D01*
X017390Y008278D01*
X017331Y008421D01*
X017221Y008531D01*
X017078Y008590D01*
X016922Y008590D01*
X016779Y008531D01*
X016669Y008421D01*
X016610Y008278D01*
X016610Y008122D01*
X016669Y007979D01*
X016779Y007869D01*
X016922Y007810D01*
X017078Y007810D01*
X017221Y007869D01*
X017350Y008025D02*
X018861Y008025D01*
X018852Y008034D02*
X018934Y007952D01*
X019042Y007908D01*
X019158Y007908D01*
X019266Y007952D01*
X019348Y008034D01*
X019392Y008142D01*
X019392Y008258D01*
X019348Y008366D01*
X019266Y008448D01*
X019158Y008492D01*
X019042Y008492D01*
X018934Y008448D01*
X018852Y008366D01*
X018808Y008258D01*
X018808Y008142D01*
X018852Y008034D01*
X018808Y008184D02*
X017390Y008184D01*
X017363Y008342D02*
X018842Y008342D01*
X019358Y008342D02*
X024634Y008342D01*
X024511Y008184D02*
X019392Y008184D01*
X019339Y008025D02*
X024470Y008025D01*
X024656Y008635D02*
X024814Y008570D01*
X024986Y008570D01*
X025144Y008635D01*
X025265Y008756D01*
X025330Y008914D01*
X025330Y009086D01*
X025265Y009244D01*
X025144Y009365D01*
X024986Y009430D01*
X024814Y009430D01*
X024656Y009365D01*
X024535Y009244D01*
X024470Y009086D01*
X024470Y008914D01*
X024535Y008756D01*
X024656Y008635D01*
X024633Y008659D02*
X022592Y008659D01*
X022586Y008642D02*
X022655Y008810D01*
X022655Y008990D01*
X022586Y009158D01*
X022458Y009286D01*
X022290Y009355D01*
X022110Y009355D01*
X021942Y009286D01*
X021814Y009158D01*
X021745Y008990D01*
X021745Y008810D01*
X021814Y008642D01*
X021942Y008514D01*
X022110Y008445D01*
X022290Y008445D01*
X022458Y008514D01*
X022586Y008642D01*
X022655Y008818D02*
X024510Y008818D01*
X024470Y008976D02*
X022655Y008976D01*
X022595Y009135D02*
X024490Y009135D01*
X024585Y009293D02*
X022440Y009293D01*
X021960Y009293D02*
X021272Y009293D01*
X021292Y009342D02*
X021248Y009234D01*
X021166Y009152D01*
X021058Y009108D01*
X020942Y009108D01*
X020834Y009152D01*
X020752Y009234D01*
X020708Y009342D01*
X020708Y009458D01*
X020752Y009566D01*
X020834Y009648D01*
X020942Y009692D01*
X021058Y009692D01*
X021166Y009648D01*
X021248Y009566D01*
X021292Y009458D01*
X021292Y009342D01*
X021292Y009452D02*
X045600Y009452D01*
X045600Y009610D02*
X044082Y009610D01*
X044144Y009635D02*
X044265Y009756D01*
X044330Y009914D01*
X044330Y010086D01*
X044265Y010244D01*
X044144Y010365D01*
X043986Y010430D01*
X043814Y010430D01*
X043656Y010365D01*
X043535Y010244D01*
X043470Y010086D01*
X043470Y009914D01*
X043535Y009756D01*
X043656Y009635D01*
X043814Y009570D01*
X043986Y009570D01*
X044144Y009635D01*
X044270Y009769D02*
X045600Y009769D01*
X045600Y009927D02*
X044330Y009927D01*
X044330Y010086D02*
X045600Y010086D01*
X045600Y010244D02*
X044264Y010244D01*
X044052Y010403D02*
X045600Y010403D01*
X045600Y010561D02*
X034996Y010561D01*
X034967Y010549D02*
X035084Y010598D01*
X035199Y010712D01*
X035261Y010862D01*
X035261Y011024D01*
X035199Y011174D01*
X035084Y011288D01*
X034967Y011337D01*
X035084Y011385D01*
X035199Y011500D01*
X035261Y011649D01*
X035261Y011811D01*
X035199Y011961D01*
X035084Y012076D01*
X034967Y012124D01*
X035084Y012173D01*
X035199Y012287D01*
X035261Y012437D01*
X035261Y012599D01*
X035199Y012748D01*
X035084Y012863D01*
X034967Y012911D01*
X035084Y012960D01*
X035199Y013075D01*
X035261Y013224D01*
X035261Y013386D01*
X035199Y013536D01*
X035084Y013650D01*
X034967Y013699D01*
X035084Y013747D01*
X035199Y013862D01*
X035261Y014012D01*
X035261Y014174D01*
X035199Y014323D01*
X035084Y014438D01*
X034967Y014486D01*
X035084Y014535D01*
X035199Y014649D01*
X035261Y014799D01*
X035261Y014961D01*
X035199Y015111D01*
X035084Y015225D01*
X034967Y015274D01*
X035084Y015322D01*
X035199Y015437D01*
X035261Y015586D01*
X035261Y015748D01*
X035199Y015898D01*
X035084Y016013D01*
X034967Y016061D01*
X035084Y016110D01*
X035199Y016224D01*
X035261Y016374D01*
X035261Y016536D01*
X035199Y016685D01*
X035084Y016800D01*
X034967Y016849D01*
X035084Y016897D01*
X035199Y017012D01*
X035261Y017161D01*
X035261Y017323D01*
X035199Y017473D01*
X035084Y017587D01*
X034967Y017636D01*
X035084Y017684D01*
X035199Y017799D01*
X035261Y017949D01*
X035261Y018111D01*
X035199Y018260D01*
X035084Y018375D01*
X034967Y018423D01*
X035084Y018472D01*
X035199Y018586D01*
X035261Y018736D01*
X035261Y018898D01*
X035199Y019048D01*
X035084Y019162D01*
X034967Y019211D01*
X035084Y019259D01*
X035199Y019374D01*
X035261Y019523D01*
X035261Y019685D01*
X035199Y019835D01*
X035084Y019950D01*
X034935Y020012D01*
X034773Y020012D01*
X034623Y019950D01*
X034509Y019835D01*
X034460Y019718D01*
X034411Y019835D01*
X034297Y019950D01*
X034147Y020012D01*
X033985Y020012D01*
X033836Y019950D01*
X033721Y019835D01*
X033659Y019685D01*
X033659Y019523D01*
X033721Y019374D01*
X033836Y019259D01*
X033953Y019211D01*
X033836Y019162D01*
X033721Y019048D01*
X033659Y018898D01*
X033659Y018736D01*
X033721Y018586D01*
X033836Y018472D01*
X033953Y018423D01*
X033836Y018375D01*
X033721Y018260D01*
X033659Y018111D01*
X033659Y017949D01*
X033721Y017799D01*
X033836Y017684D01*
X033862Y017674D01*
X033816Y017650D01*
X033755Y017606D01*
X033702Y017553D01*
X033658Y017492D01*
X033624Y017425D01*
X033601Y017354D01*
X033589Y017280D01*
X033589Y017251D01*
X034058Y017251D01*
X034058Y017234D01*
X033589Y017234D01*
X033589Y017205D01*
X033601Y017130D01*
X033624Y017059D01*
X033658Y016992D01*
X033702Y016931D01*
X033755Y016878D01*
X033816Y016834D01*
X033862Y016811D01*
X033836Y016800D01*
X033721Y016685D01*
X033659Y016536D01*
X033659Y016374D01*
X033721Y016224D01*
X033836Y016110D01*
X033953Y016061D01*
X033836Y016013D01*
X033721Y015898D01*
X033659Y015748D01*
X033659Y015586D01*
X033721Y015437D01*
X033836Y015322D01*
X033953Y015274D01*
X033836Y015225D01*
X033721Y015111D01*
X033659Y014961D01*
X033659Y014799D01*
X033721Y014649D01*
X033836Y014535D01*
X033953Y014486D01*
X033836Y014438D01*
X033721Y014323D01*
X033659Y014174D01*
X033659Y014012D01*
X033721Y013862D01*
X033836Y013747D01*
X033953Y013699D01*
X033836Y013650D01*
X033721Y013536D01*
X033659Y013386D01*
X033659Y013224D01*
X033721Y013075D01*
X033836Y012960D01*
X033953Y012911D01*
X033836Y012863D01*
X033721Y012748D01*
X033659Y012599D01*
X033659Y012437D01*
X033721Y012287D01*
X033836Y012173D01*
X033953Y012124D01*
X033836Y012076D01*
X033721Y011961D01*
X033659Y011811D01*
X033659Y011649D01*
X033721Y011500D01*
X033836Y011385D01*
X033953Y011337D01*
X033836Y011288D01*
X033721Y011174D01*
X033659Y011024D01*
X033659Y010862D01*
X033721Y010712D01*
X033836Y010598D01*
X033953Y010549D01*
X033836Y010501D01*
X033721Y010386D01*
X033659Y010237D01*
X033659Y010075D01*
X033721Y009925D01*
X033836Y009810D01*
X033985Y009748D01*
X034147Y009748D01*
X034297Y009810D01*
X034411Y009925D01*
X034460Y010042D01*
X034509Y009925D01*
X034623Y009810D01*
X034773Y009748D01*
X034935Y009748D01*
X035084Y009810D01*
X035199Y009925D01*
X035261Y010075D01*
X035261Y010237D01*
X035199Y010386D01*
X035084Y010501D01*
X034967Y010549D01*
X035183Y010403D02*
X043748Y010403D01*
X043814Y010570D02*
X043986Y010570D01*
X044144Y010635D01*
X044265Y010756D01*
X044330Y010914D01*
X044330Y011086D01*
X044265Y011244D01*
X044144Y011365D01*
X043986Y011430D01*
X043814Y011430D01*
X043656Y011365D01*
X043535Y011244D01*
X043470Y011086D01*
X043470Y010914D01*
X043535Y010756D01*
X043656Y010635D01*
X043814Y010570D01*
X043572Y010720D02*
X035202Y010720D01*
X035261Y010878D02*
X043485Y010878D01*
X043470Y011037D02*
X035256Y011037D01*
X035177Y011195D02*
X043515Y011195D01*
X043645Y011354D02*
X035008Y011354D01*
X035204Y011512D02*
X035374Y011512D01*
X035352Y011534D02*
X035434Y011452D01*
X035542Y011408D01*
X035658Y011408D01*
X035766Y011452D01*
X035848Y011534D01*
X035892Y011642D01*
X035892Y011758D01*
X035848Y011866D01*
X035766Y011948D01*
X035658Y011992D01*
X035542Y011992D01*
X035434Y011948D01*
X035352Y011866D01*
X035308Y011758D01*
X035308Y011642D01*
X035352Y011534D01*
X035308Y011671D02*
X035261Y011671D01*
X035254Y011829D02*
X035337Y011829D01*
X035172Y011988D02*
X035530Y011988D01*
X035670Y011988D02*
X043470Y011988D01*
X043470Y011914D02*
X043535Y011756D01*
X043656Y011635D01*
X043814Y011570D01*
X043986Y011570D01*
X044144Y011635D01*
X044265Y011756D01*
X044330Y011914D01*
X044330Y012086D01*
X044265Y012244D01*
X044144Y012365D01*
X043986Y012430D01*
X043814Y012430D01*
X043656Y012365D01*
X043535Y012244D01*
X043470Y012086D01*
X043470Y011914D01*
X043505Y011829D02*
X035863Y011829D01*
X035892Y011671D02*
X043621Y011671D01*
X043495Y012146D02*
X035020Y012146D01*
X035206Y012305D02*
X043596Y012305D01*
X043690Y012622D02*
X035251Y012622D01*
X035261Y012463D02*
X045600Y012463D01*
X045600Y012305D02*
X044204Y012305D01*
X044305Y012146D02*
X045600Y012146D01*
X045600Y011988D02*
X044330Y011988D01*
X044295Y011829D02*
X045600Y011829D01*
X045600Y011671D02*
X044179Y011671D01*
X044155Y011354D02*
X045600Y011354D01*
X045600Y011512D02*
X035826Y011512D01*
X035258Y010244D02*
X043536Y010244D01*
X043470Y010086D02*
X035261Y010086D01*
X035200Y009927D02*
X043470Y009927D01*
X043530Y009769D02*
X034983Y009769D01*
X034724Y009769D02*
X034196Y009769D01*
X033937Y009769D02*
X025270Y009769D01*
X025265Y009756D02*
X025330Y009914D01*
X025330Y010086D01*
X025265Y010244D01*
X025144Y010365D01*
X024986Y010430D01*
X024814Y010430D01*
X024656Y010365D01*
X024535Y010244D01*
X024470Y010086D01*
X024470Y009914D01*
X024535Y009756D01*
X024656Y009635D01*
X024814Y009570D01*
X024986Y009570D01*
X025144Y009635D01*
X025265Y009756D01*
X025330Y009927D02*
X033720Y009927D01*
X033659Y010086D02*
X025330Y010086D01*
X025264Y010244D02*
X033662Y010244D01*
X033737Y010403D02*
X025052Y010403D01*
X024986Y010570D02*
X024814Y010570D01*
X024656Y010635D01*
X024535Y010756D01*
X024470Y010914D01*
X024470Y011086D01*
X024535Y011244D01*
X024656Y011365D01*
X024814Y011430D01*
X024986Y011430D01*
X025144Y011365D01*
X025265Y011244D01*
X025330Y011086D01*
X025330Y010914D01*
X025265Y010756D01*
X025144Y010635D01*
X024986Y010570D01*
X025228Y010720D02*
X033718Y010720D01*
X033659Y010878D02*
X025315Y010878D01*
X025330Y011037D02*
X033664Y011037D01*
X033743Y011195D02*
X025285Y011195D01*
X025155Y011354D02*
X033912Y011354D01*
X033716Y011512D02*
X022452Y011512D01*
X022458Y011514D02*
X022586Y011642D01*
X022655Y011810D01*
X022655Y011990D01*
X022586Y012158D01*
X022458Y012286D01*
X022290Y012355D01*
X022110Y012355D01*
X021942Y012286D01*
X021814Y012158D01*
X021745Y011990D01*
X021745Y011810D01*
X021814Y011642D01*
X021942Y011514D01*
X022110Y011445D01*
X022290Y011445D01*
X022458Y011514D01*
X022597Y011671D02*
X024621Y011671D01*
X024656Y011635D02*
X024814Y011570D01*
X024986Y011570D01*
X025144Y011635D01*
X025265Y011756D01*
X025330Y011914D01*
X025330Y012086D01*
X025265Y012244D01*
X025144Y012365D01*
X024986Y012430D01*
X024814Y012430D01*
X024656Y012365D01*
X024535Y012244D01*
X024470Y012086D01*
X024470Y011914D01*
X024535Y011756D01*
X024656Y011635D01*
X024505Y011829D02*
X022655Y011829D01*
X022655Y011988D02*
X024470Y011988D01*
X024495Y012146D02*
X022590Y012146D01*
X022412Y012305D02*
X024596Y012305D01*
X025204Y012305D02*
X033714Y012305D01*
X033659Y012463D02*
X011980Y012463D01*
X011986Y012458D02*
X011858Y012586D01*
X011690Y012655D01*
X011510Y012655D01*
X011342Y012586D01*
X011214Y012458D01*
X011145Y012290D01*
X011145Y012110D01*
X011214Y011942D01*
X011342Y011814D01*
X011510Y011745D01*
X011690Y011745D01*
X011858Y011814D01*
X011986Y011942D01*
X012055Y012110D01*
X012055Y012290D01*
X011986Y012458D01*
X012049Y012305D02*
X021988Y012305D01*
X021810Y012146D02*
X019268Y012146D01*
X019266Y012148D02*
X019158Y012192D01*
X019042Y012192D01*
X018934Y012148D01*
X018852Y012066D01*
X018808Y011958D01*
X018808Y011842D01*
X018852Y011734D01*
X018934Y011652D01*
X019042Y011608D01*
X019158Y011608D01*
X019266Y011652D01*
X019348Y011734D01*
X019392Y011842D01*
X019392Y011958D01*
X019348Y012066D01*
X019266Y012148D01*
X019380Y011988D02*
X021745Y011988D01*
X021745Y011829D02*
X019387Y011829D01*
X019284Y011671D02*
X021803Y011671D01*
X021948Y011512D02*
X010490Y011512D01*
X010490Y011578D02*
X010490Y011422D01*
X010431Y011279D01*
X010321Y011169D01*
X010178Y011110D01*
X010022Y011110D01*
X009879Y011169D01*
X009769Y011279D01*
X009710Y011422D01*
X009710Y011578D01*
X009769Y011721D01*
X009879Y011831D01*
X010022Y011890D01*
X010178Y011890D01*
X010321Y011831D01*
X010431Y011721D01*
X010490Y011578D01*
X010452Y011671D02*
X018916Y011671D01*
X018813Y011829D02*
X011872Y011829D01*
X012004Y011988D02*
X018820Y011988D01*
X018932Y012146D02*
X012055Y012146D01*
X011771Y012622D02*
X033669Y012622D01*
X033753Y012780D02*
X010072Y012780D01*
X010021Y012831D02*
X009878Y012890D01*
X009722Y012890D01*
X009579Y012831D01*
X009469Y012721D01*
X009410Y012578D01*
X009410Y012422D01*
X009469Y012279D01*
X009579Y012169D01*
X009722Y012110D01*
X009878Y012110D01*
X010021Y012169D01*
X010131Y012279D01*
X010190Y012422D01*
X010190Y012578D01*
X010131Y012721D01*
X010021Y012831D01*
X010172Y012622D02*
X011429Y012622D01*
X011220Y012463D02*
X010190Y012463D01*
X010141Y012305D02*
X011151Y012305D01*
X011145Y012146D02*
X009965Y012146D01*
X009877Y011829D02*
X009323Y011829D01*
X009321Y011831D02*
X009178Y011890D01*
X009022Y011890D01*
X008879Y011831D01*
X008769Y011721D01*
X008710Y011578D01*
X008710Y011422D01*
X008769Y011279D01*
X008879Y011169D01*
X009022Y011110D01*
X009178Y011110D01*
X009321Y011169D01*
X009431Y011279D01*
X009490Y011422D01*
X009490Y011578D01*
X009431Y011721D01*
X009321Y011831D01*
X009452Y011671D02*
X009748Y011671D01*
X009710Y011512D02*
X009490Y011512D01*
X009461Y011354D02*
X009739Y011354D01*
X009853Y011195D02*
X009347Y011195D01*
X008853Y011195D02*
X000700Y011195D01*
X000700Y011037D02*
X011293Y011037D01*
X011342Y011086D02*
X011214Y010958D01*
X011145Y010790D01*
X011145Y010610D01*
X011214Y010442D01*
X011342Y010314D01*
X011510Y010245D01*
X011690Y010245D01*
X011858Y010314D01*
X011986Y010442D01*
X012055Y010610D01*
X012055Y010790D01*
X011986Y010958D01*
X011858Y011086D01*
X011690Y011155D01*
X011510Y011155D01*
X011342Y011086D01*
X011181Y010878D02*
X000700Y010878D01*
X000700Y010720D02*
X011145Y010720D01*
X011165Y010561D02*
X000700Y010561D01*
X000700Y010403D02*
X011254Y010403D01*
X011946Y010403D02*
X014184Y010403D01*
X014152Y010434D02*
X014234Y010352D01*
X014342Y010308D01*
X014458Y010308D01*
X014566Y010352D01*
X014648Y010434D01*
X014692Y010542D01*
X014692Y010658D01*
X014648Y010766D01*
X014566Y010848D01*
X014492Y010878D01*
X014548Y010934D01*
X014592Y011042D01*
X014592Y011158D01*
X014548Y011266D01*
X014466Y011348D01*
X014358Y011392D01*
X014242Y011392D01*
X014134Y011348D01*
X014052Y011266D01*
X014008Y011158D01*
X014008Y011042D01*
X014052Y010934D01*
X014134Y010852D01*
X014208Y010822D01*
X014152Y010766D01*
X014108Y010658D01*
X014108Y010542D01*
X014152Y010434D01*
X014108Y010561D02*
X012035Y010561D01*
X012055Y010720D02*
X014133Y010720D01*
X014108Y010878D02*
X012019Y010878D01*
X011907Y011037D02*
X014010Y011037D01*
X014023Y011195D02*
X010347Y011195D01*
X010461Y011354D02*
X014148Y011354D01*
X014452Y011354D02*
X024645Y011354D01*
X024515Y011195D02*
X014577Y011195D01*
X014590Y011037D02*
X024470Y011037D01*
X024485Y010878D02*
X014493Y010878D01*
X014667Y010720D02*
X021876Y010720D01*
X021814Y010658D02*
X021745Y010490D01*
X021745Y010310D01*
X021814Y010142D01*
X021942Y010014D01*
X022110Y009945D01*
X022290Y009945D01*
X022458Y010014D01*
X022586Y010142D01*
X022655Y010310D01*
X022655Y010490D01*
X022586Y010658D01*
X022458Y010786D01*
X022290Y010855D01*
X022110Y010855D01*
X021942Y010786D01*
X021814Y010658D01*
X021774Y010561D02*
X014692Y010561D01*
X014616Y010403D02*
X014989Y010403D01*
X014952Y010366D02*
X014908Y010258D01*
X014908Y010142D01*
X014952Y010034D01*
X015034Y009952D01*
X015142Y009908D01*
X015258Y009908D01*
X015366Y009952D01*
X015448Y010034D01*
X015492Y010142D01*
X015492Y010258D01*
X015448Y010366D01*
X015366Y010448D01*
X015258Y010492D01*
X015142Y010492D01*
X015034Y010448D01*
X014952Y010366D01*
X014908Y010244D02*
X010289Y010244D01*
X010321Y010231D02*
X010178Y010290D01*
X010022Y010290D01*
X009879Y010231D01*
X009769Y010121D01*
X009710Y009978D01*
X009710Y009822D01*
X009769Y009679D01*
X009879Y009569D01*
X010022Y009510D01*
X010178Y009510D01*
X010321Y009569D01*
X010431Y009679D01*
X010490Y009822D01*
X010490Y009978D01*
X010431Y010121D01*
X010321Y010231D01*
X010445Y010086D02*
X014931Y010086D01*
X015095Y009927D02*
X010490Y009927D01*
X010468Y009769D02*
X024530Y009769D01*
X024470Y009927D02*
X015305Y009927D01*
X015469Y010086D02*
X021871Y010086D01*
X021772Y010244D02*
X015492Y010244D01*
X015411Y010403D02*
X021745Y010403D01*
X022524Y010720D02*
X024572Y010720D01*
X024748Y010403D02*
X022655Y010403D01*
X022626Y010561D02*
X033924Y010561D01*
X034412Y009927D02*
X034508Y009927D01*
X035534Y008548D02*
X035452Y008466D01*
X035408Y008358D01*
X035408Y008242D01*
X035452Y008134D01*
X035534Y008052D01*
X035642Y008008D01*
X035758Y008008D01*
X035866Y008052D01*
X035948Y008134D01*
X035992Y008242D01*
X035992Y008358D01*
X035948Y008466D01*
X035866Y008548D01*
X035758Y008592D01*
X035642Y008592D01*
X035534Y008548D01*
X035487Y008501D02*
X028913Y008501D01*
X028948Y008466D02*
X028866Y008548D01*
X028758Y008592D01*
X028642Y008592D01*
X028534Y008548D01*
X028452Y008466D01*
X028408Y008358D01*
X028408Y008242D01*
X028452Y008134D01*
X028534Y008052D01*
X028642Y008008D01*
X028758Y008008D01*
X028866Y008052D01*
X028948Y008134D01*
X028992Y008242D01*
X028992Y008358D01*
X028948Y008466D01*
X028992Y008342D02*
X035408Y008342D01*
X035432Y008184D02*
X028968Y008184D01*
X028800Y008025D02*
X035600Y008025D01*
X035800Y008025D02*
X043470Y008025D01*
X043490Y007867D02*
X025310Y007867D01*
X025330Y008025D02*
X028600Y008025D01*
X028432Y008184D02*
X025289Y008184D01*
X025166Y008342D02*
X028408Y008342D01*
X028487Y008501D02*
X022424Y008501D01*
X021976Y008501D02*
X017251Y008501D01*
X016749Y008501D02*
X016251Y008501D01*
X016221Y008531D02*
X016078Y008590D01*
X015922Y008590D01*
X015779Y008531D01*
X015669Y008421D01*
X015610Y008278D01*
X015610Y008122D01*
X015669Y007979D01*
X015779Y007869D01*
X015922Y007810D01*
X016078Y007810D01*
X016221Y007869D01*
X016331Y007979D01*
X016390Y008122D01*
X016390Y008278D01*
X016331Y008421D01*
X016221Y008531D01*
X016363Y008342D02*
X016637Y008342D01*
X016610Y008184D02*
X016390Y008184D01*
X016350Y008025D02*
X016650Y008025D01*
X016786Y007867D02*
X016214Y007867D01*
X015786Y007867D02*
X000700Y007867D01*
X000700Y008025D02*
X015650Y008025D01*
X015610Y008184D02*
X000700Y008184D01*
X000700Y008342D02*
X015637Y008342D01*
X015749Y008501D02*
X000700Y008501D01*
X000700Y008659D02*
X021808Y008659D01*
X021745Y008818D02*
X011861Y008818D01*
X011858Y008814D02*
X011986Y008942D01*
X012055Y009110D01*
X012055Y009290D01*
X011986Y009458D01*
X011858Y009586D01*
X011690Y009655D01*
X011510Y009655D01*
X011342Y009586D01*
X011214Y009458D01*
X011145Y009290D01*
X011145Y009110D01*
X011214Y008942D01*
X011342Y008814D01*
X011510Y008745D01*
X011690Y008745D01*
X011858Y008814D01*
X011999Y008976D02*
X021745Y008976D01*
X021805Y009135D02*
X021123Y009135D01*
X020877Y009135D02*
X012055Y009135D01*
X012054Y009293D02*
X020728Y009293D01*
X020708Y009452D02*
X011988Y009452D01*
X011799Y009610D02*
X020796Y009610D01*
X021204Y009610D02*
X024718Y009610D01*
X025082Y009610D02*
X043718Y009610D01*
X043814Y009430D02*
X043656Y009365D01*
X043535Y009244D01*
X043470Y009086D01*
X043470Y008914D01*
X043535Y008756D01*
X043656Y008635D01*
X043814Y008570D01*
X043986Y008570D01*
X044144Y008635D01*
X044265Y008756D01*
X044330Y008914D01*
X044330Y009086D01*
X044265Y009244D01*
X044144Y009365D01*
X043986Y009430D01*
X043814Y009430D01*
X043585Y009293D02*
X025215Y009293D01*
X025310Y009135D02*
X029739Y009135D01*
X029752Y009166D02*
X029708Y009058D01*
X029708Y008942D01*
X029752Y008834D01*
X029834Y008752D01*
X029942Y008708D01*
X030058Y008708D01*
X030166Y008752D01*
X030248Y008834D01*
X030292Y008942D01*
X030292Y009058D01*
X030248Y009166D01*
X030166Y009248D01*
X030058Y009292D01*
X029942Y009292D01*
X029834Y009248D01*
X029752Y009166D01*
X029708Y008976D02*
X025330Y008976D01*
X025290Y008818D02*
X029769Y008818D01*
X030231Y008818D02*
X036669Y008818D01*
X036652Y008834D02*
X036734Y008752D01*
X036842Y008708D01*
X036958Y008708D01*
X037066Y008752D01*
X037148Y008834D01*
X037192Y008942D01*
X037192Y009058D01*
X037148Y009166D01*
X037066Y009248D01*
X036958Y009292D01*
X036842Y009292D01*
X036734Y009248D01*
X036652Y009166D01*
X036608Y009058D01*
X036608Y008942D01*
X036652Y008834D01*
X036608Y008976D02*
X030292Y008976D01*
X030261Y009135D02*
X036639Y009135D01*
X037161Y009135D02*
X043490Y009135D01*
X043470Y008976D02*
X037192Y008976D01*
X037131Y008818D02*
X043510Y008818D01*
X043633Y008659D02*
X025167Y008659D01*
X025269Y007233D02*
X025808Y007233D01*
X025836Y007074D02*
X025330Y007074D01*
X024535Y006757D02*
X000700Y006757D01*
X000700Y008818D02*
X011339Y008818D01*
X011201Y008976D02*
X000700Y008976D01*
X000700Y009135D02*
X011145Y009135D01*
X011146Y009293D02*
X000700Y009293D01*
X000700Y009452D02*
X011212Y009452D01*
X011401Y009610D02*
X010362Y009610D01*
X009838Y009610D02*
X009362Y009610D01*
X009321Y009569D02*
X009431Y009679D01*
X009490Y009822D01*
X009490Y009978D01*
X009431Y010121D01*
X009321Y010231D01*
X009178Y010290D01*
X009022Y010290D01*
X008879Y010231D01*
X008769Y010121D01*
X008710Y009978D01*
X008710Y009822D01*
X008769Y009679D01*
X008879Y009569D01*
X009022Y009510D01*
X009178Y009510D01*
X009321Y009569D01*
X009468Y009769D02*
X009732Y009769D01*
X009710Y009927D02*
X009490Y009927D01*
X009445Y010086D02*
X009755Y010086D01*
X009911Y010244D02*
X009289Y010244D01*
X008911Y010244D02*
X007589Y010244D01*
X007621Y010231D02*
X007478Y010290D01*
X007322Y010290D01*
X007179Y010231D01*
X007069Y010121D01*
X007010Y009978D01*
X007010Y009822D01*
X007069Y009679D01*
X007179Y009569D01*
X007322Y009510D01*
X007478Y009510D01*
X007621Y009569D01*
X007731Y009679D01*
X007790Y009822D01*
X007790Y009978D01*
X007731Y010121D01*
X007621Y010231D01*
X007745Y010086D02*
X008755Y010086D01*
X008710Y009927D02*
X007790Y009927D01*
X007768Y009769D02*
X008732Y009769D01*
X008838Y009610D02*
X007662Y009610D01*
X007138Y009610D02*
X006662Y009610D01*
X006621Y009569D02*
X006731Y009679D01*
X006790Y009822D01*
X006790Y009978D01*
X006731Y010121D01*
X006621Y010231D01*
X006478Y010290D01*
X006322Y010290D01*
X006179Y010231D01*
X006069Y010121D01*
X006010Y009978D01*
X006010Y009822D01*
X006069Y009679D01*
X006179Y009569D01*
X006322Y009510D01*
X006478Y009510D01*
X006621Y009569D01*
X006768Y009769D02*
X007032Y009769D01*
X007010Y009927D02*
X006790Y009927D01*
X006745Y010086D02*
X007055Y010086D01*
X007211Y010244D02*
X006589Y010244D01*
X006211Y010244D02*
X000700Y010244D01*
X000700Y010086D02*
X006055Y010086D01*
X006010Y009927D02*
X000700Y009927D01*
X000700Y009769D02*
X006032Y009769D01*
X006138Y009610D02*
X000700Y009610D01*
X000700Y011354D02*
X008739Y011354D01*
X008710Y011512D02*
X000700Y011512D01*
X000700Y011671D02*
X008748Y011671D01*
X008877Y011829D02*
X007576Y011829D01*
X007632Y011852D02*
X007748Y011968D01*
X007810Y012118D01*
X007810Y012282D01*
X007748Y012432D01*
X007632Y012548D01*
X007482Y012610D01*
X007318Y012610D01*
X007168Y012548D01*
X007052Y012432D01*
X006990Y012282D01*
X006990Y012118D01*
X007052Y011968D01*
X007168Y011852D01*
X007318Y011790D01*
X007482Y011790D01*
X007632Y011852D01*
X007756Y011988D02*
X011196Y011988D01*
X011328Y011829D02*
X010323Y011829D01*
X009635Y012146D02*
X007810Y012146D01*
X007800Y012305D02*
X009459Y012305D01*
X009410Y012463D02*
X007717Y012463D01*
X007083Y012463D02*
X006717Y012463D01*
X006748Y012432D02*
X006632Y012548D01*
X006482Y012610D01*
X006318Y012610D01*
X006168Y012548D01*
X006052Y012432D01*
X005990Y012282D01*
X005990Y012118D01*
X006052Y011968D01*
X006168Y011852D01*
X006318Y011790D01*
X006482Y011790D01*
X006632Y011852D01*
X006748Y011968D01*
X006810Y012118D01*
X006810Y012282D01*
X006748Y012432D01*
X006800Y012305D02*
X007000Y012305D01*
X006990Y012146D02*
X006810Y012146D01*
X006756Y011988D02*
X007044Y011988D01*
X007224Y011829D02*
X006576Y011829D01*
X006224Y011829D02*
X000700Y011829D01*
X000700Y011988D02*
X006044Y011988D01*
X005990Y012146D02*
X000700Y012146D01*
X000700Y012305D02*
X006000Y012305D01*
X006083Y012463D02*
X000700Y012463D01*
X000700Y012622D02*
X009428Y012622D01*
X009528Y012780D02*
X000700Y012780D01*
X000700Y012939D02*
X033888Y012939D01*
X033712Y013097D02*
X022540Y013097D01*
X022586Y013142D02*
X022655Y013310D01*
X022655Y013490D01*
X022586Y013658D01*
X022458Y013786D01*
X022290Y013855D01*
X022110Y013855D01*
X021942Y013786D01*
X021814Y013658D01*
X021745Y013490D01*
X021745Y013310D01*
X021814Y013142D01*
X021942Y013014D01*
X022110Y012945D01*
X022290Y012945D01*
X022458Y013014D01*
X022586Y013142D01*
X022632Y013256D02*
X025531Y013256D01*
X025534Y013252D02*
X025642Y013208D01*
X025758Y013208D01*
X025866Y013252D01*
X025948Y013334D01*
X025992Y013442D01*
X025992Y013558D01*
X025948Y013666D01*
X025866Y013748D01*
X025758Y013792D01*
X025642Y013792D01*
X025534Y013748D01*
X025452Y013666D01*
X025408Y013558D01*
X025408Y013442D01*
X025452Y013334D01*
X025534Y013252D01*
X025419Y013414D02*
X022655Y013414D01*
X022621Y013573D02*
X024808Y013573D01*
X024814Y013570D02*
X024986Y013570D01*
X025144Y013635D01*
X025265Y013756D01*
X025330Y013914D01*
X025330Y014086D01*
X025265Y014244D01*
X025144Y014365D01*
X024986Y014430D01*
X024814Y014430D01*
X024656Y014365D01*
X024535Y014244D01*
X024470Y014086D01*
X024470Y013914D01*
X024535Y013756D01*
X024656Y013635D01*
X024814Y013570D01*
X024992Y013573D02*
X025413Y013573D01*
X025517Y013731D02*
X025239Y013731D01*
X025320Y013890D02*
X033710Y013890D01*
X033659Y014048D02*
X025330Y014048D01*
X025280Y014207D02*
X033673Y014207D01*
X033763Y014365D02*
X025142Y014365D01*
X024986Y014570D02*
X024814Y014570D01*
X024656Y014635D01*
X024535Y014756D01*
X024470Y014914D01*
X024470Y015086D01*
X024535Y015244D01*
X024656Y015365D01*
X024814Y015430D01*
X024986Y015430D01*
X025144Y015365D01*
X025265Y015244D01*
X025330Y015086D01*
X025330Y014914D01*
X025265Y014756D01*
X025144Y014635D01*
X024986Y014570D01*
X025190Y014682D02*
X033708Y014682D01*
X033659Y014841D02*
X025299Y014841D01*
X025330Y014999D02*
X033675Y014999D01*
X033768Y015158D02*
X025300Y015158D01*
X025192Y015316D02*
X033851Y015316D01*
X033705Y015475D02*
X011869Y015475D01*
X011858Y015486D02*
X011986Y015358D01*
X012055Y015190D01*
X012055Y015010D01*
X011986Y014842D01*
X011858Y014714D01*
X011690Y014645D01*
X011510Y014645D01*
X011342Y014714D01*
X011214Y014842D01*
X011145Y015010D01*
X011145Y015190D01*
X011214Y015358D01*
X011342Y015486D01*
X011510Y015555D01*
X011690Y015555D01*
X011858Y015486D01*
X012003Y015316D02*
X021873Y015316D01*
X021814Y015258D02*
X021745Y015090D01*
X021745Y014910D01*
X021814Y014742D01*
X021942Y014614D01*
X022110Y014545D01*
X022290Y014545D01*
X022458Y014614D01*
X022586Y014742D01*
X022655Y014910D01*
X022655Y015090D01*
X022586Y015258D01*
X022458Y015386D01*
X022290Y015455D01*
X022110Y015455D01*
X021942Y015386D01*
X021814Y015258D01*
X021773Y015158D02*
X012055Y015158D01*
X012050Y014999D02*
X021745Y014999D01*
X021774Y014841D02*
X011984Y014841D01*
X011779Y014682D02*
X021875Y014682D01*
X022525Y014682D02*
X023104Y014682D01*
X023134Y014652D02*
X023242Y014608D01*
X023358Y014608D01*
X023466Y014652D01*
X023548Y014734D01*
X023592Y014842D01*
X023592Y014958D01*
X023548Y015066D01*
X023466Y015148D01*
X023358Y015192D01*
X023242Y015192D01*
X023134Y015148D01*
X023052Y015066D01*
X023008Y014958D01*
X023008Y014842D01*
X023052Y014734D01*
X023134Y014652D01*
X023008Y014841D02*
X022626Y014841D01*
X022655Y014999D02*
X023024Y014999D01*
X023157Y015158D02*
X022627Y015158D01*
X022527Y015316D02*
X024608Y015316D01*
X024500Y015158D02*
X023443Y015158D01*
X023576Y014999D02*
X024470Y014999D01*
X024501Y014841D02*
X023592Y014841D01*
X023496Y014682D02*
X024610Y014682D01*
X024658Y014365D02*
X010190Y014365D01*
X010190Y014322D02*
X010131Y014179D01*
X010021Y014069D01*
X009878Y014010D01*
X009722Y014010D01*
X009579Y014069D01*
X009469Y014179D01*
X009410Y014322D01*
X009410Y014478D01*
X009469Y014621D01*
X009579Y014731D01*
X009722Y014790D01*
X009878Y014790D01*
X010021Y014731D01*
X010131Y014621D01*
X010190Y014478D01*
X010190Y014322D01*
X010142Y014207D02*
X024520Y014207D01*
X024470Y014048D02*
X011707Y014048D01*
X011690Y014055D02*
X011510Y014055D01*
X011342Y013986D01*
X011214Y013858D01*
X011145Y013690D01*
X011145Y013510D01*
X011214Y013342D01*
X011342Y013214D01*
X011510Y013145D01*
X011690Y013145D01*
X011858Y013214D01*
X011986Y013342D01*
X012055Y013510D01*
X012055Y013690D01*
X011986Y013858D01*
X011858Y013986D01*
X011690Y014055D01*
X011493Y014048D02*
X009969Y014048D01*
X009879Y013890D02*
X011246Y013890D01*
X011162Y013731D02*
X010121Y013731D01*
X010131Y013721D02*
X010021Y013831D01*
X009878Y013890D01*
X009722Y013890D01*
X009579Y013831D01*
X009469Y013721D01*
X009410Y013578D01*
X009410Y013422D01*
X009469Y013279D01*
X009579Y013169D01*
X009722Y013110D01*
X009878Y013110D01*
X010021Y013169D01*
X010131Y013279D01*
X010190Y013422D01*
X010190Y013578D01*
X010131Y013721D01*
X010190Y013573D02*
X011145Y013573D01*
X011185Y013414D02*
X010187Y013414D01*
X010107Y013256D02*
X011301Y013256D01*
X011899Y013256D02*
X021768Y013256D01*
X021745Y013414D02*
X012015Y013414D01*
X012055Y013573D02*
X021779Y013573D01*
X021888Y013731D02*
X012038Y013731D01*
X011954Y013890D02*
X024480Y013890D01*
X024561Y013731D02*
X022512Y013731D01*
X021860Y013097D02*
X000700Y013097D01*
X000700Y013256D02*
X009493Y013256D01*
X009413Y013414D02*
X000700Y013414D01*
X000700Y013573D02*
X001876Y013573D01*
X001879Y013569D02*
X002022Y013510D01*
X002178Y013510D01*
X002321Y013569D01*
X002431Y013679D01*
X002490Y013822D01*
X002490Y013978D01*
X002431Y014121D01*
X002321Y014231D01*
X002178Y014290D01*
X002022Y014290D01*
X001879Y014231D01*
X001769Y014121D01*
X001710Y013978D01*
X001710Y013822D01*
X001769Y013679D01*
X001879Y013569D01*
X001748Y013731D02*
X000700Y013731D01*
X000700Y013890D02*
X001710Y013890D01*
X001739Y014048D02*
X000700Y014048D01*
X000700Y014207D02*
X001855Y014207D01*
X001990Y014524D02*
X000700Y014524D01*
X000700Y014682D02*
X001768Y014682D01*
X001769Y014679D02*
X001879Y014569D01*
X002022Y014510D01*
X002178Y014510D01*
X002321Y014569D01*
X002431Y014679D01*
X002490Y014822D01*
X002490Y014978D01*
X002431Y015121D01*
X002321Y015231D01*
X002178Y015290D01*
X002022Y015290D01*
X001879Y015231D01*
X001769Y015121D01*
X001710Y014978D01*
X001710Y014822D01*
X001769Y014679D01*
X001710Y014841D02*
X000700Y014841D01*
X000700Y014999D02*
X001719Y014999D01*
X001806Y015158D02*
X000700Y015158D01*
X000700Y015316D02*
X003956Y015316D01*
X004018Y015290D02*
X004182Y015290D01*
X004332Y015352D01*
X004448Y015468D01*
X004510Y015618D01*
X004510Y015782D01*
X004448Y015932D01*
X004332Y016048D01*
X004182Y016110D01*
X004018Y016110D01*
X003868Y016048D01*
X003752Y015932D01*
X003690Y015782D01*
X003690Y015618D01*
X003752Y015468D01*
X003868Y015352D01*
X004018Y015290D01*
X004018Y015110D02*
X003868Y015048D01*
X003752Y014932D01*
X003690Y014782D01*
X003690Y014618D01*
X003752Y014468D01*
X003868Y014352D01*
X004018Y014290D01*
X004182Y014290D01*
X004332Y014352D01*
X004448Y014468D01*
X004510Y014618D01*
X004510Y014782D01*
X004448Y014932D01*
X004332Y015048D01*
X004182Y015110D01*
X004018Y015110D01*
X003819Y014999D02*
X002481Y014999D01*
X002490Y014841D02*
X003714Y014841D01*
X003690Y014682D02*
X002432Y014682D01*
X002210Y014524D02*
X003729Y014524D01*
X003855Y014365D02*
X000700Y014365D01*
X000700Y015475D02*
X003750Y015475D01*
X003690Y015633D02*
X000700Y015633D01*
X000700Y015792D02*
X001757Y015792D01*
X001779Y015769D02*
X001922Y015710D01*
X002078Y015710D01*
X002221Y015769D01*
X002331Y015879D01*
X002390Y016022D01*
X002390Y016178D01*
X002331Y016321D01*
X002221Y016431D01*
X002078Y016490D01*
X001922Y016490D01*
X001779Y016431D01*
X001669Y016321D01*
X001610Y016178D01*
X001610Y016022D01*
X001669Y015879D01*
X001779Y015769D01*
X001640Y015950D02*
X000700Y015950D01*
X000700Y016109D02*
X001610Y016109D01*
X001647Y016267D02*
X000700Y016267D01*
X000700Y016426D02*
X001774Y016426D01*
X001922Y016710D02*
X001779Y016769D01*
X001669Y016879D01*
X001610Y017022D01*
X001610Y017178D01*
X001669Y017321D01*
X001779Y017431D01*
X001922Y017490D01*
X002078Y017490D01*
X002221Y017431D01*
X002331Y017321D01*
X002390Y017178D01*
X002390Y017022D01*
X002331Y016879D01*
X002221Y016769D01*
X002078Y016710D01*
X001922Y016710D01*
X001844Y016743D02*
X000700Y016743D01*
X000700Y016901D02*
X001660Y016901D01*
X001610Y017060D02*
X000700Y017060D01*
X000700Y017218D02*
X001627Y017218D01*
X001725Y017377D02*
X000700Y017377D01*
X000700Y017535D02*
X005346Y017535D01*
X005369Y017479D02*
X005479Y017369D01*
X005622Y017310D01*
X005778Y017310D01*
X005921Y017369D01*
X006031Y017479D01*
X006090Y017622D01*
X006090Y017778D01*
X006031Y017921D01*
X005921Y018031D01*
X005778Y018090D01*
X005622Y018090D01*
X005479Y018031D01*
X005369Y017921D01*
X005310Y017778D01*
X005310Y017622D01*
X005369Y017479D01*
X005472Y017377D02*
X004403Y017377D01*
X004448Y017332D02*
X004332Y017448D01*
X004182Y017510D01*
X004018Y017510D01*
X003868Y017448D01*
X003752Y017332D01*
X003690Y017182D01*
X003690Y017018D01*
X003752Y016868D01*
X003868Y016752D01*
X004018Y016690D01*
X004182Y016690D01*
X004332Y016752D01*
X004448Y016868D01*
X004510Y017018D01*
X004510Y017182D01*
X004448Y017332D01*
X004495Y017218D02*
X014716Y017218D01*
X014742Y017208D02*
X014858Y017208D01*
X014966Y017252D01*
X015048Y017334D01*
X015092Y017442D01*
X015092Y017558D01*
X015048Y017666D01*
X014966Y017748D01*
X014858Y017792D01*
X014742Y017792D01*
X014634Y017748D01*
X014552Y017666D01*
X014508Y017558D01*
X014508Y017442D01*
X014552Y017334D01*
X014634Y017252D01*
X014742Y017208D01*
X014884Y017218D02*
X017312Y017218D01*
X017310Y017222D02*
X017369Y017079D01*
X017479Y016969D01*
X017622Y016910D01*
X017778Y016910D01*
X017921Y016969D01*
X018031Y017079D01*
X018090Y017222D01*
X018090Y017378D01*
X018031Y017521D01*
X017921Y017631D01*
X017778Y017690D01*
X017622Y017690D01*
X017479Y017631D01*
X017369Y017521D01*
X017310Y017378D01*
X017310Y017222D01*
X017310Y017377D02*
X015065Y017377D01*
X015092Y017535D02*
X017383Y017535D01*
X017389Y017060D02*
X007403Y017060D01*
X007432Y017048D02*
X007282Y017110D01*
X007118Y017110D01*
X006968Y017048D01*
X006852Y016932D01*
X006790Y016782D01*
X006790Y016618D01*
X006852Y016468D01*
X006968Y016352D01*
X007118Y016290D01*
X007282Y016290D01*
X007432Y016352D01*
X007548Y016468D01*
X007610Y016618D01*
X007610Y016782D01*
X007548Y016932D01*
X007432Y017048D01*
X007561Y016901D02*
X011380Y016901D01*
X011342Y016886D02*
X011214Y016758D01*
X011145Y016590D01*
X011145Y016410D01*
X011214Y016242D01*
X011342Y016114D01*
X011510Y016045D01*
X011690Y016045D01*
X011858Y016114D01*
X011986Y016242D01*
X012055Y016410D01*
X012055Y016590D01*
X011986Y016758D01*
X011858Y016886D01*
X011690Y016955D01*
X011510Y016955D01*
X011342Y016886D01*
X011208Y016743D02*
X007610Y016743D01*
X007596Y016584D02*
X011145Y016584D01*
X011145Y016426D02*
X007505Y016426D01*
X006895Y016426D02*
X005977Y016426D01*
X006031Y016479D02*
X005921Y016369D01*
X005778Y016310D01*
X005622Y016310D01*
X005479Y016369D01*
X005369Y016479D01*
X005310Y016622D01*
X005310Y016778D01*
X005369Y016921D01*
X005479Y017031D01*
X005622Y017090D01*
X005778Y017090D01*
X005921Y017031D01*
X006031Y016921D01*
X006090Y016778D01*
X006090Y016622D01*
X006031Y016479D01*
X006074Y016584D02*
X006804Y016584D01*
X006790Y016743D02*
X006090Y016743D01*
X006039Y016901D02*
X006839Y016901D01*
X006997Y017060D02*
X005851Y017060D01*
X005549Y017060D02*
X004510Y017060D01*
X004461Y016901D02*
X005361Y016901D01*
X005310Y016743D02*
X004308Y016743D01*
X003892Y016743D02*
X002156Y016743D01*
X002340Y016901D02*
X003739Y016901D01*
X003690Y017060D02*
X002390Y017060D01*
X002373Y017218D02*
X003705Y017218D01*
X003797Y017377D02*
X002275Y017377D01*
X002078Y017910D02*
X002221Y017969D01*
X002331Y018079D01*
X002390Y018222D01*
X002390Y018378D01*
X002331Y018521D01*
X002221Y018631D01*
X002078Y018690D01*
X001922Y018690D01*
X001779Y018631D01*
X001669Y018521D01*
X001610Y018378D01*
X001610Y018222D01*
X001669Y018079D01*
X001779Y017969D01*
X001922Y017910D01*
X002078Y017910D01*
X002262Y018011D02*
X003693Y018011D01*
X003690Y018018D02*
X003752Y017868D01*
X003868Y017752D01*
X004018Y017690D01*
X004182Y017690D01*
X004332Y017752D01*
X004448Y017868D01*
X004510Y018018D01*
X004510Y018182D01*
X004448Y018332D01*
X004332Y018448D01*
X004182Y018510D01*
X004018Y018510D01*
X003868Y018448D01*
X003752Y018332D01*
X003690Y018182D01*
X003690Y018018D01*
X003690Y018169D02*
X002368Y018169D01*
X002390Y018328D02*
X003750Y018328D01*
X003961Y018486D02*
X002345Y018486D01*
X002187Y018645D02*
X024647Y018645D01*
X024656Y018635D02*
X024814Y018570D01*
X024986Y018570D01*
X025144Y018635D01*
X025265Y018756D01*
X025330Y018914D01*
X025330Y019086D01*
X025265Y019244D01*
X025144Y019365D01*
X024986Y019430D01*
X024814Y019430D01*
X024656Y019365D01*
X024535Y019244D01*
X024470Y019086D01*
X024470Y018914D01*
X024535Y018756D01*
X024656Y018635D01*
X024516Y018803D02*
X000700Y018803D01*
X000700Y018645D02*
X001813Y018645D01*
X001655Y018486D02*
X000700Y018486D01*
X000700Y018328D02*
X001610Y018328D01*
X001632Y018169D02*
X000700Y018169D01*
X000700Y018011D02*
X001738Y018011D01*
X001922Y018910D02*
X001779Y018969D01*
X001669Y019079D01*
X001610Y019222D01*
X001610Y019378D01*
X001669Y019521D01*
X001779Y019631D01*
X001922Y019690D01*
X002078Y019690D01*
X002221Y019631D01*
X002331Y019521D01*
X002390Y019378D01*
X002390Y019222D01*
X002331Y019079D01*
X002221Y018969D01*
X002078Y018910D01*
X001922Y018910D01*
X001798Y018962D02*
X000700Y018962D01*
X000700Y019120D02*
X001652Y019120D01*
X001610Y019279D02*
X000700Y019279D01*
X000700Y019437D02*
X001635Y019437D01*
X001744Y019596D02*
X000700Y019596D01*
X000700Y019754D02*
X003883Y019754D01*
X003868Y019748D02*
X003752Y019632D01*
X003690Y019482D01*
X003690Y019318D01*
X003752Y019168D01*
X003868Y019052D01*
X004018Y018990D01*
X004182Y018990D01*
X004332Y019052D01*
X004448Y019168D01*
X004510Y019318D01*
X004510Y019482D01*
X004448Y019632D01*
X004332Y019748D01*
X004182Y019810D01*
X004018Y019810D01*
X003868Y019748D01*
X003737Y019596D02*
X002256Y019596D01*
X002365Y019437D02*
X003690Y019437D01*
X003707Y019279D02*
X002390Y019279D01*
X002348Y019120D02*
X003800Y019120D01*
X004400Y019120D02*
X005728Y019120D01*
X005779Y019069D02*
X005669Y019179D01*
X005610Y019322D01*
X005610Y019478D01*
X005669Y019621D01*
X005779Y019731D01*
X005922Y019790D01*
X006078Y019790D01*
X006221Y019731D01*
X006331Y019621D01*
X006390Y019478D01*
X006390Y019322D01*
X006331Y019179D01*
X006221Y019069D01*
X006078Y019010D01*
X005922Y019010D01*
X005779Y019069D01*
X005628Y019279D02*
X004493Y019279D01*
X004510Y019437D02*
X005610Y019437D01*
X005659Y019596D02*
X004463Y019596D01*
X004317Y019754D02*
X005836Y019754D01*
X006164Y019754D02*
X006836Y019754D01*
X006779Y019731D02*
X006669Y019621D01*
X006610Y019478D01*
X006610Y019322D01*
X006669Y019179D01*
X006779Y019069D01*
X006922Y019010D01*
X007078Y019010D01*
X007221Y019069D01*
X007331Y019179D01*
X007390Y019322D01*
X007390Y019478D01*
X007331Y019621D01*
X007221Y019731D01*
X007078Y019790D01*
X006922Y019790D01*
X006779Y019731D01*
X006659Y019596D02*
X006341Y019596D01*
X006390Y019437D02*
X006610Y019437D01*
X006628Y019279D02*
X006372Y019279D01*
X006272Y019120D02*
X006728Y019120D01*
X007272Y019120D02*
X007628Y019120D01*
X007679Y019069D02*
X007569Y019179D01*
X007510Y019322D01*
X007510Y019478D01*
X007569Y019621D01*
X007679Y019731D01*
X007822Y019790D01*
X007978Y019790D01*
X008121Y019731D01*
X008231Y019621D01*
X008290Y019478D01*
X008290Y019322D01*
X008231Y019179D01*
X008121Y019069D01*
X007978Y019010D01*
X007822Y019010D01*
X007679Y019069D01*
X007528Y019279D02*
X007372Y019279D01*
X007390Y019437D02*
X007510Y019437D01*
X007559Y019596D02*
X007341Y019596D01*
X007164Y019754D02*
X007736Y019754D01*
X008064Y019754D02*
X008736Y019754D01*
X008679Y019731D02*
X008569Y019621D01*
X008510Y019478D01*
X008510Y019322D01*
X008569Y019179D01*
X008679Y019069D01*
X008822Y019010D01*
X008978Y019010D01*
X009121Y019069D01*
X009231Y019179D01*
X009290Y019322D01*
X009290Y019478D01*
X009231Y019621D01*
X009121Y019731D01*
X008978Y019790D01*
X008822Y019790D01*
X008679Y019731D01*
X008559Y019596D02*
X008241Y019596D01*
X008290Y019437D02*
X008510Y019437D01*
X008528Y019279D02*
X008272Y019279D01*
X008172Y019120D02*
X008628Y019120D01*
X009172Y019120D02*
X017498Y019120D01*
X017522Y019110D02*
X017678Y019110D01*
X017821Y019169D01*
X017931Y019279D01*
X017990Y019422D01*
X017990Y019578D01*
X017931Y019721D01*
X017821Y019831D01*
X017678Y019890D01*
X017522Y019890D01*
X017379Y019831D01*
X017269Y019721D01*
X017210Y019578D01*
X017210Y019422D01*
X017269Y019279D01*
X017379Y019169D01*
X017522Y019110D01*
X017702Y019120D02*
X018498Y019120D01*
X018522Y019110D02*
X018678Y019110D01*
X018821Y019169D01*
X018931Y019279D01*
X018990Y019422D01*
X018990Y019578D01*
X018931Y019721D01*
X018821Y019831D01*
X018678Y019890D01*
X018522Y019890D01*
X018379Y019831D01*
X018269Y019721D01*
X018210Y019578D01*
X018210Y019422D01*
X018269Y019279D01*
X018379Y019169D01*
X018522Y019110D01*
X018702Y019120D02*
X021728Y019120D01*
X021779Y019069D02*
X021922Y019010D01*
X022078Y019010D01*
X022221Y019069D01*
X022331Y019179D01*
X022390Y019322D01*
X022390Y019478D01*
X022331Y019621D01*
X022221Y019731D01*
X022078Y019790D01*
X021922Y019790D01*
X021779Y019731D01*
X021669Y019621D01*
X021610Y019478D01*
X021610Y019322D01*
X021669Y019179D01*
X021779Y019069D01*
X021628Y019279D02*
X018930Y019279D01*
X018990Y019437D02*
X021610Y019437D01*
X021659Y019596D02*
X018983Y019596D01*
X018898Y019754D02*
X021836Y019754D01*
X022164Y019754D02*
X022836Y019754D01*
X022779Y019731D02*
X022669Y019621D01*
X022610Y019478D01*
X022610Y019322D01*
X022669Y019179D01*
X022779Y019069D01*
X022922Y019010D01*
X023078Y019010D01*
X023221Y019069D01*
X023331Y019179D01*
X023390Y019322D01*
X023390Y019478D01*
X023331Y019621D01*
X023221Y019731D01*
X023078Y019790D01*
X022922Y019790D01*
X022779Y019731D01*
X022659Y019596D02*
X022341Y019596D01*
X022390Y019437D02*
X022610Y019437D01*
X022628Y019279D02*
X022372Y019279D01*
X022272Y019120D02*
X022728Y019120D01*
X023272Y019120D02*
X024484Y019120D01*
X024470Y018962D02*
X002202Y018962D01*
X002078Y020010D02*
X002221Y020069D01*
X002331Y020179D01*
X002390Y020322D01*
X002390Y020478D01*
X002331Y020621D01*
X002221Y020731D01*
X002078Y020790D01*
X001922Y020790D01*
X001779Y020731D01*
X001669Y020621D01*
X001610Y020478D01*
X001610Y020322D01*
X001669Y020179D01*
X001779Y020069D01*
X001922Y020010D01*
X002078Y020010D01*
X002223Y020071D02*
X003849Y020071D01*
X003868Y020052D02*
X004018Y019990D01*
X004182Y019990D01*
X004332Y020052D01*
X004448Y020168D01*
X004510Y020318D01*
X004510Y020482D01*
X004448Y020632D01*
X004332Y020748D01*
X004182Y020810D01*
X004018Y020810D01*
X003868Y020748D01*
X003752Y020632D01*
X003690Y020482D01*
X003690Y020318D01*
X003752Y020168D01*
X003868Y020052D01*
X003727Y020230D02*
X002352Y020230D01*
X002390Y020388D02*
X003690Y020388D01*
X003717Y020547D02*
X002361Y020547D01*
X002247Y020705D02*
X003825Y020705D01*
X004375Y020705D02*
X008521Y020705D01*
X008510Y020678D02*
X008510Y020522D01*
X008569Y020379D01*
X008679Y020269D01*
X008822Y020210D01*
X008978Y020210D01*
X009121Y020269D01*
X009231Y020379D01*
X009290Y020522D01*
X009290Y020678D01*
X009231Y020821D01*
X009121Y020931D01*
X008978Y020990D01*
X008822Y020990D01*
X008679Y020931D01*
X008569Y020821D01*
X008510Y020678D01*
X008510Y020547D02*
X004483Y020547D01*
X004510Y020388D02*
X008566Y020388D01*
X008775Y020230D02*
X004473Y020230D01*
X004351Y020071D02*
X024470Y020071D01*
X024470Y020086D02*
X024470Y019914D01*
X024535Y019756D01*
X024656Y019635D01*
X024814Y019570D01*
X024986Y019570D01*
X025144Y019635D01*
X025265Y019756D01*
X025330Y019914D01*
X025330Y020086D01*
X025265Y020244D01*
X025144Y020365D01*
X024986Y020430D01*
X024814Y020430D01*
X024656Y020365D01*
X024535Y020244D01*
X024470Y020086D01*
X024530Y020230D02*
X010777Y020230D01*
X010832Y020252D02*
X010948Y020368D01*
X011010Y020518D01*
X011010Y020682D01*
X010948Y020832D01*
X010832Y020948D01*
X010682Y021010D01*
X010518Y021010D01*
X010368Y020948D01*
X010252Y020832D01*
X010190Y020682D01*
X010190Y020518D01*
X010252Y020368D01*
X010368Y020252D01*
X010518Y020190D01*
X010682Y020190D01*
X010832Y020252D01*
X010956Y020388D02*
X024713Y020388D01*
X024814Y020570D02*
X024986Y020570D01*
X025144Y020635D01*
X025265Y020756D01*
X025330Y020914D01*
X025330Y021086D01*
X025265Y021244D01*
X025144Y021365D01*
X024986Y021430D01*
X024814Y021430D01*
X024656Y021365D01*
X024535Y021244D01*
X024470Y021086D01*
X024470Y020914D01*
X024535Y020756D01*
X024656Y020635D01*
X024814Y020570D01*
X024587Y020705D02*
X016885Y020705D01*
X016832Y020652D02*
X016948Y020768D01*
X017010Y020918D01*
X017010Y021082D01*
X016948Y021232D01*
X016832Y021348D01*
X016682Y021410D01*
X016518Y021410D01*
X016368Y021348D01*
X016252Y021232D01*
X016190Y021082D01*
X016190Y020918D01*
X016252Y020768D01*
X016368Y020652D01*
X016518Y020590D01*
X016682Y020590D01*
X016832Y020652D01*
X016987Y020864D02*
X024491Y020864D01*
X024470Y021022D02*
X017010Y021022D01*
X016969Y021181D02*
X024509Y021181D01*
X024631Y021339D02*
X023291Y021339D01*
X023331Y021379D02*
X023390Y021522D01*
X023390Y021678D01*
X023331Y021821D01*
X023221Y021931D01*
X023078Y021990D01*
X022922Y021990D01*
X022779Y021931D01*
X022669Y021821D01*
X022610Y021678D01*
X022610Y021522D01*
X022669Y021379D01*
X022779Y021269D01*
X022922Y021210D01*
X023078Y021210D01*
X023221Y021269D01*
X023331Y021379D01*
X023380Y021498D02*
X043477Y021498D01*
X043470Y021514D02*
X043535Y021356D01*
X043656Y021235D01*
X043814Y021170D01*
X043986Y021170D01*
X044144Y021235D01*
X044265Y021356D01*
X044330Y021514D01*
X044330Y021686D01*
X044265Y021844D01*
X044144Y021965D01*
X043986Y022030D01*
X043814Y022030D01*
X043656Y021965D01*
X043535Y021844D01*
X043470Y021686D01*
X043470Y021514D01*
X043470Y021656D02*
X023390Y021656D01*
X023333Y021815D02*
X043523Y021815D01*
X043677Y021973D02*
X023119Y021973D01*
X022881Y021973D02*
X022119Y021973D01*
X022078Y021990D02*
X021922Y021990D01*
X021779Y021931D01*
X021669Y021821D01*
X021610Y021678D01*
X021610Y021522D01*
X021669Y021379D01*
X021779Y021269D01*
X021922Y021210D01*
X022078Y021210D01*
X022221Y021269D01*
X022331Y021379D01*
X022390Y021522D01*
X022390Y021678D01*
X022331Y021821D01*
X022221Y021931D01*
X022078Y021990D01*
X021881Y021973D02*
X017010Y021973D01*
X017010Y021918D02*
X017010Y022082D01*
X016948Y022232D01*
X016832Y022348D01*
X016682Y022410D01*
X016518Y022410D01*
X016368Y022348D01*
X016252Y022232D01*
X016190Y022082D01*
X016190Y021918D01*
X016252Y021768D01*
X016368Y021652D01*
X016518Y021590D01*
X016682Y021590D01*
X016832Y021652D01*
X016948Y021768D01*
X017010Y021918D01*
X016967Y021815D02*
X021667Y021815D01*
X021610Y021656D02*
X016836Y021656D01*
X016841Y021339D02*
X021709Y021339D01*
X021620Y021498D02*
X011001Y021498D01*
X011010Y021518D02*
X010948Y021368D01*
X010832Y021252D01*
X010682Y021190D01*
X010518Y021190D01*
X010368Y021252D01*
X010252Y021368D01*
X010190Y021518D01*
X010190Y021682D01*
X010252Y021832D01*
X010368Y021948D01*
X010518Y022010D01*
X010682Y022010D01*
X010832Y021948D01*
X010948Y021832D01*
X011010Y021682D01*
X011010Y021518D01*
X011010Y021656D02*
X016364Y021656D01*
X016233Y021815D02*
X010955Y021815D01*
X010771Y021973D02*
X016190Y021973D01*
X016211Y022132D02*
X007219Y022132D01*
X007221Y022131D02*
X007078Y022190D01*
X006922Y022190D01*
X006779Y022131D01*
X006669Y022021D01*
X006610Y021878D01*
X006610Y021722D01*
X006669Y021579D01*
X006779Y021469D01*
X006922Y021410D01*
X007078Y021410D01*
X007221Y021469D01*
X007331Y021579D01*
X007390Y021722D01*
X007390Y021878D01*
X007331Y022021D01*
X007221Y022131D01*
X007350Y021973D02*
X008781Y021973D01*
X008822Y021990D02*
X008679Y021931D01*
X008569Y021821D01*
X008510Y021678D01*
X008510Y021522D01*
X008569Y021379D01*
X008679Y021269D01*
X008822Y021210D01*
X008978Y021210D01*
X009121Y021269D01*
X009231Y021379D01*
X009290Y021522D01*
X009290Y021678D01*
X009231Y021821D01*
X009121Y021931D01*
X008978Y021990D01*
X008822Y021990D01*
X009019Y021973D02*
X010429Y021973D01*
X010245Y021815D02*
X009233Y021815D01*
X009290Y021656D02*
X010190Y021656D01*
X010199Y021498D02*
X009280Y021498D01*
X009191Y021339D02*
X010281Y021339D01*
X010919Y021339D02*
X016359Y021339D01*
X016231Y021181D02*
X002331Y021181D01*
X002331Y021179D02*
X002390Y021322D01*
X002390Y021478D01*
X002331Y021621D01*
X002221Y021731D01*
X002078Y021790D01*
X001922Y021790D01*
X001779Y021731D01*
X001669Y021621D01*
X001610Y021478D01*
X001610Y021322D01*
X001669Y021179D01*
X001779Y021069D01*
X001922Y021010D01*
X002078Y021010D01*
X002221Y021069D01*
X002331Y021179D01*
X002390Y021339D02*
X008609Y021339D01*
X008520Y021498D02*
X007249Y021498D01*
X007362Y021656D02*
X008510Y021656D01*
X008567Y021815D02*
X007390Y021815D01*
X006781Y022132D02*
X006219Y022132D01*
X006221Y022131D02*
X006078Y022190D01*
X005922Y022190D01*
X005779Y022131D01*
X005669Y022021D01*
X005610Y021878D01*
X005610Y021722D01*
X005669Y021579D01*
X005779Y021469D01*
X005922Y021410D01*
X006078Y021410D01*
X006221Y021469D01*
X006331Y021579D01*
X006390Y021722D01*
X006390Y021878D01*
X006331Y022021D01*
X006221Y022131D01*
X006350Y021973D02*
X006650Y021973D01*
X006610Y021815D02*
X006390Y021815D01*
X006362Y021656D02*
X006637Y021656D01*
X006751Y021498D02*
X006249Y021498D01*
X005751Y021498D02*
X002382Y021498D01*
X002296Y021656D02*
X005637Y021656D01*
X005610Y021815D02*
X004341Y021815D01*
X004282Y021790D02*
X004432Y021852D01*
X004548Y021968D01*
X004610Y022118D01*
X004610Y022282D01*
X004548Y022432D01*
X004432Y022548D01*
X004282Y022610D01*
X004118Y022610D01*
X003968Y022548D01*
X003852Y022432D01*
X003790Y022282D01*
X003790Y022118D01*
X003852Y021968D01*
X003968Y021852D01*
X004118Y021790D01*
X004282Y021790D01*
X004059Y021815D02*
X000700Y021815D01*
X000700Y021973D02*
X003850Y021973D01*
X003790Y022132D02*
X000700Y022132D01*
X000700Y022290D02*
X003794Y022290D01*
X003869Y022449D02*
X000700Y022449D01*
X000700Y022607D02*
X004111Y022607D01*
X004289Y022607D02*
X008516Y022607D01*
X008510Y022622D02*
X008569Y022479D01*
X008679Y022369D01*
X008822Y022310D01*
X008978Y022310D01*
X009121Y022369D01*
X009231Y022479D01*
X009290Y022622D01*
X009290Y022778D01*
X009231Y022921D01*
X009121Y023031D01*
X008978Y023090D01*
X008822Y023090D01*
X008679Y023031D01*
X008569Y022921D01*
X008510Y022778D01*
X008510Y022622D01*
X008510Y022766D02*
X000700Y022766D01*
X000700Y022924D02*
X003896Y022924D01*
X003852Y022968D02*
X003968Y022852D01*
X004118Y022790D01*
X004282Y022790D01*
X004432Y022852D01*
X004548Y022968D01*
X004610Y023118D01*
X004610Y023282D01*
X004548Y023432D01*
X004432Y023548D01*
X004282Y023610D01*
X004118Y023610D01*
X003968Y023548D01*
X003852Y023432D01*
X003790Y023282D01*
X003790Y023118D01*
X003852Y022968D01*
X003805Y023083D02*
X000700Y023083D01*
X000700Y023241D02*
X003790Y023241D01*
X003839Y023400D02*
X000700Y023400D01*
X000700Y023558D02*
X003993Y023558D01*
X004407Y023558D02*
X005590Y023558D01*
X005590Y023518D02*
X005652Y023368D01*
X005768Y023252D01*
X005918Y023190D01*
X006082Y023190D01*
X006232Y023252D01*
X006348Y023368D01*
X006410Y023518D01*
X006410Y023682D01*
X006348Y023832D01*
X006232Y023948D01*
X006082Y024010D01*
X005918Y024010D01*
X005768Y023948D01*
X005652Y023832D01*
X005590Y023682D01*
X005590Y023518D01*
X005639Y023400D02*
X004561Y023400D01*
X004610Y023241D02*
X005795Y023241D01*
X006205Y023241D02*
X006795Y023241D01*
X006768Y023252D02*
X006918Y023190D01*
X007082Y023190D01*
X007232Y023252D01*
X007348Y023368D01*
X007410Y023518D01*
X007410Y023682D01*
X007348Y023832D01*
X007232Y023948D01*
X007082Y024010D01*
X006918Y024010D01*
X006768Y023948D01*
X006652Y023832D01*
X006590Y023682D01*
X006590Y023518D01*
X006652Y023368D01*
X006768Y023252D01*
X006639Y023400D02*
X006361Y023400D01*
X006410Y023558D02*
X006590Y023558D01*
X006604Y023717D02*
X006396Y023717D01*
X006305Y023875D02*
X006695Y023875D01*
X007305Y023875D02*
X008550Y023875D01*
X008569Y023921D02*
X008510Y023778D01*
X008510Y023622D01*
X008569Y023479D01*
X008679Y023369D01*
X008822Y023310D01*
X008978Y023310D01*
X009121Y023369D01*
X009231Y023479D01*
X009290Y023622D01*
X009290Y023778D01*
X009231Y023921D01*
X009121Y024031D01*
X008978Y024090D01*
X008822Y024090D01*
X008679Y024031D01*
X008569Y023921D01*
X008686Y024034D02*
X003231Y024034D01*
X003242Y024038D02*
X003085Y023973D01*
X002915Y023973D01*
X002758Y024038D01*
X002638Y024158D01*
X002573Y024315D01*
X002573Y024485D01*
X002638Y024642D01*
X002758Y024762D01*
X002915Y024827D01*
X003085Y024827D01*
X003242Y024762D01*
X003362Y024642D01*
X003427Y024485D01*
X003427Y024315D01*
X003362Y024158D01*
X003242Y024038D01*
X003376Y024192D02*
X043761Y024192D01*
X043814Y024170D02*
X043986Y024170D01*
X044144Y024235D01*
X044265Y024356D01*
X044330Y024514D01*
X044330Y024686D01*
X044265Y024844D01*
X044144Y024965D01*
X043986Y025030D01*
X043814Y025030D01*
X043656Y024965D01*
X043535Y024844D01*
X043470Y024686D01*
X043470Y024514D01*
X043535Y024356D01*
X043656Y024235D01*
X043814Y024170D01*
X043814Y024030D02*
X043656Y023965D01*
X043535Y023844D01*
X043470Y023686D01*
X043470Y023514D01*
X043535Y023356D01*
X043656Y023235D01*
X043814Y023170D01*
X043986Y023170D01*
X044144Y023235D01*
X044265Y023356D01*
X044330Y023514D01*
X044330Y023686D01*
X044265Y023844D01*
X044144Y023965D01*
X043986Y024030D01*
X043814Y024030D01*
X044039Y024192D02*
X045600Y024192D01*
X045600Y024034D02*
X010846Y024034D01*
X010832Y024048D02*
X010682Y024110D01*
X010518Y024110D01*
X010368Y024048D01*
X010252Y023932D01*
X010190Y023782D01*
X010190Y023618D01*
X010252Y023468D01*
X010368Y023352D01*
X010518Y023290D01*
X010682Y023290D01*
X010832Y023352D01*
X010948Y023468D01*
X011010Y023618D01*
X011010Y023782D01*
X010948Y023932D01*
X010832Y024048D01*
X010971Y023875D02*
X043567Y023875D01*
X043483Y023717D02*
X011010Y023717D01*
X010985Y023558D02*
X043470Y023558D01*
X043518Y023400D02*
X010879Y023400D01*
X010748Y023083D02*
X012653Y023083D01*
X012669Y023121D02*
X012610Y022978D01*
X012610Y022822D01*
X012669Y022679D01*
X012779Y022569D01*
X012922Y022510D01*
X013078Y022510D01*
X013221Y022569D01*
X013331Y022679D01*
X013390Y022822D01*
X013390Y022978D01*
X013331Y023121D01*
X013221Y023231D01*
X013078Y023290D01*
X012922Y023290D01*
X012779Y023231D01*
X012669Y023121D01*
X012804Y023241D02*
X007205Y023241D01*
X007361Y023400D02*
X008649Y023400D01*
X008537Y023558D02*
X007410Y023558D01*
X007396Y023717D02*
X008510Y023717D01*
X009114Y024034D02*
X010354Y024034D01*
X010229Y023875D02*
X009250Y023875D01*
X009290Y023717D02*
X010190Y023717D01*
X010215Y023558D02*
X009263Y023558D01*
X009151Y023400D02*
X010321Y023400D01*
X010452Y023083D02*
X008996Y023083D01*
X008804Y023083D02*
X004595Y023083D01*
X004504Y022924D02*
X008572Y022924D01*
X008600Y022449D02*
X004531Y022449D01*
X004606Y022290D02*
X010518Y022290D01*
X010682Y022290D01*
X016310Y022290D01*
X016890Y022290D02*
X043602Y022290D01*
X043656Y022235D02*
X043814Y022170D01*
X043986Y022170D01*
X044144Y022235D01*
X044265Y022356D01*
X044330Y022514D01*
X044330Y022686D01*
X044265Y022844D01*
X044144Y022965D01*
X043986Y023030D01*
X043814Y023030D01*
X043656Y022965D01*
X043535Y022844D01*
X043470Y022686D01*
X043470Y022514D01*
X043535Y022356D01*
X043656Y022235D01*
X043497Y022449D02*
X010928Y022449D01*
X010948Y022468D02*
X011010Y022618D01*
X011010Y022782D01*
X010948Y022932D01*
X010832Y023048D01*
X010682Y023110D01*
X010518Y023110D01*
X010368Y023048D01*
X010252Y022932D01*
X010190Y022782D01*
X010190Y022618D01*
X010252Y022468D01*
X010368Y022352D01*
X010518Y022290D01*
X010682Y022290D02*
X010832Y022352D01*
X010948Y022468D01*
X011005Y022607D02*
X012741Y022607D01*
X012634Y022766D02*
X011010Y022766D01*
X010951Y022924D02*
X012610Y022924D01*
X013196Y023241D02*
X013804Y023241D01*
X013779Y023231D02*
X013669Y023121D01*
X013610Y022978D01*
X013610Y022822D01*
X013669Y022679D01*
X013779Y022569D01*
X013922Y022510D01*
X014078Y022510D01*
X014221Y022569D01*
X014331Y022679D01*
X014390Y022822D01*
X014390Y022978D01*
X014331Y023121D01*
X014221Y023231D01*
X014078Y023290D01*
X013922Y023290D01*
X013779Y023231D01*
X013653Y023083D02*
X013347Y023083D01*
X013390Y022924D02*
X013610Y022924D01*
X013634Y022766D02*
X013366Y022766D01*
X013259Y022607D02*
X013741Y022607D01*
X014259Y022607D02*
X043470Y022607D01*
X043503Y022766D02*
X021479Y022766D01*
X021466Y022752D02*
X021548Y022834D01*
X021592Y022942D01*
X021592Y023058D01*
X021548Y023166D01*
X021466Y023248D01*
X021358Y023292D01*
X021242Y023292D01*
X021134Y023248D01*
X021052Y023166D01*
X021008Y023058D01*
X021008Y022942D01*
X021052Y022834D01*
X021134Y022752D01*
X021242Y022708D01*
X021358Y022708D01*
X021466Y022752D01*
X021585Y022924D02*
X043616Y022924D01*
X043651Y023241D02*
X021473Y023241D01*
X021582Y023083D02*
X045600Y023083D01*
X045600Y023241D02*
X044149Y023241D01*
X044282Y023400D02*
X045600Y023400D01*
X045600Y023558D02*
X044330Y023558D01*
X044317Y023717D02*
X045600Y023717D01*
X045600Y023875D02*
X044233Y023875D01*
X044259Y024351D02*
X045600Y024351D01*
X045600Y024509D02*
X044328Y024509D01*
X044330Y024668D02*
X045600Y024668D01*
X045600Y024826D02*
X044272Y024826D01*
X044095Y024985D02*
X045600Y024985D01*
X045600Y025143D02*
X014310Y025143D01*
X014310Y025182D02*
X014248Y025332D01*
X014132Y025448D01*
X013982Y025510D01*
X013818Y025510D01*
X013668Y025448D01*
X013552Y025332D01*
X013490Y025182D01*
X013490Y025018D01*
X013552Y024868D01*
X013668Y024752D01*
X013818Y024690D01*
X013982Y024690D01*
X014132Y024752D01*
X014248Y024868D01*
X014310Y025018D01*
X014310Y025182D01*
X014260Y025302D02*
X043600Y025302D01*
X043470Y025356D02*
X043749Y025240D01*
X044051Y025240D01*
X044330Y025356D01*
X044544Y025570D01*
X044660Y025849D01*
X044660Y026151D01*
X044544Y026430D01*
X044330Y026644D01*
X044051Y026760D01*
X043749Y026760D01*
X043470Y026644D01*
X043256Y026430D01*
X043140Y026151D01*
X043140Y025849D01*
X043256Y025570D01*
X043470Y025356D01*
X043365Y025460D02*
X015712Y025460D01*
X015731Y025479D02*
X015790Y025622D01*
X015790Y025778D01*
X015731Y025921D01*
X015621Y026031D01*
X015478Y026090D01*
X015322Y026090D01*
X015179Y026031D01*
X015069Y025921D01*
X015010Y025778D01*
X015010Y025622D01*
X015069Y025479D01*
X015179Y025369D01*
X015322Y025310D01*
X015478Y025310D01*
X015621Y025369D01*
X015731Y025479D01*
X015788Y025619D02*
X043235Y025619D01*
X043170Y025777D02*
X025140Y025777D01*
X025051Y025740D02*
X025330Y025856D01*
X025544Y026070D01*
X025660Y026349D01*
X025660Y026651D01*
X025544Y026930D01*
X025330Y027144D01*
X025051Y027260D01*
X024749Y027260D01*
X024470Y027144D01*
X024256Y026930D01*
X024140Y026651D01*
X024140Y026349D01*
X024256Y026070D01*
X024470Y025856D01*
X024749Y025740D01*
X025051Y025740D01*
X024660Y025777D02*
X015790Y025777D01*
X015716Y025936D02*
X024390Y025936D01*
X024246Y026094D02*
X007120Y026094D01*
X007082Y026110D02*
X006918Y026110D01*
X006768Y026048D01*
X006652Y025932D01*
X006590Y025782D01*
X006590Y025618D01*
X006652Y025468D01*
X006768Y025352D01*
X006918Y025290D01*
X007082Y025290D01*
X007232Y025352D01*
X007348Y025468D01*
X007410Y025618D01*
X007410Y025782D01*
X007348Y025932D01*
X007232Y026048D01*
X007082Y026110D01*
X006880Y026094D02*
X006120Y026094D01*
X006082Y026110D02*
X005918Y026110D01*
X005768Y026048D01*
X005652Y025932D01*
X005590Y025782D01*
X005590Y025618D01*
X005652Y025468D01*
X005768Y025352D01*
X005918Y025290D01*
X006082Y025290D01*
X006232Y025352D01*
X006348Y025468D01*
X006410Y025618D01*
X006410Y025782D01*
X006348Y025932D01*
X006232Y026048D01*
X006082Y026110D01*
X005880Y026094D02*
X000700Y026094D01*
X000700Y025936D02*
X005656Y025936D01*
X005590Y025777D02*
X000700Y025777D01*
X000700Y025619D02*
X005590Y025619D01*
X005660Y025460D02*
X000700Y025460D01*
X000700Y025302D02*
X005891Y025302D01*
X006109Y025302D02*
X006891Y025302D01*
X007109Y025302D02*
X012540Y025302D01*
X012552Y025332D02*
X012490Y025182D01*
X012490Y025018D01*
X012552Y024868D01*
X012668Y024752D01*
X012818Y024690D01*
X012982Y024690D01*
X013132Y024752D01*
X013248Y024868D01*
X013310Y025018D01*
X013310Y025182D01*
X013248Y025332D01*
X013132Y025448D01*
X012982Y025510D01*
X012818Y025510D01*
X012668Y025448D01*
X012552Y025332D01*
X012698Y025460D02*
X007340Y025460D01*
X007410Y025619D02*
X015012Y025619D01*
X015010Y025777D02*
X007410Y025777D01*
X007344Y025936D02*
X015084Y025936D01*
X015088Y025460D02*
X014102Y025460D01*
X013698Y025460D02*
X013102Y025460D01*
X013260Y025302D02*
X013540Y025302D01*
X013490Y025143D02*
X013310Y025143D01*
X013296Y024985D02*
X013504Y024985D01*
X013594Y024826D02*
X013206Y024826D01*
X012594Y024826D02*
X003087Y024826D01*
X002913Y024826D02*
X002087Y024826D01*
X002085Y024827D02*
X001915Y024827D01*
X001758Y024762D01*
X001638Y024642D01*
X001573Y024485D01*
X001573Y024315D01*
X001638Y024158D01*
X001758Y024038D01*
X001915Y023973D01*
X002085Y023973D01*
X002242Y024038D01*
X002362Y024158D01*
X002427Y024315D01*
X002427Y024485D01*
X002362Y024642D01*
X002242Y024762D01*
X002085Y024827D01*
X001913Y024826D02*
X000700Y024826D01*
X000700Y024668D02*
X001664Y024668D01*
X001583Y024509D02*
X000700Y024509D01*
X000700Y024351D02*
X001573Y024351D01*
X001624Y024192D02*
X000700Y024192D01*
X000700Y024034D02*
X001769Y024034D01*
X002231Y024034D02*
X002769Y024034D01*
X002624Y024192D02*
X002376Y024192D01*
X002427Y024351D02*
X002573Y024351D01*
X002583Y024509D02*
X002417Y024509D01*
X002336Y024668D02*
X002664Y024668D01*
X003336Y024668D02*
X015010Y024668D01*
X015010Y024622D02*
X015069Y024479D01*
X015179Y024369D01*
X015322Y024310D01*
X015478Y024310D01*
X015621Y024369D01*
X015731Y024479D01*
X015790Y024622D01*
X015790Y024778D01*
X015731Y024921D01*
X015621Y025031D01*
X015478Y025090D01*
X015322Y025090D01*
X015179Y025031D01*
X015069Y024921D01*
X015010Y024778D01*
X015010Y024622D01*
X015057Y024509D02*
X003417Y024509D01*
X003427Y024351D02*
X015225Y024351D01*
X015575Y024351D02*
X043541Y024351D01*
X043472Y024509D02*
X015743Y024509D01*
X015790Y024668D02*
X043470Y024668D01*
X043528Y024826D02*
X015770Y024826D01*
X015667Y024985D02*
X043705Y024985D01*
X044200Y025302D02*
X045600Y025302D01*
X045600Y025460D02*
X044435Y025460D01*
X044565Y025619D02*
X045600Y025619D01*
X045600Y025777D02*
X044630Y025777D01*
X044660Y025936D02*
X045600Y025936D01*
X045600Y026094D02*
X044660Y026094D01*
X044618Y026253D02*
X045600Y026253D01*
X045600Y026411D02*
X044552Y026411D01*
X044405Y026570D02*
X045600Y026570D01*
X045600Y026728D02*
X044128Y026728D01*
X043672Y026728D02*
X025628Y026728D01*
X025660Y026570D02*
X043395Y026570D01*
X043248Y026411D02*
X025660Y026411D01*
X025620Y026253D02*
X043182Y026253D01*
X043140Y026094D02*
X025554Y026094D01*
X025410Y025936D02*
X043140Y025936D01*
X045600Y026887D02*
X025562Y026887D01*
X025430Y027045D02*
X045600Y027045D01*
X045600Y027204D02*
X025187Y027204D01*
X024613Y027204D02*
X018010Y027204D01*
X018010Y027282D02*
X017948Y027432D01*
X017832Y027548D01*
X017682Y027610D01*
X017518Y027610D01*
X017368Y027548D01*
X017252Y027432D01*
X017190Y027282D01*
X017190Y027118D01*
X017252Y026968D01*
X017368Y026852D01*
X017518Y026790D01*
X017682Y026790D01*
X017832Y026852D01*
X017948Y026968D01*
X018010Y027118D01*
X018010Y027282D01*
X017977Y027362D02*
X045600Y027362D01*
X045600Y027521D02*
X017859Y027521D01*
X017980Y027045D02*
X024370Y027045D01*
X024238Y026887D02*
X017866Y026887D01*
X017334Y026887D02*
X016965Y026887D01*
X016966Y026887D02*
X017011Y026948D01*
X017045Y027016D01*
X017068Y027088D01*
X017080Y027162D01*
X017080Y027190D01*
X016610Y027190D01*
X016610Y027210D01*
X016590Y027210D01*
X016590Y027680D01*
X016562Y027680D01*
X016488Y027668D01*
X016416Y027645D01*
X016348Y027611D01*
X016287Y027566D01*
X016234Y027513D01*
X016189Y027452D01*
X016155Y027384D01*
X016132Y027312D01*
X016120Y027238D01*
X016120Y027210D01*
X016590Y027210D01*
X016590Y027190D01*
X016120Y027190D01*
X016120Y027162D01*
X016132Y027088D01*
X016155Y027016D01*
X016189Y026948D01*
X016234Y026887D01*
X016287Y026834D01*
X016348Y026789D01*
X016416Y026755D01*
X016488Y026732D01*
X016562Y026720D01*
X016590Y026720D01*
X016590Y027190D01*
X016610Y027190D01*
X016610Y026720D01*
X016638Y026720D01*
X016712Y026732D01*
X016784Y026755D01*
X016852Y026789D01*
X016913Y026834D01*
X016966Y026887D01*
X017054Y027045D02*
X017220Y027045D01*
X017190Y027204D02*
X016610Y027204D01*
X016610Y027210D02*
X017080Y027210D01*
X017080Y027238D01*
X017068Y027312D01*
X017045Y027384D01*
X017011Y027452D01*
X016966Y027513D01*
X016913Y027566D01*
X016852Y027611D01*
X016784Y027645D01*
X016712Y027668D01*
X016638Y027680D01*
X016610Y027680D01*
X016610Y027210D01*
X016590Y027204D02*
X014048Y027204D01*
X014021Y027231D02*
X013878Y027290D01*
X013722Y027290D01*
X013579Y027231D01*
X013469Y027121D01*
X013410Y026978D01*
X013410Y026822D01*
X013469Y026679D01*
X013579Y026569D01*
X013722Y026510D01*
X013878Y026510D01*
X014021Y026569D01*
X014131Y026679D01*
X014190Y026822D01*
X014190Y026978D01*
X014131Y027121D01*
X014021Y027231D01*
X014162Y027045D02*
X016146Y027045D01*
X016235Y026887D02*
X014190Y026887D01*
X014151Y026728D02*
X016511Y026728D01*
X016590Y026728D02*
X016610Y026728D01*
X016689Y026728D02*
X024172Y026728D01*
X024140Y026570D02*
X014021Y026570D01*
X013579Y026570D02*
X013120Y026570D01*
X013100Y026549D02*
X013151Y026600D01*
X013193Y026659D01*
X013226Y026723D01*
X013249Y026792D01*
X013260Y026864D01*
X013260Y026900D01*
X013260Y026936D01*
X013249Y027008D01*
X013226Y027077D01*
X013193Y027141D01*
X013151Y027200D01*
X013100Y027251D01*
X013041Y027293D01*
X012977Y027326D01*
X012908Y027349D01*
X012836Y027360D01*
X012800Y027360D01*
X012800Y026900D01*
X013260Y026900D01*
X012800Y026900D01*
X012800Y026900D01*
X012800Y026900D01*
X012800Y026440D01*
X012836Y026440D01*
X012908Y026451D01*
X012977Y026474D01*
X013041Y026507D01*
X013100Y026549D01*
X013228Y026728D02*
X013449Y026728D01*
X013410Y026887D02*
X013260Y026887D01*
X013237Y027045D02*
X013438Y027045D01*
X013552Y027204D02*
X013147Y027204D01*
X012800Y027204D02*
X012800Y027204D01*
X012800Y027360D02*
X012764Y027360D01*
X012692Y027349D01*
X012623Y027326D01*
X012559Y027293D01*
X012500Y027251D01*
X012449Y027200D01*
X012407Y027141D01*
X012374Y027077D01*
X012351Y027008D01*
X012340Y026936D01*
X012340Y026900D01*
X012800Y026900D01*
X012800Y026900D01*
X012800Y026900D01*
X012800Y027360D01*
X012800Y027045D02*
X012800Y027045D01*
X012800Y026900D02*
X012340Y026900D01*
X012340Y026864D01*
X012351Y026792D01*
X012374Y026723D01*
X012407Y026659D01*
X012449Y026600D01*
X012500Y026549D01*
X012559Y026507D01*
X012623Y026474D01*
X012692Y026451D01*
X012764Y026440D01*
X012800Y026440D01*
X012800Y026900D01*
X012800Y026887D02*
X012800Y026887D01*
X012800Y026728D02*
X012800Y026728D01*
X012800Y026570D02*
X012800Y026570D01*
X012480Y026570D02*
X000700Y026570D01*
X000700Y026728D02*
X012372Y026728D01*
X012340Y026887D02*
X000700Y026887D01*
X000700Y027045D02*
X012363Y027045D01*
X012453Y027204D02*
X000700Y027204D01*
X000700Y027362D02*
X016148Y027362D01*
X016242Y027521D02*
X007199Y027521D01*
X007242Y027538D02*
X007362Y027658D01*
X007427Y027815D01*
X007427Y027985D01*
X007362Y028142D01*
X007242Y028262D01*
X007085Y028327D01*
X006915Y028327D01*
X006758Y028262D01*
X006638Y028142D01*
X006573Y027985D01*
X006573Y027815D01*
X006638Y027658D01*
X006758Y027538D01*
X006915Y027473D01*
X007085Y027473D01*
X007242Y027538D01*
X007370Y027679D02*
X016556Y027679D01*
X016590Y027679D02*
X016610Y027679D01*
X016644Y027679D02*
X045600Y027679D01*
X045600Y027838D02*
X007427Y027838D01*
X007422Y027996D02*
X045600Y027996D01*
X045600Y028155D02*
X007349Y028155D01*
X007118Y028313D02*
X045600Y028313D01*
X045600Y028472D02*
X000700Y028472D01*
X000700Y028630D02*
X015174Y028630D01*
X015222Y028610D02*
X015378Y028610D01*
X015521Y028669D01*
X015631Y028779D01*
X015690Y028922D01*
X015690Y029078D01*
X015631Y029221D01*
X015521Y029331D01*
X015378Y029390D01*
X015222Y029390D01*
X015079Y029331D01*
X014969Y029221D01*
X014910Y029078D01*
X014910Y028922D01*
X014969Y028779D01*
X015079Y028669D01*
X015222Y028610D01*
X015426Y028630D02*
X017474Y028630D01*
X017522Y028610D02*
X017678Y028610D01*
X017821Y028669D01*
X017931Y028779D01*
X017990Y028922D01*
X017990Y029078D01*
X017931Y029221D01*
X017821Y029331D01*
X017678Y029390D01*
X017522Y029390D01*
X017379Y029331D01*
X017269Y029221D01*
X017210Y029078D01*
X017210Y028922D01*
X017269Y028779D01*
X017379Y028669D01*
X017522Y028610D01*
X017726Y028630D02*
X045600Y028630D01*
X045600Y028789D02*
X017935Y028789D01*
X017990Y028947D02*
X045600Y028947D01*
X045600Y029106D02*
X017978Y029106D01*
X017887Y029264D02*
X045600Y029264D01*
X045600Y029423D02*
X014144Y029423D01*
X014149Y029408D02*
X014126Y029477D01*
X014093Y029541D01*
X014051Y029600D01*
X014000Y029651D01*
X013941Y029693D01*
X013877Y029726D01*
X013808Y029749D01*
X013736Y029760D01*
X013700Y029760D01*
X013700Y029300D01*
X014160Y029300D01*
X014160Y029336D01*
X014149Y029408D01*
X014160Y029300D02*
X013700Y029300D01*
X013700Y029300D01*
X013700Y029300D01*
X013700Y028840D01*
X013736Y028840D01*
X013808Y028851D01*
X013877Y028874D01*
X013941Y028907D01*
X014000Y028949D01*
X014051Y029000D01*
X014093Y029059D01*
X014126Y029123D01*
X014149Y029192D01*
X014160Y029264D01*
X015013Y029264D01*
X014922Y029106D02*
X014117Y029106D01*
X014160Y029264D02*
X014160Y029300D01*
X014064Y029581D02*
X045600Y029581D01*
X045600Y029740D02*
X017891Y029740D01*
X017931Y029779D02*
X017990Y029922D01*
X017990Y030078D01*
X017931Y030221D01*
X017821Y030331D01*
X017678Y030390D01*
X017522Y030390D01*
X017379Y030331D01*
X017269Y030221D01*
X017210Y030078D01*
X017210Y029922D01*
X017269Y029779D01*
X017379Y029669D01*
X017522Y029610D01*
X017678Y029610D01*
X017821Y029669D01*
X017931Y029779D01*
X017980Y029898D02*
X045600Y029898D01*
X045600Y030057D02*
X017990Y030057D01*
X017933Y030215D02*
X045600Y030215D01*
X045600Y030374D02*
X017717Y030374D01*
X017483Y030374D02*
X015417Y030374D01*
X015378Y030390D02*
X015222Y030390D01*
X015079Y030331D01*
X014969Y030221D01*
X014910Y030078D01*
X014910Y029922D01*
X014969Y029779D01*
X015079Y029669D01*
X015222Y029610D01*
X015378Y029610D01*
X015521Y029669D01*
X015631Y029779D01*
X015690Y029922D01*
X015690Y030078D01*
X015631Y030221D01*
X015521Y030331D01*
X015378Y030390D01*
X015183Y030374D02*
X000700Y030374D01*
X000700Y030532D02*
X045600Y030532D01*
X045600Y030691D02*
X000700Y030691D01*
X000700Y030849D02*
X030359Y030849D01*
X030403Y030805D02*
X030531Y030752D01*
X030669Y030752D01*
X030797Y030805D01*
X030895Y030903D01*
X030948Y031031D01*
X030948Y031169D01*
X030895Y031297D01*
X030797Y031395D01*
X030669Y031448D01*
X030531Y031448D01*
X030403Y031395D01*
X030305Y031297D01*
X030252Y031169D01*
X030252Y031031D01*
X030305Y030903D01*
X030403Y030805D01*
X030262Y031008D02*
X000700Y031008D01*
X000700Y031166D02*
X030252Y031166D01*
X030332Y031325D02*
X000700Y031325D01*
X000700Y031483D02*
X045600Y031483D01*
X045600Y031325D02*
X030868Y031325D01*
X030948Y031166D02*
X045600Y031166D01*
X045600Y031008D02*
X030938Y031008D01*
X030841Y030849D02*
X045600Y030849D01*
X045600Y031642D02*
X018727Y031642D01*
X018675Y031620D02*
X018998Y031754D01*
X019246Y032002D01*
X019380Y032325D01*
X019380Y032675D01*
X019246Y032998D01*
X018998Y033246D01*
X018675Y033380D01*
X018325Y033380D01*
X018002Y033246D01*
X017754Y032998D01*
X017620Y032675D01*
X017620Y032325D01*
X017754Y032002D01*
X018002Y031754D01*
X018325Y031620D01*
X018675Y031620D01*
X018273Y031642D02*
X009821Y031642D01*
X009848Y031668D02*
X009910Y031818D01*
X009910Y031982D01*
X009848Y032132D01*
X009732Y032248D01*
X009582Y032310D01*
X009418Y032310D01*
X009268Y032248D01*
X009152Y032132D01*
X009090Y031982D01*
X009090Y031818D01*
X009152Y031668D01*
X009268Y031552D01*
X009418Y031490D01*
X009582Y031490D01*
X009732Y031552D01*
X009848Y031668D01*
X009902Y031800D02*
X017955Y031800D01*
X017797Y031959D02*
X009910Y031959D01*
X009854Y032117D02*
X012482Y032117D01*
X012476Y032121D02*
X012540Y032075D01*
X012609Y032040D01*
X012684Y032015D01*
X012761Y032003D01*
X012782Y032003D01*
X012782Y032482D01*
X012303Y032482D01*
X012303Y032461D01*
X012315Y032384D01*
X012340Y032309D01*
X012375Y032240D01*
X012421Y032176D01*
X012476Y032121D01*
X012357Y032276D02*
X009665Y032276D01*
X009582Y032490D02*
X009732Y032552D01*
X009848Y032668D01*
X009910Y032818D01*
X009910Y032982D01*
X009848Y033132D01*
X009732Y033248D01*
X009582Y033310D01*
X009418Y033310D01*
X009268Y033248D01*
X009152Y033132D01*
X009090Y032982D01*
X009090Y032818D01*
X009152Y032668D01*
X009268Y032552D01*
X009418Y032490D01*
X009582Y032490D01*
X009772Y032593D02*
X012312Y032593D01*
X012315Y032616D02*
X012303Y032539D01*
X012303Y032518D01*
X012782Y032518D01*
X012782Y032482D01*
X012818Y032482D01*
X012818Y032518D01*
X012782Y032518D01*
X012782Y032997D01*
X012761Y032997D01*
X012684Y032985D01*
X012609Y032960D01*
X012540Y032925D01*
X012476Y032879D01*
X012421Y032824D01*
X012375Y032760D01*
X012340Y032691D01*
X012315Y032616D01*
X012370Y032751D02*
X009882Y032751D01*
X009910Y032910D02*
X012518Y032910D01*
X012782Y032910D02*
X012818Y032910D01*
X012818Y032997D02*
X012818Y032518D01*
X013297Y032518D01*
X013297Y032539D01*
X013285Y032616D01*
X013260Y032691D01*
X013225Y032760D01*
X013179Y032824D01*
X013124Y032879D01*
X013060Y032925D01*
X012991Y032960D01*
X012916Y032985D01*
X012839Y032997D01*
X012818Y032997D01*
X012818Y032751D02*
X012782Y032751D01*
X012782Y032593D02*
X012818Y032593D01*
X012818Y032482D02*
X013297Y032482D01*
X013297Y032461D01*
X013285Y032384D01*
X013260Y032309D01*
X013225Y032240D01*
X013179Y032176D01*
X013124Y032121D01*
X013060Y032075D01*
X012991Y032040D01*
X012916Y032015D01*
X012839Y032003D01*
X012818Y032003D01*
X012818Y032482D01*
X012818Y032434D02*
X012782Y032434D01*
X012782Y032276D02*
X012818Y032276D01*
X012818Y032117D02*
X012782Y032117D01*
X013118Y032117D02*
X013609Y032117D01*
X013558Y032138D02*
X013715Y032073D01*
X013885Y032073D01*
X014042Y032138D01*
X014162Y032258D01*
X014227Y032415D01*
X014227Y032585D01*
X014162Y032742D01*
X014042Y032862D01*
X013885Y032927D01*
X013715Y032927D01*
X013558Y032862D01*
X013438Y032742D01*
X013373Y032585D01*
X013373Y032415D01*
X013438Y032258D01*
X013558Y032138D01*
X013431Y032276D02*
X013243Y032276D01*
X013293Y032434D02*
X013373Y032434D01*
X013376Y032593D02*
X013288Y032593D01*
X013230Y032751D02*
X013447Y032751D01*
X013673Y032910D02*
X013082Y032910D01*
X013927Y032910D02*
X014673Y032910D01*
X014715Y032927D02*
X014558Y032862D01*
X014438Y032742D01*
X014373Y032585D01*
X014373Y032415D01*
X014438Y032258D01*
X014558Y032138D01*
X014715Y032073D01*
X014885Y032073D01*
X015042Y032138D01*
X015162Y032258D01*
X015227Y032415D01*
X015227Y032585D01*
X015162Y032742D01*
X015042Y032862D01*
X014885Y032927D01*
X014715Y032927D01*
X014927Y032910D02*
X017717Y032910D01*
X017651Y032751D02*
X015153Y032751D01*
X015224Y032593D02*
X017620Y032593D01*
X017620Y032434D02*
X015227Y032434D01*
X015169Y032276D02*
X017640Y032276D01*
X017706Y032117D02*
X014991Y032117D01*
X014609Y032117D02*
X013991Y032117D01*
X014169Y032276D02*
X014431Y032276D01*
X014373Y032434D02*
X014227Y032434D01*
X014224Y032593D02*
X014376Y032593D01*
X014447Y032751D02*
X014153Y032751D01*
X012307Y032434D02*
X000700Y032434D01*
X000700Y032276D02*
X001935Y032276D01*
X001868Y032248D02*
X001752Y032132D01*
X001690Y031982D01*
X001690Y031818D01*
X001752Y031668D01*
X001868Y031552D01*
X002018Y031490D01*
X002182Y031490D01*
X002332Y031552D01*
X002448Y031668D01*
X002510Y031818D01*
X002510Y031982D01*
X002448Y032132D01*
X002332Y032248D01*
X002182Y032310D01*
X002018Y032310D01*
X001868Y032248D01*
X001746Y032117D02*
X000700Y032117D01*
X000700Y031959D02*
X001690Y031959D01*
X001698Y031800D02*
X000700Y031800D01*
X000700Y031642D02*
X001779Y031642D01*
X002421Y031642D02*
X004746Y031642D01*
X004679Y031669D02*
X004822Y031610D01*
X004978Y031610D01*
X005121Y031669D01*
X005231Y031779D01*
X005290Y031922D01*
X005290Y032078D01*
X005231Y032221D01*
X005121Y032331D01*
X004978Y032390D01*
X004822Y032390D01*
X004679Y032331D01*
X004569Y032221D01*
X004510Y032078D01*
X004510Y031922D01*
X004569Y031779D01*
X004679Y031669D01*
X004561Y031800D02*
X002502Y031800D01*
X002510Y031959D02*
X004510Y031959D01*
X004526Y032117D02*
X002454Y032117D01*
X002265Y032276D02*
X004624Y032276D01*
X005176Y032276D02*
X006624Y032276D01*
X006679Y032331D02*
X006569Y032221D01*
X006510Y032078D01*
X006510Y031922D01*
X006569Y031779D01*
X006679Y031669D01*
X006822Y031610D01*
X006978Y031610D01*
X007121Y031669D01*
X007231Y031779D01*
X007290Y031922D01*
X007290Y032078D01*
X007231Y032221D01*
X007121Y032331D01*
X006978Y032390D01*
X006822Y032390D01*
X006679Y032331D01*
X006526Y032117D02*
X005274Y032117D01*
X005290Y031959D02*
X006510Y031959D01*
X006561Y031800D02*
X005239Y031800D01*
X005054Y031642D02*
X006746Y031642D01*
X007054Y031642D02*
X009179Y031642D01*
X009098Y031800D02*
X007239Y031800D01*
X007290Y031959D02*
X009090Y031959D01*
X009146Y032117D02*
X007274Y032117D01*
X007176Y032276D02*
X009335Y032276D01*
X009228Y032593D02*
X002372Y032593D01*
X002332Y032552D02*
X002448Y032668D01*
X002510Y032818D01*
X002510Y032982D01*
X002448Y033132D01*
X002332Y033248D01*
X002182Y033310D01*
X002018Y033310D01*
X001868Y033248D01*
X001752Y033132D01*
X001690Y032982D01*
X001690Y032818D01*
X001752Y032668D01*
X001868Y032552D01*
X002018Y032490D01*
X002182Y032490D01*
X002332Y032552D01*
X002482Y032751D02*
X009118Y032751D01*
X009090Y032910D02*
X002510Y032910D01*
X002474Y033068D02*
X009126Y033068D01*
X009247Y033227D02*
X002353Y033227D01*
X001847Y033227D02*
X000700Y033227D01*
X000700Y033385D02*
X045600Y033385D01*
X045600Y033227D02*
X032577Y033227D01*
X032563Y033241D02*
X032450Y033287D01*
X032328Y033287D01*
X032215Y033241D01*
X032129Y033154D01*
X032082Y033041D01*
X032082Y032919D01*
X032129Y032806D01*
X032215Y032720D01*
X032328Y032673D01*
X032450Y032673D01*
X032563Y032720D01*
X032649Y032806D01*
X032696Y032919D01*
X032696Y033041D01*
X032649Y033154D01*
X032563Y033241D01*
X032685Y033068D02*
X045600Y033068D01*
X045600Y032910D02*
X032692Y032910D01*
X032594Y032751D02*
X045600Y032751D01*
X045600Y032593D02*
X019380Y032593D01*
X019380Y032434D02*
X029956Y032434D01*
X029935Y032412D02*
X029876Y032270D01*
X029876Y032116D01*
X029935Y031973D01*
X030044Y031864D01*
X030186Y031805D01*
X030340Y031805D01*
X030482Y031864D01*
X030591Y031973D01*
X030650Y032116D01*
X030650Y032270D01*
X030591Y032412D01*
X030482Y032521D01*
X030340Y032580D01*
X030186Y032580D01*
X030044Y032521D01*
X029935Y032412D01*
X029878Y032276D02*
X019360Y032276D01*
X019294Y032117D02*
X029876Y032117D01*
X029949Y031959D02*
X019203Y031959D01*
X019045Y031800D02*
X045600Y031800D01*
X045600Y031959D02*
X033451Y031959D01*
X033465Y031973D02*
X033524Y032116D01*
X033524Y032270D01*
X033465Y032412D01*
X033356Y032521D01*
X033214Y032580D01*
X033060Y032580D01*
X032918Y032521D01*
X032809Y032412D01*
X032750Y032270D01*
X032750Y032116D01*
X032809Y031973D01*
X032918Y031864D01*
X033060Y031805D01*
X033214Y031805D01*
X033356Y031864D01*
X033465Y031973D01*
X033524Y032117D02*
X045600Y032117D01*
X045600Y032276D02*
X033522Y032276D01*
X033444Y032434D02*
X045600Y032434D01*
X045600Y033544D02*
X000700Y033544D01*
X000700Y033068D02*
X001726Y033068D01*
X001690Y032910D02*
X000700Y032910D01*
X000700Y032751D02*
X001718Y032751D01*
X001828Y032593D02*
X000700Y032593D01*
X000700Y030215D02*
X014967Y030215D01*
X014910Y030057D02*
X000700Y030057D01*
X000700Y029898D02*
X014920Y029898D01*
X015009Y029740D02*
X013836Y029740D01*
X013700Y029740D02*
X013700Y029740D01*
X013700Y029760D02*
X013664Y029760D01*
X013592Y029749D01*
X013523Y029726D01*
X013459Y029693D01*
X013400Y029651D01*
X013349Y029600D01*
X013307Y029541D01*
X013274Y029477D01*
X013251Y029408D01*
X013240Y029336D01*
X013240Y029300D01*
X013700Y029300D01*
X013700Y029300D01*
X013700Y029300D01*
X013700Y029760D01*
X013564Y029740D02*
X000700Y029740D01*
X000700Y029581D02*
X012430Y029581D01*
X012479Y029631D02*
X012369Y029521D01*
X012310Y029378D01*
X012310Y029222D01*
X012369Y029079D01*
X012479Y028969D01*
X012622Y028910D01*
X012778Y028910D01*
X012921Y028969D01*
X013031Y029079D01*
X013090Y029222D01*
X013090Y029378D01*
X013031Y029521D01*
X012921Y029631D01*
X012778Y029690D01*
X012622Y029690D01*
X012479Y029631D01*
X012329Y029423D02*
X000700Y029423D01*
X000700Y029264D02*
X012310Y029264D01*
X012358Y029106D02*
X000700Y029106D01*
X000700Y028947D02*
X012533Y028947D01*
X012867Y028947D02*
X013403Y028947D01*
X013400Y028949D02*
X013459Y028907D01*
X013523Y028874D01*
X013592Y028851D01*
X013664Y028840D01*
X013700Y028840D01*
X013700Y029300D01*
X013240Y029300D01*
X013240Y029264D01*
X013090Y029264D01*
X013240Y029264D02*
X013251Y029192D01*
X013274Y029123D01*
X013307Y029059D01*
X013349Y029000D01*
X013400Y028949D01*
X013283Y029106D02*
X013042Y029106D01*
X013071Y029423D02*
X013256Y029423D01*
X013336Y029581D02*
X012970Y029581D01*
X013700Y029581D02*
X013700Y029581D01*
X013700Y029423D02*
X013700Y029423D01*
X013700Y029264D02*
X013700Y029264D01*
X013700Y029106D02*
X013700Y029106D01*
X013700Y028947D02*
X013700Y028947D01*
X013997Y028947D02*
X014910Y028947D01*
X014965Y028789D02*
X000700Y028789D01*
X000700Y028313D02*
X004882Y028313D01*
X004915Y028327D02*
X004758Y028262D01*
X004638Y028142D01*
X004573Y027985D01*
X004573Y027815D01*
X004638Y027658D01*
X004758Y027538D01*
X004915Y027473D01*
X005085Y027473D01*
X005242Y027538D01*
X005362Y027658D01*
X005427Y027815D01*
X005427Y027985D01*
X005362Y028142D01*
X005242Y028262D01*
X005085Y028327D01*
X004915Y028327D01*
X005118Y028313D02*
X005882Y028313D01*
X005915Y028327D02*
X005758Y028262D01*
X005638Y028142D01*
X005573Y027985D01*
X005573Y027815D01*
X005638Y027658D01*
X005758Y027538D01*
X005915Y027473D01*
X006085Y027473D01*
X006242Y027538D01*
X006362Y027658D01*
X006427Y027815D01*
X006427Y027985D01*
X006362Y028142D01*
X006242Y028262D01*
X006085Y028327D01*
X005915Y028327D01*
X006118Y028313D02*
X006882Y028313D01*
X006651Y028155D02*
X006349Y028155D01*
X006422Y027996D02*
X006578Y027996D01*
X006573Y027838D02*
X006427Y027838D01*
X006370Y027679D02*
X006630Y027679D01*
X006801Y027521D02*
X006199Y027521D01*
X005801Y027521D02*
X005199Y027521D01*
X005370Y027679D02*
X005630Y027679D01*
X005573Y027838D02*
X005427Y027838D01*
X005422Y027996D02*
X005578Y027996D01*
X005651Y028155D02*
X005349Y028155D01*
X004651Y028155D02*
X000700Y028155D01*
X000700Y027996D02*
X004578Y027996D01*
X004573Y027838D02*
X000700Y027838D01*
X000700Y027679D02*
X004630Y027679D01*
X004801Y027521D02*
X000700Y027521D01*
X000700Y026411D02*
X024140Y026411D01*
X024180Y026253D02*
X000700Y026253D01*
X000700Y025143D02*
X012490Y025143D01*
X012504Y024985D02*
X000700Y024985D01*
X000700Y023875D02*
X005695Y023875D01*
X005604Y023717D02*
X000700Y023717D01*
X000700Y021656D02*
X001704Y021656D01*
X001618Y021498D02*
X000700Y021498D01*
X000700Y021339D02*
X001610Y021339D01*
X001669Y021181D02*
X000700Y021181D01*
X000700Y021022D02*
X001893Y021022D01*
X002107Y021022D02*
X016190Y021022D01*
X016213Y020864D02*
X010916Y020864D01*
X011000Y020705D02*
X016315Y020705D01*
X017302Y019754D02*
X009064Y019754D01*
X009241Y019596D02*
X017217Y019596D01*
X017210Y019437D02*
X009290Y019437D01*
X009272Y019279D02*
X017270Y019279D01*
X017930Y019279D02*
X018270Y019279D01*
X018210Y019437D02*
X017990Y019437D01*
X017983Y019596D02*
X018217Y019596D01*
X018302Y019754D02*
X017898Y019754D01*
X018622Y017690D02*
X018479Y017631D01*
X018369Y017521D01*
X018310Y017378D01*
X018310Y017222D01*
X018369Y017079D01*
X018479Y016969D01*
X018622Y016910D01*
X018778Y016910D01*
X018921Y016969D01*
X019031Y017079D01*
X019090Y017222D01*
X019090Y017378D01*
X019031Y017521D01*
X018921Y017631D01*
X018778Y017690D01*
X018622Y017690D01*
X018383Y017535D02*
X018017Y017535D01*
X018090Y017377D02*
X018310Y017377D01*
X018312Y017218D02*
X018088Y017218D01*
X018011Y017060D02*
X018389Y017060D01*
X019011Y017060D02*
X024403Y017060D01*
X024400Y017039D02*
X024400Y017020D01*
X024880Y017020D01*
X024880Y017500D01*
X024861Y017500D01*
X024783Y017488D01*
X024708Y017463D01*
X024638Y017428D01*
X024574Y017381D01*
X024519Y017326D01*
X024472Y017262D01*
X024437Y017192D01*
X024412Y017117D01*
X024400Y017039D01*
X024400Y016980D02*
X024400Y016961D01*
X024412Y016883D01*
X024437Y016808D01*
X024472Y016738D01*
X024519Y016674D01*
X024574Y016619D01*
X024638Y016572D01*
X024708Y016537D01*
X024783Y016512D01*
X024861Y016500D01*
X024880Y016500D01*
X024880Y016980D01*
X024920Y016980D01*
X024920Y017020D01*
X025400Y017020D01*
X025400Y017039D01*
X025388Y017117D01*
X025363Y017192D01*
X025328Y017262D01*
X025281Y017326D01*
X025226Y017381D01*
X025162Y017428D01*
X025092Y017463D01*
X025017Y017488D01*
X024939Y017500D01*
X024920Y017500D01*
X024920Y017020D01*
X024880Y017020D01*
X024880Y016980D01*
X024400Y016980D01*
X024409Y016901D02*
X022420Y016901D01*
X022458Y016886D02*
X022290Y016955D01*
X022110Y016955D01*
X021942Y016886D01*
X021814Y016758D01*
X021745Y016590D01*
X021745Y016410D01*
X021814Y016242D01*
X021942Y016114D01*
X022110Y016045D01*
X022290Y016045D01*
X022458Y016114D01*
X022586Y016242D01*
X022655Y016410D01*
X022655Y016590D01*
X022586Y016758D01*
X022458Y016886D01*
X022592Y016743D02*
X024470Y016743D01*
X024622Y016584D02*
X022655Y016584D01*
X022655Y016426D02*
X024804Y016426D01*
X024814Y016430D02*
X024656Y016365D01*
X024535Y016244D01*
X024470Y016086D01*
X024470Y015914D01*
X024535Y015756D01*
X024656Y015635D01*
X024814Y015570D01*
X024986Y015570D01*
X025144Y015635D01*
X025265Y015756D01*
X025330Y015914D01*
X025330Y016086D01*
X025265Y016244D01*
X025144Y016365D01*
X024986Y016430D01*
X024814Y016430D01*
X024920Y016500D02*
X024939Y016500D01*
X025017Y016512D01*
X025092Y016537D01*
X025162Y016572D01*
X025226Y016619D01*
X025281Y016674D01*
X025328Y016738D01*
X025363Y016808D01*
X025388Y016883D01*
X025400Y016961D01*
X025400Y016980D01*
X024920Y016980D01*
X024920Y016500D01*
X024920Y016584D02*
X024880Y016584D01*
X024880Y016743D02*
X024920Y016743D01*
X024920Y016901D02*
X024880Y016901D01*
X024880Y017060D02*
X024920Y017060D01*
X024920Y017218D02*
X024880Y017218D01*
X024880Y017377D02*
X024920Y017377D01*
X024986Y017570D02*
X024814Y017570D01*
X024656Y017635D01*
X024535Y017756D01*
X024470Y017914D01*
X024470Y018086D01*
X024535Y018244D01*
X024656Y018365D01*
X024814Y018430D01*
X024986Y018430D01*
X025144Y018365D01*
X025265Y018244D01*
X025330Y018086D01*
X025330Y017914D01*
X025265Y017756D01*
X025144Y017635D01*
X024986Y017570D01*
X025202Y017694D02*
X027730Y017694D01*
X027703Y017705D02*
X027831Y017652D01*
X027969Y017652D01*
X028097Y017705D01*
X028195Y017803D01*
X028248Y017931D01*
X028248Y018069D01*
X028195Y018197D01*
X028097Y018295D01*
X027969Y018348D01*
X027831Y018348D01*
X027703Y018295D01*
X027605Y018197D01*
X027552Y018069D01*
X027552Y017931D01*
X027605Y017803D01*
X027703Y017705D01*
X027584Y017852D02*
X025304Y017852D01*
X025330Y018011D02*
X027552Y018011D01*
X027593Y018169D02*
X025295Y018169D01*
X025181Y018328D02*
X027781Y018328D01*
X028019Y018328D02*
X033788Y018328D01*
X033821Y018486D02*
X004239Y018486D01*
X004450Y018328D02*
X024619Y018328D01*
X024505Y018169D02*
X004510Y018169D01*
X004507Y018011D02*
X005459Y018011D01*
X005341Y017852D02*
X004432Y017852D01*
X004190Y017694D02*
X005310Y017694D01*
X005928Y017377D02*
X006944Y017377D01*
X006968Y017352D02*
X007118Y017290D01*
X007282Y017290D01*
X007432Y017352D01*
X007548Y017468D01*
X007610Y017618D01*
X007610Y017782D01*
X007548Y017932D01*
X007432Y018048D01*
X007282Y018110D01*
X007118Y018110D01*
X006968Y018048D01*
X006852Y017932D01*
X006790Y017782D01*
X006790Y017618D01*
X006852Y017468D01*
X006968Y017352D01*
X006825Y017535D02*
X006054Y017535D01*
X006090Y017694D02*
X006790Y017694D01*
X006819Y017852D02*
X006059Y017852D01*
X005941Y018011D02*
X006931Y018011D01*
X007469Y018011D02*
X024470Y018011D01*
X024496Y017852D02*
X007581Y017852D01*
X007610Y017694D02*
X014580Y017694D01*
X014508Y017535D02*
X007575Y017535D01*
X007456Y017377D02*
X014535Y017377D01*
X015020Y017694D02*
X024598Y017694D01*
X024569Y017377D02*
X019090Y017377D01*
X019088Y017218D02*
X024450Y017218D01*
X025231Y017377D02*
X032835Y017377D01*
X032852Y017334D02*
X032934Y017252D01*
X033042Y017208D01*
X033158Y017208D01*
X033266Y017252D01*
X033348Y017334D01*
X033392Y017442D01*
X033392Y017558D01*
X033348Y017666D01*
X033266Y017748D01*
X033158Y017792D01*
X033042Y017792D01*
X032934Y017748D01*
X032852Y017666D01*
X032808Y017558D01*
X032808Y017442D01*
X032852Y017334D01*
X033016Y017218D02*
X025350Y017218D01*
X025397Y017060D02*
X033624Y017060D01*
X033589Y017218D02*
X033184Y017218D01*
X033365Y017377D02*
X033608Y017377D01*
X033689Y017535D02*
X033392Y017535D01*
X033320Y017694D02*
X033827Y017694D01*
X033699Y017852D02*
X028215Y017852D01*
X028248Y018011D02*
X033659Y018011D01*
X033683Y018169D02*
X028207Y018169D01*
X028070Y017694D02*
X032880Y017694D01*
X032808Y017535D02*
X019017Y017535D01*
X021745Y016584D02*
X014782Y016584D01*
X014792Y016558D02*
X014748Y016666D01*
X014666Y016748D01*
X014558Y016792D01*
X014442Y016792D01*
X014334Y016748D01*
X014252Y016666D01*
X014208Y016558D01*
X014208Y016442D01*
X014252Y016334D01*
X014334Y016252D01*
X014442Y016208D01*
X014558Y016208D01*
X014666Y016252D01*
X014748Y016334D01*
X014792Y016442D01*
X014792Y016558D01*
X014786Y016426D02*
X021745Y016426D01*
X021804Y016267D02*
X014681Y016267D01*
X014319Y016267D02*
X011996Y016267D01*
X012055Y016426D02*
X014214Y016426D01*
X014218Y016584D02*
X012055Y016584D01*
X011992Y016743D02*
X014329Y016743D01*
X014671Y016743D02*
X021808Y016743D01*
X021980Y016901D02*
X011820Y016901D01*
X011204Y016267D02*
X002353Y016267D01*
X002390Y016109D02*
X004015Y016109D01*
X004185Y016109D02*
X011357Y016109D01*
X011843Y016109D02*
X021957Y016109D01*
X022443Y016109D02*
X024480Y016109D01*
X024470Y015950D02*
X004430Y015950D01*
X004506Y015792D02*
X024521Y015792D01*
X024662Y015633D02*
X010119Y015633D01*
X010131Y015621D02*
X010021Y015731D01*
X009878Y015790D01*
X009722Y015790D01*
X009579Y015731D01*
X009469Y015621D01*
X009410Y015478D01*
X009410Y015322D01*
X009469Y015179D01*
X009579Y015069D01*
X009722Y015010D01*
X009878Y015010D01*
X010021Y015069D01*
X010131Y015179D01*
X010190Y015322D01*
X010190Y015478D01*
X010131Y015621D01*
X010190Y015475D02*
X011331Y015475D01*
X011197Y015316D02*
X010187Y015316D01*
X010109Y015158D02*
X011145Y015158D01*
X011150Y014999D02*
X004381Y014999D01*
X004486Y014841D02*
X011216Y014841D01*
X011421Y014682D02*
X010070Y014682D01*
X010171Y014524D02*
X033863Y014524D01*
X033875Y013731D02*
X025883Y013731D01*
X025987Y013573D02*
X033758Y013573D01*
X033671Y013414D02*
X025981Y013414D01*
X025869Y013256D02*
X033659Y013256D01*
X033900Y012146D02*
X025305Y012146D01*
X025330Y011988D02*
X033748Y011988D01*
X033666Y011829D02*
X025295Y011829D01*
X025179Y011671D02*
X033659Y011671D01*
X035032Y012939D02*
X043470Y012939D01*
X043470Y012914D02*
X043535Y012756D01*
X043656Y012635D01*
X043814Y012570D01*
X043986Y012570D01*
X044144Y012635D01*
X044265Y012756D01*
X044330Y012914D01*
X044330Y013086D01*
X044265Y013244D01*
X044144Y013365D01*
X043986Y013430D01*
X043814Y013430D01*
X043656Y013365D01*
X043535Y013244D01*
X043470Y013086D01*
X043470Y012914D01*
X043526Y012780D02*
X035167Y012780D01*
X035208Y013097D02*
X036689Y013097D01*
X036652Y013134D02*
X036734Y013052D01*
X036842Y013008D01*
X036958Y013008D01*
X037066Y013052D01*
X037148Y013134D01*
X037192Y013242D01*
X037192Y013358D01*
X037148Y013466D01*
X037066Y013548D01*
X036958Y013592D01*
X036842Y013592D01*
X036734Y013548D01*
X036652Y013466D01*
X036608Y013358D01*
X036608Y013242D01*
X036652Y013134D01*
X036608Y013256D02*
X035261Y013256D01*
X035249Y013414D02*
X036631Y013414D01*
X036794Y013573D02*
X035162Y013573D01*
X035045Y013731D02*
X043561Y013731D01*
X043535Y013756D02*
X043656Y013635D01*
X043814Y013570D01*
X043986Y013570D01*
X044144Y013635D01*
X044265Y013756D01*
X044330Y013914D01*
X044330Y014086D01*
X044265Y014244D01*
X044144Y014365D01*
X043986Y014430D01*
X043814Y014430D01*
X043656Y014365D01*
X043535Y014244D01*
X043470Y014086D01*
X043470Y013914D01*
X043535Y013756D01*
X043480Y013890D02*
X035210Y013890D01*
X035261Y014048D02*
X043470Y014048D01*
X043520Y014207D02*
X035247Y014207D01*
X035157Y014365D02*
X043658Y014365D01*
X044142Y014365D02*
X045600Y014365D01*
X045600Y014207D02*
X044280Y014207D01*
X044330Y014048D02*
X045600Y014048D01*
X045600Y013890D02*
X044320Y013890D01*
X044239Y013731D02*
X045600Y013731D01*
X045600Y013573D02*
X043992Y013573D01*
X044024Y013414D02*
X045600Y013414D01*
X045600Y013256D02*
X044253Y013256D01*
X044325Y013097D02*
X045600Y013097D01*
X045600Y012939D02*
X044330Y012939D01*
X044274Y012780D02*
X045600Y012780D01*
X045600Y012622D02*
X044110Y012622D01*
X043475Y013097D02*
X037111Y013097D01*
X037192Y013256D02*
X043547Y013256D01*
X043776Y013414D02*
X037169Y013414D01*
X037006Y013573D02*
X043808Y013573D01*
X045600Y014524D02*
X035057Y014524D01*
X035212Y014682D02*
X045600Y014682D01*
X045600Y014841D02*
X035261Y014841D01*
X035245Y014999D02*
X045600Y014999D01*
X045600Y015158D02*
X035152Y015158D01*
X035069Y015316D02*
X043576Y015316D01*
X043535Y015356D02*
X043656Y015235D01*
X043814Y015170D01*
X043986Y015170D01*
X044144Y015235D01*
X044265Y015356D01*
X044330Y015514D01*
X044330Y015686D01*
X044265Y015844D01*
X044144Y015965D01*
X043986Y016030D01*
X043814Y016030D01*
X043656Y015965D01*
X043535Y015844D01*
X043470Y015686D01*
X043470Y015514D01*
X043535Y015356D01*
X043487Y015475D02*
X035215Y015475D01*
X035261Y015633D02*
X043470Y015633D01*
X043514Y015792D02*
X035243Y015792D01*
X035147Y015950D02*
X043642Y015950D01*
X043814Y016170D02*
X043986Y016170D01*
X044144Y016235D01*
X044265Y016356D01*
X044330Y016514D01*
X044330Y016686D01*
X044265Y016844D01*
X044144Y016965D01*
X043986Y017030D01*
X043814Y017030D01*
X043656Y016965D01*
X043535Y016844D01*
X043470Y016686D01*
X043470Y016514D01*
X043535Y016356D01*
X043656Y016235D01*
X043814Y016170D01*
X043625Y016267D02*
X035217Y016267D01*
X035261Y016426D02*
X043507Y016426D01*
X043470Y016584D02*
X035241Y016584D01*
X035142Y016743D02*
X043494Y016743D01*
X043593Y016901D02*
X035088Y016901D01*
X035219Y017060D02*
X045600Y017060D01*
X045600Y017218D02*
X044101Y017218D01*
X044144Y017235D02*
X044265Y017356D01*
X044330Y017514D01*
X044330Y017686D01*
X044265Y017844D01*
X044144Y017965D01*
X043986Y018030D01*
X043814Y018030D01*
X043656Y017965D01*
X043535Y017844D01*
X043470Y017686D01*
X043470Y017514D01*
X043535Y017356D01*
X043656Y017235D01*
X043814Y017170D01*
X043986Y017170D01*
X044144Y017235D01*
X044273Y017377D02*
X045600Y017377D01*
X045600Y017535D02*
X044330Y017535D01*
X044327Y017694D02*
X045600Y017694D01*
X045600Y017852D02*
X044256Y017852D01*
X044033Y018011D02*
X045600Y018011D01*
X045600Y018169D02*
X035237Y018169D01*
X035261Y018011D02*
X043767Y018011D01*
X043814Y018170D02*
X043986Y018170D01*
X044144Y018235D01*
X044265Y018356D01*
X044330Y018514D01*
X044330Y018686D01*
X044265Y018844D01*
X044144Y018965D01*
X043986Y019030D01*
X043814Y019030D01*
X043656Y018965D01*
X043535Y018844D01*
X043470Y018686D01*
X043470Y018514D01*
X043535Y018356D01*
X043656Y018235D01*
X043814Y018170D01*
X043564Y018328D02*
X035132Y018328D01*
X035099Y018486D02*
X043482Y018486D01*
X043470Y018645D02*
X035223Y018645D01*
X035261Y018803D02*
X043519Y018803D01*
X043653Y018962D02*
X035235Y018962D01*
X035126Y019120D02*
X045600Y019120D01*
X045600Y018962D02*
X044147Y018962D01*
X044281Y018803D02*
X045600Y018803D01*
X045600Y018645D02*
X044330Y018645D01*
X044318Y018486D02*
X045600Y018486D01*
X045600Y018328D02*
X044236Y018328D01*
X043544Y017852D02*
X035221Y017852D01*
X035093Y017694D02*
X043473Y017694D01*
X043470Y017535D02*
X035137Y017535D01*
X035239Y017377D02*
X043527Y017377D01*
X043699Y017218D02*
X035261Y017218D01*
X035082Y016109D02*
X045600Y016109D01*
X045600Y016267D02*
X044175Y016267D01*
X044293Y016426D02*
X045600Y016426D01*
X045600Y016584D02*
X044330Y016584D01*
X044306Y016743D02*
X045600Y016743D01*
X045600Y016901D02*
X044207Y016901D01*
X044158Y015950D02*
X045600Y015950D01*
X045600Y015792D02*
X044286Y015792D01*
X044330Y015633D02*
X045600Y015633D01*
X045600Y015475D02*
X044313Y015475D01*
X044224Y015316D02*
X045600Y015316D01*
X045600Y019279D02*
X044187Y019279D01*
X044144Y019235D02*
X044265Y019356D01*
X044330Y019514D01*
X044330Y019686D01*
X044265Y019844D01*
X044144Y019965D01*
X043986Y020030D01*
X043814Y020030D01*
X043656Y019965D01*
X043535Y019844D01*
X043470Y019686D01*
X043470Y019514D01*
X043535Y019356D01*
X043656Y019235D01*
X043814Y019170D01*
X043986Y019170D01*
X044144Y019235D01*
X044298Y019437D02*
X045600Y019437D01*
X045600Y019596D02*
X044330Y019596D01*
X044302Y019754D02*
X045600Y019754D01*
X045600Y019913D02*
X044196Y019913D01*
X044129Y020230D02*
X045600Y020230D01*
X045600Y020388D02*
X044278Y020388D01*
X044265Y020356D02*
X044330Y020514D01*
X044330Y020686D01*
X044265Y020844D01*
X044144Y020965D01*
X043986Y021030D01*
X043814Y021030D01*
X043656Y020965D01*
X043535Y020844D01*
X043470Y020686D01*
X043470Y020514D01*
X043535Y020356D01*
X043656Y020235D01*
X043814Y020170D01*
X043986Y020170D01*
X044144Y020235D01*
X044265Y020356D01*
X044330Y020547D02*
X045600Y020547D01*
X045600Y020705D02*
X044322Y020705D01*
X044245Y020864D02*
X045600Y020864D01*
X045600Y021022D02*
X044005Y021022D01*
X044011Y021181D02*
X045600Y021181D01*
X045600Y021339D02*
X044247Y021339D01*
X044323Y021498D02*
X045600Y021498D01*
X045600Y021656D02*
X044330Y021656D01*
X044277Y021815D02*
X045600Y021815D01*
X045600Y021973D02*
X044123Y021973D01*
X044198Y022290D02*
X045600Y022290D01*
X045600Y022132D02*
X016989Y022132D01*
X014366Y022766D02*
X021121Y022766D01*
X021015Y022924D02*
X014390Y022924D01*
X014347Y023083D02*
X021018Y023083D01*
X021127Y023241D02*
X014196Y023241D01*
X014206Y024826D02*
X015030Y024826D01*
X015133Y024985D02*
X014296Y024985D01*
X016590Y026887D02*
X016610Y026887D01*
X016610Y027045D02*
X016590Y027045D01*
X016590Y027362D02*
X016610Y027362D01*
X016610Y027521D02*
X016590Y027521D01*
X016958Y027521D02*
X017341Y027521D01*
X017223Y027362D02*
X017052Y027362D01*
X017265Y028789D02*
X015635Y028789D01*
X015690Y028947D02*
X017210Y028947D01*
X017222Y029106D02*
X015678Y029106D01*
X015587Y029264D02*
X017313Y029264D01*
X017309Y029740D02*
X015591Y029740D01*
X015680Y029898D02*
X017220Y029898D01*
X017210Y030057D02*
X015690Y030057D01*
X015633Y030215D02*
X017267Y030215D01*
X019349Y032751D02*
X030806Y032751D01*
X030837Y032720D02*
X030950Y032673D01*
X031072Y032673D01*
X031185Y032720D01*
X031271Y032806D01*
X031318Y032919D01*
X031318Y033041D01*
X031271Y033154D01*
X031185Y033241D01*
X031072Y033287D01*
X030950Y033287D01*
X030837Y033241D01*
X030751Y033154D01*
X030704Y033041D01*
X030704Y032919D01*
X030751Y032806D01*
X030837Y032720D01*
X030708Y032910D02*
X019283Y032910D01*
X019176Y033068D02*
X030715Y033068D01*
X030823Y033227D02*
X019018Y033227D01*
X017982Y033227D02*
X009753Y033227D01*
X009874Y033068D02*
X017824Y033068D01*
X006656Y025936D02*
X006344Y025936D01*
X006410Y025777D02*
X006590Y025777D01*
X006590Y025619D02*
X006410Y025619D01*
X006340Y025460D02*
X006660Y025460D01*
X009228Y022924D02*
X010249Y022924D01*
X010190Y022766D02*
X009290Y022766D01*
X009284Y022607D02*
X010195Y022607D01*
X010272Y022449D02*
X009200Y022449D01*
X009188Y020864D02*
X010284Y020864D01*
X010200Y020705D02*
X009279Y020705D01*
X009290Y020547D02*
X010190Y020547D01*
X010244Y020388D02*
X009234Y020388D01*
X009025Y020230D02*
X010423Y020230D01*
X011010Y020547D02*
X043470Y020547D01*
X043478Y020705D02*
X025213Y020705D01*
X025309Y020864D02*
X043555Y020864D01*
X043795Y021022D02*
X025330Y021022D01*
X025291Y021181D02*
X043789Y021181D01*
X043553Y021339D02*
X025169Y021339D01*
X025087Y020388D02*
X043522Y020388D01*
X043671Y020230D02*
X032084Y020230D01*
X032066Y020248D02*
X031958Y020292D01*
X031842Y020292D01*
X031734Y020248D01*
X031652Y020166D01*
X031608Y020058D01*
X031608Y019942D01*
X031652Y019834D01*
X031734Y019752D01*
X031842Y019708D01*
X031958Y019708D01*
X032066Y019752D01*
X032148Y019834D01*
X032192Y019942D01*
X032192Y020058D01*
X032148Y020166D01*
X032066Y020248D01*
X032187Y020071D02*
X045600Y020071D01*
X043604Y019913D02*
X035121Y019913D01*
X035232Y019754D02*
X043498Y019754D01*
X043470Y019596D02*
X035261Y019596D01*
X035225Y019437D02*
X043502Y019437D01*
X043613Y019279D02*
X035104Y019279D01*
X034475Y019754D02*
X034445Y019754D01*
X034334Y019913D02*
X034586Y019913D01*
X033799Y019913D02*
X032180Y019913D01*
X032068Y019754D02*
X033688Y019754D01*
X033659Y019596D02*
X025047Y019596D01*
X025262Y019754D02*
X031732Y019754D01*
X031620Y019913D02*
X025329Y019913D01*
X025330Y020071D02*
X031613Y020071D01*
X031716Y020230D02*
X025270Y020230D01*
X024753Y019596D02*
X023341Y019596D01*
X023390Y019437D02*
X033695Y019437D01*
X033816Y019279D02*
X025230Y019279D01*
X025316Y019120D02*
X033794Y019120D01*
X033685Y018962D02*
X025330Y018962D01*
X025284Y018803D02*
X033659Y018803D01*
X033697Y018645D02*
X025153Y018645D01*
X024570Y019279D02*
X023372Y019279D01*
X023164Y019754D02*
X024538Y019754D01*
X024471Y019913D02*
X000700Y019913D01*
X000700Y020071D02*
X001777Y020071D01*
X001648Y020230D02*
X000700Y020230D01*
X000700Y020388D02*
X001610Y020388D01*
X001639Y020547D02*
X000700Y020547D01*
X000700Y020705D02*
X001753Y020705D01*
X000700Y020864D02*
X008612Y020864D01*
X005781Y022132D02*
X004610Y022132D01*
X004550Y021973D02*
X005650Y021973D01*
X003768Y017852D02*
X000700Y017852D01*
X000700Y017694D02*
X004010Y017694D01*
X005326Y016584D02*
X000700Y016584D01*
X002226Y016426D02*
X005423Y016426D01*
X004510Y015633D02*
X007281Y015633D01*
X007269Y015621D02*
X007210Y015478D01*
X007210Y015322D01*
X007269Y015179D01*
X007379Y015069D01*
X007522Y015010D01*
X007678Y015010D01*
X007821Y015069D01*
X007931Y015179D01*
X007990Y015322D01*
X007990Y015478D01*
X007931Y015621D01*
X007821Y015731D01*
X007678Y015790D01*
X007522Y015790D01*
X007379Y015731D01*
X007269Y015621D01*
X007210Y015475D02*
X004450Y015475D01*
X004244Y015316D02*
X007213Y015316D01*
X007291Y015158D02*
X002394Y015158D01*
X002243Y015792D02*
X003694Y015792D01*
X003770Y015950D02*
X002360Y015950D01*
X004510Y014682D02*
X007330Y014682D01*
X007379Y014731D02*
X007269Y014621D01*
X007210Y014478D01*
X007210Y014322D01*
X007269Y014179D01*
X007379Y014069D01*
X007522Y014010D01*
X007678Y014010D01*
X007821Y014069D01*
X007931Y014179D01*
X007990Y014322D01*
X007990Y014478D01*
X007931Y014621D01*
X007821Y014731D01*
X007678Y014790D01*
X007522Y014790D01*
X007379Y014731D01*
X007229Y014524D02*
X004471Y014524D01*
X004345Y014365D02*
X007210Y014365D01*
X007258Y014207D02*
X002345Y014207D01*
X002461Y014048D02*
X007431Y014048D01*
X007769Y014048D02*
X009631Y014048D01*
X009721Y013890D02*
X002490Y013890D01*
X002452Y013731D02*
X009479Y013731D01*
X009410Y013573D02*
X002324Y013573D01*
X007942Y014207D02*
X009458Y014207D01*
X009410Y014365D02*
X007990Y014365D01*
X007971Y014524D02*
X009429Y014524D01*
X009530Y014682D02*
X007870Y014682D01*
X007909Y015158D02*
X009491Y015158D01*
X009413Y015316D02*
X007987Y015316D01*
X007990Y015475D02*
X009410Y015475D01*
X009481Y015633D02*
X007919Y015633D01*
X012737Y005806D02*
X013063Y005806D01*
X013010Y005648D02*
X012790Y005648D01*
X012776Y005489D02*
X013024Y005489D01*
X013118Y005331D02*
X012682Y005331D01*
X013682Y005331D02*
X014949Y005331D01*
X014848Y005489D02*
X013776Y005489D01*
X013790Y005648D02*
X014832Y005648D01*
X014887Y005806D02*
X013737Y005806D01*
X015513Y005806D02*
X016887Y005806D01*
X016832Y005648D02*
X015568Y005648D01*
X015552Y005489D02*
X016848Y005489D01*
X016949Y005331D02*
X015451Y005331D01*
X017451Y005331D02*
X018818Y005331D01*
X018724Y005489D02*
X017552Y005489D01*
X017568Y005648D02*
X018710Y005648D01*
X018763Y005806D02*
X017513Y005806D01*
X019382Y005331D02*
X019818Y005331D01*
X019724Y005489D02*
X019476Y005489D01*
X019490Y005648D02*
X019710Y005648D01*
X019763Y005806D02*
X019437Y005806D01*
X020831Y004855D02*
X005589Y004855D01*
X005747Y004697D02*
X022623Y004697D01*
X022608Y004658D02*
X022608Y004542D01*
X022652Y004434D01*
X022734Y004352D01*
X022842Y004308D01*
X022958Y004308D01*
X023066Y004352D01*
X023148Y004434D01*
X023192Y004542D01*
X023192Y004658D01*
X023148Y004766D01*
X023066Y004848D01*
X022958Y004892D01*
X022842Y004892D01*
X022734Y004848D01*
X022652Y004766D01*
X022608Y004658D01*
X022609Y004538D02*
X005812Y004538D01*
X005878Y004380D02*
X022707Y004380D01*
X023093Y004380D02*
X027787Y004380D01*
X027803Y004395D02*
X027705Y004297D01*
X027652Y004169D01*
X027652Y004031D01*
X027705Y003903D01*
X027803Y003805D01*
X027931Y003752D01*
X028069Y003752D01*
X028197Y003805D01*
X028295Y003903D01*
X028348Y004031D01*
X028348Y004169D01*
X028295Y004297D01*
X028197Y004395D01*
X028069Y004448D01*
X027931Y004448D01*
X027803Y004395D01*
X027673Y004221D02*
X005880Y004221D01*
X005880Y004063D02*
X027652Y004063D01*
X027704Y003904D02*
X005830Y003904D01*
X005764Y003746D02*
X045600Y003746D01*
X045600Y003904D02*
X028296Y003904D01*
X028348Y004063D02*
X045600Y004063D01*
X045600Y004221D02*
X028327Y004221D01*
X028213Y004380D02*
X045600Y004380D01*
X045600Y004538D02*
X023191Y004538D01*
X023177Y004697D02*
X045600Y004697D01*
X045600Y004855D02*
X023049Y004855D01*
X022751Y004855D02*
X021169Y004855D01*
X021281Y005014D02*
X045600Y005014D01*
X045600Y005172D02*
X021287Y005172D01*
X022653Y005806D02*
X023080Y005806D01*
X023008Y005965D02*
X022655Y005965D01*
X022600Y006123D02*
X023034Y006123D01*
X023215Y006282D02*
X022462Y006282D01*
X018201Y002953D02*
X017799Y002953D01*
X017883Y002795D02*
X018117Y002795D01*
X018110Y002636D02*
X017890Y002636D01*
X017829Y002478D02*
X018171Y002478D01*
X017171Y002478D02*
X016129Y002478D01*
X016190Y002636D02*
X017110Y002636D01*
X017117Y002795D02*
X016183Y002795D01*
X016099Y002953D02*
X017201Y002953D01*
X015501Y002953D02*
X015099Y002953D01*
X015183Y002795D02*
X015417Y002795D01*
X015410Y002636D02*
X015190Y002636D01*
X015129Y002478D02*
X015471Y002478D01*
X005632Y003587D02*
X045600Y003587D01*
X045600Y003429D02*
X044499Y003429D01*
X044775Y003270D02*
X045600Y003270D01*
X045600Y003112D02*
X044933Y003112D01*
X045006Y002953D02*
X045600Y002953D01*
X045600Y002795D02*
X045072Y002795D01*
X045080Y002636D02*
X045600Y002636D01*
X045600Y002478D02*
X045080Y002478D01*
X045036Y002319D02*
X045600Y002319D01*
X045600Y002161D02*
X044970Y002161D01*
X044847Y002002D02*
X045600Y002002D01*
X045600Y001844D02*
X044673Y001844D01*
X043901Y003429D02*
X005437Y003429D01*
X022529Y010086D02*
X024470Y010086D01*
X024536Y010244D02*
X022628Y010244D01*
X025138Y015633D02*
X033659Y015633D01*
X033677Y015792D02*
X025279Y015792D01*
X025330Y015950D02*
X033773Y015950D01*
X033838Y016109D02*
X025320Y016109D01*
X025241Y016267D02*
X033703Y016267D01*
X033659Y016426D02*
X024996Y016426D01*
X025178Y016584D02*
X033679Y016584D01*
X033778Y016743D02*
X025330Y016743D01*
X025391Y016901D02*
X033733Y016901D01*
X024559Y016267D02*
X022596Y016267D01*
X022709Y021339D02*
X022291Y021339D01*
X022380Y021498D02*
X022620Y021498D01*
X022610Y021656D02*
X022390Y021656D01*
X022333Y021815D02*
X022667Y021815D01*
X030577Y031959D02*
X032823Y031959D01*
X032750Y032117D02*
X030650Y032117D01*
X030648Y032276D02*
X032752Y032276D01*
X032830Y032434D02*
X030570Y032434D01*
X031216Y032751D02*
X032184Y032751D01*
X032086Y032910D02*
X031314Y032910D01*
X031307Y033068D02*
X032093Y033068D01*
X032201Y033227D02*
X031199Y033227D01*
X044184Y022924D02*
X045600Y022924D01*
X045600Y022766D02*
X044297Y022766D01*
X044330Y022607D02*
X045600Y022607D01*
X045600Y022449D02*
X044303Y022449D01*
X044285Y011195D02*
X045600Y011195D01*
X045600Y011037D02*
X044330Y011037D01*
X044315Y010878D02*
X045600Y010878D01*
X045600Y010720D02*
X044228Y010720D01*
X044215Y009293D02*
X045600Y009293D01*
X045600Y009135D02*
X044310Y009135D01*
X044330Y008976D02*
X045600Y008976D01*
X045600Y008818D02*
X044290Y008818D01*
X044167Y008659D02*
X045600Y008659D01*
X045600Y008501D02*
X035913Y008501D01*
X035992Y008342D02*
X043634Y008342D01*
X043511Y008184D02*
X035968Y008184D01*
X034574Y007233D02*
X034226Y007233D01*
X034314Y007074D02*
X034486Y007074D01*
X034470Y006916D02*
X034330Y006916D01*
X034285Y006757D02*
X034515Y006757D01*
X034643Y006599D02*
X034157Y006599D01*
X034177Y006282D02*
X034623Y006282D01*
X034506Y006123D02*
X034294Y006123D01*
X034330Y005965D02*
X034470Y005965D01*
X034494Y005806D02*
X034306Y005806D01*
X034206Y005648D02*
X034594Y005648D01*
X034386Y002530D02*
X034214Y002530D01*
X034056Y002465D01*
X033935Y002344D01*
X033870Y002186D01*
X033870Y002014D01*
X033935Y001856D01*
X034056Y001735D01*
X034214Y001670D01*
X034386Y001670D01*
X034544Y001735D01*
X034665Y001856D01*
X034730Y002014D01*
X034730Y002186D01*
X034665Y002344D01*
X034544Y002465D01*
X034386Y002530D01*
X034512Y002478D02*
X035088Y002478D01*
X035056Y002465D02*
X034935Y002344D01*
X034870Y002186D01*
X034870Y002014D01*
X034935Y001856D01*
X035056Y001735D01*
X035214Y001670D01*
X035386Y001670D01*
X035544Y001735D01*
X035665Y001856D01*
X035730Y002014D01*
X035730Y002186D01*
X035665Y002344D01*
X035544Y002465D01*
X035386Y002530D01*
X035214Y002530D01*
X035056Y002465D01*
X034925Y002319D02*
X034675Y002319D01*
X034730Y002161D02*
X034870Y002161D01*
X034875Y002002D02*
X034725Y002002D01*
X034652Y001844D02*
X034948Y001844D01*
X035178Y001685D02*
X034422Y001685D01*
X034178Y001685D02*
X033422Y001685D01*
X033386Y001670D02*
X033544Y001735D01*
X033665Y001856D01*
X033730Y002014D01*
X033730Y002186D01*
X033665Y002344D01*
X033544Y002465D01*
X033386Y002530D01*
X033214Y002530D01*
X033056Y002465D01*
X032935Y002344D01*
X032870Y002186D01*
X032870Y002014D01*
X032935Y001856D01*
X033056Y001735D01*
X033214Y001670D01*
X033386Y001670D01*
X033178Y001685D02*
X032422Y001685D01*
X032386Y001670D02*
X032544Y001735D01*
X032665Y001856D01*
X032730Y002014D01*
X032730Y002186D01*
X032665Y002344D01*
X032544Y002465D01*
X032386Y002530D01*
X032214Y002530D01*
X032056Y002465D01*
X031935Y002344D01*
X031870Y002186D01*
X031870Y002014D01*
X031935Y001856D01*
X032056Y001735D01*
X032214Y001670D01*
X032386Y001670D01*
X032178Y001685D02*
X031422Y001685D01*
X031652Y001844D02*
X031948Y001844D01*
X031875Y002002D02*
X031725Y002002D01*
X031730Y002161D02*
X031870Y002161D01*
X031925Y002319D02*
X031675Y002319D01*
X031512Y002478D02*
X032088Y002478D01*
X032512Y002478D02*
X033088Y002478D01*
X032925Y002319D02*
X032675Y002319D01*
X032730Y002161D02*
X032870Y002161D01*
X032875Y002002D02*
X032725Y002002D01*
X032652Y001844D02*
X032948Y001844D01*
X033652Y001844D02*
X033948Y001844D01*
X033875Y002002D02*
X033725Y002002D01*
X033730Y002161D02*
X033870Y002161D01*
X033925Y002319D02*
X033675Y002319D01*
X033512Y002478D02*
X034088Y002478D01*
X035512Y002478D02*
X036088Y002478D01*
X036056Y002465D02*
X035935Y002344D01*
X035870Y002186D01*
X035870Y002014D01*
X035935Y001856D01*
X036056Y001735D01*
X036214Y001670D01*
X036386Y001670D01*
X036544Y001735D01*
X036665Y001856D01*
X036730Y002014D01*
X036730Y002186D01*
X036665Y002344D01*
X036544Y002465D01*
X036386Y002530D01*
X036214Y002530D01*
X036056Y002465D01*
X035925Y002319D02*
X035675Y002319D01*
X035730Y002161D02*
X035870Y002161D01*
X035875Y002002D02*
X035725Y002002D01*
X035652Y001844D02*
X035948Y001844D01*
X036178Y001685D02*
X035422Y001685D01*
X036422Y001685D02*
X037021Y001685D01*
X036870Y001844D02*
X036652Y001844D01*
X036725Y002002D02*
X036809Y002002D01*
X036803Y002161D02*
X036730Y002161D01*
X036675Y002319D02*
X036850Y002319D01*
X036970Y002478D02*
X036512Y002478D01*
X037280Y002478D02*
X037320Y002478D01*
X037320Y002319D02*
X037280Y002319D01*
X037280Y002161D02*
X037320Y002161D01*
X037320Y002002D02*
X037280Y002002D01*
X037280Y001844D02*
X037320Y001844D01*
X037320Y001685D02*
X037280Y001685D01*
X044310Y007867D02*
X045600Y007867D01*
X045600Y008025D02*
X044330Y008025D01*
X044289Y008184D02*
X045600Y008184D01*
X045600Y008342D02*
X044166Y008342D01*
M02*
