G75*
G70*
%OFA0B0*%
%FSLAX24Y24*%
%IPPOS*%
%LPD*%
%AMOC8*
5,1,8,0,0,1.08239X$1,22.5*
%
%ADD10C,0.1580*%
%ADD11OC8,0.0640*%
%ADD12R,0.2521X0.1143*%
%ADD13C,0.0680*%
%ADD14R,0.0946X0.0316*%
%ADD15R,0.0671X0.0237*%
%ADD16C,0.0730*%
%ADD17C,0.0867*%
%ADD18OC8,0.0780*%
%ADD19R,0.0474X0.0513*%
%ADD20R,0.0513X0.0474*%
%ADD21C,0.0674*%
%ADD22C,0.0714*%
%ADD23C,0.0780*%
%ADD24R,0.0640X0.0250*%
%ADD25C,0.1340*%
%ADD26C,0.0820*%
%ADD27R,0.0330X0.0580*%
%ADD28C,0.0056*%
%ADD29OC8,0.0820*%
%ADD30C,0.0635*%
%ADD31R,0.0277X0.0867*%
%ADD32C,0.0434*%
%ADD33C,0.0516*%
D10*
X005000Y004200D03*
X018500Y032500D03*
X044200Y002600D03*
D11*
X023000Y019400D03*
X022000Y019400D03*
X022000Y021600D03*
X023000Y021600D03*
X018600Y019500D03*
X017600Y019500D03*
X017700Y017300D03*
X018700Y017300D03*
X014000Y022900D03*
X013000Y022900D03*
X015400Y024700D03*
X015400Y025700D03*
X013800Y026900D03*
X012800Y026900D03*
X015300Y029000D03*
X015300Y030000D03*
X013700Y029300D03*
X012700Y029300D03*
X017600Y029000D03*
X017600Y030000D03*
X008900Y023700D03*
X008900Y022700D03*
X008900Y021600D03*
X008900Y020600D03*
X008900Y019400D03*
X007900Y019400D03*
X007000Y019400D03*
X006000Y019400D03*
X005700Y017700D03*
X005700Y016700D03*
X007600Y015400D03*
X007600Y014400D03*
X009800Y014400D03*
X009800Y015400D03*
X009800Y013500D03*
X009800Y012500D03*
X010100Y011500D03*
X009100Y011500D03*
X009100Y009900D03*
X010100Y009900D03*
X007400Y009900D03*
X006400Y009900D03*
X002100Y013900D03*
X002100Y014900D03*
X002000Y016100D03*
X002000Y017100D03*
X002000Y018300D03*
X002000Y019300D03*
X002000Y020400D03*
X002000Y021400D03*
X006000Y021800D03*
X007000Y021800D03*
X016000Y008200D03*
X017000Y008200D03*
X019100Y005600D03*
X020100Y005600D03*
X018500Y002700D03*
X017500Y002700D03*
X015800Y002700D03*
X014800Y002700D03*
X013400Y005600D03*
X012400Y005600D03*
D12*
X009300Y027270D03*
X009300Y030530D03*
X002500Y030530D03*
X002500Y027270D03*
D13*
X006000Y026000D02*
X006000Y025400D01*
X007000Y025400D02*
X007000Y026000D01*
X007000Y023900D02*
X007000Y023300D01*
X006000Y023300D02*
X006000Y023900D01*
X004500Y023200D02*
X003900Y023200D01*
X003900Y022200D02*
X004500Y022200D01*
X004400Y020400D02*
X003800Y020400D01*
X003800Y019400D02*
X004400Y019400D01*
X004400Y018100D02*
X003800Y018100D01*
X003800Y017100D02*
X004400Y017100D01*
X004400Y015700D02*
X003800Y015700D01*
X003800Y014700D02*
X004400Y014700D01*
X006400Y012500D02*
X006400Y011900D01*
X007400Y011900D02*
X007400Y012500D01*
X007500Y016700D02*
X006900Y016700D01*
X006900Y017700D02*
X007500Y017700D01*
X010300Y020600D02*
X010900Y020600D01*
X010900Y021600D02*
X010300Y021600D01*
X010300Y022700D02*
X010900Y022700D01*
X010900Y023700D02*
X010300Y023700D01*
X012900Y024800D02*
X012900Y025400D01*
X013900Y025400D02*
X013900Y024800D01*
X016600Y026900D02*
X016600Y027500D01*
X017600Y027500D02*
X017600Y026900D01*
X016900Y022000D02*
X016300Y022000D01*
X016300Y021000D02*
X016900Y021000D01*
X009800Y031900D02*
X009200Y031900D01*
X009200Y032900D02*
X009800Y032900D01*
X002400Y032900D02*
X001800Y032900D01*
X001800Y031900D02*
X002400Y031900D01*
D14*
X018476Y022550D03*
X018476Y022050D03*
X018476Y021550D03*
X018476Y021050D03*
X020524Y021050D03*
X020524Y021550D03*
X020524Y022050D03*
X020524Y022550D03*
D15*
X018127Y012952D03*
X018127Y012696D03*
X018127Y012440D03*
X018127Y012184D03*
X018127Y011928D03*
X018127Y011672D03*
X018127Y011416D03*
X018127Y011160D03*
X018127Y010904D03*
X018127Y010648D03*
X015273Y010648D03*
X015273Y010904D03*
X015273Y011160D03*
X015273Y011416D03*
X015273Y011672D03*
X015273Y011928D03*
X015273Y012184D03*
X015273Y012440D03*
X015273Y012696D03*
X015273Y012952D03*
D16*
X015200Y005600D03*
X017200Y005600D03*
D17*
X022200Y005900D03*
X022200Y007400D03*
X022200Y008900D03*
X022200Y010400D03*
X022200Y011900D03*
X022200Y013400D03*
X022200Y015000D03*
X022200Y016500D03*
X011600Y016500D03*
X011600Y015100D03*
X011600Y013600D03*
X011600Y012200D03*
X011600Y010700D03*
X011600Y009200D03*
D18*
X031300Y002100D03*
X032300Y002100D03*
X033300Y002100D03*
X034300Y002100D03*
X035300Y002100D03*
X036300Y002100D03*
X037300Y002100D03*
X038300Y002100D03*
X039300Y002100D03*
X040300Y002100D03*
D19*
X015300Y013965D03*
X015300Y014635D03*
D20*
X020165Y012200D03*
X020835Y012200D03*
X021035Y010400D03*
X020365Y010400D03*
D21*
X034066Y010156D03*
X034066Y010943D03*
X034066Y011730D03*
X034854Y011730D03*
X034854Y010943D03*
X034854Y010156D03*
X034854Y012518D03*
X034854Y013305D03*
X034066Y013305D03*
X034066Y012518D03*
X034066Y014093D03*
X034066Y014880D03*
X034066Y015667D03*
X034854Y015667D03*
X034854Y014880D03*
X034854Y014093D03*
X034854Y016455D03*
X034854Y017242D03*
X034066Y017242D03*
X034066Y016455D03*
X034066Y018030D03*
X034066Y018817D03*
X034066Y019604D03*
X034854Y019604D03*
X034854Y018817D03*
X034854Y018030D03*
D22*
X014800Y032183D02*
X014800Y032817D01*
X013800Y032817D02*
X013800Y032183D01*
X012800Y032183D02*
X012800Y032817D01*
X007000Y028217D02*
X007000Y027583D01*
X006000Y027583D02*
X006000Y028217D01*
X005000Y028217D02*
X005000Y027583D01*
X003000Y024717D02*
X003000Y024083D01*
X002000Y024083D02*
X002000Y024717D01*
D23*
X004900Y031650D02*
X004900Y032350D01*
X006900Y032350D02*
X006900Y031650D01*
D24*
X030140Y006980D03*
X030140Y006730D03*
X030140Y006470D03*
X030140Y006220D03*
X031860Y006220D03*
X031860Y006470D03*
X031860Y006730D03*
X031860Y006980D03*
D25*
X026900Y006000D03*
X037900Y006000D03*
X043900Y026000D03*
X024900Y026500D03*
D26*
X024900Y021000D03*
X024900Y020000D03*
X024900Y019000D03*
X024900Y018000D03*
X024900Y017000D03*
X024900Y016000D03*
X024900Y015000D03*
X024900Y014000D03*
X024900Y012000D03*
X024900Y011000D03*
X024900Y010000D03*
X024900Y009000D03*
X024900Y008000D03*
X024900Y007000D03*
X043900Y007000D03*
X043900Y008000D03*
X043900Y009000D03*
X043900Y010000D03*
X043900Y011000D03*
X043900Y012000D03*
X043900Y013000D03*
X043900Y014000D03*
X043900Y015600D03*
X043900Y016600D03*
X043900Y017600D03*
X043900Y018600D03*
X043900Y019600D03*
X043900Y020600D03*
X043900Y021600D03*
X043900Y022600D03*
X043900Y023600D03*
X043900Y024600D03*
D27*
X039600Y028940D03*
X039210Y028940D03*
X038810Y028940D03*
X038400Y028940D03*
D28*
X027258Y030268D02*
X027258Y030692D01*
X027482Y030692D01*
X027482Y030268D01*
X027258Y030268D01*
X027258Y030323D02*
X027482Y030323D01*
X027482Y030378D02*
X027258Y030378D01*
X027258Y030433D02*
X027482Y030433D01*
X027482Y030488D02*
X027258Y030488D01*
X027258Y030543D02*
X027482Y030543D01*
X027482Y030598D02*
X027258Y030598D01*
X027258Y030653D02*
X027482Y030653D01*
X026258Y030692D02*
X026258Y030268D01*
X026258Y030692D02*
X026482Y030692D01*
X026482Y030268D01*
X026258Y030268D01*
X026258Y030323D02*
X026482Y030323D01*
X026482Y030378D02*
X026258Y030378D01*
X026258Y030433D02*
X026482Y030433D01*
X026482Y030488D02*
X026258Y030488D01*
X026258Y030543D02*
X026482Y030543D01*
X026482Y030598D02*
X026258Y030598D01*
X026258Y030653D02*
X026482Y030653D01*
D29*
X033900Y006950D03*
X034900Y006950D03*
X035900Y006950D03*
X035900Y005950D03*
X034900Y005950D03*
X033900Y005950D03*
D30*
X033137Y031915D02*
X033137Y032470D01*
X033137Y034002D02*
X033137Y034557D01*
X030263Y034557D02*
X030263Y034002D01*
X030263Y032470D02*
X030263Y031915D01*
D31*
X031070Y032094D03*
X031385Y032094D03*
X031700Y032094D03*
X032015Y032094D03*
X032330Y032094D03*
D32*
X032389Y032980D03*
X031011Y032980D03*
D33*
X030600Y031100D03*
X032800Y031100D03*
X027900Y018000D03*
X028000Y004100D03*
M02*
