G75*
G70*
%OFA0B0*%
%FSLAX24Y24*%
%IPPOS*%
%LPD*%
%AMOC8*
5,1,8,0,0,1.08239X$1,22.5*
%
%ADD10C,0.0000*%
%ADD11C,0.0400*%
%ADD12C,0.0100*%
%ADD13C,0.0030*%
%ADD14C,0.0060*%
%ADD15C,0.0160*%
%ADD16C,0.0120*%
%ADD17C,0.0050*%
%ADD18C,0.0080*%
%ADD19C,0.0040*%
%ADD20C,0.0200*%
%ADD21C,0.0010*%
%ADD22R,0.0300X0.0180*%
%ADD23R,0.0180X0.0300*%
D10*
X000100Y000100D02*
X000100Y035100D01*
X046100Y035100D01*
X046100Y000100D01*
X000100Y000100D01*
X004250Y004200D02*
X004252Y004254D01*
X004258Y004308D01*
X004268Y004361D01*
X004281Y004414D01*
X004298Y004465D01*
X004319Y004515D01*
X004344Y004563D01*
X004372Y004610D01*
X004403Y004654D01*
X004437Y004696D01*
X004474Y004735D01*
X004514Y004772D01*
X004557Y004805D01*
X004602Y004836D01*
X004649Y004863D01*
X004697Y004886D01*
X004748Y004906D01*
X004799Y004923D01*
X004852Y004935D01*
X004905Y004944D01*
X004959Y004949D01*
X005014Y004950D01*
X005068Y004947D01*
X005121Y004940D01*
X005174Y004929D01*
X005227Y004915D01*
X005278Y004897D01*
X005327Y004875D01*
X005375Y004850D01*
X005421Y004821D01*
X005465Y004789D01*
X005506Y004754D01*
X005544Y004716D01*
X005580Y004675D01*
X005613Y004632D01*
X005643Y004587D01*
X005669Y004539D01*
X005692Y004490D01*
X005711Y004439D01*
X005726Y004388D01*
X005738Y004335D01*
X005746Y004281D01*
X005750Y004227D01*
X005750Y004173D01*
X005746Y004119D01*
X005738Y004065D01*
X005726Y004012D01*
X005711Y003961D01*
X005692Y003910D01*
X005669Y003861D01*
X005643Y003813D01*
X005613Y003768D01*
X005580Y003725D01*
X005544Y003684D01*
X005506Y003646D01*
X005465Y003611D01*
X005421Y003579D01*
X005375Y003550D01*
X005327Y003525D01*
X005278Y003503D01*
X005227Y003485D01*
X005174Y003471D01*
X005121Y003460D01*
X005068Y003453D01*
X005014Y003450D01*
X004959Y003451D01*
X004905Y003456D01*
X004852Y003465D01*
X004799Y003477D01*
X004748Y003494D01*
X004697Y003514D01*
X004649Y003537D01*
X004602Y003564D01*
X004557Y003595D01*
X004514Y003628D01*
X004474Y003665D01*
X004437Y003704D01*
X004403Y003746D01*
X004372Y003790D01*
X004344Y003837D01*
X004319Y003885D01*
X004298Y003935D01*
X004281Y003986D01*
X004268Y004039D01*
X004258Y004092D01*
X004252Y004146D01*
X004250Y004200D01*
X026270Y006000D02*
X026272Y006050D01*
X026278Y006100D01*
X026288Y006149D01*
X026302Y006197D01*
X026319Y006244D01*
X026340Y006289D01*
X026365Y006333D01*
X026393Y006374D01*
X026425Y006413D01*
X026459Y006450D01*
X026496Y006484D01*
X026536Y006514D01*
X026578Y006541D01*
X026622Y006565D01*
X026668Y006586D01*
X026715Y006602D01*
X026763Y006615D01*
X026813Y006624D01*
X026862Y006629D01*
X026913Y006630D01*
X026963Y006627D01*
X027012Y006620D01*
X027061Y006609D01*
X027109Y006594D01*
X027155Y006576D01*
X027200Y006554D01*
X027243Y006528D01*
X027284Y006499D01*
X027323Y006467D01*
X027359Y006432D01*
X027391Y006394D01*
X027421Y006354D01*
X027448Y006311D01*
X027471Y006267D01*
X027490Y006221D01*
X027506Y006173D01*
X027518Y006124D01*
X027526Y006075D01*
X027530Y006025D01*
X027530Y005975D01*
X027526Y005925D01*
X027518Y005876D01*
X027506Y005827D01*
X027490Y005779D01*
X027471Y005733D01*
X027448Y005689D01*
X027421Y005646D01*
X027391Y005606D01*
X027359Y005568D01*
X027323Y005533D01*
X027284Y005501D01*
X027243Y005472D01*
X027200Y005446D01*
X027155Y005424D01*
X027109Y005406D01*
X027061Y005391D01*
X027012Y005380D01*
X026963Y005373D01*
X026913Y005370D01*
X026862Y005371D01*
X026813Y005376D01*
X026763Y005385D01*
X026715Y005398D01*
X026668Y005414D01*
X026622Y005435D01*
X026578Y005459D01*
X026536Y005486D01*
X026496Y005516D01*
X026459Y005550D01*
X026425Y005587D01*
X026393Y005626D01*
X026365Y005667D01*
X026340Y005711D01*
X026319Y005756D01*
X026302Y005803D01*
X026288Y005851D01*
X026278Y005900D01*
X026272Y005950D01*
X026270Y006000D01*
X037270Y006000D02*
X037272Y006050D01*
X037278Y006100D01*
X037288Y006149D01*
X037302Y006197D01*
X037319Y006244D01*
X037340Y006289D01*
X037365Y006333D01*
X037393Y006374D01*
X037425Y006413D01*
X037459Y006450D01*
X037496Y006484D01*
X037536Y006514D01*
X037578Y006541D01*
X037622Y006565D01*
X037668Y006586D01*
X037715Y006602D01*
X037763Y006615D01*
X037813Y006624D01*
X037862Y006629D01*
X037913Y006630D01*
X037963Y006627D01*
X038012Y006620D01*
X038061Y006609D01*
X038109Y006594D01*
X038155Y006576D01*
X038200Y006554D01*
X038243Y006528D01*
X038284Y006499D01*
X038323Y006467D01*
X038359Y006432D01*
X038391Y006394D01*
X038421Y006354D01*
X038448Y006311D01*
X038471Y006267D01*
X038490Y006221D01*
X038506Y006173D01*
X038518Y006124D01*
X038526Y006075D01*
X038530Y006025D01*
X038530Y005975D01*
X038526Y005925D01*
X038518Y005876D01*
X038506Y005827D01*
X038490Y005779D01*
X038471Y005733D01*
X038448Y005689D01*
X038421Y005646D01*
X038391Y005606D01*
X038359Y005568D01*
X038323Y005533D01*
X038284Y005501D01*
X038243Y005472D01*
X038200Y005446D01*
X038155Y005424D01*
X038109Y005406D01*
X038061Y005391D01*
X038012Y005380D01*
X037963Y005373D01*
X037913Y005370D01*
X037862Y005371D01*
X037813Y005376D01*
X037763Y005385D01*
X037715Y005398D01*
X037668Y005414D01*
X037622Y005435D01*
X037578Y005459D01*
X037536Y005486D01*
X037496Y005516D01*
X037459Y005550D01*
X037425Y005587D01*
X037393Y005626D01*
X037365Y005667D01*
X037340Y005711D01*
X037319Y005756D01*
X037302Y005803D01*
X037288Y005851D01*
X037278Y005900D01*
X037272Y005950D01*
X037270Y006000D01*
X043450Y002600D02*
X043452Y002654D01*
X043458Y002708D01*
X043468Y002761D01*
X043481Y002814D01*
X043498Y002865D01*
X043519Y002915D01*
X043544Y002963D01*
X043572Y003010D01*
X043603Y003054D01*
X043637Y003096D01*
X043674Y003135D01*
X043714Y003172D01*
X043757Y003205D01*
X043802Y003236D01*
X043849Y003263D01*
X043897Y003286D01*
X043948Y003306D01*
X043999Y003323D01*
X044052Y003335D01*
X044105Y003344D01*
X044159Y003349D01*
X044214Y003350D01*
X044268Y003347D01*
X044321Y003340D01*
X044374Y003329D01*
X044427Y003315D01*
X044478Y003297D01*
X044527Y003275D01*
X044575Y003250D01*
X044621Y003221D01*
X044665Y003189D01*
X044706Y003154D01*
X044744Y003116D01*
X044780Y003075D01*
X044813Y003032D01*
X044843Y002987D01*
X044869Y002939D01*
X044892Y002890D01*
X044911Y002839D01*
X044926Y002788D01*
X044938Y002735D01*
X044946Y002681D01*
X044950Y002627D01*
X044950Y002573D01*
X044946Y002519D01*
X044938Y002465D01*
X044926Y002412D01*
X044911Y002361D01*
X044892Y002310D01*
X044869Y002261D01*
X044843Y002213D01*
X044813Y002168D01*
X044780Y002125D01*
X044744Y002084D01*
X044706Y002046D01*
X044665Y002011D01*
X044621Y001979D01*
X044575Y001950D01*
X044527Y001925D01*
X044478Y001903D01*
X044427Y001885D01*
X044374Y001871D01*
X044321Y001860D01*
X044268Y001853D01*
X044214Y001850D01*
X044159Y001851D01*
X044105Y001856D01*
X044052Y001865D01*
X043999Y001877D01*
X043948Y001894D01*
X043897Y001914D01*
X043849Y001937D01*
X043802Y001964D01*
X043757Y001995D01*
X043714Y002028D01*
X043674Y002065D01*
X043637Y002104D01*
X043603Y002146D01*
X043572Y002190D01*
X043544Y002237D01*
X043519Y002285D01*
X043498Y002335D01*
X043481Y002386D01*
X043468Y002439D01*
X043458Y002492D01*
X043452Y002546D01*
X043450Y002600D01*
X043270Y026000D02*
X043272Y026050D01*
X043278Y026100D01*
X043288Y026149D01*
X043302Y026197D01*
X043319Y026244D01*
X043340Y026289D01*
X043365Y026333D01*
X043393Y026374D01*
X043425Y026413D01*
X043459Y026450D01*
X043496Y026484D01*
X043536Y026514D01*
X043578Y026541D01*
X043622Y026565D01*
X043668Y026586D01*
X043715Y026602D01*
X043763Y026615D01*
X043813Y026624D01*
X043862Y026629D01*
X043913Y026630D01*
X043963Y026627D01*
X044012Y026620D01*
X044061Y026609D01*
X044109Y026594D01*
X044155Y026576D01*
X044200Y026554D01*
X044243Y026528D01*
X044284Y026499D01*
X044323Y026467D01*
X044359Y026432D01*
X044391Y026394D01*
X044421Y026354D01*
X044448Y026311D01*
X044471Y026267D01*
X044490Y026221D01*
X044506Y026173D01*
X044518Y026124D01*
X044526Y026075D01*
X044530Y026025D01*
X044530Y025975D01*
X044526Y025925D01*
X044518Y025876D01*
X044506Y025827D01*
X044490Y025779D01*
X044471Y025733D01*
X044448Y025689D01*
X044421Y025646D01*
X044391Y025606D01*
X044359Y025568D01*
X044323Y025533D01*
X044284Y025501D01*
X044243Y025472D01*
X044200Y025446D01*
X044155Y025424D01*
X044109Y025406D01*
X044061Y025391D01*
X044012Y025380D01*
X043963Y025373D01*
X043913Y025370D01*
X043862Y025371D01*
X043813Y025376D01*
X043763Y025385D01*
X043715Y025398D01*
X043668Y025414D01*
X043622Y025435D01*
X043578Y025459D01*
X043536Y025486D01*
X043496Y025516D01*
X043459Y025550D01*
X043425Y025587D01*
X043393Y025626D01*
X043365Y025667D01*
X043340Y025711D01*
X043319Y025756D01*
X043302Y025803D01*
X043288Y025851D01*
X043278Y025900D01*
X043272Y025950D01*
X043270Y026000D01*
X032212Y032980D02*
X032214Y033006D01*
X032220Y033032D01*
X032230Y033057D01*
X032243Y033080D01*
X032259Y033100D01*
X032279Y033118D01*
X032301Y033133D01*
X032324Y033145D01*
X032350Y033153D01*
X032376Y033157D01*
X032402Y033157D01*
X032428Y033153D01*
X032454Y033145D01*
X032478Y033133D01*
X032499Y033118D01*
X032519Y033100D01*
X032535Y033080D01*
X032548Y033057D01*
X032558Y033032D01*
X032564Y033006D01*
X032566Y032980D01*
X032564Y032954D01*
X032558Y032928D01*
X032548Y032903D01*
X032535Y032880D01*
X032519Y032860D01*
X032499Y032842D01*
X032477Y032827D01*
X032454Y032815D01*
X032428Y032807D01*
X032402Y032803D01*
X032376Y032803D01*
X032350Y032807D01*
X032324Y032815D01*
X032300Y032827D01*
X032279Y032842D01*
X032259Y032860D01*
X032243Y032880D01*
X032230Y032903D01*
X032220Y032928D01*
X032214Y032954D01*
X032212Y032980D01*
X030834Y032980D02*
X030836Y033006D01*
X030842Y033032D01*
X030852Y033057D01*
X030865Y033080D01*
X030881Y033100D01*
X030901Y033118D01*
X030923Y033133D01*
X030946Y033145D01*
X030972Y033153D01*
X030998Y033157D01*
X031024Y033157D01*
X031050Y033153D01*
X031076Y033145D01*
X031100Y033133D01*
X031121Y033118D01*
X031141Y033100D01*
X031157Y033080D01*
X031170Y033057D01*
X031180Y033032D01*
X031186Y033006D01*
X031188Y032980D01*
X031186Y032954D01*
X031180Y032928D01*
X031170Y032903D01*
X031157Y032880D01*
X031141Y032860D01*
X031121Y032842D01*
X031099Y032827D01*
X031076Y032815D01*
X031050Y032807D01*
X031024Y032803D01*
X030998Y032803D01*
X030972Y032807D01*
X030946Y032815D01*
X030922Y032827D01*
X030901Y032842D01*
X030881Y032860D01*
X030865Y032880D01*
X030852Y032903D01*
X030842Y032928D01*
X030836Y032954D01*
X030834Y032980D01*
X024270Y026500D02*
X024272Y026550D01*
X024278Y026600D01*
X024288Y026649D01*
X024302Y026697D01*
X024319Y026744D01*
X024340Y026789D01*
X024365Y026833D01*
X024393Y026874D01*
X024425Y026913D01*
X024459Y026950D01*
X024496Y026984D01*
X024536Y027014D01*
X024578Y027041D01*
X024622Y027065D01*
X024668Y027086D01*
X024715Y027102D01*
X024763Y027115D01*
X024813Y027124D01*
X024862Y027129D01*
X024913Y027130D01*
X024963Y027127D01*
X025012Y027120D01*
X025061Y027109D01*
X025109Y027094D01*
X025155Y027076D01*
X025200Y027054D01*
X025243Y027028D01*
X025284Y026999D01*
X025323Y026967D01*
X025359Y026932D01*
X025391Y026894D01*
X025421Y026854D01*
X025448Y026811D01*
X025471Y026767D01*
X025490Y026721D01*
X025506Y026673D01*
X025518Y026624D01*
X025526Y026575D01*
X025530Y026525D01*
X025530Y026475D01*
X025526Y026425D01*
X025518Y026376D01*
X025506Y026327D01*
X025490Y026279D01*
X025471Y026233D01*
X025448Y026189D01*
X025421Y026146D01*
X025391Y026106D01*
X025359Y026068D01*
X025323Y026033D01*
X025284Y026001D01*
X025243Y025972D01*
X025200Y025946D01*
X025155Y025924D01*
X025109Y025906D01*
X025061Y025891D01*
X025012Y025880D01*
X024963Y025873D01*
X024913Y025870D01*
X024862Y025871D01*
X024813Y025876D01*
X024763Y025885D01*
X024715Y025898D01*
X024668Y025914D01*
X024622Y025935D01*
X024578Y025959D01*
X024536Y025986D01*
X024496Y026016D01*
X024459Y026050D01*
X024425Y026087D01*
X024393Y026126D01*
X024365Y026167D01*
X024340Y026211D01*
X024319Y026256D01*
X024302Y026303D01*
X024288Y026351D01*
X024278Y026400D01*
X024272Y026450D01*
X024270Y026500D01*
X017750Y032500D02*
X017752Y032554D01*
X017758Y032608D01*
X017768Y032661D01*
X017781Y032714D01*
X017798Y032765D01*
X017819Y032815D01*
X017844Y032863D01*
X017872Y032910D01*
X017903Y032954D01*
X017937Y032996D01*
X017974Y033035D01*
X018014Y033072D01*
X018057Y033105D01*
X018102Y033136D01*
X018149Y033163D01*
X018197Y033186D01*
X018248Y033206D01*
X018299Y033223D01*
X018352Y033235D01*
X018405Y033244D01*
X018459Y033249D01*
X018514Y033250D01*
X018568Y033247D01*
X018621Y033240D01*
X018674Y033229D01*
X018727Y033215D01*
X018778Y033197D01*
X018827Y033175D01*
X018875Y033150D01*
X018921Y033121D01*
X018965Y033089D01*
X019006Y033054D01*
X019044Y033016D01*
X019080Y032975D01*
X019113Y032932D01*
X019143Y032887D01*
X019169Y032839D01*
X019192Y032790D01*
X019211Y032739D01*
X019226Y032688D01*
X019238Y032635D01*
X019246Y032581D01*
X019250Y032527D01*
X019250Y032473D01*
X019246Y032419D01*
X019238Y032365D01*
X019226Y032312D01*
X019211Y032261D01*
X019192Y032210D01*
X019169Y032161D01*
X019143Y032113D01*
X019113Y032068D01*
X019080Y032025D01*
X019044Y031984D01*
X019006Y031946D01*
X018965Y031911D01*
X018921Y031879D01*
X018875Y031850D01*
X018827Y031825D01*
X018778Y031803D01*
X018727Y031785D01*
X018674Y031771D01*
X018621Y031760D01*
X018568Y031753D01*
X018514Y031750D01*
X018459Y031751D01*
X018405Y031756D01*
X018352Y031765D01*
X018299Y031777D01*
X018248Y031794D01*
X018197Y031814D01*
X018149Y031837D01*
X018102Y031864D01*
X018057Y031895D01*
X018014Y031928D01*
X017974Y031965D01*
X017937Y032004D01*
X017903Y032046D01*
X017872Y032090D01*
X017844Y032137D01*
X017819Y032185D01*
X017798Y032235D01*
X017781Y032286D01*
X017768Y032339D01*
X017758Y032392D01*
X017752Y032446D01*
X017750Y032500D01*
D11*
X030100Y002000D03*
D12*
X020400Y020600D02*
X020402Y020620D01*
X020408Y020638D01*
X020417Y020656D01*
X020429Y020671D01*
X020444Y020683D01*
X020462Y020692D01*
X020480Y020698D01*
X020500Y020700D01*
X020520Y020698D01*
X020538Y020692D01*
X020556Y020683D01*
X020571Y020671D01*
X020583Y020656D01*
X020592Y020638D01*
X020598Y020620D01*
X020600Y020600D01*
X020598Y020580D01*
X020592Y020562D01*
X020583Y020544D01*
X020571Y020529D01*
X020556Y020517D01*
X020538Y020508D01*
X020520Y020502D01*
X020500Y020500D01*
X020480Y020502D01*
X020462Y020508D01*
X020444Y020517D01*
X020429Y020529D01*
X020417Y020544D01*
X020408Y020562D01*
X020402Y020580D01*
X020400Y020600D01*
X007500Y026650D02*
X004500Y026650D01*
X004500Y028400D01*
X007500Y028400D01*
X007500Y026650D01*
X007500Y028400D02*
X007500Y029150D01*
X004500Y029150D01*
X004500Y028400D01*
X003500Y025650D02*
X001500Y025650D01*
X001500Y024900D01*
X003500Y024900D01*
X003500Y023150D01*
X001500Y023150D01*
X001500Y024900D01*
X003500Y024900D02*
X003500Y025650D01*
X012300Y031250D02*
X012300Y033000D01*
X015300Y033000D01*
X015300Y031250D01*
X012300Y031250D01*
X012300Y033000D02*
X012300Y033750D01*
X015300Y033750D01*
X015300Y033000D01*
D13*
X015362Y031085D02*
X015362Y030838D01*
X015485Y030715D01*
X015608Y030838D01*
X015608Y031085D01*
X015730Y031085D02*
X015730Y030715D01*
X015915Y030715D01*
X015977Y030777D01*
X015977Y031024D01*
X015915Y031085D01*
X015730Y031085D01*
X016098Y031085D02*
X016283Y031085D01*
X016345Y031024D01*
X016345Y030777D01*
X016283Y030715D01*
X016098Y030715D01*
X016098Y031085D01*
X015240Y031024D02*
X015240Y030777D01*
X015178Y030715D01*
X014993Y030715D01*
X014993Y031085D01*
X015178Y031085D01*
X015240Y031024D01*
X014503Y031024D02*
X014503Y030777D01*
X014442Y030715D01*
X014257Y030715D01*
X014257Y031085D01*
X014442Y031085D01*
X014503Y031024D01*
X014135Y031085D02*
X014135Y030715D01*
X013888Y031085D01*
X013888Y030715D01*
X013767Y030777D02*
X013767Y030900D01*
X013643Y030900D01*
X013520Y030777D02*
X013582Y030715D01*
X013705Y030715D01*
X013767Y030777D01*
X013767Y031024D02*
X013705Y031085D01*
X013582Y031085D01*
X013520Y031024D01*
X013520Y030777D01*
X013030Y030838D02*
X013030Y031085D01*
X013030Y030838D02*
X012907Y030715D01*
X012783Y030838D01*
X012783Y031085D01*
X012662Y031085D02*
X012415Y031085D01*
X012415Y030900D01*
X012538Y030962D01*
X012600Y030962D01*
X012662Y030900D01*
X012662Y030777D01*
X012600Y030715D01*
X012477Y030715D01*
X012415Y030777D01*
X030555Y007605D02*
X030555Y007363D01*
X030603Y007315D01*
X030700Y007315D01*
X030748Y007363D01*
X030748Y007605D01*
X030850Y007557D02*
X030898Y007605D01*
X030995Y007605D01*
X031043Y007557D01*
X031043Y007508D01*
X030995Y007460D01*
X031043Y007412D01*
X031043Y007363D01*
X030995Y007315D01*
X030898Y007315D01*
X030850Y007363D01*
X030946Y007460D02*
X030995Y007460D01*
X030149Y007507D02*
X029835Y007193D01*
X029992Y007193D02*
X029992Y007507D01*
X029835Y007507D02*
X030149Y007193D01*
X030149Y007350D02*
X029835Y007350D01*
D14*
X030390Y007210D02*
X030880Y007210D01*
X031120Y007210D01*
X031610Y007210D01*
X031120Y007210D02*
X031118Y007189D01*
X031113Y007169D01*
X031104Y007150D01*
X031092Y007133D01*
X031077Y007118D01*
X031060Y007106D01*
X031041Y007097D01*
X031021Y007092D01*
X031000Y007090D01*
X030979Y007092D01*
X030959Y007097D01*
X030940Y007106D01*
X030923Y007118D01*
X030908Y007133D01*
X030896Y007150D01*
X030887Y007169D01*
X030882Y007189D01*
X030880Y007210D01*
X030390Y005990D02*
X031610Y005990D01*
X033400Y005700D02*
X033400Y007200D01*
X033650Y007450D01*
X034150Y007450D01*
X034400Y007200D01*
X034400Y005700D01*
X034650Y005450D01*
X035150Y005450D01*
X035400Y005700D01*
X035400Y007200D01*
X035650Y007450D01*
X036150Y007450D01*
X036400Y007200D01*
X036400Y005700D01*
X036150Y005450D01*
X035650Y005450D01*
X035400Y005700D01*
X034400Y005700D02*
X034150Y005450D01*
X033650Y005450D01*
X033400Y005700D01*
X034400Y007200D02*
X034650Y007450D01*
X035150Y007450D01*
X035400Y007200D01*
X026581Y013830D02*
X026581Y014000D01*
X026524Y014057D01*
X026354Y014057D01*
X026354Y013830D01*
X026222Y013830D02*
X026108Y013830D01*
X026165Y013830D02*
X026165Y014057D01*
X026108Y014057D01*
X026165Y014170D02*
X026165Y014227D01*
X025967Y014170D02*
X025967Y013943D01*
X025853Y013830D01*
X025740Y013943D01*
X025740Y014170D01*
X025797Y014830D02*
X025910Y014830D01*
X025967Y014887D01*
X025967Y015000D01*
X025853Y015000D01*
X025740Y014887D02*
X025797Y014830D01*
X025740Y014887D02*
X025740Y015114D01*
X025797Y015170D01*
X025910Y015170D01*
X025967Y015114D01*
X026108Y015170D02*
X026108Y014830D01*
X026335Y014830D02*
X026108Y015170D01*
X026335Y015170D02*
X026335Y014830D01*
X026477Y014830D02*
X026647Y014830D01*
X026703Y014887D01*
X026703Y015114D01*
X026647Y015170D01*
X026477Y015170D01*
X026477Y014830D01*
X026477Y015830D02*
X026647Y015830D01*
X026703Y015887D01*
X026703Y016114D01*
X026647Y016170D01*
X026477Y016170D01*
X026477Y015830D01*
X026335Y015830D02*
X026335Y016170D01*
X026108Y016170D02*
X026108Y015830D01*
X025967Y015887D02*
X025910Y015830D01*
X025797Y015830D01*
X025740Y015887D01*
X025740Y016114D01*
X025797Y016170D01*
X025910Y016170D01*
X025967Y016114D01*
X025967Y016000D02*
X025853Y016000D01*
X025967Y016000D02*
X025967Y015887D01*
X026108Y016170D02*
X026335Y015830D01*
X026222Y016830D02*
X026335Y016943D01*
X026335Y017170D01*
X026108Y017170D02*
X026108Y016943D01*
X026222Y016830D01*
X025967Y016887D02*
X025910Y016830D01*
X025797Y016830D01*
X025740Y016887D01*
X025740Y017000D02*
X025853Y017057D01*
X025910Y017057D01*
X025967Y017000D01*
X025967Y016887D01*
X025740Y017000D02*
X025740Y017170D01*
X025967Y017170D01*
X025910Y017830D02*
X025797Y017830D01*
X025740Y017887D01*
X025853Y018000D02*
X025910Y018000D01*
X025967Y017943D01*
X025967Y017887D01*
X025910Y017830D01*
X025910Y018000D02*
X025967Y018057D01*
X025967Y018114D01*
X025910Y018170D01*
X025797Y018170D01*
X025740Y018114D01*
X026108Y017887D02*
X026165Y017887D01*
X026165Y017830D01*
X026108Y017830D01*
X026108Y017887D01*
X026292Y017887D02*
X026349Y017830D01*
X026463Y017830D01*
X026519Y017887D01*
X026519Y017943D01*
X026463Y018000D01*
X026406Y018000D01*
X026463Y018000D02*
X026519Y018057D01*
X026519Y018114D01*
X026463Y018170D01*
X026349Y018170D01*
X026292Y018114D01*
X026661Y018170D02*
X026661Y017943D01*
X026774Y017830D01*
X026888Y017943D01*
X026888Y018170D01*
X026845Y018830D02*
X027072Y018830D01*
X026958Y019000D02*
X026845Y019000D01*
X026703Y018943D02*
X026703Y018887D01*
X026647Y018830D01*
X026533Y018830D01*
X026477Y018887D01*
X026533Y019000D02*
X026647Y019000D01*
X026703Y018943D01*
X026703Y019114D02*
X026647Y019170D01*
X026533Y019170D01*
X026477Y019114D01*
X026477Y019057D01*
X026533Y019000D01*
X026335Y018830D02*
X026108Y018830D01*
X026108Y019170D01*
X026335Y019170D01*
X026222Y019000D02*
X026108Y019000D01*
X025967Y019000D02*
X025910Y018943D01*
X025740Y018943D01*
X025740Y018830D02*
X025740Y019170D01*
X025910Y019170D01*
X025967Y019114D01*
X025967Y019000D01*
X025853Y018943D02*
X025967Y018830D01*
X026845Y018830D02*
X026845Y019170D01*
X027072Y019170D01*
X027213Y019170D02*
X027440Y019170D01*
X027327Y019170D02*
X027327Y018830D01*
X023350Y019150D02*
X023350Y019650D01*
X023348Y019676D01*
X023343Y019702D01*
X023335Y019727D01*
X023323Y019750D01*
X023309Y019772D01*
X023291Y019791D01*
X023272Y019809D01*
X023250Y019823D01*
X023227Y019835D01*
X023202Y019843D01*
X023176Y019848D01*
X023150Y019850D01*
X021850Y019850D01*
X021824Y019848D01*
X021798Y019843D01*
X021773Y019835D01*
X021750Y019823D01*
X021728Y019809D01*
X021709Y019791D01*
X021691Y019772D01*
X021677Y019750D01*
X021665Y019727D01*
X021657Y019702D01*
X021652Y019676D01*
X021650Y019650D01*
X021650Y019150D01*
X021652Y019124D01*
X021657Y019098D01*
X021665Y019073D01*
X021677Y019050D01*
X021691Y019028D01*
X021709Y019009D01*
X021728Y018991D01*
X021750Y018977D01*
X021773Y018965D01*
X021798Y018957D01*
X021824Y018952D01*
X021850Y018950D01*
X023150Y018950D01*
X023176Y018952D01*
X023202Y018957D01*
X023227Y018965D01*
X023250Y018977D01*
X023272Y018991D01*
X023291Y019009D01*
X023309Y019028D01*
X023323Y019050D01*
X023335Y019073D01*
X023343Y019098D01*
X023348Y019124D01*
X023350Y019150D01*
X023150Y021150D02*
X021850Y021150D01*
X021824Y021152D01*
X021798Y021157D01*
X021773Y021165D01*
X021750Y021177D01*
X021728Y021191D01*
X021709Y021209D01*
X021691Y021228D01*
X021677Y021250D01*
X021665Y021273D01*
X021657Y021298D01*
X021652Y021324D01*
X021650Y021350D01*
X021650Y021850D01*
X021652Y021876D01*
X021657Y021902D01*
X021665Y021927D01*
X021677Y021950D01*
X021691Y021972D01*
X021709Y021991D01*
X021728Y022009D01*
X021750Y022023D01*
X021773Y022035D01*
X021798Y022043D01*
X021824Y022048D01*
X021850Y022050D01*
X023150Y022050D01*
X023176Y022048D01*
X023202Y022043D01*
X023227Y022035D01*
X023250Y022023D01*
X023272Y022009D01*
X023291Y021991D01*
X023309Y021972D01*
X023323Y021950D01*
X023335Y021927D01*
X023343Y021902D01*
X023348Y021876D01*
X023350Y021850D01*
X023350Y021350D01*
X023348Y021324D01*
X023343Y021298D01*
X023335Y021273D01*
X023323Y021250D01*
X023309Y021228D01*
X023291Y021209D01*
X023272Y021191D01*
X023250Y021177D01*
X023227Y021165D01*
X023202Y021157D01*
X023176Y021152D01*
X023150Y021150D01*
X018950Y019750D02*
X018950Y019250D01*
X018948Y019224D01*
X018943Y019198D01*
X018935Y019173D01*
X018923Y019150D01*
X018909Y019128D01*
X018891Y019109D01*
X018872Y019091D01*
X018850Y019077D01*
X018827Y019065D01*
X018802Y019057D01*
X018776Y019052D01*
X018750Y019050D01*
X017450Y019050D01*
X017424Y019052D01*
X017398Y019057D01*
X017373Y019065D01*
X017350Y019077D01*
X017328Y019091D01*
X017309Y019109D01*
X017291Y019128D01*
X017277Y019150D01*
X017265Y019173D01*
X017257Y019198D01*
X017252Y019224D01*
X017250Y019250D01*
X017250Y019750D01*
X017252Y019776D01*
X017257Y019802D01*
X017265Y019827D01*
X017277Y019850D01*
X017291Y019872D01*
X017309Y019891D01*
X017328Y019909D01*
X017350Y019923D01*
X017373Y019935D01*
X017398Y019943D01*
X017424Y019948D01*
X017450Y019950D01*
X018750Y019950D01*
X018776Y019948D01*
X018802Y019943D01*
X018827Y019935D01*
X018850Y019923D01*
X018872Y019909D01*
X018891Y019891D01*
X018909Y019872D01*
X018923Y019850D01*
X018935Y019827D01*
X018943Y019802D01*
X018948Y019776D01*
X018950Y019750D01*
X017100Y020600D02*
X017000Y020500D01*
X016200Y020500D01*
X016100Y020600D01*
X016100Y021400D01*
X016200Y021500D01*
X016100Y021600D01*
X016100Y022400D01*
X016200Y022500D01*
X017000Y022500D01*
X017100Y022400D01*
X017100Y021600D01*
X017000Y021500D01*
X017100Y021400D01*
X017100Y020600D01*
X014350Y022650D02*
X014350Y023150D01*
X014348Y023176D01*
X014343Y023202D01*
X014335Y023227D01*
X014323Y023250D01*
X014309Y023272D01*
X014291Y023291D01*
X014272Y023309D01*
X014250Y023323D01*
X014227Y023335D01*
X014202Y023343D01*
X014176Y023348D01*
X014150Y023350D01*
X012850Y023350D01*
X012824Y023348D01*
X012798Y023343D01*
X012773Y023335D01*
X012750Y023323D01*
X012728Y023309D01*
X012709Y023291D01*
X012691Y023272D01*
X012677Y023250D01*
X012665Y023227D01*
X012657Y023202D01*
X012652Y023176D01*
X012650Y023150D01*
X012650Y022650D01*
X012652Y022624D01*
X012657Y022598D01*
X012665Y022573D01*
X012677Y022550D01*
X012691Y022528D01*
X012709Y022509D01*
X012728Y022491D01*
X012750Y022477D01*
X012773Y022465D01*
X012798Y022457D01*
X012824Y022452D01*
X012850Y022450D01*
X014150Y022450D01*
X014176Y022452D01*
X014202Y022457D01*
X014227Y022465D01*
X014250Y022477D01*
X014272Y022491D01*
X014291Y022509D01*
X014309Y022528D01*
X014323Y022550D01*
X014335Y022573D01*
X014343Y022598D01*
X014348Y022624D01*
X014350Y022650D01*
X015150Y024350D02*
X015650Y024350D01*
X015676Y024352D01*
X015702Y024357D01*
X015727Y024365D01*
X015750Y024377D01*
X015772Y024391D01*
X015791Y024409D01*
X015809Y024428D01*
X015823Y024450D01*
X015835Y024473D01*
X015843Y024498D01*
X015848Y024524D01*
X015850Y024550D01*
X015850Y025850D01*
X015848Y025876D01*
X015843Y025902D01*
X015835Y025927D01*
X015823Y025950D01*
X015809Y025972D01*
X015791Y025991D01*
X015772Y026009D01*
X015750Y026023D01*
X015727Y026035D01*
X015702Y026043D01*
X015676Y026048D01*
X015650Y026050D01*
X015150Y026050D01*
X015124Y026048D01*
X015098Y026043D01*
X015073Y026035D01*
X015050Y026023D01*
X015028Y026009D01*
X015009Y025991D01*
X014991Y025972D01*
X014977Y025950D01*
X014965Y025927D01*
X014957Y025902D01*
X014952Y025876D01*
X014950Y025850D01*
X014950Y024550D01*
X014952Y024524D01*
X014957Y024498D01*
X014965Y024473D01*
X014977Y024450D01*
X014991Y024428D01*
X015009Y024409D01*
X015028Y024391D01*
X015050Y024377D01*
X015073Y024365D01*
X015098Y024357D01*
X015124Y024352D01*
X015150Y024350D01*
X014400Y024700D02*
X014400Y025500D01*
X014300Y025600D01*
X013500Y025600D01*
X013400Y025500D01*
X013300Y025600D01*
X012500Y025600D01*
X012400Y025500D01*
X012400Y024700D01*
X012500Y024600D01*
X013300Y024600D01*
X013400Y024700D01*
X013500Y024600D01*
X014300Y024600D01*
X014400Y024700D01*
X013950Y026450D02*
X012650Y026450D01*
X012624Y026452D01*
X012598Y026457D01*
X012573Y026465D01*
X012550Y026477D01*
X012528Y026491D01*
X012509Y026509D01*
X012491Y026528D01*
X012477Y026550D01*
X012465Y026573D01*
X012457Y026598D01*
X012452Y026624D01*
X012450Y026650D01*
X012450Y027150D01*
X012452Y027176D01*
X012457Y027202D01*
X012465Y027227D01*
X012477Y027250D01*
X012491Y027272D01*
X012509Y027291D01*
X012528Y027309D01*
X012550Y027323D01*
X012573Y027335D01*
X012598Y027343D01*
X012624Y027348D01*
X012650Y027350D01*
X013950Y027350D01*
X013976Y027348D01*
X014002Y027343D01*
X014027Y027335D01*
X014050Y027323D01*
X014072Y027309D01*
X014091Y027291D01*
X014109Y027272D01*
X014123Y027250D01*
X014135Y027227D01*
X014143Y027202D01*
X014148Y027176D01*
X014150Y027150D01*
X014150Y026650D01*
X014148Y026624D01*
X014143Y026598D01*
X014135Y026573D01*
X014123Y026550D01*
X014109Y026528D01*
X014091Y026509D01*
X014072Y026491D01*
X014050Y026477D01*
X014027Y026465D01*
X014002Y026457D01*
X013976Y026452D01*
X013950Y026450D01*
X016100Y026800D02*
X016100Y027600D01*
X016200Y027700D01*
X017000Y027700D01*
X017100Y027600D01*
X017200Y027700D01*
X018000Y027700D01*
X018100Y027600D01*
X018100Y026800D01*
X018000Y026700D01*
X017200Y026700D01*
X017100Y026800D01*
X017000Y026700D01*
X016200Y026700D01*
X016100Y026800D01*
X015550Y028650D02*
X015050Y028650D01*
X015024Y028652D01*
X014998Y028657D01*
X014973Y028665D01*
X014950Y028677D01*
X014928Y028691D01*
X014909Y028709D01*
X014891Y028728D01*
X014877Y028750D01*
X014865Y028773D01*
X014857Y028798D01*
X014852Y028824D01*
X014850Y028850D01*
X014850Y030150D01*
X014852Y030176D01*
X014857Y030202D01*
X014865Y030227D01*
X014877Y030250D01*
X014891Y030272D01*
X014909Y030291D01*
X014928Y030309D01*
X014950Y030323D01*
X014973Y030335D01*
X014998Y030343D01*
X015024Y030348D01*
X015050Y030350D01*
X015550Y030350D01*
X015576Y030348D01*
X015602Y030343D01*
X015627Y030335D01*
X015650Y030323D01*
X015672Y030309D01*
X015691Y030291D01*
X015709Y030272D01*
X015723Y030250D01*
X015735Y030227D01*
X015743Y030202D01*
X015748Y030176D01*
X015750Y030150D01*
X015750Y028850D01*
X015748Y028824D01*
X015743Y028798D01*
X015735Y028773D01*
X015723Y028750D01*
X015709Y028728D01*
X015691Y028709D01*
X015672Y028691D01*
X015650Y028677D01*
X015627Y028665D01*
X015602Y028657D01*
X015576Y028652D01*
X015550Y028650D01*
X014050Y029050D02*
X014050Y029550D01*
X014048Y029576D01*
X014043Y029602D01*
X014035Y029627D01*
X014023Y029650D01*
X014009Y029672D01*
X013991Y029691D01*
X013972Y029709D01*
X013950Y029723D01*
X013927Y029735D01*
X013902Y029743D01*
X013876Y029748D01*
X013850Y029750D01*
X012550Y029750D01*
X012524Y029748D01*
X012498Y029743D01*
X012473Y029735D01*
X012450Y029723D01*
X012428Y029709D01*
X012409Y029691D01*
X012391Y029672D01*
X012377Y029650D01*
X012365Y029627D01*
X012357Y029602D01*
X012352Y029576D01*
X012350Y029550D01*
X012350Y029050D01*
X012352Y029024D01*
X012357Y028998D01*
X012365Y028973D01*
X012377Y028950D01*
X012391Y028928D01*
X012409Y028909D01*
X012428Y028891D01*
X012450Y028877D01*
X012473Y028865D01*
X012498Y028857D01*
X012524Y028852D01*
X012550Y028850D01*
X013850Y028850D01*
X013876Y028852D01*
X013902Y028857D01*
X013927Y028865D01*
X013950Y028877D01*
X013972Y028891D01*
X013991Y028909D01*
X014009Y028928D01*
X014023Y028950D01*
X014035Y028973D01*
X014043Y028998D01*
X014048Y029024D01*
X014050Y029050D01*
X017150Y028850D02*
X017150Y030150D01*
X017152Y030176D01*
X017157Y030202D01*
X017165Y030227D01*
X017177Y030250D01*
X017191Y030272D01*
X017209Y030291D01*
X017228Y030309D01*
X017250Y030323D01*
X017273Y030335D01*
X017298Y030343D01*
X017324Y030348D01*
X017350Y030350D01*
X017850Y030350D01*
X017876Y030348D01*
X017902Y030343D01*
X017927Y030335D01*
X017950Y030323D01*
X017972Y030309D01*
X017991Y030291D01*
X018009Y030272D01*
X018023Y030250D01*
X018035Y030227D01*
X018043Y030202D01*
X018048Y030176D01*
X018050Y030150D01*
X018050Y028850D01*
X018048Y028824D01*
X018043Y028798D01*
X018035Y028773D01*
X018023Y028750D01*
X018009Y028728D01*
X017991Y028709D01*
X017972Y028691D01*
X017950Y028677D01*
X017927Y028665D01*
X017902Y028657D01*
X017876Y028652D01*
X017850Y028650D01*
X017350Y028650D01*
X017324Y028652D01*
X017298Y028657D01*
X017273Y028665D01*
X017250Y028677D01*
X017228Y028691D01*
X017209Y028709D01*
X017191Y028728D01*
X017177Y028750D01*
X017165Y028773D01*
X017157Y028798D01*
X017152Y028824D01*
X017150Y028850D01*
X011100Y024100D02*
X011000Y024200D01*
X010200Y024200D01*
X010100Y024100D01*
X010100Y023300D01*
X010200Y023200D01*
X010100Y023100D01*
X010100Y022300D01*
X010200Y022200D01*
X011000Y022200D01*
X011100Y022300D01*
X011100Y023100D01*
X011000Y023200D01*
X011100Y023300D01*
X011100Y024100D01*
X009830Y023830D02*
X009390Y023830D01*
X009610Y023610D01*
X009610Y023903D01*
X009610Y023443D02*
X009683Y023369D01*
X009683Y023149D01*
X009830Y023149D02*
X009390Y023149D01*
X009390Y023369D01*
X009463Y023443D01*
X009610Y023443D01*
X009683Y023296D02*
X009830Y023443D01*
X010200Y022100D02*
X010100Y022000D01*
X010100Y021200D01*
X010200Y021100D01*
X010100Y021000D01*
X010100Y020200D01*
X010200Y020100D01*
X011000Y020100D01*
X011100Y020200D01*
X011100Y021000D01*
X011000Y021100D01*
X011100Y021200D01*
X011100Y022000D01*
X011000Y022100D01*
X010200Y022100D01*
X009737Y021344D02*
X009663Y021344D01*
X009590Y021271D01*
X009590Y021197D01*
X009590Y021271D02*
X009516Y021344D01*
X009443Y021344D01*
X009370Y021271D01*
X009370Y021124D01*
X009443Y021050D01*
X009443Y020884D02*
X009590Y020884D01*
X009663Y020810D01*
X009663Y020590D01*
X009663Y020737D02*
X009810Y020884D01*
X009737Y021050D02*
X009810Y021124D01*
X009810Y021271D01*
X009737Y021344D01*
X009443Y020884D02*
X009370Y020810D01*
X009370Y020590D01*
X009810Y020590D01*
X009050Y019850D02*
X007750Y019850D01*
X007724Y019848D01*
X007698Y019843D01*
X007673Y019835D01*
X007650Y019823D01*
X007628Y019809D01*
X007609Y019791D01*
X007591Y019772D01*
X007577Y019750D01*
X007565Y019727D01*
X007557Y019702D01*
X007552Y019676D01*
X007550Y019650D01*
X007550Y019150D01*
X007552Y019124D01*
X007557Y019098D01*
X007565Y019073D01*
X007577Y019050D01*
X007591Y019028D01*
X007609Y019009D01*
X007628Y018991D01*
X007650Y018977D01*
X007673Y018965D01*
X007698Y018957D01*
X007724Y018952D01*
X007750Y018950D01*
X009050Y018950D01*
X009076Y018952D01*
X009102Y018957D01*
X009127Y018965D01*
X009150Y018977D01*
X009172Y018991D01*
X009191Y019009D01*
X009209Y019028D01*
X009223Y019050D01*
X009235Y019073D01*
X009243Y019098D01*
X009248Y019124D01*
X009250Y019150D01*
X009250Y019650D01*
X009248Y019676D01*
X009243Y019702D01*
X009235Y019727D01*
X009223Y019750D01*
X009209Y019772D01*
X009191Y019791D01*
X009172Y019809D01*
X009150Y019823D01*
X009127Y019835D01*
X009102Y019843D01*
X009076Y019848D01*
X009050Y019850D01*
X007350Y019650D02*
X007350Y019150D01*
X007348Y019124D01*
X007343Y019098D01*
X007335Y019073D01*
X007323Y019050D01*
X007309Y019028D01*
X007291Y019009D01*
X007272Y018991D01*
X007250Y018977D01*
X007227Y018965D01*
X007202Y018957D01*
X007176Y018952D01*
X007150Y018950D01*
X005850Y018950D01*
X005824Y018952D01*
X005798Y018957D01*
X005773Y018965D01*
X005750Y018977D01*
X005728Y018991D01*
X005709Y019009D01*
X005691Y019028D01*
X005677Y019050D01*
X005665Y019073D01*
X005657Y019098D01*
X005652Y019124D01*
X005650Y019150D01*
X005650Y019650D01*
X005652Y019676D01*
X005657Y019702D01*
X005665Y019727D01*
X005677Y019750D01*
X005691Y019772D01*
X005709Y019791D01*
X005728Y019809D01*
X005750Y019823D01*
X005773Y019835D01*
X005798Y019843D01*
X005824Y019848D01*
X005850Y019850D01*
X007150Y019850D01*
X007176Y019848D01*
X007202Y019843D01*
X007227Y019835D01*
X007250Y019823D01*
X007272Y019809D01*
X007291Y019791D01*
X007309Y019772D01*
X007323Y019750D01*
X007335Y019727D01*
X007343Y019702D01*
X007348Y019676D01*
X007350Y019650D01*
X007600Y018200D02*
X006800Y018200D01*
X006700Y018100D01*
X006700Y017300D01*
X006800Y017200D01*
X006700Y017100D01*
X006700Y016300D01*
X006800Y016200D01*
X007600Y016200D01*
X007700Y016300D01*
X007700Y017100D01*
X007600Y017200D01*
X007700Y017300D01*
X007700Y018100D01*
X007600Y018200D01*
X006530Y017430D02*
X006530Y017283D01*
X006457Y017210D01*
X006310Y017210D02*
X006236Y017356D01*
X006236Y017430D01*
X006310Y017503D01*
X006457Y017503D01*
X006530Y017430D01*
X006310Y017210D02*
X006090Y017210D01*
X006090Y017503D01*
X006163Y017043D02*
X006310Y017043D01*
X006383Y016969D01*
X006383Y016749D01*
X006530Y016749D02*
X006090Y016749D01*
X006090Y016969D01*
X006163Y017043D01*
X006383Y016896D02*
X006530Y017043D01*
X007350Y015750D02*
X007850Y015750D01*
X007876Y015748D01*
X007902Y015743D01*
X007927Y015735D01*
X007950Y015723D01*
X007972Y015709D01*
X007991Y015691D01*
X008009Y015672D01*
X008023Y015650D01*
X008035Y015627D01*
X008043Y015602D01*
X008048Y015576D01*
X008050Y015550D01*
X008050Y014250D01*
X008048Y014224D01*
X008043Y014198D01*
X008035Y014173D01*
X008023Y014150D01*
X008009Y014128D01*
X007991Y014109D01*
X007972Y014091D01*
X007950Y014077D01*
X007927Y014065D01*
X007902Y014057D01*
X007876Y014052D01*
X007850Y014050D01*
X007350Y014050D01*
X007324Y014052D01*
X007298Y014057D01*
X007273Y014065D01*
X007250Y014077D01*
X007228Y014091D01*
X007209Y014109D01*
X007191Y014128D01*
X007177Y014150D01*
X007165Y014173D01*
X007157Y014198D01*
X007152Y014224D01*
X007150Y014250D01*
X007150Y015550D01*
X007152Y015576D01*
X007157Y015602D01*
X007165Y015627D01*
X007177Y015650D01*
X007191Y015672D01*
X007209Y015691D01*
X007228Y015709D01*
X007250Y015723D01*
X007273Y015735D01*
X007298Y015743D01*
X007324Y015748D01*
X007350Y015750D01*
X009350Y015550D02*
X009350Y014250D01*
X009352Y014224D01*
X009357Y014198D01*
X009365Y014173D01*
X009377Y014150D01*
X009391Y014128D01*
X009409Y014109D01*
X009428Y014091D01*
X009450Y014077D01*
X009473Y014065D01*
X009498Y014057D01*
X009524Y014052D01*
X009550Y014050D01*
X010050Y014050D01*
X010076Y014052D01*
X010102Y014057D01*
X010127Y014065D01*
X010150Y014077D01*
X010172Y014091D01*
X010191Y014109D01*
X010209Y014128D01*
X010223Y014150D01*
X010235Y014173D01*
X010243Y014198D01*
X010248Y014224D01*
X010250Y014250D01*
X010250Y015550D01*
X010248Y015576D01*
X010243Y015602D01*
X010235Y015627D01*
X010223Y015650D01*
X010209Y015672D01*
X010191Y015691D01*
X010172Y015709D01*
X010150Y015723D01*
X010127Y015735D01*
X010102Y015743D01*
X010076Y015748D01*
X010050Y015750D01*
X009550Y015750D01*
X009524Y015748D01*
X009498Y015743D01*
X009473Y015735D01*
X009450Y015723D01*
X009428Y015709D01*
X009409Y015691D01*
X009391Y015672D01*
X009377Y015650D01*
X009365Y015627D01*
X009357Y015602D01*
X009352Y015576D01*
X009350Y015550D01*
X009550Y013850D02*
X010050Y013850D01*
X010076Y013848D01*
X010102Y013843D01*
X010127Y013835D01*
X010150Y013823D01*
X010172Y013809D01*
X010191Y013791D01*
X010209Y013772D01*
X010223Y013750D01*
X010235Y013727D01*
X010243Y013702D01*
X010248Y013676D01*
X010250Y013650D01*
X010250Y012350D01*
X010248Y012324D01*
X010243Y012298D01*
X010235Y012273D01*
X010223Y012250D01*
X010209Y012228D01*
X010191Y012209D01*
X010172Y012191D01*
X010150Y012177D01*
X010127Y012165D01*
X010102Y012157D01*
X010076Y012152D01*
X010050Y012150D01*
X009550Y012150D01*
X009524Y012152D01*
X009498Y012157D01*
X009473Y012165D01*
X009450Y012177D01*
X009428Y012191D01*
X009409Y012209D01*
X009391Y012228D01*
X009377Y012250D01*
X009365Y012273D01*
X009357Y012298D01*
X009352Y012324D01*
X009350Y012350D01*
X009350Y013650D01*
X009352Y013676D01*
X009357Y013702D01*
X009365Y013727D01*
X009377Y013750D01*
X009391Y013772D01*
X009409Y013791D01*
X009428Y013809D01*
X009450Y013823D01*
X009473Y013835D01*
X009498Y013843D01*
X009524Y013848D01*
X009550Y013850D01*
X007900Y012600D02*
X007800Y012700D01*
X007000Y012700D01*
X006900Y012600D01*
X006800Y012700D01*
X006000Y012700D01*
X005900Y012600D01*
X005900Y011800D01*
X006000Y011700D01*
X006800Y011700D01*
X006900Y011800D01*
X007000Y011700D01*
X007800Y011700D01*
X007900Y011800D01*
X007900Y012600D01*
X008950Y011950D02*
X010250Y011950D01*
X010276Y011948D01*
X010302Y011943D01*
X010327Y011935D01*
X010350Y011923D01*
X010372Y011909D01*
X010391Y011891D01*
X010409Y011872D01*
X010423Y011850D01*
X010435Y011827D01*
X010443Y011802D01*
X010448Y011776D01*
X010450Y011750D01*
X010450Y011250D01*
X010448Y011224D01*
X010443Y011198D01*
X010435Y011173D01*
X010423Y011150D01*
X010409Y011128D01*
X010391Y011109D01*
X010372Y011091D01*
X010350Y011077D01*
X010327Y011065D01*
X010302Y011057D01*
X010276Y011052D01*
X010250Y011050D01*
X008950Y011050D01*
X008924Y011052D01*
X008898Y011057D01*
X008873Y011065D01*
X008850Y011077D01*
X008828Y011091D01*
X008809Y011109D01*
X008791Y011128D01*
X008777Y011150D01*
X008765Y011173D01*
X008757Y011198D01*
X008752Y011224D01*
X008750Y011250D01*
X008750Y011750D01*
X008752Y011776D01*
X008757Y011802D01*
X008765Y011827D01*
X008777Y011850D01*
X008791Y011872D01*
X008809Y011891D01*
X008828Y011909D01*
X008850Y011923D01*
X008873Y011935D01*
X008898Y011943D01*
X008924Y011948D01*
X008950Y011950D01*
X008950Y010350D02*
X010250Y010350D01*
X010276Y010348D01*
X010302Y010343D01*
X010327Y010335D01*
X010350Y010323D01*
X010372Y010309D01*
X010391Y010291D01*
X010409Y010272D01*
X010423Y010250D01*
X010435Y010227D01*
X010443Y010202D01*
X010448Y010176D01*
X010450Y010150D01*
X010450Y009650D01*
X010448Y009624D01*
X010443Y009598D01*
X010435Y009573D01*
X010423Y009550D01*
X010409Y009528D01*
X010391Y009509D01*
X010372Y009491D01*
X010350Y009477D01*
X010327Y009465D01*
X010302Y009457D01*
X010276Y009452D01*
X010250Y009450D01*
X008950Y009450D01*
X008924Y009452D01*
X008898Y009457D01*
X008873Y009465D01*
X008850Y009477D01*
X008828Y009491D01*
X008809Y009509D01*
X008791Y009528D01*
X008777Y009550D01*
X008765Y009573D01*
X008757Y009598D01*
X008752Y009624D01*
X008750Y009650D01*
X008750Y010150D01*
X008752Y010176D01*
X008757Y010202D01*
X008765Y010227D01*
X008777Y010250D01*
X008791Y010272D01*
X008809Y010291D01*
X008828Y010309D01*
X008850Y010323D01*
X008873Y010335D01*
X008898Y010343D01*
X008924Y010348D01*
X008950Y010350D01*
X007344Y009330D02*
X007197Y009257D01*
X007050Y009110D01*
X007271Y009110D01*
X007344Y009037D01*
X007344Y008963D01*
X007271Y008890D01*
X007124Y008890D01*
X007050Y008963D01*
X007050Y009110D01*
X006884Y009110D02*
X006810Y009037D01*
X006590Y009037D01*
X006737Y009037D02*
X006884Y008890D01*
X006884Y009110D02*
X006884Y009257D01*
X006810Y009330D01*
X006590Y009330D01*
X006590Y008890D01*
X012050Y005850D02*
X012050Y005350D01*
X012052Y005324D01*
X012057Y005298D01*
X012065Y005273D01*
X012077Y005250D01*
X012091Y005228D01*
X012109Y005209D01*
X012128Y005191D01*
X012150Y005177D01*
X012173Y005165D01*
X012198Y005157D01*
X012224Y005152D01*
X012250Y005150D01*
X013550Y005150D01*
X013576Y005152D01*
X013602Y005157D01*
X013627Y005165D01*
X013650Y005177D01*
X013672Y005191D01*
X013691Y005209D01*
X013709Y005228D01*
X013723Y005250D01*
X013735Y005273D01*
X013743Y005298D01*
X013748Y005324D01*
X013750Y005350D01*
X013750Y005850D01*
X013748Y005876D01*
X013743Y005902D01*
X013735Y005927D01*
X013723Y005950D01*
X013709Y005972D01*
X013691Y005991D01*
X013672Y006009D01*
X013650Y006023D01*
X013627Y006035D01*
X013602Y006043D01*
X013576Y006048D01*
X013550Y006050D01*
X012250Y006050D01*
X012224Y006048D01*
X012198Y006043D01*
X012173Y006035D01*
X012150Y006023D01*
X012128Y006009D01*
X012109Y005991D01*
X012091Y005972D01*
X012077Y005950D01*
X012065Y005927D01*
X012057Y005902D01*
X012052Y005876D01*
X012050Y005850D01*
X015690Y008690D02*
X015690Y009130D01*
X015910Y009130D01*
X015984Y009057D01*
X015984Y008910D01*
X015910Y008837D01*
X015690Y008837D01*
X015837Y008837D02*
X015984Y008690D01*
X016150Y008690D02*
X016444Y008690D01*
X016297Y008690D02*
X016297Y009130D01*
X016150Y008984D01*
X016611Y009130D02*
X016904Y009130D01*
X016904Y009057D01*
X016611Y008763D01*
X016611Y008690D01*
X018950Y006050D02*
X020250Y006050D01*
X020276Y006048D01*
X020302Y006043D01*
X020327Y006035D01*
X020350Y006023D01*
X020372Y006009D01*
X020391Y005991D01*
X020409Y005972D01*
X020423Y005950D01*
X020435Y005927D01*
X020443Y005902D01*
X020448Y005876D01*
X020450Y005850D01*
X020450Y005350D01*
X020448Y005324D01*
X020443Y005298D01*
X020435Y005273D01*
X020423Y005250D01*
X020409Y005228D01*
X020391Y005209D01*
X020372Y005191D01*
X020350Y005177D01*
X020327Y005165D01*
X020302Y005157D01*
X020276Y005152D01*
X020250Y005150D01*
X018950Y005150D01*
X018924Y005152D01*
X018898Y005157D01*
X018873Y005165D01*
X018850Y005177D01*
X018828Y005191D01*
X018809Y005209D01*
X018791Y005228D01*
X018777Y005250D01*
X018765Y005273D01*
X018757Y005298D01*
X018752Y005324D01*
X018750Y005350D01*
X018750Y005850D01*
X018752Y005876D01*
X018757Y005902D01*
X018765Y005927D01*
X018777Y005950D01*
X018791Y005972D01*
X018809Y005991D01*
X018828Y006009D01*
X018850Y006023D01*
X018873Y006035D01*
X018898Y006043D01*
X018924Y006048D01*
X018950Y006050D01*
X018703Y002210D02*
X018410Y002210D01*
X018410Y001990D01*
X018556Y002064D01*
X018630Y002064D01*
X018703Y001990D01*
X018703Y001843D01*
X018630Y001770D01*
X018483Y001770D01*
X018410Y001843D01*
X018243Y001770D02*
X017949Y001770D01*
X018096Y001770D02*
X018096Y002210D01*
X017949Y002064D01*
X017782Y002137D02*
X017782Y001990D01*
X017709Y001917D01*
X017489Y001917D01*
X017636Y001917D02*
X017782Y001770D01*
X017489Y001770D02*
X017489Y002210D01*
X017709Y002210D01*
X017782Y002137D01*
X016003Y002210D02*
X015856Y002137D01*
X015710Y001990D01*
X015930Y001990D01*
X016003Y001917D01*
X016003Y001843D01*
X015930Y001770D01*
X015783Y001770D01*
X015710Y001843D01*
X015710Y001990D01*
X015543Y001770D02*
X015249Y001770D01*
X015396Y001770D02*
X015396Y002210D01*
X015249Y002064D01*
X015082Y002137D02*
X015009Y002210D01*
X014789Y002210D01*
X014789Y001770D01*
X014789Y001917D02*
X015009Y001917D01*
X015082Y001990D01*
X015082Y002137D01*
X014936Y001917D02*
X015082Y001770D01*
X002350Y013550D02*
X001850Y013550D01*
X001824Y013552D01*
X001798Y013557D01*
X001773Y013565D01*
X001750Y013577D01*
X001728Y013591D01*
X001709Y013609D01*
X001691Y013628D01*
X001677Y013650D01*
X001665Y013673D01*
X001657Y013698D01*
X001652Y013724D01*
X001650Y013750D01*
X001650Y015050D01*
X001652Y015076D01*
X001657Y015102D01*
X001665Y015127D01*
X001677Y015150D01*
X001691Y015172D01*
X001709Y015191D01*
X001728Y015209D01*
X001750Y015223D01*
X001773Y015235D01*
X001798Y015243D01*
X001824Y015248D01*
X001850Y015250D01*
X002350Y015250D01*
X002376Y015248D01*
X002402Y015243D01*
X002427Y015235D01*
X002450Y015223D01*
X002472Y015209D01*
X002491Y015191D01*
X002509Y015172D01*
X002523Y015150D01*
X002535Y015127D01*
X002543Y015102D01*
X002548Y015076D01*
X002550Y015050D01*
X002550Y013750D01*
X002548Y013724D01*
X002543Y013698D01*
X002535Y013673D01*
X002523Y013650D01*
X002509Y013628D01*
X002491Y013609D01*
X002472Y013591D01*
X002450Y013577D01*
X002427Y013565D01*
X002402Y013557D01*
X002376Y013552D01*
X002350Y013550D01*
X003600Y014300D02*
X003600Y015100D01*
X003700Y015200D01*
X003600Y015300D01*
X003600Y016100D01*
X003700Y016200D01*
X004500Y016200D01*
X004600Y016100D01*
X004600Y015300D01*
X004500Y015200D01*
X004600Y015100D01*
X004600Y014300D01*
X004500Y014200D01*
X003700Y014200D01*
X003600Y014300D01*
X003010Y016290D02*
X002570Y016290D01*
X002570Y016510D01*
X002643Y016584D01*
X002790Y016584D01*
X002863Y016510D01*
X002863Y016290D01*
X002863Y016437D02*
X003010Y016584D01*
X002937Y016750D02*
X003010Y016824D01*
X003010Y016971D01*
X002937Y017044D01*
X002643Y017044D01*
X002570Y016971D01*
X002570Y016824D01*
X002643Y016750D01*
X002716Y016750D01*
X002790Y016824D01*
X002790Y017044D01*
X003600Y016700D02*
X003600Y017500D01*
X003700Y017600D01*
X003600Y017700D01*
X003600Y018500D01*
X003700Y018600D01*
X004500Y018600D01*
X004600Y018500D01*
X004600Y017700D01*
X004500Y017600D01*
X004600Y017500D01*
X004600Y016700D01*
X004500Y016600D01*
X003700Y016600D01*
X003600Y016700D01*
X003030Y018089D02*
X002590Y018089D01*
X002590Y018309D01*
X002663Y018382D01*
X002810Y018382D01*
X002883Y018309D01*
X002883Y018089D01*
X002883Y018236D02*
X003030Y018382D01*
X003030Y018549D02*
X003030Y018843D01*
X003030Y018696D02*
X002590Y018696D01*
X002736Y018549D01*
X002663Y019010D02*
X002590Y019083D01*
X002590Y019230D01*
X002663Y019303D01*
X002736Y019303D01*
X003030Y019010D01*
X003030Y019303D01*
X003600Y019000D02*
X003600Y019800D01*
X003700Y019900D01*
X003600Y020000D01*
X003600Y020800D01*
X003700Y020900D01*
X004500Y020900D01*
X004600Y020800D01*
X004600Y020000D01*
X004500Y019900D01*
X004600Y019800D01*
X004600Y019000D01*
X004500Y018900D01*
X003700Y018900D01*
X003600Y019000D01*
X002910Y020390D02*
X002470Y020390D01*
X002470Y020610D01*
X002543Y020684D01*
X002690Y020684D01*
X002763Y020610D01*
X002763Y020390D01*
X002763Y020537D02*
X002910Y020684D01*
X002910Y020850D02*
X002910Y021144D01*
X002910Y020997D02*
X002470Y020997D01*
X002616Y020850D01*
X002543Y021311D02*
X002470Y021384D01*
X002470Y021531D01*
X002543Y021604D01*
X002616Y021604D01*
X002690Y021531D01*
X002763Y021604D01*
X002837Y021604D01*
X002910Y021531D01*
X002910Y021384D01*
X002837Y021311D01*
X002690Y021458D02*
X002690Y021531D01*
X003700Y021800D02*
X003700Y022600D01*
X003800Y022700D01*
X003700Y022800D01*
X003700Y023600D01*
X003800Y023700D01*
X004600Y023700D01*
X004700Y023600D01*
X004700Y022800D01*
X004600Y022700D01*
X004700Y022600D01*
X004700Y021800D01*
X004600Y021700D01*
X003800Y021700D01*
X003700Y021800D01*
X003212Y022650D02*
X002785Y022650D01*
X005500Y023200D02*
X005500Y024000D01*
X005600Y024100D01*
X006400Y024100D01*
X006500Y024000D01*
X006600Y024100D01*
X007400Y024100D01*
X007500Y024000D01*
X007500Y023200D01*
X007400Y023100D01*
X006600Y023100D01*
X006500Y023200D01*
X006400Y023100D01*
X005600Y023100D01*
X005500Y023200D01*
X005600Y025200D02*
X005500Y025300D01*
X005500Y026100D01*
X005600Y026200D01*
X006400Y026200D01*
X006500Y026100D01*
X006600Y026200D01*
X007400Y026200D01*
X007500Y026100D01*
X007500Y025300D01*
X007400Y025200D01*
X006600Y025200D01*
X006500Y025300D01*
X006400Y025200D01*
X005600Y025200D01*
X-000010Y022650D02*
X-000437Y022650D01*
X-000224Y022864D02*
X-000224Y022437D01*
X001700Y031400D02*
X002500Y031400D01*
X002600Y031500D01*
X002600Y032300D01*
X002500Y032400D01*
X002600Y032500D01*
X002600Y033300D01*
X002500Y033400D01*
X001700Y033400D01*
X001600Y033300D01*
X001600Y032500D01*
X001700Y032400D01*
X001600Y032300D01*
X001600Y031500D01*
X001700Y031400D01*
X004350Y033000D02*
X004324Y033029D01*
X004302Y033061D01*
X004283Y033095D01*
X004267Y033131D01*
X004255Y033168D01*
X004246Y033206D01*
X004242Y033244D01*
X004241Y033283D01*
X004245Y033322D01*
X004252Y033360D01*
X004263Y033398D01*
X004277Y033434D01*
X004295Y033468D01*
X004317Y033501D01*
X004342Y033531D01*
X004369Y033558D01*
X004399Y033583D01*
X004432Y033605D01*
X004466Y033623D01*
X004502Y033637D01*
X004540Y033648D01*
X004578Y033655D01*
X004617Y033659D01*
X004656Y033658D01*
X004694Y033654D01*
X004732Y033645D01*
X004769Y033633D01*
X004805Y033617D01*
X004839Y033598D01*
X004871Y033576D01*
X004900Y033550D01*
X004050Y032000D02*
X004052Y032091D01*
X004059Y032181D01*
X004070Y032271D01*
X004086Y032361D01*
X004105Y032450D01*
X004130Y032537D01*
X004158Y032623D01*
X004191Y032708D01*
X004228Y032791D01*
X004268Y032872D01*
X004313Y032951D01*
X004362Y033028D01*
X004414Y033102D01*
X004470Y033174D01*
X004529Y033242D01*
X004592Y033308D01*
X004658Y033371D01*
X004726Y033430D01*
X004798Y033486D01*
X004872Y033538D01*
X004949Y033587D01*
X005028Y033632D01*
X005109Y033672D01*
X005192Y033709D01*
X005277Y033742D01*
X005363Y033770D01*
X005450Y033795D01*
X005539Y033814D01*
X005629Y033830D01*
X005719Y033841D01*
X005809Y033848D01*
X005900Y033850D01*
X005991Y033848D01*
X006081Y033841D01*
X006171Y033830D01*
X006261Y033814D01*
X006350Y033795D01*
X006437Y033770D01*
X006523Y033742D01*
X006608Y033709D01*
X006691Y033672D01*
X006772Y033632D01*
X006851Y033587D01*
X006928Y033538D01*
X007002Y033486D01*
X007074Y033430D01*
X007142Y033371D01*
X007208Y033308D01*
X007271Y033242D01*
X007330Y033174D01*
X007386Y033102D01*
X007438Y033028D01*
X007487Y032951D01*
X007532Y032872D01*
X007572Y032791D01*
X007609Y032708D01*
X007642Y032623D01*
X007670Y032537D01*
X007695Y032450D01*
X007714Y032361D01*
X007730Y032271D01*
X007741Y032181D01*
X007748Y032091D01*
X007750Y032000D01*
X007748Y031909D01*
X007741Y031819D01*
X007730Y031729D01*
X007714Y031639D01*
X007695Y031550D01*
X007670Y031463D01*
X007642Y031377D01*
X007609Y031292D01*
X007572Y031209D01*
X007532Y031128D01*
X007487Y031049D01*
X007438Y030972D01*
X007386Y030898D01*
X007330Y030826D01*
X007271Y030758D01*
X007208Y030692D01*
X007142Y030629D01*
X007074Y030570D01*
X007002Y030514D01*
X006928Y030462D01*
X006851Y030413D01*
X006772Y030368D01*
X006691Y030328D01*
X006608Y030291D01*
X006523Y030258D01*
X006437Y030230D01*
X006350Y030205D01*
X006261Y030186D01*
X006171Y030170D01*
X006081Y030159D01*
X005991Y030152D01*
X005900Y030150D01*
X005809Y030152D01*
X005719Y030159D01*
X005629Y030170D01*
X005539Y030186D01*
X005450Y030205D01*
X005363Y030230D01*
X005277Y030258D01*
X005192Y030291D01*
X005109Y030328D01*
X005028Y030368D01*
X004949Y030413D01*
X004872Y030462D01*
X004798Y030514D01*
X004726Y030570D01*
X004658Y030629D01*
X004592Y030692D01*
X004529Y030758D01*
X004470Y030826D01*
X004414Y030898D01*
X004362Y030972D01*
X004313Y031049D01*
X004268Y031128D01*
X004228Y031209D01*
X004191Y031292D01*
X004158Y031377D01*
X004130Y031463D01*
X004105Y031550D01*
X004086Y031639D01*
X004070Y031729D01*
X004059Y031819D01*
X004052Y031909D01*
X004050Y032000D01*
X009000Y032300D02*
X009000Y031500D01*
X009100Y031400D01*
X009900Y031400D01*
X010000Y031500D01*
X010000Y032300D01*
X009900Y032400D01*
X010000Y032500D01*
X010000Y033300D01*
X009900Y033400D01*
X009100Y033400D01*
X009000Y033300D01*
X009000Y032500D01*
X009100Y032400D01*
X009000Y032300D01*
X017690Y016830D02*
X017910Y016830D01*
X017984Y016757D01*
X017984Y016610D01*
X017910Y016537D01*
X017690Y016537D01*
X017837Y016537D02*
X017984Y016390D01*
X018150Y016390D02*
X018444Y016390D01*
X018297Y016390D02*
X018297Y016830D01*
X018150Y016684D01*
X018611Y016684D02*
X018758Y016830D01*
X018758Y016390D01*
X018904Y016390D02*
X018611Y016390D01*
X017690Y016390D02*
X017690Y016830D01*
D15*
X001250Y022550D02*
X001252Y022591D01*
X001258Y022631D01*
X001267Y022671D01*
X001281Y022710D01*
X001298Y022747D01*
X001318Y022782D01*
X001342Y022816D01*
X001369Y022847D01*
X001398Y022875D01*
X001431Y022900D01*
X001465Y022922D01*
X001501Y022941D01*
X001539Y022956D01*
X001579Y022968D01*
X001619Y022976D01*
X001660Y022980D01*
X001700Y022980D01*
X001741Y022976D01*
X001781Y022968D01*
X001821Y022956D01*
X001859Y022941D01*
X001895Y022922D01*
X001929Y022900D01*
X001962Y022875D01*
X001991Y022847D01*
X002018Y022816D01*
X002042Y022782D01*
X002062Y022747D01*
X002079Y022710D01*
X002093Y022671D01*
X002102Y022631D01*
X002108Y022591D01*
X002110Y022550D01*
X002108Y022509D01*
X002102Y022469D01*
X002093Y022429D01*
X002079Y022390D01*
X002062Y022353D01*
X002042Y022318D01*
X002018Y022284D01*
X001991Y022253D01*
X001962Y022225D01*
X001929Y022200D01*
X001895Y022178D01*
X001859Y022159D01*
X001821Y022144D01*
X001781Y022132D01*
X001741Y022124D01*
X001700Y022120D01*
X001660Y022120D01*
X001619Y022124D01*
X001579Y022132D01*
X001539Y022144D01*
X001501Y022159D01*
X001465Y022178D01*
X001431Y022200D01*
X001398Y022225D01*
X001369Y022253D01*
X001342Y022284D01*
X001318Y022318D01*
X001298Y022353D01*
X001281Y022390D01*
X001267Y022429D01*
X001258Y022469D01*
X001252Y022509D01*
X001250Y022550D01*
D16*
X006380Y019700D02*
X006380Y019100D01*
X006630Y019100D02*
X006630Y019700D01*
X008270Y019700D02*
X008270Y019100D01*
X008520Y019100D02*
X008520Y019700D01*
X013380Y022600D02*
X013380Y023200D01*
X013630Y023200D02*
X013630Y022600D01*
X015100Y025070D02*
X015700Y025070D01*
X015700Y025320D02*
X015100Y025320D01*
X013430Y026600D02*
X013430Y027200D01*
X013180Y027200D02*
X013180Y026600D01*
X013080Y029000D02*
X013080Y029600D01*
X013330Y029600D02*
X013330Y029000D01*
X015000Y029380D02*
X015600Y029380D01*
X015600Y029630D02*
X015000Y029630D01*
X017300Y029630D02*
X017900Y029630D01*
X017900Y029380D02*
X017300Y029380D01*
X022380Y021900D02*
X022380Y021300D01*
X022630Y021300D02*
X022630Y021900D01*
X022630Y019700D02*
X022630Y019100D01*
X022380Y019100D02*
X022380Y019700D01*
X018220Y019800D02*
X018220Y019200D01*
X017970Y019200D02*
X017970Y019800D01*
X010100Y015020D02*
X009500Y015020D01*
X009500Y014770D02*
X010100Y014770D01*
X007900Y014770D02*
X007300Y014770D01*
X007300Y015020D02*
X007900Y015020D01*
X009500Y013130D02*
X010100Y013130D01*
X010100Y012880D02*
X009500Y012880D01*
X009470Y011800D02*
X009470Y011200D01*
X009720Y011200D02*
X009720Y011800D01*
X009720Y010200D02*
X009720Y009600D01*
X009470Y009600D02*
X009470Y010200D01*
X012770Y005900D02*
X012770Y005300D01*
X013020Y005300D02*
X013020Y005900D01*
X019480Y005900D02*
X019480Y005300D01*
X019730Y005300D02*
X019730Y005900D01*
X002400Y014270D02*
X001800Y014270D01*
X001800Y014520D02*
X002400Y014520D01*
D17*
X002775Y014665D02*
X002850Y014515D01*
X003000Y014365D01*
X003000Y014590D01*
X003075Y014665D01*
X003150Y014665D01*
X003225Y014590D01*
X003225Y014440D01*
X003150Y014365D01*
X003000Y014365D01*
X003150Y014204D02*
X003225Y014129D01*
X003225Y013979D01*
X003150Y013904D01*
X002850Y013904D01*
X002775Y013979D01*
X002775Y014129D01*
X002850Y014204D01*
X004775Y014234D02*
X004775Y014384D01*
X004775Y014309D02*
X005150Y014309D01*
X005225Y014234D01*
X005225Y014158D01*
X005150Y014083D01*
X005225Y014544D02*
X004775Y014544D01*
X004775Y014769D01*
X004850Y014844D01*
X005000Y014844D01*
X005075Y014769D01*
X005075Y014544D01*
X005225Y015004D02*
X005225Y015304D01*
X005225Y015154D02*
X004775Y015154D01*
X004925Y015004D01*
X004925Y015465D02*
X004850Y015465D01*
X004775Y015540D01*
X004775Y015690D01*
X004850Y015765D01*
X004925Y015765D01*
X005000Y015690D01*
X005000Y015540D01*
X004925Y015465D01*
X005000Y015540D02*
X005075Y015465D01*
X005150Y015465D01*
X005225Y015540D01*
X005225Y015690D01*
X005150Y015765D01*
X005075Y015765D01*
X005000Y015690D01*
X005150Y016544D02*
X005225Y016619D01*
X005225Y016694D01*
X005150Y016769D01*
X004775Y016769D01*
X004775Y016694D02*
X004775Y016844D01*
X004775Y017004D02*
X004775Y017229D01*
X004850Y017304D01*
X005000Y017304D01*
X005075Y017229D01*
X005075Y017004D01*
X005225Y017004D02*
X004775Y017004D01*
X004925Y017465D02*
X004775Y017615D01*
X005225Y017615D01*
X005225Y017465D02*
X005225Y017765D01*
X005925Y018450D02*
X006000Y018375D01*
X006150Y018375D01*
X006225Y018450D01*
X006385Y018375D02*
X006686Y018375D01*
X006536Y018375D02*
X006536Y018825D01*
X006385Y018675D01*
X006225Y018750D02*
X006150Y018825D01*
X006000Y018825D01*
X005925Y018750D01*
X005925Y018450D01*
X006846Y018450D02*
X006921Y018375D01*
X007071Y018375D01*
X007146Y018450D01*
X007146Y018600D01*
X007071Y018675D01*
X006996Y018675D01*
X006846Y018600D01*
X006846Y018825D01*
X007146Y018825D01*
X008204Y018750D02*
X008204Y018450D01*
X008279Y018375D01*
X008429Y018375D01*
X008504Y018450D01*
X008665Y018600D02*
X008965Y018600D01*
X008890Y018375D02*
X008890Y018825D01*
X008665Y018600D01*
X008504Y018750D02*
X008429Y018825D01*
X008279Y018825D01*
X008204Y018750D01*
X008225Y017465D02*
X008300Y017390D01*
X008375Y017465D01*
X008450Y017465D01*
X008525Y017390D01*
X008525Y017240D01*
X008450Y017165D01*
X008300Y017315D02*
X008300Y017390D01*
X008225Y017465D02*
X008150Y017465D01*
X008075Y017390D01*
X008075Y017240D01*
X008150Y017165D01*
X008150Y017004D02*
X008300Y017004D01*
X008375Y016929D01*
X008375Y016704D01*
X008525Y016704D02*
X008075Y016704D01*
X008075Y016929D01*
X008150Y017004D01*
X008075Y016544D02*
X008075Y016394D01*
X008075Y016469D02*
X008450Y016469D01*
X008525Y016394D01*
X008525Y016319D01*
X008450Y016244D01*
X008400Y015465D02*
X008400Y015165D01*
X008175Y015390D01*
X008625Y015390D01*
X008625Y015004D02*
X008625Y014704D01*
X008325Y015004D01*
X008250Y015004D01*
X008175Y014929D01*
X008175Y014779D01*
X008250Y014704D01*
X008250Y014544D02*
X008175Y014469D01*
X008175Y014319D01*
X008250Y014244D01*
X008550Y014244D01*
X008625Y014319D01*
X008625Y014469D01*
X008550Y014544D01*
X010375Y014779D02*
X010450Y014704D01*
X010750Y014704D01*
X010825Y014779D01*
X010825Y014929D01*
X010750Y015004D01*
X010750Y015165D02*
X010450Y015465D01*
X010375Y015465D01*
X010375Y015165D01*
X010450Y015004D02*
X010375Y014929D01*
X010375Y014779D01*
X010750Y015165D02*
X010825Y015165D01*
X010750Y013546D02*
X010675Y013546D01*
X010600Y013471D01*
X010600Y013246D01*
X010750Y013246D01*
X010825Y013321D01*
X010825Y013471D01*
X010750Y013546D01*
X010450Y013396D02*
X010600Y013246D01*
X010450Y013396D02*
X010375Y013546D01*
X010825Y013086D02*
X010825Y012785D01*
X010825Y012936D02*
X010375Y012936D01*
X010525Y012785D01*
X010450Y012625D02*
X010375Y012550D01*
X010375Y012400D01*
X010450Y012325D01*
X010750Y012325D01*
X010825Y012400D01*
X010825Y012550D01*
X010750Y012625D01*
X010090Y010925D02*
X009865Y010700D01*
X010165Y010700D01*
X010090Y010475D02*
X010090Y010925D01*
X009554Y010925D02*
X009554Y010475D01*
X009404Y010475D02*
X009704Y010475D01*
X009404Y010775D02*
X009554Y010925D01*
X009244Y010850D02*
X009169Y010925D01*
X009019Y010925D01*
X008944Y010850D01*
X008944Y010550D01*
X009019Y010475D01*
X009169Y010475D01*
X009244Y010550D01*
X009169Y009325D02*
X009019Y009325D01*
X008944Y009250D01*
X008944Y008950D01*
X009019Y008875D01*
X009169Y008875D01*
X009244Y008950D01*
X009404Y008875D02*
X009704Y008875D01*
X009554Y008875D02*
X009554Y009325D01*
X009404Y009175D01*
X009244Y009250D02*
X009169Y009325D01*
X009865Y009250D02*
X009940Y009325D01*
X010090Y009325D01*
X010165Y009250D01*
X010165Y009175D01*
X010090Y009100D01*
X010165Y009025D01*
X010165Y008950D01*
X010090Y008875D01*
X009940Y008875D01*
X009865Y008950D01*
X010015Y009100D02*
X010090Y009100D01*
X007646Y011075D02*
X007346Y011075D01*
X007646Y011375D01*
X007646Y011450D01*
X007571Y011525D01*
X007421Y011525D01*
X007346Y011450D01*
X007186Y011450D02*
X007186Y011300D01*
X007111Y011225D01*
X006885Y011225D01*
X006885Y011075D02*
X006885Y011525D01*
X007111Y011525D01*
X007186Y011450D01*
X006725Y011525D02*
X006575Y011525D01*
X006650Y011525D02*
X006650Y011150D01*
X006575Y011075D01*
X006500Y011075D01*
X006425Y011150D01*
X012319Y005025D02*
X012244Y004950D01*
X012244Y004650D01*
X012319Y004575D01*
X012469Y004575D01*
X012544Y004650D01*
X012704Y004575D02*
X013004Y004575D01*
X012854Y004575D02*
X012854Y005025D01*
X012704Y004875D01*
X012544Y004950D02*
X012469Y005025D01*
X012319Y005025D01*
X013165Y004950D02*
X013165Y004875D01*
X013240Y004800D01*
X013465Y004800D01*
X013465Y004650D02*
X013465Y004950D01*
X013390Y005025D01*
X013240Y005025D01*
X013165Y004950D01*
X013165Y004650D02*
X013240Y004575D01*
X013390Y004575D01*
X013465Y004650D01*
X016844Y004525D02*
X016844Y004150D01*
X016919Y004075D01*
X017069Y004075D01*
X017144Y004150D01*
X017144Y004525D01*
X017304Y004450D02*
X017379Y004525D01*
X017529Y004525D01*
X017604Y004450D01*
X017765Y004450D02*
X017840Y004525D01*
X017990Y004525D01*
X018065Y004450D01*
X018065Y004375D01*
X017765Y004075D01*
X018065Y004075D01*
X017604Y004150D02*
X017604Y004225D01*
X017529Y004300D01*
X017379Y004300D01*
X017304Y004375D01*
X017304Y004450D01*
X017454Y004600D02*
X017454Y004000D01*
X017379Y004075D02*
X017529Y004075D01*
X017604Y004150D01*
X017379Y004075D02*
X017304Y004150D01*
X019000Y006175D02*
X018925Y006250D01*
X018925Y006550D01*
X019000Y006625D01*
X019150Y006625D01*
X019225Y006550D01*
X019385Y006475D02*
X019536Y006625D01*
X019536Y006175D01*
X019686Y006175D02*
X019385Y006175D01*
X019225Y006250D02*
X019150Y006175D01*
X019000Y006175D01*
X019846Y006250D02*
X019846Y006325D01*
X019921Y006400D01*
X020071Y006400D01*
X020146Y006325D01*
X020146Y006250D01*
X020071Y006175D01*
X019921Y006175D01*
X019846Y006250D01*
X019921Y006400D02*
X019846Y006475D01*
X019846Y006550D01*
X019921Y006625D01*
X020071Y006625D01*
X020146Y006550D01*
X020146Y006475D01*
X020071Y006400D01*
X021825Y006500D02*
X021900Y006425D01*
X022050Y006425D01*
X022125Y006500D01*
X022125Y006875D01*
X022285Y006800D02*
X022360Y006875D01*
X022511Y006875D01*
X022586Y006800D01*
X022511Y006650D02*
X022360Y006650D01*
X022285Y006725D01*
X022285Y006800D01*
X022436Y006950D02*
X022436Y006350D01*
X022511Y006425D02*
X022586Y006500D01*
X022586Y006575D01*
X022511Y006650D01*
X022511Y006425D02*
X022360Y006425D01*
X022285Y006500D01*
X021825Y006500D02*
X021825Y006875D01*
X022746Y006725D02*
X022896Y006875D01*
X022896Y006425D01*
X022746Y006425D02*
X023046Y006425D01*
X023206Y006500D02*
X023281Y006425D01*
X023431Y006425D01*
X023506Y006500D01*
X023506Y006800D01*
X023431Y006875D01*
X023281Y006875D01*
X023206Y006800D01*
X023206Y006725D01*
X023281Y006650D01*
X023506Y006650D01*
X023900Y006500D02*
X023900Y031500D01*
X023902Y031544D01*
X023908Y031587D01*
X023917Y031629D01*
X023930Y031671D01*
X023947Y031711D01*
X023967Y031750D01*
X023990Y031787D01*
X024017Y031821D01*
X024046Y031854D01*
X024079Y031883D01*
X024113Y031910D01*
X024150Y031933D01*
X024189Y031953D01*
X024229Y031970D01*
X024271Y031983D01*
X024313Y031992D01*
X024356Y031998D01*
X024400Y032000D01*
X044400Y032000D01*
X044444Y031998D01*
X044487Y031992D01*
X044529Y031983D01*
X044571Y031970D01*
X044611Y031953D01*
X044650Y031933D01*
X044687Y031910D01*
X044721Y031883D01*
X044754Y031854D01*
X044783Y031821D01*
X044810Y031787D01*
X044833Y031750D01*
X044853Y031711D01*
X044870Y031671D01*
X044883Y031629D01*
X044892Y031587D01*
X044898Y031544D01*
X044900Y031500D01*
X044900Y006500D01*
X044400Y006000D01*
X039900Y006000D01*
X038900Y005000D01*
X025900Y005000D01*
X024900Y006000D01*
X022436Y007850D02*
X022436Y008450D01*
X022511Y008375D02*
X022586Y008300D01*
X022511Y008375D02*
X022360Y008375D01*
X022285Y008300D01*
X022285Y008225D01*
X022360Y008150D01*
X022511Y008150D01*
X022586Y008075D01*
X022586Y008000D01*
X022511Y007925D01*
X022360Y007925D01*
X022285Y008000D01*
X022125Y008000D02*
X022125Y008375D01*
X021825Y008375D02*
X021825Y008000D01*
X021900Y007925D01*
X022050Y007925D01*
X022125Y008000D01*
X022746Y007925D02*
X023046Y007925D01*
X022896Y007925D02*
X022896Y008375D01*
X022746Y008225D01*
X023206Y008225D02*
X023206Y008300D01*
X023281Y008375D01*
X023431Y008375D01*
X023506Y008300D01*
X023506Y008225D01*
X023431Y008150D01*
X023281Y008150D01*
X023206Y008225D01*
X023281Y008150D02*
X023206Y008075D01*
X023206Y008000D01*
X023281Y007925D01*
X023431Y007925D01*
X023506Y008000D01*
X023506Y008075D01*
X023431Y008150D01*
X022436Y009350D02*
X022436Y009950D01*
X022511Y009875D02*
X022586Y009800D01*
X022511Y009875D02*
X022360Y009875D01*
X022285Y009800D01*
X022285Y009725D01*
X022360Y009650D01*
X022511Y009650D01*
X022586Y009575D01*
X022586Y009500D01*
X022511Y009425D01*
X022360Y009425D01*
X022285Y009500D01*
X022125Y009500D02*
X022125Y009875D01*
X021825Y009875D02*
X021825Y009500D01*
X021900Y009425D01*
X022050Y009425D01*
X022125Y009500D01*
X022746Y009425D02*
X023046Y009425D01*
X022896Y009425D02*
X022896Y009875D01*
X022746Y009725D01*
X023206Y009875D02*
X023506Y009875D01*
X023506Y009800D01*
X023206Y009500D01*
X023206Y009425D01*
X023281Y010925D02*
X023431Y010925D01*
X023506Y011000D01*
X023506Y011075D01*
X023431Y011150D01*
X023206Y011150D01*
X023206Y011000D01*
X023281Y010925D01*
X023046Y010925D02*
X022746Y010925D01*
X022896Y010925D02*
X022896Y011375D01*
X022746Y011225D01*
X022586Y011300D02*
X022511Y011375D01*
X022360Y011375D01*
X022285Y011300D01*
X022285Y011225D01*
X022360Y011150D01*
X022511Y011150D01*
X022586Y011075D01*
X022586Y011000D01*
X022511Y010925D01*
X022360Y010925D01*
X022285Y011000D01*
X022125Y011000D02*
X022125Y011375D01*
X021825Y011375D02*
X021825Y011000D01*
X021900Y010925D01*
X022050Y010925D01*
X022125Y011000D01*
X022436Y010850D02*
X022436Y011450D01*
X023206Y011150D02*
X023356Y011300D01*
X023506Y011375D01*
X023431Y012425D02*
X023281Y012425D01*
X023206Y012500D01*
X023206Y012650D02*
X023356Y012725D01*
X023431Y012725D01*
X023506Y012650D01*
X023506Y012500D01*
X023431Y012425D01*
X023206Y012650D02*
X023206Y012875D01*
X023506Y012875D01*
X022896Y012875D02*
X022896Y012425D01*
X022746Y012425D02*
X023046Y012425D01*
X022746Y012725D02*
X022896Y012875D01*
X022586Y012800D02*
X022511Y012875D01*
X022360Y012875D01*
X022285Y012800D01*
X022285Y012725D01*
X022360Y012650D01*
X022511Y012650D01*
X022586Y012575D01*
X022586Y012500D01*
X022511Y012425D01*
X022360Y012425D01*
X022285Y012500D01*
X022125Y012500D02*
X022125Y012875D01*
X021825Y012875D02*
X021825Y012500D01*
X021900Y012425D01*
X022050Y012425D01*
X022125Y012500D01*
X022436Y012350D02*
X022436Y012950D01*
X022436Y013850D02*
X022436Y014450D01*
X022511Y014375D02*
X022586Y014300D01*
X022511Y014375D02*
X022360Y014375D01*
X022285Y014300D01*
X022285Y014225D01*
X022360Y014150D01*
X022511Y014150D01*
X022586Y014075D01*
X022586Y014000D01*
X022511Y013925D01*
X022360Y013925D01*
X022285Y014000D01*
X022125Y014000D02*
X022125Y014375D01*
X021825Y014375D02*
X021825Y014000D01*
X021900Y013925D01*
X022050Y013925D01*
X022125Y014000D01*
X022746Y013925D02*
X023046Y013925D01*
X022896Y013925D02*
X022896Y014375D01*
X022746Y014225D01*
X023206Y014150D02*
X023506Y014150D01*
X023431Y013925D02*
X023431Y014375D01*
X023206Y014150D01*
X022436Y015450D02*
X022436Y016050D01*
X022511Y015975D02*
X022586Y015900D01*
X022511Y015975D02*
X022360Y015975D01*
X022285Y015900D01*
X022285Y015825D01*
X022360Y015750D01*
X022511Y015750D01*
X022586Y015675D01*
X022586Y015600D01*
X022511Y015525D01*
X022360Y015525D01*
X022285Y015600D01*
X022125Y015600D02*
X022125Y015975D01*
X021825Y015975D02*
X021825Y015600D01*
X021900Y015525D01*
X022050Y015525D01*
X022125Y015600D01*
X022746Y015525D02*
X023046Y015525D01*
X022896Y015525D02*
X022896Y015975D01*
X022746Y015825D01*
X023206Y015900D02*
X023281Y015975D01*
X023431Y015975D01*
X023506Y015900D01*
X023506Y015825D01*
X023431Y015750D01*
X023506Y015675D01*
X023506Y015600D01*
X023431Y015525D01*
X023281Y015525D01*
X023206Y015600D01*
X023356Y015750D02*
X023431Y015750D01*
X023506Y017025D02*
X023206Y017025D01*
X023506Y017325D01*
X023506Y017400D01*
X023431Y017475D01*
X023281Y017475D01*
X023206Y017400D01*
X022896Y017475D02*
X022896Y017025D01*
X022746Y017025D02*
X023046Y017025D01*
X022746Y017325D02*
X022896Y017475D01*
X022586Y017400D02*
X022511Y017475D01*
X022360Y017475D01*
X022285Y017400D01*
X022285Y017325D01*
X022360Y017250D01*
X022511Y017250D01*
X022586Y017175D01*
X022586Y017100D01*
X022511Y017025D01*
X022360Y017025D01*
X022285Y017100D01*
X022125Y017100D02*
X022125Y017475D01*
X021825Y017475D02*
X021825Y017100D01*
X021900Y017025D01*
X022050Y017025D01*
X022125Y017100D01*
X022436Y016950D02*
X022436Y017550D01*
X022511Y019975D02*
X022360Y019975D01*
X022285Y020050D01*
X022285Y020125D01*
X022360Y020200D01*
X022511Y020200D01*
X022586Y020125D01*
X022586Y020050D01*
X022511Y019975D01*
X022511Y020200D02*
X022586Y020275D01*
X022586Y020350D01*
X022511Y020425D01*
X022360Y020425D01*
X022285Y020350D01*
X022285Y020275D01*
X022360Y020200D01*
X022125Y020050D02*
X022050Y019975D01*
X021900Y019975D01*
X021825Y020050D01*
X021825Y020350D01*
X021900Y020425D01*
X022050Y020425D01*
X022125Y020350D01*
X022050Y022175D02*
X022125Y022250D01*
X022050Y022175D02*
X021900Y022175D01*
X021825Y022250D01*
X021825Y022550D01*
X021900Y022625D01*
X022050Y022625D01*
X022125Y022550D01*
X022285Y022550D02*
X022360Y022625D01*
X022511Y022625D01*
X022586Y022550D01*
X022586Y022475D01*
X022285Y022175D01*
X022586Y022175D01*
X022746Y022250D02*
X022821Y022175D01*
X022971Y022175D01*
X023046Y022250D01*
X023046Y022325D01*
X022971Y022400D01*
X022896Y022400D01*
X022971Y022400D02*
X023046Y022475D01*
X023046Y022550D01*
X022971Y022625D01*
X022821Y022625D01*
X022746Y022550D01*
X018665Y018925D02*
X018365Y018925D01*
X018665Y018925D02*
X018665Y018850D01*
X018365Y018550D01*
X018365Y018475D01*
X018204Y018475D02*
X017904Y018475D01*
X018054Y018475D02*
X018054Y018925D01*
X017904Y018775D01*
X017744Y018850D02*
X017669Y018925D01*
X017519Y018925D01*
X017444Y018850D01*
X017444Y018550D01*
X017519Y018475D01*
X017669Y018475D01*
X017744Y018550D01*
X015850Y020525D02*
X015925Y020600D01*
X015925Y020675D01*
X015850Y020750D01*
X015475Y020750D01*
X015475Y020675D02*
X015475Y020825D01*
X015475Y020985D02*
X015475Y021211D01*
X015550Y021286D01*
X015700Y021286D01*
X015775Y021211D01*
X015775Y020985D01*
X015925Y020985D02*
X015475Y020985D01*
X015625Y021446D02*
X015475Y021596D01*
X015925Y021596D01*
X015925Y021446D02*
X015925Y021746D01*
X015850Y021906D02*
X015925Y021981D01*
X015925Y022131D01*
X015850Y022206D01*
X015775Y022206D01*
X015700Y022131D01*
X015700Y022056D01*
X015700Y022131D02*
X015625Y022206D01*
X015550Y022206D01*
X015475Y022131D01*
X015475Y021981D01*
X015550Y021906D01*
X013586Y023550D02*
X013511Y023475D01*
X013360Y023475D01*
X013285Y023550D01*
X013125Y023550D02*
X013050Y023475D01*
X012900Y023475D01*
X012825Y023550D01*
X012825Y023850D01*
X012900Y023925D01*
X013050Y023925D01*
X013125Y023850D01*
X013044Y023975D02*
X013044Y024425D01*
X013269Y024425D01*
X013344Y024350D01*
X013344Y024200D01*
X013269Y024125D01*
X013044Y024125D01*
X012809Y024050D02*
X012809Y024425D01*
X012734Y024425D02*
X012884Y024425D01*
X012809Y024050D02*
X012734Y023975D01*
X012658Y023975D01*
X012583Y024050D01*
X013285Y023850D02*
X013360Y023925D01*
X013511Y023925D01*
X013586Y023850D01*
X013586Y023775D01*
X013511Y023700D01*
X013586Y023625D01*
X013586Y023550D01*
X013511Y023700D02*
X013436Y023700D01*
X013504Y023975D02*
X013804Y023975D01*
X013654Y023975D02*
X013654Y024425D01*
X013504Y024275D01*
X013965Y024350D02*
X014040Y024425D01*
X014190Y024425D01*
X014265Y024350D01*
X014265Y024275D01*
X013965Y023975D01*
X014265Y023975D01*
X015975Y025079D02*
X015975Y025229D01*
X016050Y025304D01*
X016050Y025465D02*
X015975Y025540D01*
X015975Y025690D01*
X016050Y025765D01*
X016125Y025765D01*
X016425Y025465D01*
X016425Y025765D01*
X016350Y025304D02*
X016425Y025229D01*
X016425Y025079D01*
X016350Y025004D01*
X016050Y025004D01*
X015975Y025079D01*
X013846Y027475D02*
X013546Y027475D01*
X013846Y027775D01*
X013846Y027850D01*
X013771Y027925D01*
X013621Y027925D01*
X013546Y027850D01*
X013386Y027850D02*
X013311Y027925D01*
X013160Y027925D01*
X013085Y027850D01*
X012925Y027850D02*
X012850Y027925D01*
X012700Y027925D01*
X012625Y027850D01*
X012625Y027550D01*
X012700Y027475D01*
X012850Y027475D01*
X012925Y027550D01*
X013085Y027475D02*
X013386Y027775D01*
X013386Y027850D01*
X013386Y027475D02*
X013085Y027475D01*
X014350Y028825D02*
X014275Y028900D01*
X014275Y029050D01*
X014350Y029125D01*
X014425Y029285D02*
X014275Y029436D01*
X014725Y029436D01*
X014725Y029586D02*
X014725Y029285D01*
X014650Y029125D02*
X014725Y029050D01*
X014725Y028900D01*
X014650Y028825D01*
X014350Y028825D01*
X013286Y029950D02*
X013211Y029875D01*
X013060Y029875D01*
X012985Y029950D01*
X012985Y030100D02*
X013136Y030175D01*
X013211Y030175D01*
X013286Y030100D01*
X013286Y029950D01*
X012985Y030100D02*
X012985Y030325D01*
X013286Y030325D01*
X012825Y030250D02*
X012750Y030325D01*
X012600Y030325D01*
X012525Y030250D01*
X012525Y029950D01*
X012600Y029875D01*
X012750Y029875D01*
X012825Y029950D01*
X016125Y027950D02*
X016200Y027875D01*
X016275Y027875D01*
X016350Y027950D01*
X016350Y028325D01*
X016275Y028325D02*
X016425Y028325D01*
X016585Y028325D02*
X016811Y028325D01*
X016886Y028250D01*
X016886Y028100D01*
X016811Y028025D01*
X016585Y028025D01*
X016585Y027875D02*
X016585Y028325D01*
X017046Y028325D02*
X017046Y028100D01*
X017196Y028175D01*
X017271Y028175D01*
X017346Y028100D01*
X017346Y027950D01*
X017271Y027875D01*
X017121Y027875D01*
X017046Y027950D01*
X017046Y028325D02*
X017346Y028325D01*
X016950Y028825D02*
X017025Y028900D01*
X017025Y029050D01*
X016950Y029125D01*
X017025Y029285D02*
X016725Y029586D01*
X016650Y029586D01*
X016575Y029511D01*
X016575Y029360D01*
X016650Y029285D01*
X016650Y029125D02*
X016575Y029050D01*
X016575Y028900D01*
X016650Y028825D01*
X016950Y028825D01*
X017025Y029285D02*
X017025Y029586D01*
X017025Y029746D02*
X017025Y030046D01*
X017025Y029896D02*
X016575Y029896D01*
X016725Y029746D01*
X011725Y024065D02*
X011725Y023765D01*
X011725Y023915D02*
X011275Y023915D01*
X011425Y023765D01*
X011725Y023604D02*
X011725Y023304D01*
X011725Y023454D02*
X011275Y023454D01*
X011425Y023304D01*
X011500Y023144D02*
X011575Y023069D01*
X011575Y022844D01*
X011725Y022844D02*
X011275Y022844D01*
X011275Y023069D01*
X011350Y023144D01*
X011500Y023144D01*
X011275Y022684D02*
X011275Y022534D01*
X011275Y022609D02*
X011650Y022609D01*
X011725Y022534D01*
X011725Y022458D01*
X011650Y022383D01*
X011750Y022106D02*
X011450Y022106D01*
X011750Y021806D01*
X011825Y021881D01*
X011825Y022031D01*
X011750Y022106D01*
X011750Y021806D02*
X011450Y021806D01*
X011375Y021881D01*
X011375Y022031D01*
X011450Y022106D01*
X011825Y021646D02*
X011825Y021346D01*
X011825Y021496D02*
X011375Y021496D01*
X011525Y021346D01*
X011450Y021186D02*
X011600Y021186D01*
X011675Y021111D01*
X011675Y020885D01*
X011825Y020885D02*
X011375Y020885D01*
X011375Y021111D01*
X011450Y021186D01*
X011375Y020725D02*
X011375Y020575D01*
X011375Y020650D02*
X011750Y020650D01*
X011825Y020575D01*
X011825Y020500D01*
X011750Y020425D01*
X006787Y021043D02*
X006728Y020985D01*
X006612Y020985D01*
X006553Y021043D01*
X006553Y021102D01*
X006612Y021160D01*
X006728Y021160D01*
X006787Y021102D01*
X006787Y021043D01*
X006728Y021160D02*
X006787Y021219D01*
X006787Y021277D01*
X006728Y021335D01*
X006612Y021335D01*
X006553Y021277D01*
X006553Y021219D01*
X006612Y021160D01*
X006419Y021160D02*
X006419Y021277D01*
X006360Y021335D01*
X006185Y021335D01*
X006185Y020985D01*
X006185Y021102D02*
X006360Y021102D01*
X006419Y021160D01*
X006302Y021102D02*
X006419Y020985D01*
X005225Y020690D02*
X005225Y020540D01*
X005150Y020465D01*
X005075Y020465D01*
X005000Y020540D01*
X005000Y020690D01*
X005075Y020765D01*
X005150Y020765D01*
X005225Y020690D01*
X005000Y020690D02*
X004925Y020765D01*
X004850Y020765D01*
X004775Y020690D01*
X004775Y020540D01*
X004850Y020465D01*
X004925Y020465D01*
X005000Y020540D01*
X005000Y020304D02*
X005075Y020229D01*
X005075Y020004D01*
X005225Y020004D02*
X004775Y020004D01*
X004775Y020229D01*
X004850Y020304D01*
X005000Y020304D01*
X004775Y019844D02*
X004775Y019694D01*
X004775Y019769D02*
X005150Y019769D01*
X005225Y019694D01*
X005225Y019619D01*
X005150Y019544D01*
X005250Y021883D02*
X005325Y021958D01*
X005325Y022034D01*
X005250Y022109D01*
X004875Y022109D01*
X004875Y022034D02*
X004875Y022184D01*
X004875Y022344D02*
X004875Y022569D01*
X004950Y022644D01*
X005100Y022644D01*
X005175Y022569D01*
X005175Y022344D01*
X005325Y022344D02*
X004875Y022344D01*
X005025Y022804D02*
X004875Y022954D01*
X005325Y022954D01*
X005325Y022804D02*
X005325Y023104D01*
X005250Y023265D02*
X005325Y023340D01*
X005325Y023490D01*
X005250Y023565D01*
X004950Y023565D01*
X004875Y023490D01*
X004875Y023340D01*
X004950Y023265D01*
X005025Y023265D01*
X005100Y023340D01*
X005100Y023565D01*
X005719Y024475D02*
X005794Y024475D01*
X005869Y024550D01*
X005869Y024925D01*
X005794Y024925D02*
X005944Y024925D01*
X006104Y024925D02*
X006329Y024925D01*
X006404Y024850D01*
X006404Y024700D01*
X006329Y024625D01*
X006104Y024625D01*
X006104Y024475D02*
X006104Y024925D01*
X006565Y024700D02*
X006790Y024700D01*
X006865Y024625D01*
X006865Y024550D01*
X006790Y024475D01*
X006640Y024475D01*
X006565Y024550D01*
X006565Y024700D01*
X006715Y024850D01*
X006865Y024925D01*
X005719Y024475D02*
X005644Y024550D01*
X008375Y031575D02*
X008375Y031725D01*
X008375Y031650D02*
X008750Y031650D01*
X008825Y031575D01*
X008825Y031500D01*
X008750Y031425D01*
X008825Y031885D02*
X008375Y031885D01*
X008375Y032111D01*
X008450Y032186D01*
X008600Y032186D01*
X008675Y032111D01*
X008675Y031885D01*
X008600Y032346D02*
X008600Y032646D01*
X008825Y032571D02*
X008375Y032571D01*
X008600Y032346D01*
X003965Y033225D02*
X003665Y033225D01*
X003815Y033225D02*
X003815Y033675D01*
X003665Y033525D01*
X003504Y033675D02*
X003204Y033675D01*
X003204Y033225D01*
X003204Y033450D02*
X003354Y033450D01*
X001425Y032346D02*
X001350Y032346D01*
X001050Y032646D01*
X000975Y032646D01*
X000975Y032346D01*
X001050Y032186D02*
X001200Y032186D01*
X001275Y032111D01*
X001275Y031885D01*
X001425Y031885D02*
X000975Y031885D01*
X000975Y032111D01*
X001050Y032186D01*
X000975Y031725D02*
X000975Y031575D01*
X000975Y031650D02*
X001350Y031650D01*
X001425Y031575D01*
X001425Y031500D01*
X001350Y031425D01*
X017714Y013306D02*
X017714Y013296D01*
X031295Y003295D02*
X031295Y002845D01*
X031445Y002995D01*
X031595Y002845D01*
X031595Y003295D01*
X031755Y003295D02*
X031906Y003295D01*
X031830Y003295D02*
X031830Y002845D01*
X031755Y002845D02*
X031906Y002845D01*
X032062Y002845D02*
X032062Y003295D01*
X032363Y003295D01*
X032523Y003295D02*
X032673Y003295D01*
X032598Y003295D02*
X032598Y002845D01*
X032523Y002845D02*
X032673Y002845D01*
X032830Y002770D02*
X033130Y002770D01*
X033290Y002920D02*
X033365Y002845D01*
X033515Y002845D01*
X033590Y002920D01*
X033750Y002920D02*
X033825Y002845D01*
X033976Y002845D01*
X034051Y002920D01*
X034051Y003220D01*
X033976Y003295D01*
X033825Y003295D01*
X033750Y003220D01*
X033750Y002920D01*
X033590Y003220D02*
X033515Y003295D01*
X033365Y003295D01*
X033290Y003220D01*
X033290Y002920D01*
X034211Y002845D02*
X034211Y003295D01*
X034511Y002845D01*
X034511Y003295D01*
X034671Y003295D02*
X034971Y002845D01*
X034971Y003295D01*
X034671Y003295D02*
X034671Y002845D01*
X032212Y003070D02*
X032062Y003070D01*
X030800Y002600D02*
X030800Y001600D01*
X040800Y001600D01*
X040800Y002600D01*
X030800Y002600D01*
X036450Y007500D02*
X036452Y007513D01*
X036457Y007526D01*
X036466Y007537D01*
X036477Y007544D01*
X036490Y007549D01*
X036503Y007550D01*
X036517Y007547D01*
X036529Y007541D01*
X036539Y007532D01*
X036546Y007520D01*
X036550Y007507D01*
X036550Y007493D01*
X036546Y007480D01*
X036539Y007468D01*
X036529Y007459D01*
X036517Y007453D01*
X036503Y007450D01*
X036490Y007451D01*
X036477Y007456D01*
X036466Y007463D01*
X036457Y007474D01*
X036452Y007487D01*
X036450Y007500D01*
X028710Y027380D02*
X025190Y027380D01*
X025190Y032700D01*
X028710Y032700D01*
X028710Y027380D01*
X036650Y028250D02*
X041150Y028250D01*
X041150Y034500D01*
X036650Y034500D01*
X036650Y028250D01*
D18*
X043400Y024850D02*
X043400Y024350D01*
X043650Y024100D01*
X043400Y023850D01*
X043400Y023350D01*
X043650Y023100D01*
X043400Y022850D01*
X043400Y022350D01*
X043650Y022100D01*
X043400Y021850D01*
X043400Y021350D01*
X043650Y021100D01*
X043400Y020850D01*
X043400Y020350D01*
X043650Y020100D01*
X043400Y019850D01*
X043400Y019350D01*
X043650Y019100D01*
X043400Y018850D01*
X043400Y018350D01*
X043650Y018100D01*
X043400Y017850D01*
X043400Y017350D01*
X043650Y017100D01*
X043400Y016850D01*
X043400Y016350D01*
X043650Y016100D01*
X043400Y015850D01*
X043400Y015350D01*
X043650Y015100D01*
X044150Y015100D01*
X044400Y015350D01*
X044400Y015850D01*
X044150Y016100D01*
X044400Y016350D01*
X044400Y016850D01*
X044150Y017100D01*
X044400Y017350D01*
X044400Y017850D01*
X044150Y018100D01*
X044400Y018350D01*
X044400Y018850D01*
X044150Y019100D01*
X044400Y019350D01*
X044400Y019850D01*
X044150Y020100D01*
X044400Y020350D01*
X044400Y020850D01*
X044150Y021100D01*
X044400Y021350D01*
X044400Y021850D01*
X044150Y022100D01*
X044400Y022350D01*
X044400Y022850D01*
X044150Y023100D01*
X044400Y023350D01*
X044400Y023850D01*
X044150Y024100D01*
X044400Y024350D01*
X044400Y024850D01*
X044150Y025100D01*
X043650Y025100D01*
X043400Y024850D01*
X043045Y022810D02*
X042724Y022810D01*
X042724Y022330D01*
X042529Y022330D02*
X042209Y022330D01*
X042209Y022810D01*
X042529Y022810D01*
X042369Y022570D02*
X042209Y022570D01*
X042013Y022570D02*
X042013Y022730D01*
X041933Y022810D01*
X041693Y022810D01*
X041693Y022330D01*
X041693Y022490D02*
X041933Y022490D01*
X042013Y022570D01*
X041853Y022490D02*
X042013Y022330D01*
X041498Y022330D02*
X041498Y022650D01*
X041338Y022810D01*
X041177Y022650D01*
X041177Y022330D01*
X041177Y022570D02*
X041498Y022570D01*
X041773Y021860D02*
X041693Y021780D01*
X041693Y021460D01*
X041773Y021380D01*
X041933Y021380D01*
X042013Y021460D01*
X042013Y021620D01*
X041853Y021620D01*
X042013Y021780D02*
X041933Y021860D01*
X041773Y021860D01*
X042209Y021860D02*
X042209Y021380D01*
X042529Y021380D02*
X042209Y021860D01*
X042529Y021860D02*
X042529Y021380D01*
X042724Y021380D02*
X042965Y021380D01*
X043045Y021460D01*
X043045Y021780D01*
X042965Y021860D01*
X042724Y021860D01*
X042724Y021380D01*
X042804Y020860D02*
X042965Y020860D01*
X043045Y020780D01*
X043045Y020700D01*
X042965Y020620D01*
X043045Y020540D01*
X043045Y020460D01*
X042965Y020380D01*
X042804Y020380D01*
X042724Y020460D01*
X042529Y020380D02*
X042209Y020380D01*
X042369Y020380D02*
X042369Y020860D01*
X042209Y020700D01*
X042724Y020780D02*
X042804Y020860D01*
X042884Y020620D02*
X042965Y020620D01*
X042965Y019860D02*
X042804Y019860D01*
X042724Y019780D01*
X042965Y019860D02*
X043045Y019780D01*
X043045Y019700D01*
X042724Y019380D01*
X043045Y019380D01*
X042529Y019380D02*
X042209Y019380D01*
X042369Y019380D02*
X042369Y019860D01*
X042209Y019700D01*
X042369Y018860D02*
X042369Y018380D01*
X042209Y018380D02*
X042529Y018380D01*
X042724Y018380D02*
X043045Y018380D01*
X042884Y018380D02*
X042884Y018860D01*
X042724Y018700D01*
X042369Y018860D02*
X042209Y018700D01*
X042369Y017810D02*
X042369Y017330D01*
X042209Y017330D02*
X042529Y017330D01*
X042724Y017410D02*
X043045Y017730D01*
X043045Y017410D01*
X042965Y017330D01*
X042804Y017330D01*
X042724Y017410D01*
X042724Y017730D01*
X042804Y017810D01*
X042965Y017810D01*
X043045Y017730D01*
X042369Y017810D02*
X042209Y017650D01*
X042804Y016810D02*
X042724Y016730D01*
X042724Y016650D01*
X042804Y016570D01*
X043045Y016570D01*
X043045Y016410D02*
X043045Y016730D01*
X042965Y016810D01*
X042804Y016810D01*
X042724Y016410D02*
X042804Y016330D01*
X042965Y016330D01*
X043045Y016410D01*
X042965Y015810D02*
X043045Y015730D01*
X043045Y015650D01*
X042965Y015570D01*
X042804Y015570D01*
X042724Y015650D01*
X042724Y015730D01*
X042804Y015810D01*
X042965Y015810D01*
X042965Y015570D02*
X043045Y015490D01*
X043045Y015410D01*
X042965Y015330D01*
X042804Y015330D01*
X042724Y015410D01*
X042724Y015490D01*
X042804Y015570D01*
X043650Y014500D02*
X043400Y014250D01*
X043400Y013750D01*
X043650Y013500D01*
X043400Y013250D01*
X043400Y012750D01*
X043650Y012500D01*
X043400Y012250D01*
X043400Y011750D01*
X043650Y011500D01*
X043400Y011250D01*
X043400Y010750D01*
X043650Y010500D01*
X043400Y010250D01*
X043400Y009750D01*
X043650Y009500D01*
X043400Y009250D01*
X043400Y008750D01*
X043650Y008500D01*
X043400Y008250D01*
X043400Y007750D01*
X043650Y007500D01*
X043400Y007250D01*
X043400Y006750D01*
X043650Y006500D01*
X044150Y006500D01*
X044400Y006750D01*
X044400Y007250D01*
X044150Y007500D01*
X044400Y007750D01*
X044400Y008250D01*
X044150Y008500D01*
X044400Y008750D01*
X044400Y009250D01*
X044150Y009500D01*
X044400Y009750D01*
X044400Y010250D01*
X044150Y010500D01*
X044400Y010750D01*
X044400Y011250D01*
X044150Y011500D01*
X044400Y011750D01*
X044400Y012250D01*
X044150Y012500D01*
X044400Y012750D01*
X044400Y013250D01*
X044150Y013500D01*
X044400Y013750D01*
X044400Y014250D01*
X044150Y014500D01*
X043650Y014500D01*
X043045Y014160D02*
X043045Y014080D01*
X042724Y013760D01*
X042724Y013680D01*
X042724Y014160D02*
X043045Y014160D01*
X042995Y013160D02*
X042834Y013080D01*
X042674Y012920D01*
X042915Y012920D01*
X042995Y012840D01*
X042995Y012760D01*
X042915Y012680D01*
X042754Y012680D01*
X042674Y012760D01*
X042674Y012920D01*
X042674Y012210D02*
X042674Y011970D01*
X042834Y012050D01*
X042915Y012050D01*
X042995Y011970D01*
X042995Y011810D01*
X042915Y011730D01*
X042754Y011730D01*
X042674Y011810D01*
X042674Y012210D02*
X042995Y012210D01*
X042915Y011210D02*
X042674Y010970D01*
X042995Y010970D01*
X042915Y010730D02*
X042915Y011210D01*
X042915Y010260D02*
X042995Y010180D01*
X042995Y010100D01*
X042915Y010020D01*
X042995Y009940D01*
X042995Y009860D01*
X042915Y009780D01*
X042754Y009780D01*
X042674Y009860D01*
X042834Y010020D02*
X042915Y010020D01*
X042915Y010260D02*
X042754Y010260D01*
X042674Y010180D01*
X042754Y009210D02*
X042674Y009130D01*
X042754Y009210D02*
X042915Y009210D01*
X042995Y009130D01*
X042995Y009050D01*
X042674Y008730D01*
X042995Y008730D01*
X042834Y008210D02*
X042834Y007730D01*
X042674Y007730D02*
X042995Y007730D01*
X042674Y008050D02*
X042834Y008210D01*
X042754Y007210D02*
X042915Y007210D01*
X042995Y007130D01*
X042674Y006810D01*
X042754Y006730D01*
X042915Y006730D01*
X042995Y006810D01*
X042995Y007130D01*
X042754Y007210D02*
X042674Y007130D01*
X042674Y006810D01*
X035208Y009821D02*
X034617Y009821D01*
X034605Y009842D01*
X034590Y009861D01*
X034573Y009879D01*
X034553Y009893D01*
X034531Y009905D01*
X034508Y009913D01*
X034484Y009918D01*
X034460Y009920D01*
X034436Y009918D01*
X034412Y009913D01*
X034389Y009905D01*
X034367Y009893D01*
X034347Y009879D01*
X034330Y009861D01*
X034315Y009842D01*
X034303Y009821D01*
X033712Y009821D01*
X033712Y019939D01*
X034303Y019939D01*
X034315Y019918D01*
X034330Y019899D01*
X034347Y019881D01*
X034367Y019867D01*
X034389Y019855D01*
X034412Y019847D01*
X034436Y019842D01*
X034460Y019840D01*
X034484Y019842D01*
X034508Y019847D01*
X034531Y019855D01*
X034553Y019867D01*
X034573Y019881D01*
X034590Y019899D01*
X034605Y019918D01*
X034617Y019939D01*
X035208Y019939D01*
X035208Y009821D01*
X026586Y009740D02*
X026266Y009740D01*
X026586Y010060D01*
X026586Y010140D01*
X026506Y010220D01*
X026346Y010220D01*
X026266Y010140D01*
X026070Y010060D02*
X025910Y010220D01*
X025750Y010060D01*
X025750Y009740D01*
X025750Y009980D02*
X026070Y009980D01*
X026070Y010060D02*
X026070Y009740D01*
X025910Y009220D02*
X025750Y009060D01*
X025750Y008740D01*
X025750Y008980D02*
X026070Y008980D01*
X026070Y009060D02*
X026070Y008740D01*
X026266Y008820D02*
X026346Y008740D01*
X026506Y008740D01*
X026586Y008820D01*
X026586Y008900D01*
X026506Y008980D01*
X026426Y008980D01*
X026506Y008980D02*
X026586Y009060D01*
X026586Y009140D01*
X026506Y009220D01*
X026346Y009220D01*
X026266Y009140D01*
X026070Y009060D02*
X025910Y009220D01*
X025400Y009250D02*
X025400Y008750D01*
X025150Y008500D01*
X025400Y008250D01*
X025400Y007750D01*
X025150Y007500D01*
X025400Y007250D01*
X025400Y006750D01*
X025150Y006500D01*
X024650Y006500D01*
X024400Y006750D01*
X024400Y007250D01*
X024650Y007500D01*
X024400Y007750D01*
X024400Y008250D01*
X024650Y008500D01*
X024400Y008750D01*
X024400Y009250D01*
X024650Y009500D01*
X024400Y009750D01*
X024400Y010250D01*
X024650Y010500D01*
X024400Y010750D01*
X024400Y011250D01*
X024650Y011500D01*
X024400Y011750D01*
X024400Y012250D01*
X024650Y012500D01*
X025150Y012500D01*
X025400Y012250D01*
X025400Y011750D01*
X025150Y011500D01*
X025400Y011250D01*
X025400Y010750D01*
X025150Y010500D01*
X025400Y010250D01*
X025400Y009750D01*
X025150Y009500D01*
X025400Y009250D01*
X025910Y008220D02*
X025750Y008060D01*
X025750Y007740D01*
X025750Y007980D02*
X026070Y007980D01*
X026070Y008060D02*
X026070Y007740D01*
X026266Y007980D02*
X026586Y007980D01*
X026506Y007740D02*
X026506Y008220D01*
X026266Y007980D01*
X026070Y008060D02*
X025910Y008220D01*
X025910Y007270D02*
X026070Y007110D01*
X026070Y006790D01*
X026266Y006870D02*
X026346Y006790D01*
X026506Y006790D01*
X026586Y006870D01*
X026586Y007030D01*
X026506Y007110D01*
X026426Y007110D01*
X026266Y007030D01*
X026266Y007270D01*
X026586Y007270D01*
X026070Y007030D02*
X025750Y007030D01*
X025750Y007110D02*
X025910Y007270D01*
X025750Y007110D02*
X025750Y006790D01*
X025750Y010840D02*
X025750Y011160D01*
X025910Y011320D01*
X026070Y011160D01*
X026070Y010840D01*
X026266Y010840D02*
X026586Y010840D01*
X026426Y010840D02*
X026426Y011320D01*
X026266Y011160D01*
X026070Y011080D02*
X025750Y011080D01*
X025750Y011740D02*
X025750Y012060D01*
X025910Y012220D01*
X026070Y012060D01*
X026070Y011740D01*
X026266Y011820D02*
X026586Y012140D01*
X026586Y011820D01*
X026506Y011740D01*
X026346Y011740D01*
X026266Y011820D01*
X026266Y012140D01*
X026346Y012220D01*
X026506Y012220D01*
X026586Y012140D01*
X026070Y011980D02*
X025750Y011980D01*
X025150Y013500D02*
X024650Y013500D01*
X024400Y013750D01*
X024400Y014250D01*
X024650Y014500D01*
X024400Y014750D01*
X024400Y015250D01*
X024650Y015500D01*
X024400Y015750D01*
X024400Y016250D01*
X024650Y016500D01*
X024400Y016750D01*
X024400Y017250D01*
X024650Y017500D01*
X024400Y017750D01*
X024400Y018250D01*
X024650Y018500D01*
X024400Y018750D01*
X024400Y019250D01*
X024650Y019500D01*
X024400Y019750D01*
X024400Y020250D01*
X024650Y020500D01*
X024400Y020750D01*
X024400Y021250D01*
X024650Y021500D01*
X025150Y021500D01*
X025400Y021250D01*
X025400Y020750D01*
X025150Y020500D01*
X025400Y020250D01*
X025400Y019750D01*
X025150Y019500D01*
X025400Y019250D01*
X025400Y018750D01*
X025150Y018500D01*
X025400Y018250D01*
X025400Y017750D01*
X025150Y017500D01*
X025400Y017250D01*
X025400Y016750D01*
X025150Y016500D01*
X025400Y016250D01*
X025400Y015750D01*
X025150Y015500D01*
X025400Y015250D01*
X025400Y014750D01*
X025150Y014500D01*
X025400Y014250D01*
X025400Y013750D01*
X025150Y013500D01*
X017724Y013296D02*
X017724Y010304D01*
X015676Y010304D01*
X015676Y013296D01*
X017714Y013296D01*
X015859Y013000D02*
X015861Y013023D01*
X015867Y013046D01*
X015876Y013067D01*
X015889Y013087D01*
X015905Y013104D01*
X015923Y013118D01*
X015943Y013129D01*
X015965Y013137D01*
X015988Y013141D01*
X016012Y013141D01*
X016035Y013137D01*
X016057Y013129D01*
X016077Y013118D01*
X016095Y013104D01*
X016111Y013087D01*
X016124Y013067D01*
X016133Y013046D01*
X016139Y013023D01*
X016141Y013000D01*
X016139Y012977D01*
X016133Y012954D01*
X016124Y012933D01*
X016111Y012913D01*
X016095Y012896D01*
X016077Y012882D01*
X016057Y012871D01*
X016035Y012863D01*
X016012Y012859D01*
X015988Y012859D01*
X015965Y012863D01*
X015943Y012871D01*
X015923Y012882D01*
X015905Y012896D01*
X015889Y012913D01*
X015876Y012933D01*
X015867Y012954D01*
X015861Y012977D01*
X015859Y013000D01*
X014850Y006500D02*
X017550Y006500D01*
X017609Y006498D01*
X017667Y006492D01*
X017726Y006483D01*
X017783Y006469D01*
X017839Y006452D01*
X017894Y006431D01*
X017948Y006407D01*
X018000Y006379D01*
X018050Y006348D01*
X018098Y006314D01*
X018143Y006277D01*
X018186Y006236D01*
X018227Y006193D01*
X018264Y006148D01*
X018298Y006100D01*
X018329Y006050D01*
X018357Y005998D01*
X018381Y005944D01*
X018402Y005889D01*
X018419Y005833D01*
X018433Y005776D01*
X018442Y005717D01*
X018448Y005659D01*
X018450Y005600D01*
X018448Y005541D01*
X018442Y005483D01*
X018433Y005424D01*
X018419Y005367D01*
X018402Y005311D01*
X018381Y005256D01*
X018357Y005202D01*
X018329Y005150D01*
X018298Y005100D01*
X018264Y005052D01*
X018227Y005007D01*
X018186Y004964D01*
X018143Y004923D01*
X018098Y004886D01*
X018050Y004852D01*
X018000Y004821D01*
X017948Y004793D01*
X017894Y004769D01*
X017839Y004748D01*
X017783Y004731D01*
X017726Y004717D01*
X017667Y004708D01*
X017609Y004702D01*
X017550Y004700D01*
X014850Y004700D01*
X014791Y004702D01*
X014733Y004708D01*
X014674Y004717D01*
X014617Y004731D01*
X014561Y004748D01*
X014506Y004769D01*
X014452Y004793D01*
X014400Y004821D01*
X014350Y004852D01*
X014302Y004886D01*
X014257Y004923D01*
X014214Y004964D01*
X014173Y005007D01*
X014136Y005052D01*
X014102Y005100D01*
X014071Y005150D01*
X014043Y005202D01*
X014019Y005256D01*
X013998Y005311D01*
X013981Y005367D01*
X013967Y005424D01*
X013958Y005483D01*
X013952Y005541D01*
X013950Y005600D01*
X013952Y005659D01*
X013958Y005717D01*
X013967Y005776D01*
X013981Y005833D01*
X013998Y005889D01*
X014019Y005944D01*
X014043Y005998D01*
X014071Y006050D01*
X014102Y006100D01*
X014136Y006148D01*
X014173Y006193D01*
X014214Y006236D01*
X014257Y006277D01*
X014302Y006314D01*
X014350Y006348D01*
X014400Y006379D01*
X014452Y006407D01*
X014506Y006431D01*
X014561Y006452D01*
X014617Y006469D01*
X014674Y006483D01*
X014733Y006492D01*
X014791Y006498D01*
X014850Y006500D01*
X010284Y027916D02*
X008316Y027916D01*
X008316Y029884D01*
X010284Y029884D01*
X010284Y027916D01*
X003484Y027916D02*
X001516Y027916D01*
X001516Y029884D01*
X003484Y029884D01*
X003484Y027916D01*
X042724Y022570D02*
X042884Y022570D01*
D19*
X033443Y030297D02*
X033366Y030220D01*
X033136Y030220D01*
X033136Y030680D01*
X033366Y030680D01*
X033443Y030604D01*
X033443Y030527D01*
X033366Y030450D01*
X033136Y030450D01*
X032982Y030373D02*
X032982Y030297D01*
X032906Y030220D01*
X032752Y030220D01*
X032675Y030297D01*
X032522Y030297D02*
X032522Y030680D01*
X032675Y030604D02*
X032675Y030527D01*
X032752Y030450D01*
X032906Y030450D01*
X032982Y030373D01*
X032982Y030604D02*
X032906Y030680D01*
X032752Y030680D01*
X032675Y030604D01*
X032522Y030297D02*
X032445Y030220D01*
X032292Y030220D01*
X032215Y030297D01*
X032215Y030680D01*
X031601Y030680D02*
X031448Y030680D01*
X031524Y030680D02*
X031524Y030220D01*
X031448Y030220D02*
X031601Y030220D01*
X031755Y030143D02*
X032062Y030143D01*
X031294Y030220D02*
X031294Y030680D01*
X030987Y030680D02*
X031294Y030220D01*
X030987Y030220D02*
X030987Y030680D01*
X030834Y030680D02*
X030680Y030680D01*
X030757Y030680D02*
X030757Y030220D01*
X030680Y030220D02*
X030834Y030220D01*
X030527Y030220D02*
X030527Y030680D01*
X030373Y030527D01*
X030220Y030680D01*
X030220Y030220D01*
X030201Y031976D02*
X030201Y035481D01*
X033198Y035481D01*
X033198Y031976D01*
X032702Y031976D01*
X032680Y031978D01*
X032658Y031983D01*
X032637Y031992D01*
X032618Y032003D01*
X032601Y032018D01*
X032586Y032035D01*
X032575Y032054D01*
X032566Y032075D01*
X032561Y032097D01*
X032559Y032119D01*
X032558Y032119D02*
X032558Y032329D01*
X031995Y033234D02*
X031416Y033234D01*
X031393Y033236D01*
X031371Y033241D01*
X031351Y033250D01*
X031331Y033262D01*
X031314Y033276D01*
X031300Y033293D01*
X031288Y033313D01*
X031279Y033333D01*
X031274Y033355D01*
X031272Y033378D01*
X031189Y034951D01*
X031190Y034951D02*
X031192Y034964D01*
X031198Y034977D01*
X031207Y034988D01*
X031218Y034996D01*
X031231Y035001D01*
X031245Y035003D01*
X031259Y035001D01*
X031272Y034996D01*
X031283Y034988D01*
X031292Y034977D01*
X031298Y034964D01*
X031300Y034951D01*
X031355Y033753D01*
X031355Y033726D01*
X031357Y033702D01*
X031362Y033679D01*
X031370Y033657D01*
X031381Y033636D01*
X031396Y033617D01*
X031412Y033601D01*
X031431Y033586D01*
X031452Y033575D01*
X031474Y033567D01*
X031497Y033562D01*
X031521Y033560D01*
X031868Y033560D01*
X031892Y033562D01*
X031916Y033567D01*
X031939Y033575D01*
X031960Y033587D01*
X031980Y033602D01*
X031997Y033619D01*
X032012Y033639D01*
X032024Y033660D01*
X032032Y033683D01*
X032037Y033707D01*
X032039Y033731D01*
X032106Y034956D01*
X032105Y034957D02*
X032108Y034970D01*
X032114Y034983D01*
X032123Y034993D01*
X032134Y035001D01*
X032147Y035006D01*
X032161Y035007D01*
X032174Y035004D01*
X032187Y034998D01*
X032197Y034989D01*
X032205Y034978D01*
X032210Y034965D01*
X032211Y034951D01*
X032210Y034951D02*
X032128Y033367D01*
X032126Y033346D01*
X032121Y033326D01*
X032113Y033307D01*
X032103Y033289D01*
X032089Y033273D01*
X032073Y033259D01*
X032055Y033249D01*
X032036Y033241D01*
X032016Y033236D01*
X031995Y033234D01*
X032365Y033411D02*
X032431Y034857D01*
X032431Y034874D01*
X032433Y034896D01*
X032438Y034917D01*
X032446Y034937D01*
X032457Y034955D01*
X032471Y034972D01*
X032488Y034986D01*
X032506Y034997D01*
X032526Y035005D01*
X032547Y035010D01*
X032569Y035012D01*
X033176Y035012D01*
X032762Y034736D02*
X032851Y033394D01*
X032851Y033395D02*
X032853Y033383D01*
X032859Y033372D01*
X032867Y033363D01*
X032877Y033356D01*
X032888Y033352D01*
X032900Y033351D01*
X032900Y033350D02*
X033176Y033350D01*
X032481Y033405D02*
X032569Y034741D01*
X032572Y034760D01*
X032579Y034777D01*
X032588Y034793D01*
X032601Y034807D01*
X032616Y034818D01*
X032632Y034826D01*
X032650Y034831D01*
X032669Y034832D01*
X032687Y034830D01*
X032705Y034824D01*
X032721Y034815D01*
X032735Y034803D01*
X032747Y034788D01*
X032756Y034772D01*
X032761Y034754D01*
X032763Y034736D01*
X030969Y034857D02*
X031035Y033411D01*
X031034Y033397D01*
X031030Y033383D01*
X031022Y033372D01*
X031012Y033362D01*
X031000Y033355D01*
X030987Y033351D01*
X030973Y033350D01*
X030959Y033353D01*
X030946Y033359D01*
X030936Y033367D01*
X030927Y033379D01*
X030921Y033391D01*
X030919Y033405D01*
X030831Y034741D01*
X030828Y034760D01*
X030821Y034777D01*
X030812Y034793D01*
X030799Y034807D01*
X030784Y034818D01*
X030768Y034826D01*
X030750Y034831D01*
X030731Y034832D01*
X030713Y034830D01*
X030695Y034824D01*
X030679Y034815D01*
X030665Y034803D01*
X030653Y034788D01*
X030644Y034772D01*
X030639Y034754D01*
X030637Y034736D01*
X030549Y033394D01*
X030547Y033382D01*
X030541Y033371D01*
X030533Y033362D01*
X030523Y033355D01*
X030512Y033351D01*
X030500Y033350D01*
X030499Y033350D02*
X030223Y033350D01*
X030842Y032346D02*
X030842Y032114D01*
X030840Y032092D01*
X030835Y032071D01*
X030827Y032051D01*
X030816Y032033D01*
X030802Y032016D01*
X030785Y032002D01*
X030767Y031991D01*
X030747Y031983D01*
X030726Y031978D01*
X030704Y031976D01*
X030201Y031976D01*
X032365Y033411D02*
X032366Y033397D01*
X032370Y033383D01*
X032378Y033372D01*
X032388Y033362D01*
X032400Y033355D01*
X032413Y033351D01*
X032427Y033350D01*
X032441Y033353D01*
X032454Y033359D01*
X032464Y033367D01*
X032473Y033379D01*
X032479Y033391D01*
X032481Y033405D01*
X030969Y034857D02*
X030969Y034874D01*
X030969Y034873D02*
X030967Y034895D01*
X030962Y034916D01*
X030954Y034936D01*
X030943Y034954D01*
X030929Y034971D01*
X030912Y034985D01*
X030894Y034996D01*
X030874Y035004D01*
X030853Y035009D01*
X030831Y035011D01*
X030223Y035011D01*
X033366Y030450D02*
X033443Y030373D01*
X033443Y030297D01*
X020117Y020454D02*
X020040Y020530D01*
X019886Y020530D01*
X019810Y020454D01*
X019656Y020530D02*
X019656Y020147D01*
X019579Y020070D01*
X019426Y020070D01*
X019349Y020147D01*
X019349Y020530D01*
X019810Y020070D02*
X020117Y020377D01*
X020117Y020454D01*
X020117Y020070D02*
X019810Y020070D01*
X012022Y017355D02*
X012022Y017020D01*
X011911Y017020D02*
X012134Y017020D01*
X011911Y017244D02*
X012022Y017355D01*
X011789Y017299D02*
X011789Y017188D01*
X011733Y017132D01*
X011565Y017132D01*
X011565Y017020D02*
X011565Y017355D01*
X011733Y017355D01*
X011789Y017299D01*
X011444Y017355D02*
X011220Y017355D01*
X011332Y017355D02*
X011332Y017020D01*
X011332Y015955D02*
X011332Y015620D01*
X011565Y015620D02*
X011565Y015955D01*
X011733Y015955D01*
X011789Y015899D01*
X011789Y015788D01*
X011733Y015732D01*
X011565Y015732D01*
X011444Y015955D02*
X011220Y015955D01*
X011911Y015899D02*
X011966Y015955D01*
X012078Y015955D01*
X012134Y015899D01*
X012134Y015844D01*
X011911Y015620D01*
X012134Y015620D01*
X012078Y014455D02*
X011966Y014455D01*
X011911Y014399D01*
X011789Y014399D02*
X011789Y014288D01*
X011733Y014232D01*
X011565Y014232D01*
X011565Y014120D02*
X011565Y014455D01*
X011733Y014455D01*
X011789Y014399D01*
X011911Y014176D02*
X011966Y014120D01*
X012078Y014120D01*
X012134Y014176D01*
X012134Y014232D01*
X012078Y014288D01*
X012022Y014288D01*
X012078Y014288D02*
X012134Y014344D01*
X012134Y014399D01*
X012078Y014455D01*
X011444Y014455D02*
X011220Y014455D01*
X011332Y014455D02*
X011332Y014120D01*
X011332Y013055D02*
X011332Y012720D01*
X011565Y012720D02*
X011565Y013055D01*
X011733Y013055D01*
X011789Y012999D01*
X011789Y012888D01*
X011733Y012832D01*
X011565Y012832D01*
X011444Y013055D02*
X011220Y013055D01*
X011911Y012888D02*
X012134Y012888D01*
X012078Y013055D02*
X012078Y012720D01*
X011911Y012888D02*
X012078Y013055D01*
X012134Y011555D02*
X011911Y011555D01*
X011911Y011388D01*
X012022Y011444D01*
X012078Y011444D01*
X012134Y011388D01*
X012134Y011276D01*
X012078Y011220D01*
X011966Y011220D01*
X011911Y011276D01*
X011789Y011388D02*
X011733Y011332D01*
X011565Y011332D01*
X011565Y011220D02*
X011565Y011555D01*
X011733Y011555D01*
X011789Y011499D01*
X011789Y011388D01*
X011444Y011555D02*
X011220Y011555D01*
X011332Y011555D02*
X011332Y011220D01*
X011332Y010055D02*
X011332Y009720D01*
X011565Y009720D02*
X011565Y010055D01*
X011733Y010055D01*
X011789Y009999D01*
X011789Y009888D01*
X011733Y009832D01*
X011565Y009832D01*
X011444Y010055D02*
X011220Y010055D01*
X011911Y009888D02*
X012078Y009888D01*
X012134Y009832D01*
X012134Y009776D01*
X012078Y009720D01*
X011966Y009720D01*
X011911Y009776D01*
X011911Y009888D01*
X012022Y009999D01*
X012134Y010055D01*
X006937Y022470D02*
X006817Y022470D01*
X006757Y022530D01*
X006817Y022650D02*
X006997Y022650D01*
X006997Y022530D02*
X006997Y022770D01*
X006937Y022830D01*
X006817Y022830D01*
X006757Y022770D01*
X006757Y022710D01*
X006817Y022650D01*
X006629Y022650D02*
X006568Y022590D01*
X006388Y022590D01*
X006388Y022470D02*
X006388Y022830D01*
X006568Y022830D01*
X006629Y022770D01*
X006629Y022650D01*
X006937Y022470D02*
X006997Y022530D01*
X006260Y022830D02*
X006140Y022830D01*
X006200Y022830D02*
X006200Y022530D01*
X006140Y022470D01*
X006080Y022470D01*
X006020Y022530D01*
X002129Y025980D02*
X002068Y025920D01*
X001948Y025920D01*
X001888Y025980D01*
X002008Y026100D02*
X002068Y026100D01*
X002129Y026040D01*
X002129Y025980D01*
X002068Y026100D02*
X002129Y026160D01*
X002129Y026220D01*
X002068Y026280D01*
X001948Y026280D01*
X001888Y026220D01*
X001760Y026220D02*
X001700Y026280D01*
X001520Y026280D01*
X001520Y025920D01*
X001520Y026040D02*
X001700Y026040D01*
X001760Y026100D01*
X001760Y026220D01*
X001710Y028080D02*
X001710Y028310D01*
X001786Y028387D01*
X001940Y028387D01*
X002017Y028310D01*
X002017Y028080D01*
X002170Y028080D02*
X001710Y028080D01*
X002017Y028233D02*
X002170Y028387D01*
X002170Y028540D02*
X001863Y028847D01*
X001786Y028847D01*
X001710Y028771D01*
X001710Y028617D01*
X001786Y028540D01*
X002170Y028540D02*
X002170Y028847D01*
X005620Y029420D02*
X005620Y029780D01*
X005800Y029780D01*
X005860Y029720D01*
X005860Y029600D01*
X005800Y029540D01*
X005620Y029540D01*
X005988Y029420D02*
X006229Y029660D01*
X006229Y029720D01*
X006168Y029780D01*
X006048Y029780D01*
X005988Y029720D01*
X005988Y029420D02*
X006229Y029420D01*
X009630Y029453D02*
X010090Y029453D01*
X010090Y029300D02*
X010090Y029607D01*
X009783Y029300D02*
X009630Y029453D01*
X009706Y029146D02*
X009630Y029069D01*
X009630Y028839D01*
X010090Y028839D01*
X009937Y028839D02*
X009937Y029069D01*
X009860Y029146D01*
X009706Y029146D01*
X009937Y028993D02*
X010090Y029146D01*
X012320Y034020D02*
X012320Y034380D01*
X012500Y034380D01*
X012560Y034320D01*
X012560Y034200D01*
X012500Y034140D01*
X012320Y034140D01*
X012688Y034020D02*
X012929Y034020D01*
X012808Y034020D02*
X012808Y034380D01*
X012688Y034260D01*
X033988Y009640D02*
X034218Y009640D01*
X034295Y009564D01*
X034295Y009410D01*
X034218Y009333D01*
X033988Y009333D01*
X033988Y009180D02*
X033988Y009640D01*
X034448Y009410D02*
X034755Y009410D01*
X034678Y009180D02*
X034678Y009640D01*
X034448Y009410D01*
X034365Y008090D02*
X034212Y008090D01*
X034289Y008090D02*
X034289Y007630D01*
X034365Y007630D02*
X034212Y007630D01*
X034519Y007707D02*
X034596Y007630D01*
X034749Y007630D01*
X034826Y007707D01*
X034979Y007707D02*
X035056Y007630D01*
X035209Y007630D01*
X035286Y007707D01*
X035286Y007783D01*
X035209Y007860D01*
X035056Y007860D01*
X034979Y007937D01*
X034979Y008014D01*
X035056Y008090D01*
X035209Y008090D01*
X035286Y008014D01*
X035440Y008090D02*
X035670Y008090D01*
X035747Y008014D01*
X035747Y007860D01*
X035670Y007783D01*
X035440Y007783D01*
X035440Y007630D02*
X035440Y008090D01*
X034826Y008014D02*
X034749Y008090D01*
X034596Y008090D01*
X034519Y008014D01*
X034519Y007707D01*
D20*
X018050Y002700D02*
X017950Y002700D01*
X015350Y002700D02*
X015250Y002700D01*
X016450Y008200D02*
X016550Y008200D01*
X006950Y009900D02*
X006850Y009900D01*
X002000Y016550D02*
X002000Y016650D01*
X002000Y018750D02*
X002000Y018850D01*
X002000Y020850D02*
X002000Y020950D01*
X006450Y021800D02*
X006550Y021800D01*
X008900Y021150D02*
X008900Y021050D01*
X008900Y023150D02*
X008900Y023250D01*
X005700Y017250D02*
X005700Y017150D01*
X018150Y017300D02*
X018250Y017300D01*
D21*
X015730Y014608D02*
X015705Y014608D01*
X015680Y014583D01*
X015680Y014533D01*
X015655Y014508D01*
X015630Y014508D01*
X015605Y014533D01*
X015605Y014583D01*
X015630Y014608D01*
X015655Y014608D01*
X015680Y014583D01*
X015680Y014533D02*
X015705Y014508D01*
X015730Y014508D01*
X015755Y014533D01*
X015755Y014583D01*
X015730Y014608D01*
X015755Y014460D02*
X015755Y014360D01*
X015755Y014313D02*
X015705Y014263D01*
X015705Y014288D02*
X015705Y014213D01*
X015755Y014213D02*
X015605Y014213D01*
X015605Y014288D01*
X015630Y014313D01*
X015680Y014313D01*
X015705Y014288D01*
X015655Y014360D02*
X015605Y014410D01*
X015755Y014410D01*
X016705Y011708D02*
X016855Y011708D01*
X016855Y011658D02*
X016855Y011758D01*
X016755Y011658D02*
X016705Y011708D01*
X016705Y011610D02*
X016830Y011610D01*
X016855Y011585D01*
X016855Y011535D01*
X016830Y011510D01*
X016705Y011510D01*
X020155Y012505D02*
X020155Y012655D01*
X020230Y012655D01*
X020255Y012630D01*
X020255Y012580D01*
X020230Y012555D01*
X020155Y012555D01*
X020205Y012555D02*
X020255Y012505D01*
X020302Y012505D02*
X020402Y012505D01*
X020352Y012505D02*
X020352Y012655D01*
X020302Y012605D01*
X020450Y012605D02*
X020475Y012580D01*
X020550Y012580D01*
X020550Y012530D02*
X020550Y012630D01*
X020525Y012655D01*
X020475Y012655D01*
X020450Y012630D01*
X020450Y012605D01*
X020450Y012530D02*
X020475Y012505D01*
X020525Y012505D01*
X020550Y012530D01*
X020527Y010855D02*
X020502Y010830D01*
X020527Y010855D02*
X020577Y010855D01*
X020602Y010830D01*
X020602Y010805D01*
X020502Y010705D01*
X020602Y010705D01*
X020650Y010730D02*
X020750Y010830D01*
X020750Y010730D01*
X020725Y010705D01*
X020675Y010705D01*
X020650Y010730D01*
X020650Y010830D01*
X020675Y010855D01*
X020725Y010855D01*
X020750Y010830D01*
X020455Y010830D02*
X020455Y010780D01*
X020430Y010755D01*
X020355Y010755D01*
X020355Y010705D02*
X020355Y010855D01*
X020430Y010855D01*
X020455Y010830D01*
X020405Y010755D02*
X020455Y010705D01*
X035034Y009941D02*
X035144Y009941D01*
X035144Y009905D02*
X035144Y009978D01*
X035071Y009905D02*
X035034Y009941D01*
D22*
X015300Y014300D03*
D23*
X020500Y012200D03*
X020700Y010400D03*
M02*
